%TF.GenerationSoftware,KiCad,Pcbnew,8.0.1*%
%TF.CreationDate,2024-07-17T12:18:51+09:00*%
%TF.ProjectId,Avi_73J_ParaBoard_v2,4176695f-3733-44a5-9f50-617261426f61,rev?*%
%TF.SameCoordinates,Original*%
%TF.FileFunction,Legend,Bot*%
%TF.FilePolarity,Positive*%
%FSLAX46Y46*%
G04 Gerber Fmt 4.6, Leading zero omitted, Abs format (unit mm)*
G04 Created by KiCad (PCBNEW 8.0.1) date 2024-07-17 12:18:51*
%MOMM*%
%LPD*%
G01*
G04 APERTURE LIST*
G04 Aperture macros list*
%AMRoundRect*
0 Rectangle with rounded corners*
0 $1 Rounding radius*
0 $2 $3 $4 $5 $6 $7 $8 $9 X,Y pos of 4 corners*
0 Add a 4 corners polygon primitive as box body*
4,1,4,$2,$3,$4,$5,$6,$7,$8,$9,$2,$3,0*
0 Add four circle primitives for the rounded corners*
1,1,$1+$1,$2,$3*
1,1,$1+$1,$4,$5*
1,1,$1+$1,$6,$7*
1,1,$1+$1,$8,$9*
0 Add four rect primitives between the rounded corners*
20,1,$1+$1,$2,$3,$4,$5,0*
20,1,$1+$1,$4,$5,$6,$7,0*
20,1,$1+$1,$6,$7,$8,$9,0*
20,1,$1+$1,$8,$9,$2,$3,0*%
G04 Aperture macros list end*
%ADD10C,0.150000*%
%ADD11C,0.120000*%
%ADD12C,0.152400*%
%ADD13O,1.511200X2.819200*%
%ADD14O,3.251200X1.727200*%
%ADD15RoundRect,0.237500X0.237500X-0.300000X0.237500X0.300000X-0.237500X0.300000X-0.237500X-0.300000X0*%
%ADD16C,0.660400*%
%ADD17R,2.159000X2.006600*%
%ADD18R,0.609600X1.143000*%
%ADD19R,0.304800X1.143000*%
%ADD20RoundRect,0.237500X-0.237500X0.300000X-0.237500X-0.300000X0.237500X-0.300000X0.237500X0.300000X0*%
%ADD21RoundRect,0.237500X0.300000X0.237500X-0.300000X0.237500X-0.300000X-0.237500X0.300000X-0.237500X0*%
%ADD22R,0.700000X1.200000*%
%ADD23R,1.000000X0.800000*%
%ADD24R,1.000000X2.800000*%
%ADD25R,1.000000X1.200000*%
%ADD26R,1.300000X1.900000*%
%ADD27RoundRect,0.237500X-0.300000X-0.237500X0.300000X-0.237500X0.300000X0.237500X-0.300000X0.237500X0*%
%ADD28RoundRect,0.218750X0.218750X0.256250X-0.218750X0.256250X-0.218750X-0.256250X0.218750X-0.256250X0*%
G04 APERTURE END LIST*
D10*
X162859580Y-100833333D02*
X162907200Y-100785714D01*
X162907200Y-100785714D02*
X162954819Y-100642857D01*
X162954819Y-100642857D02*
X162954819Y-100547619D01*
X162954819Y-100547619D02*
X162907200Y-100404762D01*
X162907200Y-100404762D02*
X162811961Y-100309524D01*
X162811961Y-100309524D02*
X162716723Y-100261905D01*
X162716723Y-100261905D02*
X162526247Y-100214286D01*
X162526247Y-100214286D02*
X162383390Y-100214286D01*
X162383390Y-100214286D02*
X162192914Y-100261905D01*
X162192914Y-100261905D02*
X162097676Y-100309524D01*
X162097676Y-100309524D02*
X162002438Y-100404762D01*
X162002438Y-100404762D02*
X161954819Y-100547619D01*
X161954819Y-100547619D02*
X161954819Y-100642857D01*
X161954819Y-100642857D02*
X162002438Y-100785714D01*
X162002438Y-100785714D02*
X162050057Y-100833333D01*
X162050057Y-101214286D02*
X162002438Y-101261905D01*
X162002438Y-101261905D02*
X161954819Y-101357143D01*
X161954819Y-101357143D02*
X161954819Y-101595238D01*
X161954819Y-101595238D02*
X162002438Y-101690476D01*
X162002438Y-101690476D02*
X162050057Y-101738095D01*
X162050057Y-101738095D02*
X162145295Y-101785714D01*
X162145295Y-101785714D02*
X162240533Y-101785714D01*
X162240533Y-101785714D02*
X162383390Y-101738095D01*
X162383390Y-101738095D02*
X162954819Y-101166667D01*
X162954819Y-101166667D02*
X162954819Y-101785714D01*
X156166666Y-76045180D02*
X156166666Y-75330895D01*
X156166666Y-75330895D02*
X156119047Y-75188038D01*
X156119047Y-75188038D02*
X156023809Y-75092800D01*
X156023809Y-75092800D02*
X155880952Y-75045180D01*
X155880952Y-75045180D02*
X155785714Y-75045180D01*
X156595238Y-75949942D02*
X156642857Y-75997561D01*
X156642857Y-75997561D02*
X156738095Y-76045180D01*
X156738095Y-76045180D02*
X156976190Y-76045180D01*
X156976190Y-76045180D02*
X157071428Y-75997561D01*
X157071428Y-75997561D02*
X157119047Y-75949942D01*
X157119047Y-75949942D02*
X157166666Y-75854704D01*
X157166666Y-75854704D02*
X157166666Y-75759466D01*
X157166666Y-75759466D02*
X157119047Y-75616609D01*
X157119047Y-75616609D02*
X156547619Y-75045180D01*
X156547619Y-75045180D02*
X157166666Y-75045180D01*
X149400000Y-80845180D02*
X149400000Y-80607085D01*
X149161905Y-80702323D02*
X149400000Y-80607085D01*
X149400000Y-80607085D02*
X149638095Y-80702323D01*
X149257143Y-80416609D02*
X149400000Y-80607085D01*
X149400000Y-80607085D02*
X149542857Y-80416609D01*
X165054819Y-102533333D02*
X164578628Y-102200000D01*
X165054819Y-101961905D02*
X164054819Y-101961905D01*
X164054819Y-101961905D02*
X164054819Y-102342857D01*
X164054819Y-102342857D02*
X164102438Y-102438095D01*
X164102438Y-102438095D02*
X164150057Y-102485714D01*
X164150057Y-102485714D02*
X164245295Y-102533333D01*
X164245295Y-102533333D02*
X164388152Y-102533333D01*
X164388152Y-102533333D02*
X164483390Y-102485714D01*
X164483390Y-102485714D02*
X164531009Y-102438095D01*
X164531009Y-102438095D02*
X164578628Y-102342857D01*
X164578628Y-102342857D02*
X164578628Y-101961905D01*
X164054819Y-103438095D02*
X164054819Y-102961905D01*
X164054819Y-102961905D02*
X164531009Y-102914286D01*
X164531009Y-102914286D02*
X164483390Y-102961905D01*
X164483390Y-102961905D02*
X164435771Y-103057143D01*
X164435771Y-103057143D02*
X164435771Y-103295238D01*
X164435771Y-103295238D02*
X164483390Y-103390476D01*
X164483390Y-103390476D02*
X164531009Y-103438095D01*
X164531009Y-103438095D02*
X164626247Y-103485714D01*
X164626247Y-103485714D02*
X164864342Y-103485714D01*
X164864342Y-103485714D02*
X164959580Y-103438095D01*
X164959580Y-103438095D02*
X165007200Y-103390476D01*
X165007200Y-103390476D02*
X165054819Y-103295238D01*
X165054819Y-103295238D02*
X165054819Y-103057143D01*
X165054819Y-103057143D02*
X165007200Y-102961905D01*
X165007200Y-102961905D02*
X164959580Y-102914286D01*
X159642857Y-83224819D02*
X159976190Y-82748628D01*
X160214285Y-83224819D02*
X160214285Y-82224819D01*
X160214285Y-82224819D02*
X159833333Y-82224819D01*
X159833333Y-82224819D02*
X159738095Y-82272438D01*
X159738095Y-82272438D02*
X159690476Y-82320057D01*
X159690476Y-82320057D02*
X159642857Y-82415295D01*
X159642857Y-82415295D02*
X159642857Y-82558152D01*
X159642857Y-82558152D02*
X159690476Y-82653390D01*
X159690476Y-82653390D02*
X159738095Y-82701009D01*
X159738095Y-82701009D02*
X159833333Y-82748628D01*
X159833333Y-82748628D02*
X160214285Y-82748628D01*
X158690476Y-83224819D02*
X159261904Y-83224819D01*
X158976190Y-83224819D02*
X158976190Y-82224819D01*
X158976190Y-82224819D02*
X159071428Y-82367676D01*
X159071428Y-82367676D02*
X159166666Y-82462914D01*
X159166666Y-82462914D02*
X159261904Y-82510533D01*
X158309523Y-82320057D02*
X158261904Y-82272438D01*
X158261904Y-82272438D02*
X158166666Y-82224819D01*
X158166666Y-82224819D02*
X157928571Y-82224819D01*
X157928571Y-82224819D02*
X157833333Y-82272438D01*
X157833333Y-82272438D02*
X157785714Y-82320057D01*
X157785714Y-82320057D02*
X157738095Y-82415295D01*
X157738095Y-82415295D02*
X157738095Y-82510533D01*
X157738095Y-82510533D02*
X157785714Y-82653390D01*
X157785714Y-82653390D02*
X158357142Y-83224819D01*
X158357142Y-83224819D02*
X157738095Y-83224819D01*
X162633333Y-107254819D02*
X162633333Y-107969104D01*
X162633333Y-107969104D02*
X162680952Y-108111961D01*
X162680952Y-108111961D02*
X162776190Y-108207200D01*
X162776190Y-108207200D02*
X162919047Y-108254819D01*
X162919047Y-108254819D02*
X163014285Y-108254819D01*
X161633333Y-108254819D02*
X162204761Y-108254819D01*
X161919047Y-108254819D02*
X161919047Y-107254819D01*
X161919047Y-107254819D02*
X162014285Y-107397676D01*
X162014285Y-107397676D02*
X162109523Y-107492914D01*
X162109523Y-107492914D02*
X162204761Y-107540533D01*
X161154819Y-102433333D02*
X160678628Y-102100000D01*
X161154819Y-101861905D02*
X160154819Y-101861905D01*
X160154819Y-101861905D02*
X160154819Y-102242857D01*
X160154819Y-102242857D02*
X160202438Y-102338095D01*
X160202438Y-102338095D02*
X160250057Y-102385714D01*
X160250057Y-102385714D02*
X160345295Y-102433333D01*
X160345295Y-102433333D02*
X160488152Y-102433333D01*
X160488152Y-102433333D02*
X160583390Y-102385714D01*
X160583390Y-102385714D02*
X160631009Y-102338095D01*
X160631009Y-102338095D02*
X160678628Y-102242857D01*
X160678628Y-102242857D02*
X160678628Y-101861905D01*
X160154819Y-102766667D02*
X160154819Y-103385714D01*
X160154819Y-103385714D02*
X160535771Y-103052381D01*
X160535771Y-103052381D02*
X160535771Y-103195238D01*
X160535771Y-103195238D02*
X160583390Y-103290476D01*
X160583390Y-103290476D02*
X160631009Y-103338095D01*
X160631009Y-103338095D02*
X160726247Y-103385714D01*
X160726247Y-103385714D02*
X160964342Y-103385714D01*
X160964342Y-103385714D02*
X161059580Y-103338095D01*
X161059580Y-103338095D02*
X161107200Y-103290476D01*
X161107200Y-103290476D02*
X161154819Y-103195238D01*
X161154819Y-103195238D02*
X161154819Y-102909524D01*
X161154819Y-102909524D02*
X161107200Y-102814286D01*
X161107200Y-102814286D02*
X161059580Y-102766667D01*
X169054819Y-106233333D02*
X168578628Y-105900000D01*
X169054819Y-105661905D02*
X168054819Y-105661905D01*
X168054819Y-105661905D02*
X168054819Y-106042857D01*
X168054819Y-106042857D02*
X168102438Y-106138095D01*
X168102438Y-106138095D02*
X168150057Y-106185714D01*
X168150057Y-106185714D02*
X168245295Y-106233333D01*
X168245295Y-106233333D02*
X168388152Y-106233333D01*
X168388152Y-106233333D02*
X168483390Y-106185714D01*
X168483390Y-106185714D02*
X168531009Y-106138095D01*
X168531009Y-106138095D02*
X168578628Y-106042857D01*
X168578628Y-106042857D02*
X168578628Y-105661905D01*
X168388152Y-107090476D02*
X169054819Y-107090476D01*
X168007200Y-106852381D02*
X168721485Y-106614286D01*
X168721485Y-106614286D02*
X168721485Y-107233333D01*
X172891666Y-118984819D02*
X173224999Y-118508628D01*
X173463094Y-118984819D02*
X173463094Y-117984819D01*
X173463094Y-117984819D02*
X173082142Y-117984819D01*
X173082142Y-117984819D02*
X172986904Y-118032438D01*
X172986904Y-118032438D02*
X172939285Y-118080057D01*
X172939285Y-118080057D02*
X172891666Y-118175295D01*
X172891666Y-118175295D02*
X172891666Y-118318152D01*
X172891666Y-118318152D02*
X172939285Y-118413390D01*
X172939285Y-118413390D02*
X172986904Y-118461009D01*
X172986904Y-118461009D02*
X173082142Y-118508628D01*
X173082142Y-118508628D02*
X173463094Y-118508628D01*
X172558332Y-117984819D02*
X171891666Y-117984819D01*
X171891666Y-117984819D02*
X172320237Y-118984819D01*
X173438094Y-122054819D02*
X173438094Y-121054819D01*
X173438094Y-121054819D02*
X173199999Y-121054819D01*
X173199999Y-121054819D02*
X173057142Y-121102438D01*
X173057142Y-121102438D02*
X172961904Y-121197676D01*
X172961904Y-121197676D02*
X172914285Y-121292914D01*
X172914285Y-121292914D02*
X172866666Y-121483390D01*
X172866666Y-121483390D02*
X172866666Y-121626247D01*
X172866666Y-121626247D02*
X172914285Y-121816723D01*
X172914285Y-121816723D02*
X172961904Y-121911961D01*
X172961904Y-121911961D02*
X173057142Y-122007200D01*
X173057142Y-122007200D02*
X173199999Y-122054819D01*
X173199999Y-122054819D02*
X173438094Y-122054819D01*
X171914285Y-122054819D02*
X172485713Y-122054819D01*
X172199999Y-122054819D02*
X172199999Y-121054819D01*
X172199999Y-121054819D02*
X172295237Y-121197676D01*
X172295237Y-121197676D02*
X172390475Y-121292914D01*
X172390475Y-121292914D02*
X172485713Y-121340533D01*
X154642857Y-83324819D02*
X154976190Y-82848628D01*
X155214285Y-83324819D02*
X155214285Y-82324819D01*
X155214285Y-82324819D02*
X154833333Y-82324819D01*
X154833333Y-82324819D02*
X154738095Y-82372438D01*
X154738095Y-82372438D02*
X154690476Y-82420057D01*
X154690476Y-82420057D02*
X154642857Y-82515295D01*
X154642857Y-82515295D02*
X154642857Y-82658152D01*
X154642857Y-82658152D02*
X154690476Y-82753390D01*
X154690476Y-82753390D02*
X154738095Y-82801009D01*
X154738095Y-82801009D02*
X154833333Y-82848628D01*
X154833333Y-82848628D02*
X155214285Y-82848628D01*
X153690476Y-83324819D02*
X154261904Y-83324819D01*
X153976190Y-83324819D02*
X153976190Y-82324819D01*
X153976190Y-82324819D02*
X154071428Y-82467676D01*
X154071428Y-82467676D02*
X154166666Y-82562914D01*
X154166666Y-82562914D02*
X154261904Y-82610533D01*
X152738095Y-83324819D02*
X153309523Y-83324819D01*
X153023809Y-83324819D02*
X153023809Y-82324819D01*
X153023809Y-82324819D02*
X153119047Y-82467676D01*
X153119047Y-82467676D02*
X153214285Y-82562914D01*
X153214285Y-82562914D02*
X153309523Y-82610533D01*
D11*
%TO.C,C2*%
X161890000Y-103528733D02*
X161890000Y-103821267D01*
X162910000Y-103528733D02*
X162910000Y-103821267D01*
D12*
%TO.C,J2*%
X150319100Y-72785200D02*
X150319100Y-74421760D01*
X150319100Y-77093840D02*
X150319100Y-78351760D01*
X152296534Y-81014800D02*
X152465671Y-81014800D01*
X160034326Y-81014800D02*
X160203466Y-81014800D01*
X162180900Y-72785200D02*
X150319100Y-72785200D01*
X162180900Y-74421760D02*
X162180900Y-72785200D01*
X162180900Y-78351760D02*
X162180900Y-77093840D01*
D11*
%TO.C,R5*%
X163990000Y-105533767D02*
X163990000Y-105241233D01*
X165010000Y-105533767D02*
X165010000Y-105241233D01*
%TO.C,R12*%
X158853733Y-83690000D02*
X159146267Y-83690000D01*
X158853733Y-84710000D02*
X159146267Y-84710000D01*
%TO.C,J1*%
X155230000Y-109440000D02*
X157150000Y-109440000D01*
X155230000Y-123450000D02*
X155230000Y-109440000D01*
X156450000Y-125510000D02*
X156710000Y-125510000D01*
X156710000Y-125510000D02*
X156910000Y-125710000D01*
X159220000Y-125710000D02*
X156910000Y-125710000D01*
X159730000Y-125360000D02*
X159220000Y-125710000D01*
X159730000Y-125360000D02*
X166100000Y-125360000D01*
X166100000Y-125510000D02*
X166100000Y-125360000D01*
X166100000Y-125510000D02*
X166310000Y-125710000D01*
X166310000Y-125710000D02*
X168170000Y-125710000D01*
X168370000Y-125510000D02*
X168170000Y-125710000D01*
X169200000Y-109440000D02*
X168750000Y-109440000D01*
X169200000Y-113050000D02*
X169200000Y-109440000D01*
X169200000Y-119450000D02*
X169200000Y-114750000D01*
X169200000Y-122550000D02*
X169200000Y-120750000D01*
%TO.C,R3*%
X159990000Y-105446267D02*
X159990000Y-105153733D01*
X161010000Y-105446267D02*
X161010000Y-105153733D01*
%TO.C,R4*%
X166590000Y-105846267D02*
X166590000Y-105553733D01*
X167610000Y-105846267D02*
X167610000Y-105553733D01*
%TO.C,R7*%
X172871267Y-116590000D02*
X172578733Y-116590000D01*
X172871267Y-117610000D02*
X172578733Y-117610000D01*
%TO.C,D1*%
X171912500Y-120835000D02*
X174197500Y-120835000D01*
X174197500Y-119365000D02*
X171912500Y-119365000D01*
X174197500Y-120835000D02*
X174197500Y-119365000D01*
%TO.C,R11*%
X153853733Y-83790000D02*
X154146267Y-83790000D01*
X153853733Y-84810000D02*
X154146267Y-84810000D01*
%TD*%
%LPC*%
D13*
%TO.C,LPS25HB-1*%
X143000000Y-101700000D03*
X145540000Y-101700000D03*
X148080000Y-101700000D03*
X150620000Y-101700000D03*
X150620000Y-94080000D03*
X148080000Y-94080000D03*
X145540000Y-94080000D03*
X143000000Y-94080000D03*
%TD*%
%TO.C,ICM-20602-1*%
X141675000Y-116050000D03*
X144215000Y-116050000D03*
X146755000Y-116050000D03*
X149295000Y-116050000D03*
X151835000Y-116050000D03*
X151835000Y-108430000D03*
X149295000Y-108430000D03*
X146755000Y-108430000D03*
X144215000Y-108430000D03*
X141675000Y-108430000D03*
%TD*%
D14*
%TO.C,ILG-2P4*%
X130475000Y-103450000D03*
X130475000Y-100950000D03*
%TD*%
%TO.C,ILG-2P3*%
X130575000Y-90200000D03*
X130575000Y-87700000D03*
%TD*%
%TO.C,ILG-2P1*%
X130475000Y-111050000D03*
X130475000Y-108550000D03*
%TD*%
%TO.C,ILG-3P1*%
X169475000Y-82100000D03*
X169475000Y-84600000D03*
X169475000Y-87100000D03*
%TD*%
%TO.C,ILG-2P2*%
X130525000Y-117500000D03*
X130525000Y-115000000D03*
%TD*%
D15*
%TO.C,C2*%
X162400000Y-104537500D03*
X162400000Y-102812500D03*
%TD*%
D16*
%TO.C,J2*%
X153359999Y-79187800D03*
X159140001Y-79187800D03*
D17*
X151140000Y-79687800D03*
X161360000Y-79687800D03*
X151140000Y-75757800D03*
X161360000Y-75757800D03*
D18*
X153049999Y-80262800D03*
X153850000Y-80262800D03*
D19*
X155000000Y-80262800D03*
X156000000Y-80262800D03*
X156500000Y-80262800D03*
X157500000Y-80262800D03*
D18*
X158650000Y-80262800D03*
X159449999Y-80262800D03*
D19*
X157999999Y-80262800D03*
X157000001Y-80262800D03*
X155499999Y-80262800D03*
X154500001Y-80262800D03*
%TD*%
D20*
%TO.C,R5*%
X164500000Y-104525000D03*
X164500000Y-106250000D03*
%TD*%
D21*
%TO.C,R12*%
X159862500Y-84200000D03*
X158137500Y-84200000D03*
%TD*%
D22*
%TO.C,J1*%
X159450000Y-109600000D03*
X160550000Y-109600000D03*
X161650000Y-109600000D03*
X162750000Y-109600000D03*
X163850000Y-109600000D03*
X164950000Y-109600000D03*
X166050000Y-109600000D03*
X167150000Y-109600000D03*
X168100000Y-109600000D03*
D23*
X169050000Y-120100000D03*
D24*
X169050000Y-124250000D03*
D25*
X169050000Y-113900000D03*
X157900000Y-109600000D03*
D26*
X155550000Y-124700000D03*
%TD*%
D20*
%TO.C,R3*%
X160500000Y-104437500D03*
X160500000Y-106162500D03*
%TD*%
%TO.C,R4*%
X167100000Y-104837500D03*
X167100000Y-106562500D03*
%TD*%
D27*
%TO.C,R7*%
X171862500Y-117100000D03*
X173587500Y-117100000D03*
%TD*%
D28*
%TO.C,D1*%
X173500000Y-120100000D03*
X171925000Y-120100000D03*
%TD*%
D21*
%TO.C,R11*%
X154862500Y-84300000D03*
X153137500Y-84300000D03*
%TD*%
%LPD*%
M02*
