%TF.GenerationSoftware,KiCad,Pcbnew,8.0.1*%
%TF.CreationDate,2024-07-17T12:18:51+09:00*%
%TF.ProjectId,Avi_73J_ParaBoard_v2,4176695f-3733-44a5-9f50-617261426f61,rev?*%
%TF.SameCoordinates,Original*%
%TF.FileFunction,Soldermask,Bot*%
%TF.FilePolarity,Negative*%
%FSLAX46Y46*%
G04 Gerber Fmt 4.6, Leading zero omitted, Abs format (unit mm)*
G04 Created by KiCad (PCBNEW 8.0.1) date 2024-07-17 12:18:51*
%MOMM*%
%LPD*%
G01*
G04 APERTURE LIST*
G04 Aperture macros list*
%AMRoundRect*
0 Rectangle with rounded corners*
0 $1 Rounding radius*
0 $2 $3 $4 $5 $6 $7 $8 $9 X,Y pos of 4 corners*
0 Add a 4 corners polygon primitive as box body*
4,1,4,$2,$3,$4,$5,$6,$7,$8,$9,$2,$3,0*
0 Add four circle primitives for the rounded corners*
1,1,$1+$1,$2,$3*
1,1,$1+$1,$4,$5*
1,1,$1+$1,$6,$7*
1,1,$1+$1,$8,$9*
0 Add four rect primitives between the rounded corners*
20,1,$1+$1,$2,$3,$4,$5,0*
20,1,$1+$1,$4,$5,$6,$7,0*
20,1,$1+$1,$6,$7,$8,$9,0*
20,1,$1+$1,$8,$9,$2,$3,0*%
G04 Aperture macros list end*
%ADD10O,1.511200X2.819200*%
%ADD11O,3.251200X1.727200*%
%ADD12RoundRect,0.237500X0.237500X-0.300000X0.237500X0.300000X-0.237500X0.300000X-0.237500X-0.300000X0*%
%ADD13C,0.660400*%
%ADD14R,2.159000X2.006600*%
%ADD15R,0.609600X1.143000*%
%ADD16R,0.304800X1.143000*%
%ADD17RoundRect,0.237500X-0.237500X0.300000X-0.237500X-0.300000X0.237500X-0.300000X0.237500X0.300000X0*%
%ADD18RoundRect,0.237500X0.300000X0.237500X-0.300000X0.237500X-0.300000X-0.237500X0.300000X-0.237500X0*%
%ADD19R,0.700000X1.200000*%
%ADD20R,1.000000X0.800000*%
%ADD21R,1.000000X2.800000*%
%ADD22R,1.000000X1.200000*%
%ADD23R,1.300000X1.900000*%
%ADD24RoundRect,0.237500X-0.300000X-0.237500X0.300000X-0.237500X0.300000X0.237500X-0.300000X0.237500X0*%
%ADD25RoundRect,0.218750X0.218750X0.256250X-0.218750X0.256250X-0.218750X-0.256250X0.218750X-0.256250X0*%
G04 APERTURE END LIST*
D10*
%TO.C,LPS25HB-1*%
X143000000Y-101700000D03*
X145540000Y-101700000D03*
X148080000Y-101700000D03*
X150620000Y-101700000D03*
X150620000Y-94080000D03*
X148080000Y-94080000D03*
X145540000Y-94080000D03*
X143000000Y-94080000D03*
%TD*%
%TO.C,ICM-20602-1*%
X141675000Y-116050000D03*
X144215000Y-116050000D03*
X146755000Y-116050000D03*
X149295000Y-116050000D03*
X151835000Y-116050000D03*
X151835000Y-108430000D03*
X149295000Y-108430000D03*
X146755000Y-108430000D03*
X144215000Y-108430000D03*
X141675000Y-108430000D03*
%TD*%
D11*
%TO.C,ILG-2P4*%
X130475000Y-103450000D03*
X130475000Y-100950000D03*
%TD*%
%TO.C,ILG-2P3*%
X130575000Y-90200000D03*
X130575000Y-87700000D03*
%TD*%
%TO.C,ILG-2P1*%
X130475000Y-111050000D03*
X130475000Y-108550000D03*
%TD*%
%TO.C,ILG-3P1*%
X169475000Y-82100000D03*
X169475000Y-84600000D03*
X169475000Y-87100000D03*
%TD*%
%TO.C,ILG-2P2*%
X130525000Y-117500000D03*
X130525000Y-115000000D03*
%TD*%
D12*
%TO.C,C2*%
X162400000Y-104537500D03*
X162400000Y-102812500D03*
%TD*%
D13*
%TO.C,J2*%
X153359999Y-79187800D03*
X159140001Y-79187800D03*
D14*
X151140000Y-79687800D03*
X161360000Y-79687800D03*
X151140000Y-75757800D03*
X161360000Y-75757800D03*
D15*
X153049999Y-80262800D03*
X153850000Y-80262800D03*
D16*
X155000000Y-80262800D03*
X156000000Y-80262800D03*
X156500000Y-80262800D03*
X157500000Y-80262800D03*
D15*
X158650000Y-80262800D03*
X159449999Y-80262800D03*
D16*
X157999999Y-80262800D03*
X157000001Y-80262800D03*
X155499999Y-80262800D03*
X154500001Y-80262800D03*
%TD*%
D17*
%TO.C,R5*%
X164500000Y-104525000D03*
X164500000Y-106250000D03*
%TD*%
D18*
%TO.C,R12*%
X159862500Y-84200000D03*
X158137500Y-84200000D03*
%TD*%
D19*
%TO.C,J1*%
X159450000Y-109600000D03*
X160550000Y-109600000D03*
X161650000Y-109600000D03*
X162750000Y-109600000D03*
X163850000Y-109600000D03*
X164950000Y-109600000D03*
X166050000Y-109600000D03*
X167150000Y-109600000D03*
X168100000Y-109600000D03*
D20*
X169050000Y-120100000D03*
D21*
X169050000Y-124250000D03*
D22*
X169050000Y-113900000D03*
X157900000Y-109600000D03*
D23*
X155550000Y-124700000D03*
%TD*%
D17*
%TO.C,R3*%
X160500000Y-104437500D03*
X160500000Y-106162500D03*
%TD*%
%TO.C,R4*%
X167100000Y-104837500D03*
X167100000Y-106562500D03*
%TD*%
D24*
%TO.C,R7*%
X171862500Y-117100000D03*
X173587500Y-117100000D03*
%TD*%
D25*
%TO.C,D1*%
X173500000Y-120100000D03*
X171925000Y-120100000D03*
%TD*%
D18*
%TO.C,R11*%
X154862500Y-84300000D03*
X153137500Y-84300000D03*
%TD*%
M02*
