M48
; DRILL file {KiCad 8.0.1} date 2024-07-17T12:18:51+0900
; FORMAT={-:-/ absolute / inch / decimal}
; #@! TF.CreationDate,2024-07-17T12:18:51+09:00
; #@! TF.GenerationSoftware,Kicad,Pcbnew,8.0.1
; #@! TF.FileFunction,Plated,1,2,PTH
FMAT,2
INCH
; #@! TA.AperFunction,Plated,PTH,ComponentDrill
T1C0.0079
; #@! TA.AperFunction,Plated,PTH,ViaDrill
T2C0.0118
; #@! TA.AperFunction,Plated,PTH,ComponentDrill
T3C0.0315
; #@! TA.AperFunction,Plated,PTH,ComponentDrill
T4C0.0400
%
G90
G05
T1
X6.5781Y-3.9882
X6.5781Y-4.0433
X6.6056Y-3.9606
X6.6056Y-4.0148
X6.6056Y-4.0709
X6.6332Y-3.9882
X6.6332Y-4.0433
X6.6607Y-3.9606
X6.6607Y-4.0148
X6.6607Y-4.0709
X6.6883Y-3.9882
X6.6883Y-4.0433
T2
X4.8504Y-3.0787
X4.8622Y-3.2362
X4.9016Y-4.5906
X4.9094Y-4.7756
X4.9173Y-4.2677
X4.9213Y-4.3346
X4.9331Y-4.0236
X4.9488Y-3.5157
X5.0463Y-4.5768
X5.0512Y-4.7244
X5.0551Y-4.185
X5.0591Y-4.3268
X5.0787Y-2.9291
X5.122Y-4.8307
X5.1299Y-4.9646
X5.1417Y-3.0669
X5.1654Y-2.9291
X5.1929Y-4.4567
X5.2008Y-4.7165
X5.2087Y-4.5748
X5.2165Y-4.2244
X5.2165Y-4.3228
X5.2165Y-4.626
X5.2283Y-4.9291
X5.2598Y-3.5827
X5.2638Y-4.5276
X5.2717Y-3.7638
X5.2835Y-3.2441
X5.2835Y-4.874
X5.2953Y-2.9803
X5.3031Y-4.0039
X5.3228Y-4.7953
X5.3425Y-4.2008
X5.3504Y-4.4803
X5.3858Y-4.3425
X5.4016Y-3.3661
X5.4173Y-3.8976
X5.437Y-4.8858
X5.437Y-4.9843
X5.4409Y-4.6496
X5.4528Y-3.5276
X5.4528Y-4.2008
X5.4606Y-2.9252
X5.4685Y-3.7244
X5.4685Y-4.0551
X5.5276Y-3.2244
X5.5354Y-4.7205
X5.5433Y-3.0157
X5.5512Y-3.4134
X5.5748Y-3.8543
X5.6339Y-4.8839
X5.6378Y-4.437
X5.7598Y-3.0157
X5.7598Y-3.4173
X5.7598Y-4.752
X5.7756Y-4.4193
X5.7795Y-3.8642
X5.811Y-3.2323
X5.8268Y-4.9961
X5.8346Y-3.6063
X5.8465Y-2.937
X5.8543Y-3.1181
X5.8701Y-3.9331
X5.8898Y-4.7717
X5.8976Y-3.3071
X5.9055Y-3.4213
X5.9331Y-3.4646
X5.9409Y-4.6654
X5.9449Y-2.8898
X5.9646Y-3.8425
X5.9764Y-4.8858
X5.9843Y-4.1496
X5.9961Y-3.3819
X5.9961Y-3.4606
X5.9961Y-3.5157
X6.0118Y-3.2008
X6.0236Y-3.9331
X6.0394Y-3.0118
X6.0394Y-4.0669
X6.0394Y-4.374
X6.0433Y-3.6299
X6.062Y-3.5079
X6.0669Y-4.6063
X6.0709Y-4.5118
X6.0787Y-3.2021
X6.0906Y-4.2598
X6.0984Y-4.4803
X6.1142Y-3.3819
X6.122Y-3.1142
X6.1378Y-3.7913
X6.1378Y-4.2764
X6.1378Y-4.3504
X6.1378Y-4.7756
X6.1496Y-3.6732
X6.1496Y-3.9331
X6.1496Y-4.063
X6.1614Y-3.2126
X6.1614Y-3.5197
X6.1654Y-2.8898
X6.1654Y-3.0118
X6.1811Y-4.0039
X6.1811Y-4.1614
X6.185Y-3.3465
X6.1929Y-3.2047
X6.2008Y-3.626
X6.2165Y-4.4134
X6.2323Y-4.8583
X6.2362Y-4.622
X6.252Y-4.3701
X6.2598Y-3.0118
X6.2677Y-3.2205
X6.2913Y-4.2638
X6.3071Y-4.0472
X6.315Y-3.7992
X6.3425Y-3.4213
X6.3465Y-4.5945
X6.3543Y-3.5197
X6.3583Y-2.8898
X6.3583Y-4.3701
X6.3756Y-4.7527
X6.3898Y-4.4921
X6.3937Y-3.2559
X6.4134Y-3.9055
X6.4213Y-4.8898
X6.4291Y-4.3661
X6.437Y-3.4409
X6.4449Y-4.2402
X6.4488Y-4.7992
X6.4606Y-2.8937
X6.4685Y-3.0118
X6.4685Y-4.3661
X6.4803Y-3.2835
X6.4921Y-3.122
X6.4921Y-4.0591
X6.5079Y-3.5709
X6.5118Y-3.811
X6.5236Y-4.2559
X6.5354Y-4.3661
X6.5354Y-4.8189
X6.5551Y-3.4646
X6.5591Y-4.6142
X6.5669Y-4.4961
X6.5748Y-4.3701
X6.5866Y-3.2913
X6.6181Y-4.3661
X6.626Y-3.1732
X6.6358Y-3.5925
X6.6417Y-4.1772
X6.6496Y-3.8425
X6.6772Y-3.5472
X6.685Y-3.6575
X6.6929Y-4.3661
X6.6969Y-4.1255
X6.6969Y-4.252
X6.7008Y-2.9567
X6.7165Y-4.9606
X6.7205Y-3.1299
X6.7323Y-4.4882
X6.7371Y-4.3574
X6.7441Y-4.8071
X6.752Y-2.8819
X6.7871Y-4.3586
X6.7874Y-3.6654
X6.8189Y-3.1969
X6.8228Y-4.2992
X6.8307Y-3.3504
X6.8307Y-3.8031
X6.8307Y-3.9409
X6.8346Y-3.4882
X6.8346Y-4.3661
X6.8504Y-4.2638
X6.8976Y-4.0157
X6.9409Y-4.6693
X6.9528Y-3.0827
X6.9528Y-3.5945
X6.9528Y-4.2559
X6.9567Y-3.2205
X6.9567Y-3.4488
X6.9567Y-4.1299
T3
X5.5778Y-4.2689
X5.5778Y-4.5689
X5.6299Y-3.7039
X5.6299Y-4.0039
X5.6778Y-4.2689
X5.6778Y-4.5689
X5.7299Y-3.7039
X5.7299Y-4.0039
X5.7778Y-4.2689
X5.7778Y-4.5689
X5.8299Y-3.7039
X5.8299Y-4.0039
X5.8778Y-4.2689
X5.8778Y-4.5689
X5.9299Y-3.7039
X5.9299Y-4.0039
X5.9778Y-4.2689
X5.9778Y-4.5689
T4
X5.1368Y-3.9744
X5.1368Y-4.0728
X5.1368Y-4.2736
X5.1368Y-4.372
X5.1388Y-4.5276
X5.1388Y-4.626
X5.1407Y-3.4528
X5.1407Y-3.5512
X6.6722Y-3.2323
X6.6722Y-3.3307
X6.6722Y-3.4291
M30
