%TF.GenerationSoftware,KiCad,Pcbnew,8.0.1*%
%TF.CreationDate,2024-07-17T12:18:51+09:00*%
%TF.ProjectId,Avi_73J_ParaBoard_v2,4176695f-3733-44a5-9f50-617261426f61,rev?*%
%TF.SameCoordinates,Original*%
%TF.FileFunction,Copper,L2,Bot*%
%TF.FilePolarity,Positive*%
%FSLAX46Y46*%
G04 Gerber Fmt 4.6, Leading zero omitted, Abs format (unit mm)*
G04 Created by KiCad (PCBNEW 8.0.1) date 2024-07-17 12:18:51*
%MOMM*%
%LPD*%
G01*
G04 APERTURE LIST*
G04 Aperture macros list*
%AMRoundRect*
0 Rectangle with rounded corners*
0 $1 Rounding radius*
0 $2 $3 $4 $5 $6 $7 $8 $9 X,Y pos of 4 corners*
0 Add a 4 corners polygon primitive as box body*
4,1,4,$2,$3,$4,$5,$6,$7,$8,$9,$2,$3,0*
0 Add four circle primitives for the rounded corners*
1,1,$1+$1,$2,$3*
1,1,$1+$1,$4,$5*
1,1,$1+$1,$6,$7*
1,1,$1+$1,$8,$9*
0 Add four rect primitives between the rounded corners*
20,1,$1+$1,$2,$3,$4,$5,0*
20,1,$1+$1,$4,$5,$6,$7,0*
20,1,$1+$1,$6,$7,$8,$9,0*
20,1,$1+$1,$8,$9,$2,$3,0*%
G04 Aperture macros list end*
%TA.AperFunction,ComponentPad*%
%ADD10O,1.308000X2.616000*%
%TD*%
%TA.AperFunction,ComponentPad*%
%ADD11O,3.048000X1.524000*%
%TD*%
%TA.AperFunction,HeatsinkPad*%
%ADD12C,0.600000*%
%TD*%
%TA.AperFunction,SMDPad,CuDef*%
%ADD13RoundRect,0.237500X0.237500X-0.300000X0.237500X0.300000X-0.237500X0.300000X-0.237500X-0.300000X0*%
%TD*%
%TA.AperFunction,SMDPad,CuDef*%
%ADD14R,2.159000X2.006600*%
%TD*%
%TA.AperFunction,SMDPad,CuDef*%
%ADD15R,0.609600X1.143000*%
%TD*%
%TA.AperFunction,SMDPad,CuDef*%
%ADD16R,0.304800X1.143000*%
%TD*%
%TA.AperFunction,SMDPad,CuDef*%
%ADD17RoundRect,0.237500X-0.237500X0.300000X-0.237500X-0.300000X0.237500X-0.300000X0.237500X0.300000X0*%
%TD*%
%TA.AperFunction,SMDPad,CuDef*%
%ADD18RoundRect,0.237500X0.300000X0.237500X-0.300000X0.237500X-0.300000X-0.237500X0.300000X-0.237500X0*%
%TD*%
%TA.AperFunction,SMDPad,CuDef*%
%ADD19R,0.700000X1.200000*%
%TD*%
%TA.AperFunction,SMDPad,CuDef*%
%ADD20R,1.000000X0.800000*%
%TD*%
%TA.AperFunction,SMDPad,CuDef*%
%ADD21R,1.000000X2.800000*%
%TD*%
%TA.AperFunction,SMDPad,CuDef*%
%ADD22R,1.000000X1.200000*%
%TD*%
%TA.AperFunction,SMDPad,CuDef*%
%ADD23R,1.300000X1.900000*%
%TD*%
%TA.AperFunction,SMDPad,CuDef*%
%ADD24RoundRect,0.237500X-0.300000X-0.237500X0.300000X-0.237500X0.300000X0.237500X-0.300000X0.237500X0*%
%TD*%
%TA.AperFunction,SMDPad,CuDef*%
%ADD25RoundRect,0.218750X0.218750X0.256250X-0.218750X0.256250X-0.218750X-0.256250X0.218750X-0.256250X0*%
%TD*%
%TA.AperFunction,ViaPad*%
%ADD26C,0.600000*%
%TD*%
%TA.AperFunction,Conductor*%
%ADD27C,0.200000*%
%TD*%
%TA.AperFunction,Conductor*%
%ADD28C,0.800000*%
%TD*%
%TA.AperFunction,Conductor*%
%ADD29C,0.300000*%
%TD*%
G04 APERTURE END LIST*
D10*
%TO.P,LPS25HB-1,1,VDD*%
%TO.N,3.3V*%
X143000000Y-101700000D03*
%TO.P,LPS25HB-1,2,SCL/SPC*%
%TO.N,SPC*%
X145540000Y-101700000D03*
%TO.P,LPS25HB-1,3,SDA/SDI*%
%TO.N,MOSI*%
X148080000Y-101700000D03*
%TO.P,LPS25HB-1,4,SDO*%
%TO.N,MISO*%
X150620000Y-101700000D03*
%TO.P,LPS25HB-1,5,CS*%
%TO.N,LPS_CS*%
X150620000Y-94080000D03*
%TO.P,LPS25HB-1,6,NC*%
%TO.N,unconnected-(LPS25HB-1-NC-Pad6)*%
X148080000Y-94080000D03*
%TO.P,LPS25HB-1,7,INT*%
%TO.N,unconnected-(LPS25HB-1-INT-Pad7)*%
X145540000Y-94080000D03*
%TO.P,LPS25HB-1,8,GND*%
%TO.N,GND*%
X143000000Y-94080000D03*
%TD*%
%TO.P,ICM-20602-1,1,VIO*%
%TO.N,3.3V*%
X141675000Y-116050000D03*
%TO.P,ICM-20602-1,2,SC*%
%TO.N,SPC*%
X144215000Y-116050000D03*
%TO.P,ICM-20602-1,3,SI*%
%TO.N,MOSI*%
X146755000Y-116050000D03*
%TO.P,ICM-20602-1,4,SO*%
%TO.N,MISO*%
X149295000Y-116050000D03*
%TO.P,ICM-20602-1,5,CS*%
%TO.N,ICM_CS*%
X151835000Y-116050000D03*
%TO.P,ICM-20602-1,6,REV*%
%TO.N,unconnected-(ICM-20602-1-REV-Pad6)*%
X151835000Y-108430000D03*
%TO.P,ICM-20602-1,7,INT*%
%TO.N,unconnected-(ICM-20602-1-INT-Pad7)*%
X149295000Y-108430000D03*
%TO.P,ICM-20602-1,8,FSY*%
%TO.N,GND*%
X146755000Y-108430000D03*
%TO.P,ICM-20602-1,9,GND*%
X144215000Y-108430000D03*
%TO.P,ICM-20602-1,10,VDD*%
%TO.N,3.3V*%
X141675000Y-108430000D03*
%TD*%
D11*
%TO.P,ILG-2P4,1,1*%
%TO.N,GND*%
X130475000Y-103450000D03*
%TO.P,ILG-2P4,2,2*%
%TO.N,VCC_ACTUATOR*%
X130475000Y-100950000D03*
%TD*%
%TO.P,ILG-2P3,1,1*%
%TO.N,GND*%
X130575000Y-90200000D03*
%TO.P,ILG-2P3,2,2*%
%TO.N,VCC_LOGIC*%
X130575000Y-87700000D03*
%TD*%
%TO.P,ILG-2P1,1,1*%
%TO.N,CAN_H*%
X130475000Y-111050000D03*
%TO.P,ILG-2P1,2,2*%
%TO.N,CAN_L*%
X130475000Y-108550000D03*
%TD*%
%TO.P,ILG-3P1,1,1*%
%TO.N,SERVO_PIN*%
X169475000Y-82100000D03*
%TO.P,ILG-3P1,2,2*%
%TO.N,5V*%
X169475000Y-84600000D03*
%TO.P,ILG-3P1,3,3*%
%TO.N,GND*%
X169475000Y-87100000D03*
%TD*%
D12*
%TO.P,U1,39,GND*%
%TO.N,GND*%
X169182500Y-100600000D03*
X167782500Y-100600000D03*
X169882500Y-101300000D03*
X168482500Y-101300000D03*
X167082500Y-101300000D03*
X169182500Y-101975000D03*
X167782500Y-101975000D03*
X169882500Y-102700000D03*
X168482500Y-102700000D03*
X167082500Y-102700000D03*
X169182500Y-103400000D03*
X167782500Y-103400000D03*
%TD*%
D11*
%TO.P,ILG-2P2,1,1*%
%TO.N,CAN_H*%
X130525000Y-117500000D03*
%TO.P,ILG-2P2,2,2*%
%TO.N,CAN_L*%
X130525000Y-115000000D03*
%TD*%
D13*
%TO.P,C2,1*%
%TO.N,3.3V*%
X162400000Y-104537500D03*
%TO.P,C2,2*%
%TO.N,GND*%
X162400000Y-102812500D03*
%TD*%
D14*
%TO.P,J2,15*%
%TO.N,N/C*%
X151140000Y-79687800D03*
%TO.P,J2,16*%
X161360000Y-79687800D03*
%TO.P,J2,17*%
X151140000Y-75757800D03*
%TO.P,J2,18*%
X161360000Y-75757800D03*
D15*
%TO.P,J2,A1-B12,GND*%
%TO.N,GND*%
X153049999Y-80262800D03*
%TO.P,J2,A4-B9,VBUS*%
%TO.N,VBUS*%
X153850000Y-80262800D03*
D16*
%TO.P,J2,A5,CC1*%
%TO.N,CC1*%
X155000000Y-80262800D03*
%TO.P,J2,A6,DP1*%
%TO.N,USBDP*%
X156000000Y-80262800D03*
%TO.P,J2,A7,DN1*%
%TO.N,USBDM*%
X156500000Y-80262800D03*
%TO.P,J2,A8,SBU1*%
%TO.N,unconnected-(J2-SBU1-PadA8)*%
X157500000Y-80262800D03*
D15*
%TO.P,J2,A9-B4,VBUS*%
%TO.N,VBUS*%
X158650000Y-80262800D03*
%TO.P,J2,A12-B1,GND*%
%TO.N,GND*%
X159449999Y-80262800D03*
D16*
%TO.P,J2,B5,CC2*%
%TO.N,CC2*%
X157999999Y-80262800D03*
%TO.P,J2,B6,DP2*%
%TO.N,USBDP*%
X157000001Y-80262800D03*
%TO.P,J2,B7,DN2*%
%TO.N,USBDM*%
X155499999Y-80262800D03*
%TO.P,J2,B8,SBU2*%
%TO.N,unconnected-(J2-SBU2-PadB8)*%
X154500001Y-80262800D03*
%TD*%
D17*
%TO.P,R5,1*%
%TO.N,3.3V*%
X164500000Y-104525000D03*
%TO.P,R5,2*%
%TO.N,SD_SPC*%
X164500000Y-106250000D03*
%TD*%
D18*
%TO.P,R12,1*%
%TO.N,GND*%
X159862500Y-84200000D03*
%TO.P,R12,2*%
%TO.N,CC2*%
X158137500Y-84200000D03*
%TD*%
D19*
%TO.P,J1,1,DAT2*%
%TO.N,unconnected-(J1-DAT2-Pad1)*%
X159450000Y-109600000D03*
%TO.P,J1,2,DAT3/CD*%
%TO.N,SD_CS*%
X160550000Y-109600000D03*
%TO.P,J1,3,CMD*%
%TO.N,SD_MOSI*%
X161650000Y-109600000D03*
%TO.P,J1,4,VDD*%
%TO.N,3.3V*%
X162750000Y-109600000D03*
%TO.P,J1,5,CLK*%
%TO.N,SD_SPC*%
X163850000Y-109600000D03*
%TO.P,J1,6,VSS*%
%TO.N,GND*%
X164950000Y-109600000D03*
%TO.P,J1,7,DAT0*%
%TO.N,SD_MISO*%
X166050000Y-109600000D03*
%TO.P,J1,8,DAT1*%
%TO.N,unconnected-(J1-DAT1-Pad8)*%
X167150000Y-109600000D03*
%TO.P,J1,9,DET_B*%
%TO.N,GND*%
X168100000Y-109600000D03*
D20*
%TO.P,J1,10,DET_A*%
%TO.N,Net-(D1-A)*%
X169050000Y-120100000D03*
D21*
%TO.P,J1,11,SHIELD*%
%TO.N,unconnected-(J1-SHIELD-Pad11)*%
X169050000Y-124250000D03*
D22*
%TO.N,unconnected-(J1-SHIELD-Pad11)_1*%
X169050000Y-113900000D03*
%TO.N,unconnected-(J1-SHIELD-Pad11)_0*%
X157900000Y-109600000D03*
D23*
%TO.N,unconnected-(J1-SHIELD-Pad11)_2*%
X155550000Y-124700000D03*
%TD*%
D17*
%TO.P,R3,1*%
%TO.N,3.3V*%
X160500000Y-104437500D03*
%TO.P,R3,2*%
%TO.N,SD_MOSI*%
X160500000Y-106162500D03*
%TD*%
%TO.P,R4,1*%
%TO.N,3.3V*%
X167100000Y-104837500D03*
%TO.P,R4,2*%
%TO.N,SD_MISO*%
X167100000Y-106562500D03*
%TD*%
D24*
%TO.P,R7,1*%
%TO.N,3.3V*%
X171862500Y-117100000D03*
%TO.P,R7,2*%
%TO.N,Net-(D1-K)*%
X173587500Y-117100000D03*
%TD*%
D25*
%TO.P,D1,1,K*%
%TO.N,Net-(D1-K)*%
X173500000Y-120100000D03*
%TO.P,D1,2,A*%
%TO.N,Net-(D1-A)*%
X171925000Y-120100000D03*
%TD*%
D18*
%TO.P,R11,1*%
%TO.N,CC1*%
X154862500Y-84300000D03*
%TO.P,R11,2*%
%TO.N,GND*%
X153137500Y-84300000D03*
%TD*%
D26*
%TO.N,EN*%
X168550000Y-91250000D03*
X153975000Y-89100000D03*
%TO.N,GND*%
X157100000Y-85000000D03*
X169600000Y-90100000D03*
X137200000Y-85500000D03*
X128175000Y-116250000D03*
X166000000Y-110900000D03*
X161940013Y-120717372D03*
X148000000Y-126900000D03*
X165700000Y-108100000D03*
X132500000Y-107300000D03*
X164600000Y-83400000D03*
X137600000Y-99000000D03*
X165400000Y-96800000D03*
X163100000Y-124200000D03*
X156600000Y-76500000D03*
X124500000Y-116600000D03*
X159800000Y-108300000D03*
X155900000Y-96300000D03*
X152300000Y-89300000D03*
X134500000Y-75700000D03*
X166800000Y-114200000D03*
X149600000Y-121200000D03*
X136800000Y-110300000D03*
X128400000Y-106300000D03*
X138200000Y-118100000D03*
X134200000Y-82400000D03*
X154100000Y-117000000D03*
X124900000Y-108400000D03*
X146800000Y-98150000D03*
X155900000Y-110500000D03*
X160200000Y-102800000D03*
X159200000Y-81800000D03*
X170000000Y-110900000D03*
X162900000Y-99200000D03*
X141000000Y-86700000D03*
X125000000Y-110100000D03*
X138100000Y-124100000D03*
X173200000Y-81200000D03*
X170600000Y-126000000D03*
X166600000Y-117200000D03*
X163700000Y-107700000D03*
X168700000Y-106100000D03*
X134700000Y-101700000D03*
X153000000Y-99900000D03*
X164900000Y-103100000D03*
X135200000Y-121800000D03*
X140800000Y-76600000D03*
X124700000Y-121300000D03*
X175200000Y-102000000D03*
X152300000Y-85900000D03*
X147600000Y-82100000D03*
X138100000Y-126600000D03*
X156200000Y-103200000D03*
X176600000Y-108100000D03*
X173500000Y-100100000D03*
X153400000Y-76500000D03*
X160400000Y-96500000D03*
X150700000Y-88000000D03*
X132800000Y-125200000D03*
X156600000Y-73400000D03*
X170200000Y-75100000D03*
X169800000Y-92900000D03*
X173600000Y-110900000D03*
X131200000Y-74400000D03*
X138900000Y-94600000D03*
X164900000Y-79300000D03*
X161200000Y-116700000D03*
X130600000Y-77900000D03*
X151800000Y-124100000D03*
X149100000Y-99900000D03*
X167300000Y-83600000D03*
X123200000Y-78200000D03*
X146300000Y-86800000D03*
X176600000Y-91300000D03*
X171500000Y-73200000D03*
X173500000Y-96600000D03*
X176700000Y-81800000D03*
X176300000Y-118600000D03*
X172400000Y-93100000D03*
X130100000Y-122700000D03*
X170100000Y-108000000D03*
X162400000Y-82700000D03*
X166000000Y-122400000D03*
X176700000Y-104900000D03*
X125300000Y-102200000D03*
X138900000Y-103000000D03*
X141600000Y-97900000D03*
X154700000Y-108200000D03*
X156200000Y-99900000D03*
X148700000Y-79200000D03*
X148500000Y-74600000D03*
X156500000Y-89400000D03*
X143100000Y-124050000D03*
X146700000Y-112250000D03*
X148200000Y-91600000D03*
X163800000Y-121900000D03*
X176700000Y-87600000D03*
X158300000Y-123400000D03*
X133600000Y-91000000D03*
X132500000Y-109800000D03*
X159000000Y-76500000D03*
X135700000Y-106700000D03*
X138700000Y-74300000D03*
X150900000Y-118500000D03*
X161400000Y-89400000D03*
X123500000Y-82200000D03*
X166500000Y-88000000D03*
X152700000Y-81300000D03*
X162300000Y-114100000D03*
X158800000Y-111000000D03*
X173300000Y-109200000D03*
X125700000Y-89300000D03*
X134200000Y-123800000D03*
X176600000Y-78300000D03*
X161500000Y-73400000D03*
X164100000Y-73500000D03*
X149800000Y-84000000D03*
X131900000Y-113200000D03*
X128300000Y-120000000D03*
X171300000Y-122100000D03*
X132300000Y-116200000D03*
X155300000Y-85900000D03*
X138500000Y-89600000D03*
X130300000Y-126100000D03*
X143200000Y-112700000D03*
X154200000Y-114600000D03*
X170700000Y-79500000D03*
X133900000Y-95600000D03*
X153400000Y-103300000D03*
X173600000Y-88600000D03*
X155500000Y-79100000D03*
X146300000Y-76600000D03*
X151500000Y-97600000D03*
X171000000Y-114000000D03*
X151000000Y-73400000D03*
X128500000Y-109900000D03*
X140400000Y-81900000D03*
X168100000Y-110900000D03*
X158400000Y-117400000D03*
X138500000Y-106700000D03*
X135900000Y-113800000D03*
X165300000Y-90700000D03*
X155900000Y-121300000D03*
X168900000Y-97600000D03*
X146300000Y-120700000D03*
X168300000Y-80600000D03*
X152000000Y-105400000D03*
X132100000Y-119800000D03*
X173500000Y-85100000D03*
X152300000Y-87900000D03*
X129000000Y-74400000D03*
%TO.N,5V*%
X150000000Y-86900000D03*
X161100000Y-86900000D03*
%TO.N,3.3V*%
X170100000Y-104787500D03*
X154900000Y-113800000D03*
X140600000Y-119900000D03*
X174000000Y-108300000D03*
%TO.N,VBUS*%
X164300000Y-76500000D03*
X154400000Y-81334302D03*
%TO.N,MISO*%
X153400000Y-111100000D03*
X155900000Y-108620000D03*
%TO.N,CAN_H*%
X132500000Y-117500000D03*
%TO.N,CAN_L*%
X133700000Y-115000000D03*
%TO.N,SERVO_PIN*%
X163500000Y-87400000D03*
%TO.N,USBDP*%
X157300000Y-81400000D03*
%TO.N,USBDM*%
X156500000Y-81600000D03*
%TO.N,SD_CS*%
X161500000Y-111000000D03*
%TO.N,IO0*%
X157000000Y-101700000D03*
X157000000Y-105700000D03*
X157900000Y-112100000D03*
X153500000Y-92200000D03*
%TO.N,RXD_FT232*%
X172392500Y-110707500D03*
X157500000Y-92100000D03*
%TO.N,SD_MOSI*%
X163300000Y-110900000D03*
%TO.N,RXD0_ESP*%
X171122500Y-110677500D03*
X156200000Y-93300000D03*
%TO.N,SD_MISO*%
X167000000Y-111000000D03*
%TO.N,SD_SPC*%
X164300000Y-110900000D03*
%TD*%
D27*
%TO.N,EN*%
X154575000Y-88500000D02*
X165800000Y-88500000D01*
X165800000Y-88500000D02*
X168550000Y-91250000D01*
X153975000Y-89100000D02*
X154575000Y-88500000D01*
%TO.N,GND*%
X159449999Y-81550001D02*
X159200000Y-81800000D01*
X164955000Y-108845000D02*
X165700000Y-108100000D01*
X153049999Y-80950001D02*
X152700000Y-81300000D01*
X164955000Y-109760000D02*
X164955000Y-108845000D01*
X159449999Y-80262800D02*
X159449999Y-81550001D01*
X153049999Y-80262800D02*
X153049999Y-80950001D01*
D28*
%TO.N,5V*%
X150000000Y-86900000D02*
X161100000Y-86900000D01*
%TO.N,3.3V*%
X174750000Y-109050000D02*
X174750000Y-114040990D01*
X143090000Y-102060000D02*
X143090000Y-101810000D01*
X174750000Y-114040990D02*
X171812500Y-116978490D01*
X162600000Y-109450000D02*
X162755000Y-109605000D01*
X142675000Y-113700000D02*
X141675000Y-114700000D01*
X141675000Y-108430000D02*
X141675000Y-112300000D01*
X142075000Y-113700000D02*
X142700000Y-113700000D01*
X154800000Y-113700000D02*
X154900000Y-113800000D01*
X162400000Y-104450000D02*
X162400000Y-104537500D01*
X162755000Y-109605000D02*
X162755000Y-109760000D01*
X170100000Y-104787500D02*
X164812500Y-104787500D01*
X145417500Y-104687500D02*
X141675000Y-108430000D01*
X145417500Y-104387500D02*
X145417500Y-104687500D01*
X164812500Y-104787500D02*
X164425000Y-104400000D01*
X141675000Y-114700000D02*
X141675000Y-116050000D01*
X142700000Y-113700000D02*
X154800000Y-113700000D01*
X141675000Y-113300000D02*
X141675000Y-114700000D01*
X171812500Y-116978490D02*
X171812500Y-117075000D01*
X142700000Y-113700000D02*
X142675000Y-113700000D01*
X141675000Y-116050000D02*
X141675000Y-118825000D01*
X141675000Y-118825000D02*
X140600000Y-119900000D01*
X141675000Y-112300000D02*
X141675000Y-113300000D01*
X162400000Y-104450000D02*
X160562500Y-104450000D01*
X174000000Y-108300000D02*
X174750000Y-109050000D01*
X164425000Y-104400000D02*
X162450000Y-104400000D01*
X162400000Y-104537500D02*
X162600000Y-104737500D01*
X160562500Y-104450000D02*
X160500000Y-104387500D01*
X141675000Y-112300000D02*
X141675000Y-112675000D01*
X145417500Y-104387500D02*
X143090000Y-102060000D01*
X141675000Y-112675000D02*
X142700000Y-113700000D01*
X160500000Y-104387500D02*
X145417500Y-104387500D01*
X141675000Y-113300000D02*
X142075000Y-113700000D01*
X162600000Y-104737500D02*
X162600000Y-109450000D01*
X162450000Y-104400000D02*
X162400000Y-104450000D01*
D27*
%TO.N,Net-(D1-A)*%
X171765000Y-120260000D02*
X171925000Y-120100000D01*
X169055000Y-120260000D02*
X171765000Y-120260000D01*
%TO.N,VBUS*%
X154047601Y-79391300D02*
X154938901Y-78500000D01*
X159848755Y-77061100D02*
X157950054Y-78959801D01*
X153850000Y-80784302D02*
X153850000Y-80262800D01*
X157490253Y-78500000D02*
X157950054Y-78959801D01*
X163738900Y-77061100D02*
X159848755Y-77061100D01*
X164300000Y-76500000D02*
X163738900Y-77061100D01*
X158650000Y-79659747D02*
X158650000Y-80262800D01*
X153850000Y-80262800D02*
X154047601Y-80065199D01*
X157950054Y-78959801D02*
X158650000Y-79659747D01*
X154938901Y-78500000D02*
X157490253Y-78500000D01*
X154047601Y-80065199D02*
X154047601Y-79391300D01*
X154400000Y-81334302D02*
X153850000Y-80784302D01*
%TO.N,MISO*%
X153400000Y-111100000D02*
X153420000Y-111100000D01*
X153420000Y-111100000D02*
X155900000Y-108620000D01*
%TO.N,CAN_H*%
X132500000Y-117500000D02*
X130525000Y-117500000D01*
%TO.N,CAN_L*%
X133700000Y-115000000D02*
X130525000Y-115000000D01*
%TO.N,SERVO_PIN*%
X163500000Y-87400000D02*
X163500000Y-85800000D01*
X167200000Y-82100000D02*
X169475000Y-82100000D01*
X163500000Y-85800000D02*
X167200000Y-82100000D01*
%TO.N,USBDP*%
X157300000Y-81386700D02*
X157000001Y-81086701D01*
X157000001Y-79600001D02*
X157000001Y-80262800D01*
X157000001Y-81086701D02*
X157000001Y-80262800D01*
X156791300Y-79391300D02*
X157000001Y-79600001D01*
X157300000Y-81400000D02*
X157300000Y-81386700D01*
X156000000Y-80262800D02*
X156000000Y-79438900D01*
X156000000Y-79438900D02*
X156047600Y-79391300D01*
X156047600Y-79391300D02*
X156791300Y-79391300D01*
%TO.N,CC2*%
X157999999Y-80262800D02*
X157999999Y-84112499D01*
X157999999Y-84112499D02*
X158087500Y-84200000D01*
%TO.N,USBDM*%
X155499999Y-80262800D02*
X155499999Y-81086699D01*
X156500000Y-80262800D02*
X156500000Y-81600000D01*
X155713300Y-81300000D02*
X156200000Y-81300000D01*
X156200000Y-81300000D02*
X156500000Y-81600000D01*
X155499999Y-81086699D02*
X155713300Y-81300000D01*
%TO.N,CC1*%
X155000000Y-80262800D02*
X155000000Y-84212500D01*
X155000000Y-84212500D02*
X154912500Y-84300000D01*
%TO.N,SD_CS*%
X160555000Y-110055000D02*
X161500000Y-111000000D01*
X160555000Y-109760000D02*
X160555000Y-110055000D01*
D29*
%TO.N,IO0*%
X157055000Y-101645000D02*
X157000000Y-101700000D01*
X157000000Y-111200000D02*
X157900000Y-112100000D01*
X157055000Y-95755000D02*
X157055000Y-101645000D01*
X157000000Y-105700000D02*
X157000000Y-111200000D01*
X157055000Y-95755000D02*
X153500000Y-92200000D01*
%TO.N,RXD_FT232*%
X172400000Y-97050000D02*
X167450000Y-92100000D01*
X172400000Y-110700000D02*
X172400000Y-97050000D01*
X172392500Y-110707500D02*
X172400000Y-110700000D01*
X167450000Y-92100000D02*
X157500000Y-92100000D01*
D27*
%TO.N,SD_MOSI*%
X162345000Y-110900000D02*
X163300000Y-110900000D01*
X160500000Y-106125000D02*
X161655000Y-107280000D01*
X161655000Y-107280000D02*
X161655000Y-110210000D01*
X161655000Y-110210000D02*
X162345000Y-110900000D01*
D29*
%TO.N,RXD0_ESP*%
X171100000Y-110655000D02*
X171122500Y-110677500D01*
X156200000Y-93300000D02*
X167160660Y-93300000D01*
X167160660Y-93300000D02*
X171100000Y-97239340D01*
X171100000Y-97239340D02*
X171100000Y-110655000D01*
D27*
%TO.N,SD_MISO*%
X167087500Y-106600000D02*
X167100000Y-106587500D01*
X166055000Y-110055000D02*
X167000000Y-111000000D01*
X166055000Y-109760000D02*
X166055000Y-110055000D01*
X166055000Y-108857500D02*
X166055000Y-109760000D01*
X167100000Y-107812500D02*
X166211250Y-108701250D01*
X166211250Y-108701250D02*
X166256250Y-108656250D01*
X166256250Y-108656250D02*
X166055000Y-108857500D01*
X167100000Y-106587500D02*
X167100000Y-107812500D01*
%TO.N,SD_SPC*%
X164500000Y-106300000D02*
X164500000Y-108400000D01*
X164195000Y-110900000D02*
X164300000Y-110900000D01*
X164500000Y-108400000D02*
X163855000Y-109045000D01*
X163855000Y-110560000D02*
X164195000Y-110900000D01*
X163855000Y-109045000D02*
X163855000Y-110560000D01*
%TO.N,Net-(D1-K)*%
X173500000Y-117212500D02*
X173500000Y-120100000D01*
X173637500Y-117075000D02*
X173500000Y-117212500D01*
%TD*%
%TA.AperFunction,Conductor*%
%TO.N,GND*%
G36*
X163852095Y-105020185D02*
G01*
X163884826Y-105050866D01*
X163889693Y-105057461D01*
X163942969Y-105129648D01*
X163949290Y-105138212D01*
X164055523Y-105216615D01*
X164055524Y-105216615D01*
X164055525Y-105216616D01*
X164180151Y-105260225D01*
X164180150Y-105260225D01*
X164209740Y-105263000D01*
X164209744Y-105263000D01*
X164401863Y-105263000D01*
X164463864Y-105279614D01*
X164465596Y-105280614D01*
X164513811Y-105331181D01*
X164527033Y-105399789D01*
X164501065Y-105464653D01*
X164444150Y-105505181D01*
X164403595Y-105512000D01*
X164209740Y-105512000D01*
X164180150Y-105514774D01*
X164055523Y-105558384D01*
X163949289Y-105636788D01*
X163949288Y-105636789D01*
X163870884Y-105743023D01*
X163827274Y-105867650D01*
X163824500Y-105897239D01*
X163824500Y-106602760D01*
X163827274Y-106632349D01*
X163870884Y-106756976D01*
X163949288Y-106863210D01*
X163949289Y-106863211D01*
X164048660Y-106936550D01*
X164055525Y-106941616D01*
X164116457Y-106962937D01*
X164173230Y-107003657D01*
X164198978Y-107068609D01*
X164199500Y-107079977D01*
X164199500Y-108224167D01*
X164179815Y-108291206D01*
X164163181Y-108311848D01*
X163711848Y-108763181D01*
X163650525Y-108796666D01*
X163624167Y-108799500D01*
X163480247Y-108799500D01*
X163421770Y-108811131D01*
X163421770Y-108811132D01*
X163393390Y-108830095D01*
X163326713Y-108850972D01*
X163259333Y-108832487D01*
X163212643Y-108780508D01*
X163200500Y-108726992D01*
X163200500Y-105124500D01*
X163220185Y-105057461D01*
X163272989Y-105011706D01*
X163324500Y-105000500D01*
X163785056Y-105000500D01*
X163852095Y-105020185D01*
G37*
%TD.AperFunction*%
%TA.AperFunction,Conductor*%
G36*
X157381459Y-78820185D02*
G01*
X157402101Y-78836819D01*
X157854176Y-79288894D01*
X157887661Y-79350217D01*
X157882677Y-79419909D01*
X157840805Y-79475842D01*
X157790684Y-79498193D01*
X157774188Y-79501474D01*
X157725808Y-79501473D01*
X157672151Y-79490800D01*
X157672148Y-79490800D01*
X157355533Y-79490800D01*
X157288494Y-79471115D01*
X157248147Y-79428802D01*
X157243012Y-79419909D01*
X157240461Y-79415490D01*
X156975811Y-79150840D01*
X156975810Y-79150839D01*
X156975807Y-79150837D01*
X156954264Y-79138399D01*
X156954262Y-79138399D01*
X156928000Y-79123236D01*
X156907290Y-79111279D01*
X156874496Y-79102492D01*
X156830862Y-79090800D01*
X156087162Y-79090800D01*
X156008038Y-79090800D01*
X155931610Y-79111278D01*
X155863089Y-79150840D01*
X155863086Y-79150842D01*
X155759541Y-79254387D01*
X155759535Y-79254395D01*
X155719982Y-79322904D01*
X155719977Y-79322915D01*
X155699618Y-79398895D01*
X155663253Y-79458555D01*
X155600406Y-79489083D01*
X155579844Y-79490800D01*
X155327846Y-79490800D01*
X155274190Y-79501473D01*
X155225808Y-79501473D01*
X155172151Y-79490800D01*
X155172148Y-79490800D01*
X154827852Y-79490800D01*
X154827847Y-79490800D01*
X154774191Y-79501473D01*
X154725809Y-79501473D01*
X154672153Y-79490800D01*
X154666089Y-79490203D01*
X154666210Y-79488972D01*
X154605395Y-79471115D01*
X154559640Y-79418311D01*
X154549696Y-79349153D01*
X154578721Y-79285597D01*
X154584753Y-79279119D01*
X155027053Y-78836819D01*
X155088376Y-78803334D01*
X155114734Y-78800500D01*
X157314420Y-78800500D01*
X157381459Y-78820185D01*
G37*
%TD.AperFunction*%
%TA.AperFunction,Conductor*%
G36*
X177442539Y-72520185D02*
G01*
X177488294Y-72572989D01*
X177499500Y-72624500D01*
X177499500Y-127375500D01*
X177479815Y-127442539D01*
X177427011Y-127488294D01*
X177375500Y-127499500D01*
X122624500Y-127499500D01*
X122557461Y-127479815D01*
X122511706Y-127427011D01*
X122500500Y-127375500D01*
X122500500Y-125000001D01*
X122994390Y-125000001D01*
X123014804Y-125285433D01*
X123075628Y-125565037D01*
X123075630Y-125565043D01*
X123075631Y-125565046D01*
X123136496Y-125728230D01*
X123175635Y-125833166D01*
X123312770Y-126084309D01*
X123312775Y-126084317D01*
X123484254Y-126313387D01*
X123484270Y-126313405D01*
X123686594Y-126515729D01*
X123686612Y-126515745D01*
X123915682Y-126687224D01*
X123915690Y-126687229D01*
X124166833Y-126824364D01*
X124166832Y-126824364D01*
X124166836Y-126824365D01*
X124166839Y-126824367D01*
X124434954Y-126924369D01*
X124434960Y-126924370D01*
X124434962Y-126924371D01*
X124714566Y-126985195D01*
X124714568Y-126985195D01*
X124714572Y-126985196D01*
X124968220Y-127003337D01*
X124999999Y-127005610D01*
X125000000Y-127005610D01*
X125000001Y-127005610D01*
X125028595Y-127003564D01*
X125285428Y-126985196D01*
X125565046Y-126924369D01*
X125833161Y-126824367D01*
X126084315Y-126687226D01*
X126313395Y-126515739D01*
X126515739Y-126313395D01*
X126687226Y-126084315D01*
X126824367Y-125833161D01*
X126885316Y-125669752D01*
X154699500Y-125669752D01*
X154711131Y-125728229D01*
X154711132Y-125728230D01*
X154755447Y-125794552D01*
X154821769Y-125838867D01*
X154821770Y-125838868D01*
X154880247Y-125850499D01*
X154880250Y-125850500D01*
X154880252Y-125850500D01*
X156219750Y-125850500D01*
X156219751Y-125850499D01*
X156234568Y-125847552D01*
X156278229Y-125838868D01*
X156278229Y-125838867D01*
X156278231Y-125838867D01*
X156344552Y-125794552D01*
X156388867Y-125728231D01*
X156388867Y-125728229D01*
X156388868Y-125728229D01*
X156400499Y-125669752D01*
X156400500Y-125669750D01*
X156400500Y-124300000D01*
X156750000Y-124300000D01*
X156750000Y-125650000D01*
X159300000Y-125650000D01*
X159300000Y-124300000D01*
X156750000Y-124300000D01*
X156400500Y-124300000D01*
X156400500Y-123730249D01*
X156400499Y-123730247D01*
X156388868Y-123671770D01*
X156388867Y-123671769D01*
X156344552Y-123605447D01*
X156278230Y-123561132D01*
X156278229Y-123561131D01*
X156219752Y-123549500D01*
X156219748Y-123549500D01*
X154880252Y-123549500D01*
X154880247Y-123549500D01*
X154821770Y-123561131D01*
X154821769Y-123561132D01*
X154755447Y-123605447D01*
X154711132Y-123671769D01*
X154711131Y-123671770D01*
X154699500Y-123730247D01*
X154699500Y-125669752D01*
X126885316Y-125669752D01*
X126924369Y-125565046D01*
X126985196Y-125285428D01*
X127005610Y-125000000D01*
X126985196Y-124714572D01*
X126924369Y-124434954D01*
X126824367Y-124166839D01*
X126744025Y-124019705D01*
X126687229Y-123915690D01*
X126687224Y-123915682D01*
X126515745Y-123686612D01*
X126515729Y-123686594D01*
X126313405Y-123484270D01*
X126313387Y-123484254D01*
X126084317Y-123312775D01*
X126084309Y-123312770D01*
X125833166Y-123175635D01*
X125833167Y-123175635D01*
X125725915Y-123135632D01*
X125565046Y-123075631D01*
X125565043Y-123075630D01*
X125565037Y-123075628D01*
X125285433Y-123014804D01*
X125000001Y-122994390D01*
X124999999Y-122994390D01*
X124714566Y-123014804D01*
X124434962Y-123075628D01*
X124166833Y-123175635D01*
X123915690Y-123312770D01*
X123915682Y-123312775D01*
X123686612Y-123484254D01*
X123686594Y-123484270D01*
X123484270Y-123686594D01*
X123484254Y-123686612D01*
X123312775Y-123915682D01*
X123312770Y-123915690D01*
X123175635Y-124166833D01*
X123075628Y-124434962D01*
X123014804Y-124714566D01*
X122994390Y-124999998D01*
X122994390Y-125000001D01*
X122500500Y-125000001D01*
X122500500Y-119979054D01*
X139999498Y-119979054D01*
X139999499Y-119979057D01*
X140040423Y-120131785D01*
X140119481Y-120268716D01*
X140231284Y-120380519D01*
X140368215Y-120459577D01*
X140520943Y-120500501D01*
X140520946Y-120500501D01*
X140679054Y-120500501D01*
X140679057Y-120500501D01*
X140831785Y-120459577D01*
X140968716Y-120380519D01*
X142155520Y-119193716D01*
X142234577Y-119056784D01*
X142275501Y-118904057D01*
X142275501Y-118745942D01*
X142275501Y-118738347D01*
X142275500Y-118738329D01*
X142275500Y-117363308D01*
X142295185Y-117296269D01*
X142311815Y-117275630D01*
X142338734Y-117248712D01*
X142432248Y-117108758D01*
X142496662Y-116953249D01*
X142529500Y-116788161D01*
X142529500Y-115311839D01*
X142496662Y-115146751D01*
X142432248Y-114991242D01*
X142432247Y-114991241D01*
X142432243Y-114991233D01*
X142408975Y-114956411D01*
X142388096Y-114889734D01*
X142406580Y-114822353D01*
X142424386Y-114799847D01*
X142887418Y-114336816D01*
X142948740Y-114303334D01*
X142975098Y-114300500D01*
X144083434Y-114300500D01*
X144150473Y-114320185D01*
X144196228Y-114372989D01*
X144206172Y-114442147D01*
X144177147Y-114505703D01*
X144118369Y-114543477D01*
X144107625Y-114546117D01*
X143965758Y-114574336D01*
X143965750Y-114574338D01*
X143810244Y-114638750D01*
X143810235Y-114638755D01*
X143670288Y-114732265D01*
X143670284Y-114732268D01*
X143551268Y-114851284D01*
X143551265Y-114851288D01*
X143457755Y-114991235D01*
X143457750Y-114991244D01*
X143393338Y-115146750D01*
X143393336Y-115146758D01*
X143360500Y-115311834D01*
X143360500Y-116788165D01*
X143393336Y-116953241D01*
X143393338Y-116953249D01*
X143457750Y-117108755D01*
X143457755Y-117108764D01*
X143551265Y-117248711D01*
X143551268Y-117248715D01*
X143670284Y-117367731D01*
X143670288Y-117367734D01*
X143810235Y-117461244D01*
X143810241Y-117461247D01*
X143810242Y-117461248D01*
X143965751Y-117525662D01*
X144130834Y-117558499D01*
X144130838Y-117558500D01*
X144130839Y-117558500D01*
X144299162Y-117558500D01*
X144299163Y-117558499D01*
X144464249Y-117525662D01*
X144619758Y-117461248D01*
X144759712Y-117367734D01*
X144878734Y-117248712D01*
X144972248Y-117108758D01*
X145036662Y-116953249D01*
X145069500Y-116788161D01*
X145069500Y-115311839D01*
X145036662Y-115146751D01*
X144972248Y-114991242D01*
X144972247Y-114991241D01*
X144972244Y-114991235D01*
X144878734Y-114851288D01*
X144878731Y-114851284D01*
X144759715Y-114732268D01*
X144759711Y-114732265D01*
X144619764Y-114638755D01*
X144619755Y-114638750D01*
X144464249Y-114574338D01*
X144464241Y-114574336D01*
X144322375Y-114546117D01*
X144260464Y-114513732D01*
X144225890Y-114453017D01*
X144229629Y-114383247D01*
X144270496Y-114326575D01*
X144335514Y-114300994D01*
X144346566Y-114300500D01*
X146623434Y-114300500D01*
X146690473Y-114320185D01*
X146736228Y-114372989D01*
X146746172Y-114442147D01*
X146717147Y-114505703D01*
X146658369Y-114543477D01*
X146647625Y-114546117D01*
X146505758Y-114574336D01*
X146505750Y-114574338D01*
X146350244Y-114638750D01*
X146350235Y-114638755D01*
X146210288Y-114732265D01*
X146210284Y-114732268D01*
X146091268Y-114851284D01*
X146091265Y-114851288D01*
X145997755Y-114991235D01*
X145997750Y-114991244D01*
X145933338Y-115146750D01*
X145933336Y-115146758D01*
X145900500Y-115311834D01*
X145900500Y-116788165D01*
X145933336Y-116953241D01*
X145933338Y-116953249D01*
X145997750Y-117108755D01*
X145997755Y-117108764D01*
X146091265Y-117248711D01*
X146091268Y-117248715D01*
X146210284Y-117367731D01*
X146210288Y-117367734D01*
X146350235Y-117461244D01*
X146350241Y-117461247D01*
X146350242Y-117461248D01*
X146505751Y-117525662D01*
X146670834Y-117558499D01*
X146670838Y-117558500D01*
X146670839Y-117558500D01*
X146839162Y-117558500D01*
X146839163Y-117558499D01*
X147004249Y-117525662D01*
X147159758Y-117461248D01*
X147299712Y-117367734D01*
X147418734Y-117248712D01*
X147512248Y-117108758D01*
X147576662Y-116953249D01*
X147609500Y-116788161D01*
X147609500Y-115311839D01*
X147576662Y-115146751D01*
X147512248Y-114991242D01*
X147512247Y-114991241D01*
X147512244Y-114991235D01*
X147418734Y-114851288D01*
X147418731Y-114851284D01*
X147299715Y-114732268D01*
X147299711Y-114732265D01*
X147159764Y-114638755D01*
X147159755Y-114638750D01*
X147004249Y-114574338D01*
X147004241Y-114574336D01*
X146862375Y-114546117D01*
X146800464Y-114513732D01*
X146765890Y-114453017D01*
X146769629Y-114383247D01*
X146810496Y-114326575D01*
X146875514Y-114300994D01*
X146886566Y-114300500D01*
X149163434Y-114300500D01*
X149230473Y-114320185D01*
X149276228Y-114372989D01*
X149286172Y-114442147D01*
X149257147Y-114505703D01*
X149198369Y-114543477D01*
X149187625Y-114546117D01*
X149045758Y-114574336D01*
X149045750Y-114574338D01*
X148890244Y-114638750D01*
X148890235Y-114638755D01*
X148750288Y-114732265D01*
X148750284Y-114732268D01*
X148631268Y-114851284D01*
X148631265Y-114851288D01*
X148537755Y-114991235D01*
X148537750Y-114991244D01*
X148473338Y-115146750D01*
X148473336Y-115146758D01*
X148440500Y-115311834D01*
X148440500Y-116788165D01*
X148473336Y-116953241D01*
X148473338Y-116953249D01*
X148537750Y-117108755D01*
X148537755Y-117108764D01*
X148631265Y-117248711D01*
X148631268Y-117248715D01*
X148750284Y-117367731D01*
X148750288Y-117367734D01*
X148890235Y-117461244D01*
X148890241Y-117461247D01*
X148890242Y-117461248D01*
X149045751Y-117525662D01*
X149210834Y-117558499D01*
X149210838Y-117558500D01*
X149210839Y-117558500D01*
X149379162Y-117558500D01*
X149379163Y-117558499D01*
X149544249Y-117525662D01*
X149699758Y-117461248D01*
X149839712Y-117367734D01*
X149958734Y-117248712D01*
X150052248Y-117108758D01*
X150116662Y-116953249D01*
X150149500Y-116788161D01*
X150149500Y-115311839D01*
X150116662Y-115146751D01*
X150052248Y-114991242D01*
X150052247Y-114991241D01*
X150052244Y-114991235D01*
X149958734Y-114851288D01*
X149958731Y-114851284D01*
X149839715Y-114732268D01*
X149839711Y-114732265D01*
X149699764Y-114638755D01*
X149699755Y-114638750D01*
X149544249Y-114574338D01*
X149544241Y-114574336D01*
X149402375Y-114546117D01*
X149340464Y-114513732D01*
X149305890Y-114453017D01*
X149309629Y-114383247D01*
X149350496Y-114326575D01*
X149415514Y-114300994D01*
X149426566Y-114300500D01*
X151703434Y-114300500D01*
X151770473Y-114320185D01*
X151816228Y-114372989D01*
X151826172Y-114442147D01*
X151797147Y-114505703D01*
X151738369Y-114543477D01*
X151727625Y-114546117D01*
X151585758Y-114574336D01*
X151585750Y-114574338D01*
X151430244Y-114638750D01*
X151430235Y-114638755D01*
X151290288Y-114732265D01*
X151290284Y-114732268D01*
X151171268Y-114851284D01*
X151171265Y-114851288D01*
X151077755Y-114991235D01*
X151077750Y-114991244D01*
X151013338Y-115146750D01*
X151013336Y-115146758D01*
X150980500Y-115311834D01*
X150980500Y-116788165D01*
X151013336Y-116953241D01*
X151013338Y-116953249D01*
X151077750Y-117108755D01*
X151077755Y-117108764D01*
X151171265Y-117248711D01*
X151171268Y-117248715D01*
X151290284Y-117367731D01*
X151290288Y-117367734D01*
X151430235Y-117461244D01*
X151430241Y-117461247D01*
X151430242Y-117461248D01*
X151585751Y-117525662D01*
X151750834Y-117558499D01*
X151750838Y-117558500D01*
X151750839Y-117558500D01*
X151919162Y-117558500D01*
X151919163Y-117558499D01*
X152084249Y-117525662D01*
X152239758Y-117461248D01*
X152379712Y-117367734D01*
X152498734Y-117248712D01*
X152592248Y-117108758D01*
X152656662Y-116953249D01*
X152689500Y-116788161D01*
X152689500Y-115311839D01*
X152656662Y-115146751D01*
X152592248Y-114991242D01*
X152592247Y-114991241D01*
X152592244Y-114991235D01*
X152498734Y-114851288D01*
X152498731Y-114851284D01*
X152379715Y-114732268D01*
X152379711Y-114732265D01*
X152239764Y-114638755D01*
X152239755Y-114638750D01*
X152146203Y-114600000D01*
X158950000Y-114600000D01*
X158950000Y-116200000D01*
X167526000Y-116200000D01*
X167593039Y-116219685D01*
X167638794Y-116272489D01*
X167650000Y-116324000D01*
X167650000Y-123500000D01*
X168225500Y-123500000D01*
X168292539Y-123519685D01*
X168338294Y-123572489D01*
X168349500Y-123624000D01*
X168349500Y-125669752D01*
X168361131Y-125728229D01*
X168361132Y-125728230D01*
X168405447Y-125794552D01*
X168471769Y-125838867D01*
X168471770Y-125838868D01*
X168530247Y-125850499D01*
X168530250Y-125850500D01*
X168530252Y-125850500D01*
X169569750Y-125850500D01*
X169569751Y-125850499D01*
X169584568Y-125847552D01*
X169628229Y-125838868D01*
X169628229Y-125838867D01*
X169628231Y-125838867D01*
X169694552Y-125794552D01*
X169738867Y-125728231D01*
X169738867Y-125728229D01*
X169738868Y-125728229D01*
X169750499Y-125669752D01*
X169750500Y-125669750D01*
X169750500Y-125000001D01*
X172994390Y-125000001D01*
X173014804Y-125285433D01*
X173075628Y-125565037D01*
X173075630Y-125565043D01*
X173075631Y-125565046D01*
X173136496Y-125728230D01*
X173175635Y-125833166D01*
X173312770Y-126084309D01*
X173312775Y-126084317D01*
X173484254Y-126313387D01*
X173484270Y-126313405D01*
X173686594Y-126515729D01*
X173686612Y-126515745D01*
X173915682Y-126687224D01*
X173915690Y-126687229D01*
X174166833Y-126824364D01*
X174166832Y-126824364D01*
X174166836Y-126824365D01*
X174166839Y-126824367D01*
X174434954Y-126924369D01*
X174434960Y-126924370D01*
X174434962Y-126924371D01*
X174714566Y-126985195D01*
X174714568Y-126985195D01*
X174714572Y-126985196D01*
X174968220Y-127003337D01*
X174999999Y-127005610D01*
X175000000Y-127005610D01*
X175000001Y-127005610D01*
X175028595Y-127003564D01*
X175285428Y-126985196D01*
X175565046Y-126924369D01*
X175833161Y-126824367D01*
X176084315Y-126687226D01*
X176313395Y-126515739D01*
X176515739Y-126313395D01*
X176687226Y-126084315D01*
X176824367Y-125833161D01*
X176924369Y-125565046D01*
X176985196Y-125285428D01*
X177005610Y-125000000D01*
X176985196Y-124714572D01*
X176924369Y-124434954D01*
X176824367Y-124166839D01*
X176744025Y-124019705D01*
X176687229Y-123915690D01*
X176687224Y-123915682D01*
X176515745Y-123686612D01*
X176515729Y-123686594D01*
X176313405Y-123484270D01*
X176313387Y-123484254D01*
X176084317Y-123312775D01*
X176084309Y-123312770D01*
X175833166Y-123175635D01*
X175833167Y-123175635D01*
X175725915Y-123135632D01*
X175565046Y-123075631D01*
X175565043Y-123075630D01*
X175565037Y-123075628D01*
X175285433Y-123014804D01*
X175000001Y-122994390D01*
X174999999Y-122994390D01*
X174714566Y-123014804D01*
X174434962Y-123075628D01*
X174166833Y-123175635D01*
X173915690Y-123312770D01*
X173915682Y-123312775D01*
X173686612Y-123484254D01*
X173686594Y-123484270D01*
X173484270Y-123686594D01*
X173484254Y-123686612D01*
X173312775Y-123915682D01*
X173312770Y-123915690D01*
X173175635Y-124166833D01*
X173075628Y-124434962D01*
X173014804Y-124714566D01*
X172994390Y-124999998D01*
X172994390Y-125000001D01*
X169750500Y-125000001D01*
X169750500Y-122830249D01*
X169750499Y-122830247D01*
X169738868Y-122771770D01*
X169738867Y-122771769D01*
X169694552Y-122705447D01*
X169628230Y-122661132D01*
X169628229Y-122661131D01*
X169569752Y-122649500D01*
X169569748Y-122649500D01*
X168530252Y-122649500D01*
X168530251Y-122649500D01*
X168498189Y-122655877D01*
X168428598Y-122649648D01*
X168373421Y-122606784D01*
X168350178Y-122540894D01*
X168350000Y-122534259D01*
X168350000Y-120815740D01*
X168369685Y-120748701D01*
X168422489Y-120702946D01*
X168491647Y-120693002D01*
X168498192Y-120694123D01*
X168530250Y-120700500D01*
X168530252Y-120700500D01*
X169569750Y-120700500D01*
X169569751Y-120700499D01*
X169584568Y-120697552D01*
X169628229Y-120688868D01*
X169628229Y-120688867D01*
X169628231Y-120688867D01*
X169694552Y-120644552D01*
X169713892Y-120615607D01*
X169767505Y-120570804D01*
X169816994Y-120560500D01*
X171266784Y-120560500D01*
X171333823Y-120580185D01*
X171354796Y-120599995D01*
X171355941Y-120598851D01*
X171456743Y-120699653D01*
X171456745Y-120699654D01*
X171456749Y-120699658D01*
X171575080Y-120759951D01*
X171575081Y-120759951D01*
X171575083Y-120759952D01*
X171575082Y-120759952D01*
X171673249Y-120775500D01*
X171673254Y-120775500D01*
X172176751Y-120775500D01*
X172274917Y-120759952D01*
X172274918Y-120759951D01*
X172274920Y-120759951D01*
X172393251Y-120699658D01*
X172487158Y-120605751D01*
X172547451Y-120487420D01*
X172547451Y-120487418D01*
X172547452Y-120487417D01*
X172563000Y-120389251D01*
X172563000Y-119810748D01*
X172547452Y-119712582D01*
X172529698Y-119677738D01*
X172487158Y-119594249D01*
X172487154Y-119594245D01*
X172487153Y-119594243D01*
X172393256Y-119500346D01*
X172393253Y-119500344D01*
X172393251Y-119500342D01*
X172274920Y-119440049D01*
X172274919Y-119440048D01*
X172274916Y-119440047D01*
X172274917Y-119440047D01*
X172176751Y-119424500D01*
X172176746Y-119424500D01*
X171673254Y-119424500D01*
X171673249Y-119424500D01*
X171575082Y-119440047D01*
X171496192Y-119480244D01*
X171456749Y-119500342D01*
X171456748Y-119500343D01*
X171456743Y-119500346D01*
X171362846Y-119594243D01*
X171362843Y-119594248D01*
X171302547Y-119712582D01*
X171287000Y-119810748D01*
X171287000Y-119835500D01*
X171267315Y-119902539D01*
X171214511Y-119948294D01*
X171163000Y-119959500D01*
X169874500Y-119959500D01*
X169807461Y-119939815D01*
X169761706Y-119887011D01*
X169750500Y-119835500D01*
X169750500Y-119680249D01*
X169750499Y-119680247D01*
X169738868Y-119621770D01*
X169738867Y-119621769D01*
X169694552Y-119555447D01*
X169628230Y-119511132D01*
X169628229Y-119511131D01*
X169569752Y-119499500D01*
X169569748Y-119499500D01*
X168530252Y-119499500D01*
X168530251Y-119499500D01*
X168498189Y-119505877D01*
X168428598Y-119499648D01*
X168373421Y-119456784D01*
X168350178Y-119390894D01*
X168350000Y-119384259D01*
X168350000Y-115900000D01*
X167774000Y-115900000D01*
X167706961Y-115880315D01*
X167661206Y-115827511D01*
X167650000Y-115776000D01*
X167650000Y-114600000D01*
X158950000Y-114600000D01*
X152146203Y-114600000D01*
X152084249Y-114574338D01*
X152084241Y-114574336D01*
X151942375Y-114546117D01*
X151891973Y-114519752D01*
X168349500Y-114519752D01*
X168361131Y-114578229D01*
X168361132Y-114578230D01*
X168405447Y-114644552D01*
X168471769Y-114688867D01*
X168471770Y-114688868D01*
X168530247Y-114700499D01*
X168530250Y-114700500D01*
X168530252Y-114700500D01*
X168576000Y-114700500D01*
X168643039Y-114720185D01*
X168688794Y-114772989D01*
X168700000Y-114824500D01*
X168700000Y-118100000D01*
X169450000Y-118100000D01*
X169450000Y-117390260D01*
X171124500Y-117390260D01*
X171127274Y-117419849D01*
X171170884Y-117544476D01*
X171249288Y-117650710D01*
X171249289Y-117650711D01*
X171355523Y-117729115D01*
X171355524Y-117729115D01*
X171355525Y-117729116D01*
X171480151Y-117772725D01*
X171480150Y-117772725D01*
X171509740Y-117775500D01*
X171509744Y-117775500D01*
X172215260Y-117775500D01*
X172244849Y-117772725D01*
X172250502Y-117770747D01*
X172369475Y-117729116D01*
X172475711Y-117650711D01*
X172554116Y-117544475D01*
X172597725Y-117419849D01*
X172600500Y-117390260D01*
X172600500Y-117091086D01*
X172620185Y-117024047D01*
X172636815Y-117003409D01*
X172637820Y-117002403D01*
X172699142Y-116968920D01*
X172768834Y-116973904D01*
X172824767Y-117015776D01*
X172849184Y-117081240D01*
X172849500Y-117090086D01*
X172849500Y-117390260D01*
X172852274Y-117419849D01*
X172895884Y-117544476D01*
X172974288Y-117650710D01*
X172974289Y-117650711D01*
X173080522Y-117729114D01*
X173080525Y-117729116D01*
X173116454Y-117741688D01*
X173173230Y-117782410D01*
X173198978Y-117847362D01*
X173199500Y-117858730D01*
X173199500Y-119338881D01*
X173179815Y-119405920D01*
X173131795Y-119449365D01*
X173031749Y-119500342D01*
X173031748Y-119500343D01*
X173031743Y-119500346D01*
X172937846Y-119594243D01*
X172937843Y-119594248D01*
X172877547Y-119712582D01*
X172862000Y-119810748D01*
X172862000Y-120389251D01*
X172877547Y-120487417D01*
X172877549Y-120487420D01*
X172937842Y-120605751D01*
X172937844Y-120605753D01*
X172937846Y-120605756D01*
X173031743Y-120699653D01*
X173031745Y-120699654D01*
X173031749Y-120699658D01*
X173150080Y-120759951D01*
X173150081Y-120759951D01*
X173150083Y-120759952D01*
X173150082Y-120759952D01*
X173248249Y-120775500D01*
X173248254Y-120775500D01*
X173751751Y-120775500D01*
X173849917Y-120759952D01*
X173849918Y-120759951D01*
X173849920Y-120759951D01*
X173968251Y-120699658D01*
X174062158Y-120605751D01*
X174122451Y-120487420D01*
X174122451Y-120487418D01*
X174122452Y-120487417D01*
X174138000Y-120389251D01*
X174138000Y-119810748D01*
X174122452Y-119712582D01*
X174104698Y-119677738D01*
X174062158Y-119594249D01*
X174062154Y-119594245D01*
X174062153Y-119594243D01*
X173968256Y-119500346D01*
X173968253Y-119500344D01*
X173968251Y-119500342D01*
X173868204Y-119449365D01*
X173817409Y-119401391D01*
X173800500Y-119338881D01*
X173800500Y-117899500D01*
X173820185Y-117832461D01*
X173872989Y-117786706D01*
X173924500Y-117775500D01*
X173940260Y-117775500D01*
X173969849Y-117772725D01*
X173975502Y-117770747D01*
X174094475Y-117729116D01*
X174200711Y-117650711D01*
X174279116Y-117544475D01*
X174322725Y-117419849D01*
X174325500Y-117390260D01*
X174325500Y-116809739D01*
X174322725Y-116780150D01*
X174279115Y-116655523D01*
X174200711Y-116549289D01*
X174200710Y-116549288D01*
X174094476Y-116470884D01*
X173969848Y-116427274D01*
X173969849Y-116427274D01*
X173940260Y-116424500D01*
X173940256Y-116424500D01*
X173515086Y-116424500D01*
X173448047Y-116404815D01*
X173402292Y-116352011D01*
X173392348Y-116282853D01*
X173421373Y-116219297D01*
X173427405Y-116212819D01*
X174263177Y-115377047D01*
X175108506Y-114531718D01*
X175108511Y-114531714D01*
X175118714Y-114521510D01*
X175118716Y-114521510D01*
X175230520Y-114409706D01*
X175309577Y-114272774D01*
X175350500Y-114120047D01*
X175350500Y-108970943D01*
X175337324Y-108921769D01*
X175309577Y-108818215D01*
X175275939Y-108759953D01*
X175230520Y-108681284D01*
X175118716Y-108569480D01*
X175118715Y-108569479D01*
X175114385Y-108565149D01*
X175114374Y-108565139D01*
X174368718Y-107819483D01*
X174368716Y-107819481D01*
X174231785Y-107740423D01*
X174079057Y-107699499D01*
X173920943Y-107699499D01*
X173828207Y-107724348D01*
X173768214Y-107740423D01*
X173631284Y-107819481D01*
X173631281Y-107819483D01*
X173519483Y-107931281D01*
X173519481Y-107931284D01*
X173440423Y-108068214D01*
X173430589Y-108104915D01*
X173399499Y-108220943D01*
X173399499Y-108220945D01*
X173399499Y-108379054D01*
X173399498Y-108379054D01*
X173419901Y-108455197D01*
X173440423Y-108531785D01*
X173519481Y-108668716D01*
X173519483Y-108668718D01*
X174113181Y-109262416D01*
X174146666Y-109323739D01*
X174149500Y-109350097D01*
X174149500Y-113740893D01*
X174129815Y-113807932D01*
X174113181Y-113828574D01*
X171549636Y-116392118D01*
X171488313Y-116425603D01*
X171486554Y-116425875D01*
X171480151Y-116427274D01*
X171355523Y-116470884D01*
X171249289Y-116549288D01*
X171249288Y-116549289D01*
X171170884Y-116655523D01*
X171127274Y-116780150D01*
X171124500Y-116809739D01*
X171124500Y-117390260D01*
X169450000Y-117390260D01*
X169450000Y-114824500D01*
X169469685Y-114757461D01*
X169522489Y-114711706D01*
X169563846Y-114702708D01*
X169563688Y-114701097D01*
X169569742Y-114700500D01*
X169569748Y-114700500D01*
X169584568Y-114697552D01*
X169628229Y-114688868D01*
X169628229Y-114688867D01*
X169628231Y-114688867D01*
X169694552Y-114644552D01*
X169738867Y-114578231D01*
X169738867Y-114578229D01*
X169738868Y-114578229D01*
X169750149Y-114521511D01*
X169750500Y-114519748D01*
X169750500Y-113280252D01*
X169750500Y-113280249D01*
X169750499Y-113280247D01*
X169738868Y-113221770D01*
X169738867Y-113221769D01*
X169694552Y-113155447D01*
X169628230Y-113111132D01*
X169628229Y-113111131D01*
X169569752Y-113099500D01*
X169563688Y-113098903D01*
X169563920Y-113096540D01*
X169506961Y-113079815D01*
X169461206Y-113027011D01*
X169450000Y-112975500D01*
X169450000Y-110050000D01*
X169074000Y-110050000D01*
X169006961Y-110030315D01*
X168961206Y-109977511D01*
X168950000Y-109926000D01*
X168950000Y-109850000D01*
X168350000Y-109850000D01*
X168350000Y-110700000D01*
X168497828Y-110700000D01*
X168497839Y-110699999D01*
X168562742Y-110693020D01*
X168631502Y-110705424D01*
X168682640Y-110753033D01*
X168700000Y-110816309D01*
X168700000Y-112975500D01*
X168680315Y-113042539D01*
X168627511Y-113088294D01*
X168576000Y-113099500D01*
X168530247Y-113099500D01*
X168471770Y-113111131D01*
X168471769Y-113111132D01*
X168405447Y-113155447D01*
X168361132Y-113221769D01*
X168361131Y-113221770D01*
X168349500Y-113280247D01*
X168349500Y-114519752D01*
X151891973Y-114519752D01*
X151880464Y-114513732D01*
X151845890Y-114453017D01*
X151849629Y-114383247D01*
X151890496Y-114326575D01*
X151955514Y-114300994D01*
X151966566Y-114300500D01*
X154532667Y-114300500D01*
X154594666Y-114317112D01*
X154668215Y-114359576D01*
X154820942Y-114400500D01*
X154820944Y-114400500D01*
X154979055Y-114400500D01*
X154979057Y-114400500D01*
X155131784Y-114359576D01*
X155268716Y-114280519D01*
X155380519Y-114168716D01*
X155459576Y-114031784D01*
X155500500Y-113879057D01*
X155500500Y-113720942D01*
X155459576Y-113568215D01*
X155380519Y-113431284D01*
X155287590Y-113338355D01*
X155287588Y-113338352D01*
X155168717Y-113219481D01*
X155168716Y-113219480D01*
X155057934Y-113155520D01*
X155057934Y-113155519D01*
X155057929Y-113155518D01*
X155048806Y-113150250D01*
X155031786Y-113140423D01*
X154993603Y-113130192D01*
X154879057Y-113099499D01*
X154720943Y-113099499D01*
X154713347Y-113099499D01*
X154713331Y-113099500D01*
X143000097Y-113099500D01*
X142933058Y-113079815D01*
X142912416Y-113063181D01*
X142311819Y-112462584D01*
X142278334Y-112401261D01*
X142275500Y-112374903D01*
X142275500Y-111100000D01*
X152894353Y-111100000D01*
X152914834Y-111242456D01*
X152953924Y-111328050D01*
X152974623Y-111373373D01*
X153068872Y-111482143D01*
X153189947Y-111559953D01*
X153189950Y-111559954D01*
X153189949Y-111559954D01*
X153297107Y-111591417D01*
X153324633Y-111599500D01*
X153328036Y-111600499D01*
X153328038Y-111600500D01*
X153328039Y-111600500D01*
X153471962Y-111600500D01*
X153471962Y-111600499D01*
X153579121Y-111569035D01*
X153610050Y-111559954D01*
X153610050Y-111559953D01*
X153610053Y-111559953D01*
X153731128Y-111482143D01*
X153825377Y-111373373D01*
X153885165Y-111242457D01*
X153905647Y-111100000D01*
X153905647Y-111099998D01*
X153905647Y-111091130D01*
X153909331Y-111091130D01*
X153916806Y-111039208D01*
X153941907Y-111003062D01*
X155788151Y-109156819D01*
X155849474Y-109123334D01*
X155875832Y-109120500D01*
X155971962Y-109120500D01*
X155971962Y-109120499D01*
X156110053Y-109079953D01*
X156231128Y-109002143D01*
X156325377Y-108893373D01*
X156385165Y-108762457D01*
X156402762Y-108640064D01*
X156410422Y-108623290D01*
X156406523Y-108617222D01*
X156402762Y-108599934D01*
X156385165Y-108477543D01*
X156367819Y-108439561D01*
X156325377Y-108346627D01*
X156231128Y-108237857D01*
X156110053Y-108160047D01*
X156110051Y-108160046D01*
X156110049Y-108160045D01*
X156110050Y-108160045D01*
X155971963Y-108119500D01*
X155971961Y-108119500D01*
X155828039Y-108119500D01*
X155828036Y-108119500D01*
X155689949Y-108160045D01*
X155568873Y-108237856D01*
X155474623Y-108346626D01*
X155474622Y-108346628D01*
X155414834Y-108477543D01*
X155394353Y-108620000D01*
X155394353Y-108620001D01*
X155395661Y-108629103D01*
X155385713Y-108698261D01*
X155360603Y-108734424D01*
X153531847Y-110563181D01*
X153470524Y-110596666D01*
X153444166Y-110599500D01*
X153328036Y-110599500D01*
X153189949Y-110640045D01*
X153068873Y-110717856D01*
X152974623Y-110826626D01*
X152974622Y-110826628D01*
X152914834Y-110957543D01*
X152894353Y-111100000D01*
X142275500Y-111100000D01*
X142275500Y-109743308D01*
X142295185Y-109676269D01*
X142311815Y-109655630D01*
X142338734Y-109628712D01*
X142432248Y-109488758D01*
X142496662Y-109333249D01*
X142529500Y-109168161D01*
X142529500Y-108476096D01*
X142549185Y-108409057D01*
X142565814Y-108388420D01*
X142849320Y-108104913D01*
X142910642Y-108071430D01*
X142980334Y-108076414D01*
X143036267Y-108118286D01*
X143058265Y-108177265D01*
X143061000Y-108180000D01*
X143899314Y-108180000D01*
X143894920Y-108184394D01*
X143842259Y-108275606D01*
X143815000Y-108377339D01*
X143815000Y-108482661D01*
X143842259Y-108584394D01*
X143894920Y-108675606D01*
X143899314Y-108680000D01*
X143061000Y-108680000D01*
X143061000Y-109174821D01*
X143089415Y-109354225D01*
X143145548Y-109526984D01*
X143228011Y-109688828D01*
X143334780Y-109835781D01*
X143334780Y-109835782D01*
X143463217Y-109964219D01*
X143610171Y-110070988D01*
X143772015Y-110153451D01*
X143944774Y-110209584D01*
X143965000Y-110212788D01*
X143965000Y-108745686D01*
X143969394Y-108750080D01*
X144060606Y-108802741D01*
X144162339Y-108830000D01*
X144267661Y-108830000D01*
X144369394Y-108802741D01*
X144460606Y-108750080D01*
X144465000Y-108745686D01*
X144465000Y-110212787D01*
X144485225Y-110209584D01*
X144657984Y-110153451D01*
X144819828Y-110070988D01*
X144966781Y-109964219D01*
X144966782Y-109964219D01*
X145095219Y-109835782D01*
X145095219Y-109835781D01*
X145201988Y-109688828D01*
X145284451Y-109526984D01*
X145340584Y-109354225D01*
X145362527Y-109215689D01*
X145392456Y-109152554D01*
X145451768Y-109115623D01*
X145521630Y-109116621D01*
X145579863Y-109155231D01*
X145607473Y-109215689D01*
X145629415Y-109354225D01*
X145685548Y-109526984D01*
X145768011Y-109688828D01*
X145874780Y-109835781D01*
X145874780Y-109835782D01*
X146003217Y-109964219D01*
X146150171Y-110070988D01*
X146312015Y-110153451D01*
X146484774Y-110209584D01*
X146505000Y-110212788D01*
X146505000Y-108745686D01*
X146509394Y-108750080D01*
X146600606Y-108802741D01*
X146702339Y-108830000D01*
X146807661Y-108830000D01*
X146909394Y-108802741D01*
X147000606Y-108750080D01*
X147005000Y-108745686D01*
X147005000Y-110212787D01*
X147025225Y-110209584D01*
X147197984Y-110153451D01*
X147359828Y-110070988D01*
X147506781Y-109964219D01*
X147506782Y-109964219D01*
X147635219Y-109835782D01*
X147635219Y-109835781D01*
X147741988Y-109688828D01*
X147824451Y-109526984D01*
X147880584Y-109354225D01*
X147909000Y-109174821D01*
X147909000Y-109168165D01*
X148440500Y-109168165D01*
X148473336Y-109333241D01*
X148473338Y-109333249D01*
X148537750Y-109488755D01*
X148537755Y-109488764D01*
X148631265Y-109628711D01*
X148631268Y-109628715D01*
X148750284Y-109747731D01*
X148750288Y-109747734D01*
X148890235Y-109841244D01*
X148890241Y-109841247D01*
X148890242Y-109841248D01*
X149045751Y-109905662D01*
X149210834Y-109938499D01*
X149210838Y-109938500D01*
X149210839Y-109938500D01*
X149379162Y-109938500D01*
X149379163Y-109938499D01*
X149544249Y-109905662D01*
X149699758Y-109841248D01*
X149839712Y-109747734D01*
X149958734Y-109628712D01*
X150052248Y-109488758D01*
X150116662Y-109333249D01*
X150149499Y-109168165D01*
X150980500Y-109168165D01*
X151013336Y-109333241D01*
X151013338Y-109333249D01*
X151077750Y-109488755D01*
X151077755Y-109488764D01*
X151171265Y-109628711D01*
X151171268Y-109628715D01*
X151290284Y-109747731D01*
X151290288Y-109747734D01*
X151430235Y-109841244D01*
X151430241Y-109841247D01*
X151430242Y-109841248D01*
X151585751Y-109905662D01*
X151750834Y-109938499D01*
X151750838Y-109938500D01*
X151750839Y-109938500D01*
X151919162Y-109938500D01*
X151919163Y-109938499D01*
X152084249Y-109905662D01*
X152239758Y-109841248D01*
X152379712Y-109747734D01*
X152498734Y-109628712D01*
X152592248Y-109488758D01*
X152656662Y-109333249D01*
X152689500Y-109168161D01*
X152689500Y-107691839D01*
X152656662Y-107526751D01*
X152592248Y-107371242D01*
X152592247Y-107371241D01*
X152592244Y-107371235D01*
X152498734Y-107231288D01*
X152498731Y-107231284D01*
X152379715Y-107112268D01*
X152379711Y-107112265D01*
X152239764Y-107018755D01*
X152239755Y-107018750D01*
X152084249Y-106954338D01*
X152084241Y-106954336D01*
X151919165Y-106921500D01*
X151919161Y-106921500D01*
X151750839Y-106921500D01*
X151750834Y-106921500D01*
X151585758Y-106954336D01*
X151585750Y-106954338D01*
X151430244Y-107018750D01*
X151430235Y-107018755D01*
X151290288Y-107112265D01*
X151290284Y-107112268D01*
X151171268Y-107231284D01*
X151171265Y-107231288D01*
X151077755Y-107371235D01*
X151077750Y-107371244D01*
X151013338Y-107526750D01*
X151013336Y-107526758D01*
X150980500Y-107691834D01*
X150980500Y-109168165D01*
X150149499Y-109168165D01*
X150149500Y-109168161D01*
X150149500Y-107691839D01*
X150116662Y-107526751D01*
X150052248Y-107371242D01*
X150052247Y-107371241D01*
X150052244Y-107371235D01*
X149958734Y-107231288D01*
X149958731Y-107231284D01*
X149839715Y-107112268D01*
X149839711Y-107112265D01*
X149699764Y-107018755D01*
X149699755Y-107018750D01*
X149544249Y-106954338D01*
X149544241Y-106954336D01*
X149379165Y-106921500D01*
X149379161Y-106921500D01*
X149210839Y-106921500D01*
X149210834Y-106921500D01*
X149045758Y-106954336D01*
X149045750Y-106954338D01*
X148890244Y-107018750D01*
X148890235Y-107018755D01*
X148750288Y-107112265D01*
X148750284Y-107112268D01*
X148631268Y-107231284D01*
X148631265Y-107231288D01*
X148537755Y-107371235D01*
X148537750Y-107371244D01*
X148473338Y-107526750D01*
X148473336Y-107526758D01*
X148440500Y-107691834D01*
X148440500Y-109168165D01*
X147909000Y-109168165D01*
X147909000Y-108680000D01*
X147070686Y-108680000D01*
X147075080Y-108675606D01*
X147127741Y-108584394D01*
X147155000Y-108482661D01*
X147155000Y-108377339D01*
X147127741Y-108275606D01*
X147075080Y-108184394D01*
X147070686Y-108180000D01*
X147909000Y-108180000D01*
X147909000Y-107685178D01*
X147880584Y-107505774D01*
X147824451Y-107333015D01*
X147741988Y-107171171D01*
X147635219Y-107024218D01*
X147635219Y-107024217D01*
X147506782Y-106895780D01*
X147359828Y-106789011D01*
X147197984Y-106706548D01*
X147025231Y-106650416D01*
X147025224Y-106650415D01*
X147005000Y-106647210D01*
X147005000Y-108114314D01*
X147000606Y-108109920D01*
X146909394Y-108057259D01*
X146807661Y-108030000D01*
X146702339Y-108030000D01*
X146600606Y-108057259D01*
X146509394Y-108109920D01*
X146505000Y-108114314D01*
X146505000Y-106647211D01*
X146504999Y-106647210D01*
X146484775Y-106650415D01*
X146484768Y-106650416D01*
X146312015Y-106706548D01*
X146150171Y-106789011D01*
X146003218Y-106895780D01*
X146003217Y-106895780D01*
X145874780Y-107024217D01*
X145874780Y-107024218D01*
X145768011Y-107171171D01*
X145685548Y-107333015D01*
X145629415Y-107505774D01*
X145607473Y-107644310D01*
X145577544Y-107707445D01*
X145518232Y-107744376D01*
X145448369Y-107743378D01*
X145390137Y-107704768D01*
X145362527Y-107644310D01*
X145340584Y-107505774D01*
X145284451Y-107333015D01*
X145201988Y-107171171D01*
X145095219Y-107024218D01*
X145095219Y-107024217D01*
X144966782Y-106895780D01*
X144819828Y-106789011D01*
X144657986Y-106706548D01*
X144540751Y-106668456D01*
X144483076Y-106629018D01*
X144455878Y-106564659D01*
X144467793Y-106495813D01*
X144491385Y-106462848D01*
X145776006Y-105178227D01*
X145776011Y-105178224D01*
X145786214Y-105168020D01*
X145786216Y-105168020D01*
X145898020Y-105056216D01*
X145901608Y-105050000D01*
X145952175Y-105001785D01*
X146008996Y-104988000D01*
X156785901Y-104988000D01*
X156852940Y-105007685D01*
X156898695Y-105060489D01*
X156908639Y-105129647D01*
X156879614Y-105193203D01*
X156820836Y-105230977D01*
X156820835Y-105230977D01*
X156789949Y-105240045D01*
X156668873Y-105317856D01*
X156574623Y-105426626D01*
X156574622Y-105426628D01*
X156514834Y-105557543D01*
X156494353Y-105700000D01*
X156514834Y-105842456D01*
X156563624Y-105949289D01*
X156574623Y-105973373D01*
X156619213Y-106024833D01*
X156648238Y-106088388D01*
X156649500Y-106106035D01*
X156649500Y-108582287D01*
X156638679Y-108619135D01*
X156648238Y-108640065D01*
X156649500Y-108657712D01*
X156649500Y-111246143D01*
X156671445Y-111328043D01*
X156671445Y-111328046D01*
X156671446Y-111328046D01*
X156673386Y-111335290D01*
X156719527Y-111415208D01*
X156719531Y-111415213D01*
X157363495Y-112059177D01*
X157396980Y-112120500D01*
X157398552Y-112129210D01*
X157414834Y-112242456D01*
X157474622Y-112373371D01*
X157474623Y-112373373D01*
X157568872Y-112482143D01*
X157689947Y-112559953D01*
X157689950Y-112559954D01*
X157689949Y-112559954D01*
X157797107Y-112591417D01*
X157812505Y-112595939D01*
X157828036Y-112600499D01*
X157828038Y-112600500D01*
X157828039Y-112600500D01*
X157971962Y-112600500D01*
X157971962Y-112600499D01*
X158110053Y-112559953D01*
X158231128Y-112482143D01*
X158325377Y-112373373D01*
X158385165Y-112242457D01*
X158405647Y-112100000D01*
X158385165Y-111957543D01*
X158325377Y-111826627D01*
X158231128Y-111717857D01*
X158110053Y-111640047D01*
X158110051Y-111640046D01*
X158110049Y-111640045D01*
X158110050Y-111640045D01*
X157971963Y-111599500D01*
X157971961Y-111599500D01*
X157946544Y-111599500D01*
X157879505Y-111579815D01*
X157858863Y-111563181D01*
X157386819Y-111091137D01*
X157353334Y-111029814D01*
X157350500Y-111003456D01*
X157350500Y-110524500D01*
X157370185Y-110457461D01*
X157422989Y-110411706D01*
X157474500Y-110400500D01*
X158419750Y-110400500D01*
X158419751Y-110400499D01*
X158434568Y-110397552D01*
X158478229Y-110388868D01*
X158478229Y-110388867D01*
X158478231Y-110388867D01*
X158544552Y-110344552D01*
X158588867Y-110278231D01*
X158588867Y-110278229D01*
X158588868Y-110278229D01*
X158600499Y-110219752D01*
X158600500Y-110219750D01*
X158600500Y-108980249D01*
X158600499Y-108980247D01*
X158588868Y-108921770D01*
X158588867Y-108921769D01*
X158544552Y-108855447D01*
X158478230Y-108811132D01*
X158478229Y-108811131D01*
X158419752Y-108799500D01*
X158419748Y-108799500D01*
X157474500Y-108799500D01*
X157407461Y-108779815D01*
X157361706Y-108727011D01*
X157350500Y-108675500D01*
X157350500Y-106106035D01*
X157370185Y-106038996D01*
X157380782Y-106024837D01*
X157425377Y-105973373D01*
X157485165Y-105842457D01*
X157505647Y-105700000D01*
X157485165Y-105557543D01*
X157425377Y-105426627D01*
X157331128Y-105317857D01*
X157210053Y-105240047D01*
X157210051Y-105240046D01*
X157210049Y-105240045D01*
X157210050Y-105240045D01*
X157179165Y-105230977D01*
X157120387Y-105193203D01*
X157091361Y-105129648D01*
X157101304Y-105060489D01*
X157147059Y-105007685D01*
X157214098Y-104988000D01*
X159840408Y-104988000D01*
X159907447Y-105007685D01*
X159940177Y-105038365D01*
X159949289Y-105050711D01*
X160055523Y-105129115D01*
X160055524Y-105129115D01*
X160055525Y-105129116D01*
X160180151Y-105172725D01*
X160180150Y-105172725D01*
X160209740Y-105175500D01*
X160209744Y-105175500D01*
X160790260Y-105175500D01*
X160819849Y-105172725D01*
X160867028Y-105156216D01*
X160944475Y-105129116D01*
X161018167Y-105074728D01*
X161083796Y-105050759D01*
X161091800Y-105050500D01*
X161712732Y-105050500D01*
X161779771Y-105070185D01*
X161812502Y-105100866D01*
X161840064Y-105138212D01*
X161849290Y-105150712D01*
X161949133Y-105224399D01*
X161991384Y-105280046D01*
X161999500Y-105324169D01*
X161999500Y-106900167D01*
X161979815Y-106967206D01*
X161927011Y-107012961D01*
X161857853Y-107022905D01*
X161794297Y-106993880D01*
X161787819Y-106987848D01*
X161211819Y-106411848D01*
X161178334Y-106350525D01*
X161175500Y-106324167D01*
X161175500Y-105809739D01*
X161172725Y-105780150D01*
X161129115Y-105655523D01*
X161050711Y-105549289D01*
X161050710Y-105549288D01*
X160944476Y-105470884D01*
X160819848Y-105427274D01*
X160819849Y-105427274D01*
X160790260Y-105424500D01*
X160790256Y-105424500D01*
X160209744Y-105424500D01*
X160209740Y-105424500D01*
X160180150Y-105427274D01*
X160055523Y-105470884D01*
X159949289Y-105549288D01*
X159949288Y-105549289D01*
X159870884Y-105655523D01*
X159827274Y-105780150D01*
X159824500Y-105809739D01*
X159824500Y-106515260D01*
X159827274Y-106544849D01*
X159870884Y-106669476D01*
X159949288Y-106775710D01*
X159949289Y-106775711D01*
X160055523Y-106854115D01*
X160055524Y-106854115D01*
X160055525Y-106854116D01*
X160180151Y-106897725D01*
X160180150Y-106897725D01*
X160209740Y-106900500D01*
X160209744Y-106900500D01*
X160790257Y-106900500D01*
X160793096Y-106900367D01*
X160860983Y-106916893D01*
X160886579Y-106936550D01*
X161318181Y-107368152D01*
X161351666Y-107429475D01*
X161354500Y-107455833D01*
X161354500Y-108682966D01*
X161334815Y-108750005D01*
X161282011Y-108795760D01*
X161254693Y-108804583D01*
X161221769Y-108811132D01*
X161168891Y-108846465D01*
X161102214Y-108867343D01*
X161034834Y-108848859D01*
X161031109Y-108846465D01*
X160978230Y-108811132D01*
X160978229Y-108811131D01*
X160919752Y-108799500D01*
X160919748Y-108799500D01*
X160180252Y-108799500D01*
X160180247Y-108799500D01*
X160121770Y-108811131D01*
X160121769Y-108811132D01*
X160068891Y-108846465D01*
X160002214Y-108867343D01*
X159934834Y-108848859D01*
X159931109Y-108846465D01*
X159878230Y-108811132D01*
X159878229Y-108811131D01*
X159819752Y-108799500D01*
X159819748Y-108799500D01*
X159080252Y-108799500D01*
X159080247Y-108799500D01*
X159021770Y-108811131D01*
X159021769Y-108811132D01*
X158955447Y-108855447D01*
X158911132Y-108921769D01*
X158911131Y-108921770D01*
X158899500Y-108980247D01*
X158899500Y-110219752D01*
X158911131Y-110278229D01*
X158911132Y-110278230D01*
X158955447Y-110344552D01*
X159021769Y-110388867D01*
X159021770Y-110388868D01*
X159080247Y-110400499D01*
X159080250Y-110400500D01*
X159080252Y-110400500D01*
X159819750Y-110400500D01*
X159819751Y-110400499D01*
X159834568Y-110397552D01*
X159878229Y-110388868D01*
X159878231Y-110388867D01*
X159931108Y-110353534D01*
X159997785Y-110332656D01*
X160065165Y-110351140D01*
X160068892Y-110353535D01*
X160121768Y-110388867D01*
X160121770Y-110388868D01*
X160180247Y-110400499D01*
X160180250Y-110400500D01*
X160180252Y-110400500D01*
X160424167Y-110400500D01*
X160491206Y-110420185D01*
X160511848Y-110436819D01*
X160960604Y-110885575D01*
X160994089Y-110946898D01*
X160995661Y-110990902D01*
X160994353Y-110999999D01*
X161014834Y-111142456D01*
X161062187Y-111246143D01*
X161074623Y-111273373D01*
X161168872Y-111382143D01*
X161289947Y-111459953D01*
X161289950Y-111459954D01*
X161289949Y-111459954D01*
X161428036Y-111500499D01*
X161428038Y-111500500D01*
X161428039Y-111500500D01*
X161571962Y-111500500D01*
X161571962Y-111500499D01*
X161710053Y-111459953D01*
X161831128Y-111382143D01*
X161925377Y-111273373D01*
X161966631Y-111183038D01*
X162012383Y-111130239D01*
X162079422Y-111110554D01*
X162146462Y-111130238D01*
X162154912Y-111136181D01*
X162160490Y-111140461D01*
X162229004Y-111180017D01*
X162229011Y-111180021D01*
X162305438Y-111200500D01*
X162384562Y-111200500D01*
X162841499Y-111200500D01*
X162908538Y-111220185D01*
X162935211Y-111243296D01*
X162968872Y-111282143D01*
X163089947Y-111359953D01*
X163089950Y-111359954D01*
X163089949Y-111359954D01*
X163228036Y-111400499D01*
X163228038Y-111400500D01*
X163228039Y-111400500D01*
X163371962Y-111400500D01*
X163371962Y-111400499D01*
X163510053Y-111359953D01*
X163631128Y-111282143D01*
X163706287Y-111195403D01*
X163765064Y-111157629D01*
X163834934Y-111157629D01*
X163893711Y-111195402D01*
X163968872Y-111282143D01*
X164089947Y-111359953D01*
X164089950Y-111359954D01*
X164089949Y-111359954D01*
X164228036Y-111400499D01*
X164228038Y-111400500D01*
X164228039Y-111400500D01*
X164371962Y-111400500D01*
X164371962Y-111400499D01*
X164510053Y-111359953D01*
X164631128Y-111282143D01*
X164725377Y-111173373D01*
X164785165Y-111042457D01*
X164805647Y-110900000D01*
X164785165Y-110757543D01*
X164758886Y-110700000D01*
X165200000Y-110700000D01*
X165347828Y-110700000D01*
X165347844Y-110699999D01*
X165407372Y-110693598D01*
X165407379Y-110693596D01*
X165542086Y-110643354D01*
X165542093Y-110643350D01*
X165657187Y-110557190D01*
X165657190Y-110557187D01*
X165737290Y-110450189D01*
X165793223Y-110408318D01*
X165836556Y-110400500D01*
X165924167Y-110400500D01*
X165991206Y-110420185D01*
X166011848Y-110436819D01*
X166460604Y-110885575D01*
X166494089Y-110946898D01*
X166495661Y-110990902D01*
X166494353Y-110999999D01*
X166514834Y-111142456D01*
X166562187Y-111246143D01*
X166574623Y-111273373D01*
X166668872Y-111382143D01*
X166789947Y-111459953D01*
X166789950Y-111459954D01*
X166789949Y-111459954D01*
X166928036Y-111500499D01*
X166928038Y-111500500D01*
X166928039Y-111500500D01*
X167071962Y-111500500D01*
X167071962Y-111500499D01*
X167210053Y-111459953D01*
X167331128Y-111382143D01*
X167425377Y-111273373D01*
X167485165Y-111142457D01*
X167505647Y-111000000D01*
X167485165Y-110857543D01*
X167485165Y-110857542D01*
X167482667Y-110849036D01*
X167485067Y-110848331D01*
X167477011Y-110792307D01*
X167506034Y-110728751D01*
X167564811Y-110690975D01*
X167634681Y-110690973D01*
X167642431Y-110693552D01*
X167642627Y-110693598D01*
X167702155Y-110699999D01*
X167702172Y-110700000D01*
X167850000Y-110700000D01*
X167850000Y-108500000D01*
X168350000Y-108500000D01*
X168350000Y-109350000D01*
X168950000Y-109350000D01*
X168950000Y-108952172D01*
X168949999Y-108952155D01*
X168943598Y-108892627D01*
X168943596Y-108892620D01*
X168893354Y-108757913D01*
X168893350Y-108757906D01*
X168807190Y-108642812D01*
X168807187Y-108642809D01*
X168692093Y-108556649D01*
X168692086Y-108556645D01*
X168557379Y-108506403D01*
X168557372Y-108506401D01*
X168497844Y-108500000D01*
X168350000Y-108500000D01*
X167850000Y-108500000D01*
X167702155Y-108500000D01*
X167642627Y-108506401D01*
X167642620Y-108506403D01*
X167507913Y-108556645D01*
X167507906Y-108556649D01*
X167392812Y-108642809D01*
X167392809Y-108642812D01*
X167312710Y-108749811D01*
X167256777Y-108791682D01*
X167213444Y-108799500D01*
X166837332Y-108799500D01*
X166770293Y-108779815D01*
X166724538Y-108727011D01*
X166714594Y-108657853D01*
X166743619Y-108594297D01*
X166749651Y-108587819D01*
X166921680Y-108415790D01*
X167340460Y-107997011D01*
X167361346Y-107960835D01*
X167380021Y-107928489D01*
X167400500Y-107852062D01*
X167400500Y-107392477D01*
X167420185Y-107325438D01*
X167472989Y-107279683D01*
X167483522Y-107275444D01*
X167544475Y-107254116D01*
X167650711Y-107175711D01*
X167729116Y-107069475D01*
X167772725Y-106944849D01*
X167773503Y-106936550D01*
X167775500Y-106915260D01*
X167775500Y-106209739D01*
X167772725Y-106180150D01*
X167729115Y-106055523D01*
X167650711Y-105949289D01*
X167650710Y-105949288D01*
X167544476Y-105870884D01*
X167419848Y-105827274D01*
X167419849Y-105827274D01*
X167390260Y-105824500D01*
X167390256Y-105824500D01*
X166809744Y-105824500D01*
X166809740Y-105824500D01*
X166780150Y-105827274D01*
X166655523Y-105870884D01*
X166549289Y-105949288D01*
X166549288Y-105949289D01*
X166470884Y-106055523D01*
X166427274Y-106180150D01*
X166424500Y-106209739D01*
X166424500Y-106915260D01*
X166427274Y-106944849D01*
X166470884Y-107069476D01*
X166502466Y-107112268D01*
X166549289Y-107175711D01*
X166655525Y-107254116D01*
X166716457Y-107275437D01*
X166773230Y-107316157D01*
X166798978Y-107381109D01*
X166799500Y-107392477D01*
X166799500Y-107636667D01*
X166779815Y-107703706D01*
X166763181Y-107724348D01*
X166071739Y-108415790D01*
X165870489Y-108617040D01*
X165847464Y-108640065D01*
X165838633Y-108648896D01*
X165777309Y-108682380D01*
X165707618Y-108677394D01*
X165663272Y-108648894D01*
X165657187Y-108642809D01*
X165542093Y-108556649D01*
X165542086Y-108556645D01*
X165407379Y-108506403D01*
X165407372Y-108506401D01*
X165347844Y-108500000D01*
X165200000Y-108500000D01*
X165200000Y-110700000D01*
X164758886Y-110700000D01*
X164725377Y-110626627D01*
X164725374Y-110626624D01*
X164720582Y-110619166D01*
X164723445Y-110617325D01*
X164701257Y-110568699D01*
X164700000Y-110551090D01*
X164700000Y-108676332D01*
X164719685Y-108609293D01*
X164736314Y-108588656D01*
X164740460Y-108584511D01*
X164780022Y-108515988D01*
X164800500Y-108439562D01*
X164800500Y-108360438D01*
X164800500Y-107079977D01*
X164820185Y-107012938D01*
X164872989Y-106967183D01*
X164883522Y-106962944D01*
X164944475Y-106941616D01*
X165050711Y-106863211D01*
X165129116Y-106756975D01*
X165172725Y-106632349D01*
X165175500Y-106602756D01*
X165175500Y-105897244D01*
X165172725Y-105867651D01*
X165152460Y-105809739D01*
X165129115Y-105743023D01*
X165050712Y-105636790D01*
X165050709Y-105636788D01*
X165016810Y-105611769D01*
X164974561Y-105556122D01*
X164969102Y-105486466D01*
X165002170Y-105424917D01*
X165063264Y-105391016D01*
X165090445Y-105388000D01*
X166440408Y-105388000D01*
X166507447Y-105407685D01*
X166540177Y-105438365D01*
X166549289Y-105450711D01*
X166655523Y-105529115D01*
X166655524Y-105529115D01*
X166655525Y-105529116D01*
X166780151Y-105572725D01*
X166780150Y-105572725D01*
X166809740Y-105575500D01*
X166809744Y-105575500D01*
X167390260Y-105575500D01*
X167419849Y-105572725D01*
X167544475Y-105529116D01*
X167650711Y-105450711D01*
X167659823Y-105438365D01*
X167715471Y-105396115D01*
X167759592Y-105388000D01*
X170179055Y-105388000D01*
X170179057Y-105388000D01*
X170331784Y-105347077D01*
X170468716Y-105268020D01*
X170537819Y-105198917D01*
X170599142Y-105165432D01*
X170668834Y-105170416D01*
X170724767Y-105212288D01*
X170749184Y-105277752D01*
X170749500Y-105286598D01*
X170749500Y-110297431D01*
X170729815Y-110364470D01*
X170719213Y-110378634D01*
X170697123Y-110404127D01*
X170697122Y-110404128D01*
X170637334Y-110535043D01*
X170616853Y-110677500D01*
X170637334Y-110819956D01*
X170654500Y-110857543D01*
X170697123Y-110950873D01*
X170791372Y-111059643D01*
X170912447Y-111137453D01*
X170912450Y-111137454D01*
X170912449Y-111137454D01*
X171050536Y-111177999D01*
X171050538Y-111178000D01*
X171050539Y-111178000D01*
X171194462Y-111178000D01*
X171194462Y-111177999D01*
X171332553Y-111137453D01*
X171453628Y-111059643D01*
X171547877Y-110950873D01*
X171607665Y-110819957D01*
X171628147Y-110677500D01*
X171607665Y-110535043D01*
X171547877Y-110404127D01*
X171480786Y-110326699D01*
X171451762Y-110263143D01*
X171450500Y-110245497D01*
X171450500Y-97193198D01*
X171450500Y-97193196D01*
X171426614Y-97104052D01*
X171422048Y-97096144D01*
X171380470Y-97024128D01*
X167375872Y-93019530D01*
X167375871Y-93019529D01*
X167375868Y-93019527D01*
X167295951Y-92973387D01*
X167295947Y-92973385D01*
X167290586Y-92971949D01*
X167290586Y-92971948D01*
X167222136Y-92953608D01*
X167206804Y-92949500D01*
X167206803Y-92949500D01*
X156613895Y-92949500D01*
X156546856Y-92929815D01*
X156532688Y-92919210D01*
X156531132Y-92917862D01*
X156531128Y-92917857D01*
X156410053Y-92840047D01*
X156410051Y-92840046D01*
X156410049Y-92840045D01*
X156410050Y-92840045D01*
X156271963Y-92799500D01*
X156271961Y-92799500D01*
X156128039Y-92799500D01*
X156128036Y-92799500D01*
X155989949Y-92840045D01*
X155868873Y-92917856D01*
X155774623Y-93026626D01*
X155774622Y-93026628D01*
X155714834Y-93157543D01*
X155694353Y-93300000D01*
X155714834Y-93442456D01*
X155774622Y-93573371D01*
X155774623Y-93573373D01*
X155868872Y-93682143D01*
X155989947Y-93759953D01*
X155989950Y-93759954D01*
X155989949Y-93759954D01*
X156128036Y-93800499D01*
X156128038Y-93800500D01*
X156128039Y-93800500D01*
X156271962Y-93800500D01*
X156271962Y-93800499D01*
X156410053Y-93759953D01*
X156531128Y-93682143D01*
X156531136Y-93682133D01*
X156532688Y-93680790D01*
X156534572Y-93679929D01*
X156538589Y-93677348D01*
X156538960Y-93677925D01*
X156596243Y-93651763D01*
X156613895Y-93650500D01*
X166964116Y-93650500D01*
X167031155Y-93670185D01*
X167051797Y-93686819D01*
X170713181Y-97348203D01*
X170746666Y-97409526D01*
X170749500Y-97435884D01*
X170749500Y-100815074D01*
X170729815Y-100882113D01*
X170677011Y-100927868D01*
X170611621Y-100938295D01*
X170599161Y-100936891D01*
X170236053Y-101300000D01*
X170599160Y-101663106D01*
X170611621Y-101661703D01*
X170680442Y-101673760D01*
X170731820Y-101721111D01*
X170749500Y-101784924D01*
X170749500Y-102215074D01*
X170729815Y-102282113D01*
X170677011Y-102327868D01*
X170611621Y-102338295D01*
X170599161Y-102336891D01*
X170236053Y-102700000D01*
X170599160Y-103063106D01*
X170611621Y-103061703D01*
X170680442Y-103073760D01*
X170731820Y-103121111D01*
X170749500Y-103184924D01*
X170749500Y-104288402D01*
X170729815Y-104355441D01*
X170677011Y-104401196D01*
X170607853Y-104411140D01*
X170544297Y-104382115D01*
X170537819Y-104376083D01*
X170468717Y-104306981D01*
X170468709Y-104306975D01*
X170331790Y-104227926D01*
X170331786Y-104227924D01*
X170331784Y-104227923D01*
X170179057Y-104187000D01*
X170179056Y-104187000D01*
X169667308Y-104187000D01*
X169600269Y-104167315D01*
X169579627Y-104150681D01*
X169182501Y-103753553D01*
X169182500Y-103753553D01*
X168785372Y-104150681D01*
X168724049Y-104184166D01*
X168697691Y-104187000D01*
X168267308Y-104187000D01*
X168200269Y-104167315D01*
X168179627Y-104150681D01*
X167782500Y-103753553D01*
X167448839Y-103419891D01*
X167682500Y-103419891D01*
X167697724Y-103456645D01*
X167725855Y-103484776D01*
X167762609Y-103500000D01*
X167802391Y-103500000D01*
X167839145Y-103484776D01*
X167867276Y-103456645D01*
X167882500Y-103419891D01*
X167882500Y-103400000D01*
X168136053Y-103400000D01*
X168482500Y-103746446D01*
X168482501Y-103746446D01*
X168809055Y-103419891D01*
X169082500Y-103419891D01*
X169097724Y-103456645D01*
X169125855Y-103484776D01*
X169162609Y-103500000D01*
X169202391Y-103500000D01*
X169239145Y-103484776D01*
X169267276Y-103456645D01*
X169282500Y-103419891D01*
X169282500Y-103400000D01*
X169536053Y-103400000D01*
X169899160Y-103763106D01*
X169899161Y-103763106D01*
X169907834Y-103749306D01*
X169907834Y-103749305D01*
X169967376Y-103579144D01*
X169967556Y-103578358D01*
X169967811Y-103577901D01*
X169969677Y-103572570D01*
X169970610Y-103572896D01*
X170001664Y-103517379D01*
X170055375Y-103488049D01*
X170055070Y-103487177D01*
X170060370Y-103485322D01*
X170060858Y-103485056D01*
X170061644Y-103484876D01*
X170231805Y-103425334D01*
X170231806Y-103425334D01*
X170245606Y-103416661D01*
X170245606Y-103416660D01*
X169882500Y-103053553D01*
X169824807Y-103111247D01*
X169824806Y-103111248D01*
X169536053Y-103400000D01*
X169282500Y-103400000D01*
X169282500Y-103380109D01*
X169267276Y-103343355D01*
X169239145Y-103315224D01*
X169202391Y-103300000D01*
X169162609Y-103300000D01*
X169125855Y-103315224D01*
X169097724Y-103343355D01*
X169082500Y-103380109D01*
X169082500Y-103419891D01*
X168809055Y-103419891D01*
X168828946Y-103400000D01*
X168540193Y-103111247D01*
X168482500Y-103053553D01*
X168424807Y-103111247D01*
X168424806Y-103111248D01*
X168136053Y-103400000D01*
X167882500Y-103400000D01*
X167882500Y-103380109D01*
X167867276Y-103343355D01*
X167839145Y-103315224D01*
X167802391Y-103300000D01*
X167762609Y-103300000D01*
X167725855Y-103315224D01*
X167697724Y-103343355D01*
X167682500Y-103380109D01*
X167682500Y-103419891D01*
X167448839Y-103419891D01*
X167443236Y-103414288D01*
X167443226Y-103414280D01*
X167082499Y-103053553D01*
X167082498Y-103053553D01*
X166719392Y-103416660D01*
X166719392Y-103416661D01*
X166733192Y-103425333D01*
X166733191Y-103425333D01*
X166903362Y-103484878D01*
X166904144Y-103485057D01*
X166904597Y-103485310D01*
X166909931Y-103487177D01*
X166909604Y-103488111D01*
X166965123Y-103519166D01*
X166994452Y-103572875D01*
X166995323Y-103572571D01*
X166997172Y-103577855D01*
X166997440Y-103578346D01*
X166997620Y-103579137D01*
X167057163Y-103749301D01*
X167156782Y-103907844D01*
X167154584Y-103909224D01*
X167176486Y-103962871D01*
X167163732Y-104031567D01*
X167115862Y-104082462D01*
X167053131Y-104099500D01*
X166809740Y-104099500D01*
X166780150Y-104102274D01*
X166655525Y-104145883D01*
X166632644Y-104162771D01*
X166567015Y-104186741D01*
X166559011Y-104187000D01*
X165276226Y-104187000D01*
X165209187Y-104167315D01*
X165163432Y-104114511D01*
X165159185Y-104103955D01*
X165146661Y-104068166D01*
X165129116Y-104018025D01*
X165050711Y-103911789D01*
X165045366Y-103907844D01*
X164944476Y-103833384D01*
X164819848Y-103789774D01*
X164819849Y-103789774D01*
X164790260Y-103787000D01*
X164790256Y-103787000D01*
X164209744Y-103787000D01*
X164209740Y-103787000D01*
X164180150Y-103789774D01*
X164172248Y-103792540D01*
X164131290Y-103799500D01*
X163292845Y-103799500D01*
X163225806Y-103779815D01*
X163180051Y-103727011D01*
X163170107Y-103657853D01*
X163199132Y-103594297D01*
X163205164Y-103587819D01*
X163219944Y-103573038D01*
X163219947Y-103573034D01*
X163310448Y-103426311D01*
X163310453Y-103426300D01*
X163364680Y-103262652D01*
X163374999Y-103161654D01*
X163375000Y-103161641D01*
X163375000Y-103062500D01*
X161425001Y-103062500D01*
X161425001Y-103161654D01*
X161435319Y-103262652D01*
X161489546Y-103426300D01*
X161489551Y-103426311D01*
X161580052Y-103573034D01*
X161580055Y-103573038D01*
X161644836Y-103637819D01*
X161678321Y-103699142D01*
X161673337Y-103768834D01*
X161631465Y-103824767D01*
X161566001Y-103849184D01*
X161557155Y-103849500D01*
X161125674Y-103849500D01*
X161058635Y-103829815D01*
X161052041Y-103825270D01*
X160944476Y-103745884D01*
X160819848Y-103702274D01*
X160819849Y-103702274D01*
X160790260Y-103699500D01*
X160790256Y-103699500D01*
X160209744Y-103699500D01*
X160209740Y-103699500D01*
X160180150Y-103702274D01*
X160055525Y-103745883D01*
X160032644Y-103762771D01*
X159967015Y-103786741D01*
X159959011Y-103787000D01*
X145717597Y-103787000D01*
X145650558Y-103767315D01*
X145629916Y-103750681D01*
X145285379Y-103406144D01*
X145251894Y-103344821D01*
X145256878Y-103275129D01*
X145298750Y-103219196D01*
X145364214Y-103194779D01*
X145397249Y-103196845D01*
X145455837Y-103208499D01*
X145455838Y-103208500D01*
X145455839Y-103208500D01*
X145624162Y-103208500D01*
X145624163Y-103208499D01*
X145789249Y-103175662D01*
X145944758Y-103111248D01*
X145944764Y-103111244D01*
X146016806Y-103063107D01*
X146084712Y-103017734D01*
X146203734Y-102898712D01*
X146297248Y-102758758D01*
X146361662Y-102603249D01*
X146394499Y-102438165D01*
X147225500Y-102438165D01*
X147258336Y-102603241D01*
X147258338Y-102603249D01*
X147322750Y-102758755D01*
X147322755Y-102758764D01*
X147416265Y-102898711D01*
X147416268Y-102898715D01*
X147535284Y-103017731D01*
X147535288Y-103017734D01*
X147675235Y-103111244D01*
X147675242Y-103111248D01*
X147830751Y-103175662D01*
X147952016Y-103199783D01*
X147995834Y-103208499D01*
X147995838Y-103208500D01*
X147995839Y-103208500D01*
X148164162Y-103208500D01*
X148164163Y-103208499D01*
X148329249Y-103175662D01*
X148484758Y-103111248D01*
X148484764Y-103111244D01*
X148556806Y-103063107D01*
X148624712Y-103017734D01*
X148743734Y-102898712D01*
X148837248Y-102758758D01*
X148901662Y-102603249D01*
X148934499Y-102438165D01*
X149765500Y-102438165D01*
X149798336Y-102603241D01*
X149798338Y-102603249D01*
X149862750Y-102758755D01*
X149862755Y-102758764D01*
X149956265Y-102898711D01*
X149956268Y-102898715D01*
X150075284Y-103017731D01*
X150075288Y-103017734D01*
X150215235Y-103111244D01*
X150215242Y-103111248D01*
X150370751Y-103175662D01*
X150492016Y-103199783D01*
X150535834Y-103208499D01*
X150535838Y-103208500D01*
X150535839Y-103208500D01*
X150704162Y-103208500D01*
X150704163Y-103208499D01*
X150869249Y-103175662D01*
X151024758Y-103111248D01*
X151024764Y-103111244D01*
X151096806Y-103063107D01*
X151164712Y-103017734D01*
X151283734Y-102898712D01*
X151377248Y-102758758D01*
X151401586Y-102700002D01*
X166277438Y-102700002D01*
X166297621Y-102879138D01*
X166357165Y-103049304D01*
X166365838Y-103063107D01*
X166709055Y-102719891D01*
X166982500Y-102719891D01*
X166997724Y-102756645D01*
X167025855Y-102784776D01*
X167062609Y-102800000D01*
X167102391Y-102800000D01*
X167139145Y-102784776D01*
X167167276Y-102756645D01*
X167182500Y-102719891D01*
X167182500Y-102699999D01*
X167436053Y-102699999D01*
X167782500Y-103046446D01*
X168081077Y-102747869D01*
X168109054Y-102719891D01*
X168382500Y-102719891D01*
X168397724Y-102756645D01*
X168425855Y-102784776D01*
X168462609Y-102800000D01*
X168502391Y-102800000D01*
X168539145Y-102784776D01*
X168567276Y-102756645D01*
X168582500Y-102719891D01*
X168582500Y-102699999D01*
X168836053Y-102699999D01*
X169182500Y-103046446D01*
X169481077Y-102747869D01*
X169509054Y-102719891D01*
X169782500Y-102719891D01*
X169797724Y-102756645D01*
X169825855Y-102784776D01*
X169862609Y-102800000D01*
X169902391Y-102800000D01*
X169939145Y-102784776D01*
X169967276Y-102756645D01*
X169982500Y-102719891D01*
X169982500Y-102680109D01*
X169967276Y-102643355D01*
X169939145Y-102615224D01*
X169902391Y-102600000D01*
X169862609Y-102600000D01*
X169825855Y-102615224D01*
X169797724Y-102643355D01*
X169782500Y-102680109D01*
X169782500Y-102719891D01*
X169509054Y-102719891D01*
X169528946Y-102699998D01*
X169182501Y-102353553D01*
X169182500Y-102353553D01*
X168836053Y-102699998D01*
X168836053Y-102699999D01*
X168582500Y-102699999D01*
X168582500Y-102680109D01*
X168567276Y-102643355D01*
X168539145Y-102615224D01*
X168502391Y-102600000D01*
X168462609Y-102600000D01*
X168425855Y-102615224D01*
X168397724Y-102643355D01*
X168382500Y-102680109D01*
X168382500Y-102719891D01*
X168109054Y-102719891D01*
X168128946Y-102699998D01*
X167782501Y-102353553D01*
X167782500Y-102353553D01*
X167436053Y-102699998D01*
X167436053Y-102699999D01*
X167182500Y-102699999D01*
X167182500Y-102680109D01*
X167167276Y-102643355D01*
X167139145Y-102615224D01*
X167102391Y-102600000D01*
X167062609Y-102600000D01*
X167025855Y-102615224D01*
X166997724Y-102643355D01*
X166982500Y-102680109D01*
X166982500Y-102719891D01*
X166709055Y-102719891D01*
X166728946Y-102700000D01*
X166728946Y-102699999D01*
X166365838Y-102336891D01*
X166365837Y-102336891D01*
X166357167Y-102350691D01*
X166357162Y-102350701D01*
X166297622Y-102520858D01*
X166297621Y-102520861D01*
X166277438Y-102699997D01*
X166277438Y-102700002D01*
X151401586Y-102700002D01*
X151441662Y-102603249D01*
X151449767Y-102562500D01*
X161425000Y-102562500D01*
X162150000Y-102562500D01*
X162150000Y-101775000D01*
X162650000Y-101775000D01*
X162650000Y-102562500D01*
X163374999Y-102562500D01*
X163374999Y-102463360D01*
X163374998Y-102463345D01*
X163364680Y-102362347D01*
X163310453Y-102198699D01*
X163310448Y-102198688D01*
X163219947Y-102051965D01*
X163219944Y-102051961D01*
X163167983Y-102000000D01*
X166736053Y-102000000D01*
X167069998Y-102333946D01*
X167069999Y-102333946D01*
X167409055Y-101994891D01*
X167682500Y-101994891D01*
X167697724Y-102031645D01*
X167725855Y-102059776D01*
X167762609Y-102075000D01*
X167802391Y-102075000D01*
X167839145Y-102059776D01*
X167867276Y-102031645D01*
X167882500Y-101994891D01*
X167882500Y-101987500D01*
X168148553Y-101987500D01*
X168482500Y-102321446D01*
X168482501Y-102321446D01*
X168809056Y-101994891D01*
X169082500Y-101994891D01*
X169097724Y-102031645D01*
X169125855Y-102059776D01*
X169162609Y-102075000D01*
X169202391Y-102075000D01*
X169239145Y-102059776D01*
X169267276Y-102031645D01*
X169282500Y-101994891D01*
X169282500Y-101987500D01*
X169548553Y-101987500D01*
X169895000Y-102333946D01*
X169895001Y-102333946D01*
X170228946Y-102000001D01*
X170228946Y-101999999D01*
X169882501Y-101653553D01*
X169882500Y-101653553D01*
X169548553Y-101987500D01*
X169282500Y-101987500D01*
X169282500Y-101955109D01*
X169267276Y-101918355D01*
X169239145Y-101890224D01*
X169202391Y-101875000D01*
X169162609Y-101875000D01*
X169125855Y-101890224D01*
X169097724Y-101918355D01*
X169082500Y-101955109D01*
X169082500Y-101994891D01*
X168809056Y-101994891D01*
X168816446Y-101987501D01*
X168816446Y-101987499D01*
X168482501Y-101653553D01*
X168482500Y-101653553D01*
X168148553Y-101987500D01*
X167882500Y-101987500D01*
X167882500Y-101955109D01*
X167867276Y-101918355D01*
X167839145Y-101890224D01*
X167802391Y-101875000D01*
X167762609Y-101875000D01*
X167725855Y-101890224D01*
X167697724Y-101918355D01*
X167682500Y-101955109D01*
X167682500Y-101994891D01*
X167409055Y-101994891D01*
X167416446Y-101987500D01*
X167416446Y-101987499D01*
X167082501Y-101653553D01*
X167082500Y-101653553D01*
X166736053Y-102000000D01*
X163167983Y-102000000D01*
X163098038Y-101930055D01*
X163098034Y-101930052D01*
X162951311Y-101839551D01*
X162951300Y-101839546D01*
X162787652Y-101785319D01*
X162686654Y-101775000D01*
X162650000Y-101775000D01*
X162150000Y-101775000D01*
X162113361Y-101775000D01*
X162113343Y-101775001D01*
X162012347Y-101785319D01*
X161848699Y-101839546D01*
X161848688Y-101839551D01*
X161701965Y-101930052D01*
X161701961Y-101930055D01*
X161580055Y-102051961D01*
X161580052Y-102051965D01*
X161489551Y-102198688D01*
X161489546Y-102198699D01*
X161435319Y-102362347D01*
X161425000Y-102463345D01*
X161425000Y-102562500D01*
X151449767Y-102562500D01*
X151474500Y-102438161D01*
X151474500Y-100961839D01*
X151441662Y-100796751D01*
X151388849Y-100669249D01*
X151377249Y-100641244D01*
X151377244Y-100641235D01*
X151283734Y-100501288D01*
X151283731Y-100501284D01*
X151164715Y-100382268D01*
X151164711Y-100382265D01*
X151024764Y-100288755D01*
X151024755Y-100288750D01*
X150869249Y-100224338D01*
X150869241Y-100224336D01*
X150704165Y-100191500D01*
X150704161Y-100191500D01*
X150535839Y-100191500D01*
X150535834Y-100191500D01*
X150370758Y-100224336D01*
X150370750Y-100224338D01*
X150215244Y-100288750D01*
X150215235Y-100288755D01*
X150075288Y-100382265D01*
X150075284Y-100382268D01*
X149956268Y-100501284D01*
X149956265Y-100501288D01*
X149862755Y-100641235D01*
X149862750Y-100641244D01*
X149798338Y-100796750D01*
X149798336Y-100796758D01*
X149765500Y-100961834D01*
X149765500Y-102438165D01*
X148934499Y-102438165D01*
X148934500Y-102438161D01*
X148934500Y-100961839D01*
X148901662Y-100796751D01*
X148848849Y-100669249D01*
X148837249Y-100641244D01*
X148837244Y-100641235D01*
X148743734Y-100501288D01*
X148743731Y-100501284D01*
X148624715Y-100382268D01*
X148624711Y-100382265D01*
X148484764Y-100288755D01*
X148484755Y-100288750D01*
X148329249Y-100224338D01*
X148329241Y-100224336D01*
X148164165Y-100191500D01*
X148164161Y-100191500D01*
X147995839Y-100191500D01*
X147995834Y-100191500D01*
X147830758Y-100224336D01*
X147830750Y-100224338D01*
X147675244Y-100288750D01*
X147675235Y-100288755D01*
X147535288Y-100382265D01*
X147535284Y-100382268D01*
X147416268Y-100501284D01*
X147416265Y-100501288D01*
X147322755Y-100641235D01*
X147322750Y-100641244D01*
X147258338Y-100796750D01*
X147258336Y-100796758D01*
X147225500Y-100961834D01*
X147225500Y-102438165D01*
X146394499Y-102438165D01*
X146394500Y-102438161D01*
X146394500Y-100961839D01*
X146361662Y-100796751D01*
X146308849Y-100669249D01*
X146297249Y-100641244D01*
X146297244Y-100641235D01*
X146203734Y-100501288D01*
X146203731Y-100501284D01*
X146084715Y-100382268D01*
X146084711Y-100382265D01*
X145944764Y-100288755D01*
X145944755Y-100288750D01*
X145789249Y-100224338D01*
X145789241Y-100224336D01*
X145624165Y-100191500D01*
X145624161Y-100191500D01*
X145455839Y-100191500D01*
X145455834Y-100191500D01*
X145290758Y-100224336D01*
X145290750Y-100224338D01*
X145135244Y-100288750D01*
X145135235Y-100288755D01*
X144995288Y-100382265D01*
X144995284Y-100382268D01*
X144876268Y-100501284D01*
X144876265Y-100501288D01*
X144782755Y-100641235D01*
X144782750Y-100641244D01*
X144718338Y-100796750D01*
X144718336Y-100796758D01*
X144685500Y-100961834D01*
X144685500Y-102438165D01*
X144697153Y-102496748D01*
X144690926Y-102566340D01*
X144648063Y-102621517D01*
X144582173Y-102644761D01*
X144514176Y-102628693D01*
X144487855Y-102608620D01*
X143890819Y-102011584D01*
X143857334Y-101950261D01*
X143854500Y-101923903D01*
X143854500Y-100961838D01*
X143854499Y-100961834D01*
X143852852Y-100953553D01*
X143821662Y-100796751D01*
X143768849Y-100669249D01*
X143757249Y-100641244D01*
X143757244Y-100641235D01*
X143663734Y-100501288D01*
X143663731Y-100501284D01*
X143544715Y-100382268D01*
X143544711Y-100382265D01*
X143404764Y-100288755D01*
X143404755Y-100288750D01*
X143249249Y-100224338D01*
X143249241Y-100224336D01*
X143084165Y-100191500D01*
X143084161Y-100191500D01*
X142915839Y-100191500D01*
X142915834Y-100191500D01*
X142750758Y-100224336D01*
X142750750Y-100224338D01*
X142595244Y-100288750D01*
X142595235Y-100288755D01*
X142455288Y-100382265D01*
X142455284Y-100382268D01*
X142336268Y-100501284D01*
X142336265Y-100501288D01*
X142242755Y-100641235D01*
X142242750Y-100641244D01*
X142178338Y-100796750D01*
X142178336Y-100796758D01*
X142145500Y-100961834D01*
X142145500Y-102438165D01*
X142178336Y-102603241D01*
X142178338Y-102603249D01*
X142242750Y-102758755D01*
X142242755Y-102758764D01*
X142336265Y-102898711D01*
X142336268Y-102898715D01*
X142455284Y-103017731D01*
X142455288Y-103017734D01*
X142595235Y-103111244D01*
X142595242Y-103111248D01*
X142750751Y-103175662D01*
X142872016Y-103199783D01*
X142915834Y-103208499D01*
X142915838Y-103208500D01*
X142915839Y-103208500D01*
X143084162Y-103208500D01*
X143084163Y-103208499D01*
X143249249Y-103175662D01*
X143249261Y-103175656D01*
X143255076Y-103173894D01*
X143255479Y-103175225D01*
X143317957Y-103168508D01*
X143380436Y-103199783D01*
X143383622Y-103202857D01*
X144630583Y-104449818D01*
X144664068Y-104511141D01*
X144659084Y-104580833D01*
X144630583Y-104625180D01*
X142245983Y-107009780D01*
X142184660Y-107043265D01*
X142114968Y-107038281D01*
X142089413Y-107025202D01*
X142079767Y-107018757D01*
X142079755Y-107018750D01*
X141924249Y-106954338D01*
X141924241Y-106954336D01*
X141759165Y-106921500D01*
X141759161Y-106921500D01*
X141590839Y-106921500D01*
X141590834Y-106921500D01*
X141425758Y-106954336D01*
X141425750Y-106954338D01*
X141270244Y-107018750D01*
X141270235Y-107018755D01*
X141130288Y-107112265D01*
X141130284Y-107112268D01*
X141011268Y-107231284D01*
X141011265Y-107231288D01*
X140917755Y-107371235D01*
X140917750Y-107371244D01*
X140853338Y-107526750D01*
X140853336Y-107526758D01*
X140820500Y-107691834D01*
X140820500Y-109168165D01*
X140853336Y-109333241D01*
X140853338Y-109333249D01*
X140917750Y-109488755D01*
X140917755Y-109488764D01*
X141011264Y-109628710D01*
X141011265Y-109628711D01*
X141011266Y-109628712D01*
X141038181Y-109655627D01*
X141071666Y-109716948D01*
X141074500Y-109743308D01*
X141074500Y-112588330D01*
X141074499Y-112588348D01*
X141074499Y-112764046D01*
X141074500Y-112764059D01*
X141074500Y-113213330D01*
X141074499Y-113213348D01*
X141074499Y-113389046D01*
X141074500Y-113389059D01*
X141074500Y-114613330D01*
X141074499Y-114613348D01*
X141074499Y-114736692D01*
X141054814Y-114803731D01*
X141038180Y-114824373D01*
X141011268Y-114851284D01*
X141011265Y-114851288D01*
X140917755Y-114991235D01*
X140917750Y-114991244D01*
X140853338Y-115146750D01*
X140853336Y-115146758D01*
X140820500Y-115311834D01*
X140820500Y-116788165D01*
X140853336Y-116953241D01*
X140853338Y-116953249D01*
X140917750Y-117108755D01*
X140917755Y-117108764D01*
X141011264Y-117248710D01*
X141011265Y-117248711D01*
X141011266Y-117248712D01*
X141038181Y-117275627D01*
X141071666Y-117336948D01*
X141074500Y-117363308D01*
X141074500Y-118524902D01*
X141054815Y-118591941D01*
X141038181Y-118612583D01*
X140119483Y-119531281D01*
X140119481Y-119531284D01*
X140040423Y-119668214D01*
X140028535Y-119712580D01*
X139999499Y-119820943D01*
X139999499Y-119820945D01*
X139999499Y-119979054D01*
X139999498Y-119979054D01*
X122500500Y-119979054D01*
X122500500Y-117594802D01*
X128800500Y-117594802D01*
X128837486Y-117780743D01*
X128837488Y-117780751D01*
X128910042Y-117955912D01*
X129015377Y-118113558D01*
X129149441Y-118247622D01*
X129254300Y-118317686D01*
X129307085Y-118352956D01*
X129482249Y-118425512D01*
X129668197Y-118462499D01*
X129668201Y-118462500D01*
X129668202Y-118462500D01*
X131381799Y-118462500D01*
X131381800Y-118462499D01*
X131567751Y-118425512D01*
X131742915Y-118352956D01*
X131900558Y-118247622D01*
X132034622Y-118113558D01*
X132115456Y-117992582D01*
X132169068Y-117947776D01*
X132238393Y-117939069D01*
X132285597Y-117957157D01*
X132289947Y-117959953D01*
X132289948Y-117959953D01*
X132289951Y-117959955D01*
X132428036Y-118000499D01*
X132428038Y-118000500D01*
X132428039Y-118000500D01*
X132571962Y-118000500D01*
X132571962Y-118000499D01*
X132679121Y-117969035D01*
X132710050Y-117959954D01*
X132710050Y-117959953D01*
X132710053Y-117959953D01*
X132831128Y-117882143D01*
X132925377Y-117773373D01*
X132985165Y-117642457D01*
X133005647Y-117500000D01*
X132985165Y-117357543D01*
X132925377Y-117226627D01*
X132831128Y-117117857D01*
X132710053Y-117040047D01*
X132710051Y-117040046D01*
X132710049Y-117040045D01*
X132710050Y-117040045D01*
X132571963Y-116999500D01*
X132571961Y-116999500D01*
X132428039Y-116999500D01*
X132428036Y-116999500D01*
X132289951Y-117040044D01*
X132289943Y-117040048D01*
X132285590Y-117042846D01*
X132218549Y-117062526D01*
X132151511Y-117042837D01*
X132115455Y-117007417D01*
X132034622Y-116886441D01*
X131900558Y-116752377D01*
X131742912Y-116647042D01*
X131567751Y-116574488D01*
X131567743Y-116574486D01*
X131381802Y-116537500D01*
X131381798Y-116537500D01*
X129668202Y-116537500D01*
X129668197Y-116537500D01*
X129482256Y-116574486D01*
X129482248Y-116574488D01*
X129307087Y-116647042D01*
X129149441Y-116752377D01*
X129015377Y-116886441D01*
X128910042Y-117044087D01*
X128837488Y-117219248D01*
X128837486Y-117219256D01*
X128800500Y-117405197D01*
X128800500Y-117594802D01*
X122500500Y-117594802D01*
X122500500Y-115094802D01*
X128800500Y-115094802D01*
X128837486Y-115280743D01*
X128837488Y-115280751D01*
X128910042Y-115455912D01*
X129015377Y-115613558D01*
X129149441Y-115747622D01*
X129254300Y-115817686D01*
X129307085Y-115852956D01*
X129482249Y-115925512D01*
X129668197Y-115962499D01*
X129668201Y-115962500D01*
X129668202Y-115962500D01*
X131381799Y-115962500D01*
X131381800Y-115962499D01*
X131567751Y-115925512D01*
X131742915Y-115852956D01*
X131900558Y-115747622D01*
X132034622Y-115613558D01*
X132139956Y-115455915D01*
X132172625Y-115377047D01*
X132216467Y-115322643D01*
X132282761Y-115300579D01*
X132287186Y-115300500D01*
X133241499Y-115300500D01*
X133308538Y-115320185D01*
X133335211Y-115343296D01*
X133368872Y-115382143D01*
X133489947Y-115459953D01*
X133489950Y-115459954D01*
X133489949Y-115459954D01*
X133628036Y-115500499D01*
X133628038Y-115500500D01*
X133628039Y-115500500D01*
X133771962Y-115500500D01*
X133771962Y-115500499D01*
X133910053Y-115459953D01*
X134031128Y-115382143D01*
X134125377Y-115273373D01*
X134185165Y-115142457D01*
X134205647Y-115000000D01*
X134185165Y-114857543D01*
X134125377Y-114726627D01*
X134031128Y-114617857D01*
X133910053Y-114540047D01*
X133910051Y-114540046D01*
X133910049Y-114540045D01*
X133910050Y-114540045D01*
X133771963Y-114499500D01*
X133771961Y-114499500D01*
X133628039Y-114499500D01*
X133628036Y-114499500D01*
X133489949Y-114540045D01*
X133368873Y-114617856D01*
X133368872Y-114617856D01*
X133368872Y-114617857D01*
X133350767Y-114638752D01*
X133335212Y-114656703D01*
X133276433Y-114694477D01*
X133241499Y-114699500D01*
X132287186Y-114699500D01*
X132220147Y-114679815D01*
X132174392Y-114627011D01*
X132172625Y-114622953D01*
X132139957Y-114544087D01*
X132139549Y-114543477D01*
X132071843Y-114442147D01*
X132034622Y-114386441D01*
X131900558Y-114252377D01*
X131742912Y-114147042D01*
X131567751Y-114074488D01*
X131567743Y-114074486D01*
X131381802Y-114037500D01*
X131381798Y-114037500D01*
X129668202Y-114037500D01*
X129668197Y-114037500D01*
X129482256Y-114074486D01*
X129482248Y-114074488D01*
X129307087Y-114147042D01*
X129149441Y-114252377D01*
X129015377Y-114386441D01*
X128910042Y-114544087D01*
X128837488Y-114719248D01*
X128837486Y-114719256D01*
X128800500Y-114905197D01*
X128800500Y-115094802D01*
X122500500Y-115094802D01*
X122500500Y-111144802D01*
X128750500Y-111144802D01*
X128787486Y-111330743D01*
X128787488Y-111330751D01*
X128860042Y-111505912D01*
X128965377Y-111663558D01*
X129099441Y-111797622D01*
X129142852Y-111826628D01*
X129257085Y-111902956D01*
X129432249Y-111975512D01*
X129618197Y-112012499D01*
X129618201Y-112012500D01*
X129618202Y-112012500D01*
X131331799Y-112012500D01*
X131331800Y-112012499D01*
X131517751Y-111975512D01*
X131692915Y-111902956D01*
X131850558Y-111797622D01*
X131984622Y-111663558D01*
X132089956Y-111505915D01*
X132162512Y-111330751D01*
X132199500Y-111144798D01*
X132199500Y-110955202D01*
X132162512Y-110769249D01*
X132089956Y-110594085D01*
X132006117Y-110468611D01*
X131984622Y-110436441D01*
X131850558Y-110302377D01*
X131692912Y-110197042D01*
X131517751Y-110124488D01*
X131517743Y-110124486D01*
X131331802Y-110087500D01*
X131331798Y-110087500D01*
X129618202Y-110087500D01*
X129618197Y-110087500D01*
X129432256Y-110124486D01*
X129432248Y-110124488D01*
X129257087Y-110197042D01*
X129099441Y-110302377D01*
X128965377Y-110436441D01*
X128860042Y-110594087D01*
X128787488Y-110769248D01*
X128787486Y-110769256D01*
X128750500Y-110955197D01*
X128750500Y-111144802D01*
X122500500Y-111144802D01*
X122500500Y-108644802D01*
X128750500Y-108644802D01*
X128787486Y-108830743D01*
X128787488Y-108830751D01*
X128860042Y-109005912D01*
X128965377Y-109163558D01*
X129099441Y-109297622D01*
X129152749Y-109333241D01*
X129257085Y-109402956D01*
X129432249Y-109475512D01*
X129618197Y-109512499D01*
X129618201Y-109512500D01*
X129618202Y-109512500D01*
X131331799Y-109512500D01*
X131331800Y-109512499D01*
X131517751Y-109475512D01*
X131692915Y-109402956D01*
X131850558Y-109297622D01*
X131984622Y-109163558D01*
X132089956Y-109005915D01*
X132162512Y-108830751D01*
X132199500Y-108644798D01*
X132199500Y-108455202D01*
X132162512Y-108269249D01*
X132100483Y-108119500D01*
X132089957Y-108094087D01*
X132078148Y-108076414D01*
X132025093Y-107997011D01*
X131984622Y-107936441D01*
X131850558Y-107802377D01*
X131692912Y-107697042D01*
X131517751Y-107624488D01*
X131517743Y-107624486D01*
X131331802Y-107587500D01*
X131331798Y-107587500D01*
X129618202Y-107587500D01*
X129618197Y-107587500D01*
X129432256Y-107624486D01*
X129432248Y-107624488D01*
X129257087Y-107697042D01*
X129099441Y-107802377D01*
X128965377Y-107936441D01*
X128860042Y-108094087D01*
X128787488Y-108269248D01*
X128787486Y-108269256D01*
X128750500Y-108455197D01*
X128750500Y-108644802D01*
X122500500Y-108644802D01*
X122500500Y-103700000D01*
X128474865Y-103700000D01*
X128482074Y-103745517D01*
X128543456Y-103934435D01*
X128633641Y-104111432D01*
X128750403Y-104272139D01*
X128750403Y-104272140D01*
X128890859Y-104412596D01*
X129051567Y-104529358D01*
X129228562Y-104619542D01*
X129417477Y-104680924D01*
X129613679Y-104712000D01*
X130225000Y-104712000D01*
X130225000Y-103892251D01*
X130278919Y-103923381D01*
X130408120Y-103958000D01*
X130541880Y-103958000D01*
X130671081Y-103923381D01*
X130725000Y-103892251D01*
X130725000Y-104712000D01*
X131336321Y-104712000D01*
X131532520Y-104680924D01*
X131532523Y-104680924D01*
X131721437Y-104619542D01*
X131898432Y-104529358D01*
X132059139Y-104412596D01*
X132059140Y-104412596D01*
X132199596Y-104272140D01*
X132199596Y-104272139D01*
X132316358Y-104111432D01*
X132406543Y-103934435D01*
X132467925Y-103745517D01*
X132475134Y-103700000D01*
X130917251Y-103700000D01*
X130948381Y-103646081D01*
X130983000Y-103516880D01*
X130983000Y-103383120D01*
X130948381Y-103253919D01*
X130917251Y-103200000D01*
X132475135Y-103200000D01*
X132475134Y-103199999D01*
X132467925Y-103154482D01*
X132406543Y-102965564D01*
X132316358Y-102788567D01*
X132199596Y-102627860D01*
X132199596Y-102627859D01*
X132059140Y-102487403D01*
X131898432Y-102370641D01*
X131721437Y-102280457D01*
X131532522Y-102219075D01*
X131336321Y-102188000D01*
X130725000Y-102188000D01*
X130725000Y-103007748D01*
X130671081Y-102976619D01*
X130541880Y-102942000D01*
X130408120Y-102942000D01*
X130278919Y-102976619D01*
X130225000Y-103007748D01*
X130225000Y-102188000D01*
X129613679Y-102188000D01*
X129417479Y-102219075D01*
X129417476Y-102219075D01*
X129228562Y-102280457D01*
X129051567Y-102370641D01*
X128890860Y-102487403D01*
X128890859Y-102487403D01*
X128750403Y-102627859D01*
X128750403Y-102627860D01*
X128633641Y-102788567D01*
X128543456Y-102965564D01*
X128482074Y-103154482D01*
X128474865Y-103199999D01*
X128474865Y-103200000D01*
X130032749Y-103200000D01*
X130001619Y-103253919D01*
X129967000Y-103383120D01*
X129967000Y-103516880D01*
X130001619Y-103646081D01*
X130032749Y-103700000D01*
X128474865Y-103700000D01*
X122500500Y-103700000D01*
X122500500Y-101044802D01*
X128750500Y-101044802D01*
X128787486Y-101230743D01*
X128787488Y-101230751D01*
X128860042Y-101405912D01*
X128965377Y-101563558D01*
X129099441Y-101697622D01*
X129204300Y-101767686D01*
X129257085Y-101802956D01*
X129432249Y-101875512D01*
X129618197Y-101912499D01*
X129618201Y-101912500D01*
X129618202Y-101912500D01*
X131331799Y-101912500D01*
X131331800Y-101912499D01*
X131517751Y-101875512D01*
X131692915Y-101802956D01*
X131850558Y-101697622D01*
X131984622Y-101563558D01*
X132089956Y-101405915D01*
X132162512Y-101230751D01*
X132199500Y-101044798D01*
X132199500Y-100855202D01*
X132162512Y-100669249D01*
X132098712Y-100515224D01*
X132089957Y-100494087D01*
X132082302Y-100482631D01*
X132041552Y-100421644D01*
X131984622Y-100336441D01*
X131850558Y-100202377D01*
X131692912Y-100097042D01*
X131517751Y-100024488D01*
X131517743Y-100024486D01*
X131331802Y-99987500D01*
X131331798Y-99987500D01*
X129618202Y-99987500D01*
X129618197Y-99987500D01*
X129432256Y-100024486D01*
X129432248Y-100024488D01*
X129257087Y-100097042D01*
X129099441Y-100202377D01*
X128965377Y-100336441D01*
X128860042Y-100494087D01*
X128787488Y-100669248D01*
X128787486Y-100669256D01*
X128750500Y-100855197D01*
X128750500Y-101044802D01*
X122500500Y-101044802D01*
X122500500Y-94824821D01*
X141846000Y-94824821D01*
X141874415Y-95004225D01*
X141930548Y-95176984D01*
X142013011Y-95338828D01*
X142119780Y-95485781D01*
X142119780Y-95485782D01*
X142248217Y-95614219D01*
X142395171Y-95720988D01*
X142557015Y-95803451D01*
X142729774Y-95859584D01*
X142750000Y-95862788D01*
X142750000Y-94395686D01*
X142754394Y-94400080D01*
X142845606Y-94452741D01*
X142947339Y-94480000D01*
X143052661Y-94480000D01*
X143154394Y-94452741D01*
X143245606Y-94400080D01*
X143250000Y-94395686D01*
X143250000Y-95862787D01*
X143270225Y-95859584D01*
X143442984Y-95803451D01*
X143604828Y-95720988D01*
X143751781Y-95614219D01*
X143751782Y-95614219D01*
X143880219Y-95485782D01*
X143880219Y-95485781D01*
X143986988Y-95338828D01*
X144069451Y-95176984D01*
X144125584Y-95004225D01*
X144154000Y-94824821D01*
X144154000Y-94818165D01*
X144685500Y-94818165D01*
X144718336Y-94983241D01*
X144718338Y-94983249D01*
X144782750Y-95138755D01*
X144782755Y-95138764D01*
X144876265Y-95278711D01*
X144876268Y-95278715D01*
X144995284Y-95397731D01*
X144995288Y-95397734D01*
X145135235Y-95491244D01*
X145135241Y-95491247D01*
X145135242Y-95491248D01*
X145290751Y-95555662D01*
X145455834Y-95588499D01*
X145455838Y-95588500D01*
X145455839Y-95588500D01*
X145624162Y-95588500D01*
X145624163Y-95588499D01*
X145789249Y-95555662D01*
X145944758Y-95491248D01*
X146084712Y-95397734D01*
X146203734Y-95278712D01*
X146297248Y-95138758D01*
X146361662Y-94983249D01*
X146394499Y-94818165D01*
X147225500Y-94818165D01*
X147258336Y-94983241D01*
X147258338Y-94983249D01*
X147322750Y-95138755D01*
X147322755Y-95138764D01*
X147416265Y-95278711D01*
X147416268Y-95278715D01*
X147535284Y-95397731D01*
X147535288Y-95397734D01*
X147675235Y-95491244D01*
X147675241Y-95491247D01*
X147675242Y-95491248D01*
X147830751Y-95555662D01*
X147995834Y-95588499D01*
X147995838Y-95588500D01*
X147995839Y-95588500D01*
X148164162Y-95588500D01*
X148164163Y-95588499D01*
X148329249Y-95555662D01*
X148484758Y-95491248D01*
X148624712Y-95397734D01*
X148743734Y-95278712D01*
X148837248Y-95138758D01*
X148901662Y-94983249D01*
X148934499Y-94818165D01*
X149765500Y-94818165D01*
X149798336Y-94983241D01*
X149798338Y-94983249D01*
X149862750Y-95138755D01*
X149862755Y-95138764D01*
X149956265Y-95278711D01*
X149956268Y-95278715D01*
X150075284Y-95397731D01*
X150075288Y-95397734D01*
X150215235Y-95491244D01*
X150215241Y-95491247D01*
X150215242Y-95491248D01*
X150370751Y-95555662D01*
X150535834Y-95588499D01*
X150535838Y-95588500D01*
X150535839Y-95588500D01*
X150704162Y-95588500D01*
X150704163Y-95588499D01*
X150869249Y-95555662D01*
X151024758Y-95491248D01*
X151164712Y-95397734D01*
X151283734Y-95278712D01*
X151377248Y-95138758D01*
X151441662Y-94983249D01*
X151474500Y-94818161D01*
X151474500Y-93341839D01*
X151441662Y-93176751D01*
X151377248Y-93021242D01*
X151377247Y-93021241D01*
X151377244Y-93021235D01*
X151283734Y-92881288D01*
X151283731Y-92881284D01*
X151164715Y-92762268D01*
X151164711Y-92762265D01*
X151024764Y-92668755D01*
X151024755Y-92668750D01*
X150869249Y-92604338D01*
X150869241Y-92604336D01*
X150704165Y-92571500D01*
X150704161Y-92571500D01*
X150535839Y-92571500D01*
X150535834Y-92571500D01*
X150370758Y-92604336D01*
X150370750Y-92604338D01*
X150215244Y-92668750D01*
X150215235Y-92668755D01*
X150075288Y-92762265D01*
X150075284Y-92762268D01*
X149956268Y-92881284D01*
X149956265Y-92881288D01*
X149862755Y-93021235D01*
X149862750Y-93021244D01*
X149798338Y-93176750D01*
X149798336Y-93176758D01*
X149765500Y-93341834D01*
X149765500Y-94818165D01*
X148934499Y-94818165D01*
X148934500Y-94818161D01*
X148934500Y-93341839D01*
X148901662Y-93176751D01*
X148837248Y-93021242D01*
X148837247Y-93021241D01*
X148837244Y-93021235D01*
X148743734Y-92881288D01*
X148743731Y-92881284D01*
X148624715Y-92762268D01*
X148624711Y-92762265D01*
X148484764Y-92668755D01*
X148484755Y-92668750D01*
X148329249Y-92604338D01*
X148329241Y-92604336D01*
X148164165Y-92571500D01*
X148164161Y-92571500D01*
X147995839Y-92571500D01*
X147995834Y-92571500D01*
X147830758Y-92604336D01*
X147830750Y-92604338D01*
X147675244Y-92668750D01*
X147675235Y-92668755D01*
X147535288Y-92762265D01*
X147535284Y-92762268D01*
X147416268Y-92881284D01*
X147416265Y-92881288D01*
X147322755Y-93021235D01*
X147322750Y-93021244D01*
X147258338Y-93176750D01*
X147258336Y-93176758D01*
X147225500Y-93341834D01*
X147225500Y-94818165D01*
X146394499Y-94818165D01*
X146394500Y-94818161D01*
X146394500Y-93341839D01*
X146361662Y-93176751D01*
X146297248Y-93021242D01*
X146297247Y-93021241D01*
X146297244Y-93021235D01*
X146203734Y-92881288D01*
X146203731Y-92881284D01*
X146084715Y-92762268D01*
X146084711Y-92762265D01*
X145944764Y-92668755D01*
X145944755Y-92668750D01*
X145789249Y-92604338D01*
X145789241Y-92604336D01*
X145624165Y-92571500D01*
X145624161Y-92571500D01*
X145455839Y-92571500D01*
X145455834Y-92571500D01*
X145290758Y-92604336D01*
X145290750Y-92604338D01*
X145135244Y-92668750D01*
X145135235Y-92668755D01*
X144995288Y-92762265D01*
X144995284Y-92762268D01*
X144876268Y-92881284D01*
X144876265Y-92881288D01*
X144782755Y-93021235D01*
X144782750Y-93021244D01*
X144718338Y-93176750D01*
X144718336Y-93176758D01*
X144685500Y-93341834D01*
X144685500Y-94818165D01*
X144154000Y-94818165D01*
X144154000Y-94330000D01*
X143315686Y-94330000D01*
X143320080Y-94325606D01*
X143372741Y-94234394D01*
X143400000Y-94132661D01*
X143400000Y-94027339D01*
X143372741Y-93925606D01*
X143320080Y-93834394D01*
X143315686Y-93830000D01*
X144154000Y-93830000D01*
X144154000Y-93335178D01*
X144125584Y-93155774D01*
X144069451Y-92983015D01*
X143986988Y-92821171D01*
X143880219Y-92674218D01*
X143880219Y-92674217D01*
X143751782Y-92545780D01*
X143604828Y-92439011D01*
X143442984Y-92356548D01*
X143270231Y-92300416D01*
X143270224Y-92300415D01*
X143250000Y-92297210D01*
X143250000Y-93764314D01*
X143245606Y-93759920D01*
X143154394Y-93707259D01*
X143052661Y-93680000D01*
X142947339Y-93680000D01*
X142845606Y-93707259D01*
X142754394Y-93759920D01*
X142750000Y-93764314D01*
X142750000Y-92297211D01*
X142749999Y-92297210D01*
X142729775Y-92300415D01*
X142729768Y-92300416D01*
X142557015Y-92356548D01*
X142395171Y-92439011D01*
X142248218Y-92545780D01*
X142248217Y-92545780D01*
X142119780Y-92674217D01*
X142119780Y-92674218D01*
X142013011Y-92821171D01*
X141930548Y-92983015D01*
X141874415Y-93155774D01*
X141846000Y-93335178D01*
X141846000Y-93830000D01*
X142684314Y-93830000D01*
X142679920Y-93834394D01*
X142627259Y-93925606D01*
X142600000Y-94027339D01*
X142600000Y-94132661D01*
X142627259Y-94234394D01*
X142679920Y-94325606D01*
X142684314Y-94330000D01*
X141846000Y-94330000D01*
X141846000Y-94824821D01*
X122500500Y-94824821D01*
X122500500Y-92200000D01*
X152994353Y-92200000D01*
X153014834Y-92342456D01*
X153021270Y-92356548D01*
X153074623Y-92473373D01*
X153168872Y-92582143D01*
X153289947Y-92659953D01*
X153289950Y-92659954D01*
X153289949Y-92659954D01*
X153428036Y-92700499D01*
X153428038Y-92700500D01*
X153428039Y-92700500D01*
X153453456Y-92700500D01*
X153520495Y-92720185D01*
X153541137Y-92736819D01*
X156668181Y-95863863D01*
X156701666Y-95925186D01*
X156704500Y-95951544D01*
X156704500Y-101230489D01*
X156684815Y-101297528D01*
X156674214Y-101311691D01*
X156574623Y-101426627D01*
X156574622Y-101426628D01*
X156514834Y-101557543D01*
X156494353Y-101700000D01*
X156514834Y-101842456D01*
X156554839Y-101930052D01*
X156574623Y-101973373D01*
X156668872Y-102082143D01*
X156789947Y-102159953D01*
X156789950Y-102159954D01*
X156789949Y-102159954D01*
X156885467Y-102188000D01*
X156921905Y-102198699D01*
X156928036Y-102200499D01*
X156928038Y-102200500D01*
X156928039Y-102200500D01*
X157071962Y-102200500D01*
X157071962Y-102200499D01*
X157210053Y-102159953D01*
X157331128Y-102082143D01*
X157425377Y-101973373D01*
X157485165Y-101842457D01*
X157505647Y-101700000D01*
X157485165Y-101557543D01*
X157425377Y-101426627D01*
X157425374Y-101426624D01*
X157425184Y-101426327D01*
X157425082Y-101425982D01*
X157421693Y-101418560D01*
X157422760Y-101418072D01*
X157405500Y-101359288D01*
X157405500Y-101300002D01*
X166277438Y-101300002D01*
X166297621Y-101479138D01*
X166357165Y-101649304D01*
X166365838Y-101663107D01*
X166709055Y-101319891D01*
X166982500Y-101319891D01*
X166997724Y-101356645D01*
X167025855Y-101384776D01*
X167062609Y-101400000D01*
X167102391Y-101400000D01*
X167139145Y-101384776D01*
X167167276Y-101356645D01*
X167182500Y-101319891D01*
X167182500Y-101287499D01*
X167448553Y-101287499D01*
X167782500Y-101621446D01*
X167782501Y-101621446D01*
X168084055Y-101319891D01*
X168382500Y-101319891D01*
X168397724Y-101356645D01*
X168425855Y-101384776D01*
X168462609Y-101400000D01*
X168502391Y-101400000D01*
X168539145Y-101384776D01*
X168567276Y-101356645D01*
X168582500Y-101319891D01*
X168582500Y-101287500D01*
X168848553Y-101287500D01*
X169182500Y-101621446D01*
X169182501Y-101621446D01*
X169484055Y-101319891D01*
X169782500Y-101319891D01*
X169797724Y-101356645D01*
X169825855Y-101384776D01*
X169862609Y-101400000D01*
X169902391Y-101400000D01*
X169939145Y-101384776D01*
X169967276Y-101356645D01*
X169982500Y-101319891D01*
X169982500Y-101280109D01*
X169967276Y-101243355D01*
X169939145Y-101215224D01*
X169902391Y-101200000D01*
X169862609Y-101200000D01*
X169825855Y-101215224D01*
X169797724Y-101243355D01*
X169782500Y-101280109D01*
X169782500Y-101319891D01*
X169484055Y-101319891D01*
X169516446Y-101287500D01*
X169248260Y-101019314D01*
X169182500Y-100953553D01*
X169116740Y-101019314D01*
X169116739Y-101019314D01*
X168848553Y-101287499D01*
X168848553Y-101287500D01*
X168582500Y-101287500D01*
X168582500Y-101280109D01*
X168567276Y-101243355D01*
X168539145Y-101215224D01*
X168502391Y-101200000D01*
X168462609Y-101200000D01*
X168425855Y-101215224D01*
X168397724Y-101243355D01*
X168382500Y-101280109D01*
X168382500Y-101319891D01*
X168084055Y-101319891D01*
X168116446Y-101287500D01*
X167848260Y-101019314D01*
X167782500Y-100953553D01*
X167716740Y-101019314D01*
X167716739Y-101019314D01*
X167448553Y-101287499D01*
X167182500Y-101287499D01*
X167182500Y-101280109D01*
X167167276Y-101243355D01*
X167139145Y-101215224D01*
X167102391Y-101200000D01*
X167062609Y-101200000D01*
X167025855Y-101215224D01*
X166997724Y-101243355D01*
X166982500Y-101280109D01*
X166982500Y-101319891D01*
X166709055Y-101319891D01*
X166728946Y-101300000D01*
X166728946Y-101299999D01*
X166365838Y-100936891D01*
X166365837Y-100936891D01*
X166357167Y-100950691D01*
X166357162Y-100950701D01*
X166297622Y-101120858D01*
X166297621Y-101120861D01*
X166277438Y-101299997D01*
X166277438Y-101300002D01*
X157405500Y-101300002D01*
X157405500Y-100583338D01*
X166719391Y-100583338D01*
X167082498Y-100946446D01*
X167082499Y-100946446D01*
X167387703Y-100641243D01*
X167409054Y-100619891D01*
X167682500Y-100619891D01*
X167697724Y-100656645D01*
X167725855Y-100684776D01*
X167762609Y-100700000D01*
X167802391Y-100700000D01*
X167839145Y-100684776D01*
X167867276Y-100656645D01*
X167882500Y-100619891D01*
X167882500Y-100599999D01*
X168136053Y-100599999D01*
X168482500Y-100946446D01*
X168787703Y-100641243D01*
X168809054Y-100619891D01*
X169082500Y-100619891D01*
X169097724Y-100656645D01*
X169125855Y-100684776D01*
X169162609Y-100700000D01*
X169202391Y-100700000D01*
X169239145Y-100684776D01*
X169267276Y-100656645D01*
X169282500Y-100619891D01*
X169282500Y-100599999D01*
X169536053Y-100599999D01*
X169882500Y-100946446D01*
X169882501Y-100946446D01*
X170245607Y-100583338D01*
X170231801Y-100574663D01*
X170061642Y-100515121D01*
X170060846Y-100514940D01*
X170060383Y-100514681D01*
X170055070Y-100512822D01*
X170055395Y-100511890D01*
X169999870Y-100480827D01*
X169970549Y-100427125D01*
X169969677Y-100427431D01*
X169967821Y-100422128D01*
X169967557Y-100421644D01*
X169967378Y-100420862D01*
X169907833Y-100250692D01*
X169899161Y-100236892D01*
X169899160Y-100236892D01*
X169536053Y-100599998D01*
X169536053Y-100599999D01*
X169282500Y-100599999D01*
X169282500Y-100580109D01*
X169267276Y-100543355D01*
X169239145Y-100515224D01*
X169202391Y-100500000D01*
X169162609Y-100500000D01*
X169125855Y-100515224D01*
X169097724Y-100543355D01*
X169082500Y-100580109D01*
X169082500Y-100619891D01*
X168809054Y-100619891D01*
X168828946Y-100599998D01*
X168482501Y-100253553D01*
X168482500Y-100253553D01*
X168136053Y-100599998D01*
X168136053Y-100599999D01*
X167882500Y-100599999D01*
X167882500Y-100580109D01*
X167867276Y-100543355D01*
X167839145Y-100515224D01*
X167802391Y-100500000D01*
X167762609Y-100500000D01*
X167725855Y-100515224D01*
X167697724Y-100543355D01*
X167682500Y-100580109D01*
X167682500Y-100619891D01*
X167409054Y-100619891D01*
X167428946Y-100599998D01*
X167065838Y-100236891D01*
X167065837Y-100236891D01*
X167057167Y-100250691D01*
X167057162Y-100250701D01*
X166997619Y-100420866D01*
X166997439Y-100421656D01*
X166997182Y-100422113D01*
X166995323Y-100427429D01*
X166994391Y-100427103D01*
X166963324Y-100482631D01*
X166909624Y-100511952D01*
X166909929Y-100512823D01*
X166904645Y-100514671D01*
X166904156Y-100514939D01*
X166903366Y-100515119D01*
X166733201Y-100574662D01*
X166733191Y-100574667D01*
X166719391Y-100583337D01*
X166719391Y-100583338D01*
X157405500Y-100583338D01*
X157405500Y-99883338D01*
X167419391Y-99883338D01*
X167782500Y-100246446D01*
X167782501Y-100246446D01*
X168145607Y-99883338D01*
X168819391Y-99883338D01*
X169182500Y-100246446D01*
X169182501Y-100246446D01*
X169545607Y-99883338D01*
X169531804Y-99874665D01*
X169361638Y-99815121D01*
X169182503Y-99794938D01*
X169182497Y-99794938D01*
X169003361Y-99815121D01*
X169003358Y-99815122D01*
X168833201Y-99874662D01*
X168833191Y-99874667D01*
X168819391Y-99883337D01*
X168819391Y-99883338D01*
X168145607Y-99883338D01*
X168131804Y-99874665D01*
X167961638Y-99815121D01*
X167782503Y-99794938D01*
X167782497Y-99794938D01*
X167603361Y-99815121D01*
X167603358Y-99815122D01*
X167433201Y-99874662D01*
X167433191Y-99874667D01*
X167419391Y-99883337D01*
X167419391Y-99883338D01*
X157405500Y-99883338D01*
X157405500Y-95708858D01*
X157405500Y-95708856D01*
X157381614Y-95619712D01*
X157358542Y-95579750D01*
X157335472Y-95539791D01*
X157335468Y-95539786D01*
X154036503Y-92240821D01*
X154003018Y-92179498D01*
X154001449Y-92170805D01*
X153991269Y-92100000D01*
X156994353Y-92100000D01*
X157014834Y-92242456D01*
X157060504Y-92342457D01*
X157074623Y-92373373D01*
X157168872Y-92482143D01*
X157289947Y-92559953D01*
X157289950Y-92559954D01*
X157289949Y-92559954D01*
X157428036Y-92600499D01*
X157428038Y-92600500D01*
X157428039Y-92600500D01*
X157571962Y-92600500D01*
X157571962Y-92600499D01*
X157710053Y-92559953D01*
X157831128Y-92482143D01*
X157831136Y-92482133D01*
X157832688Y-92480790D01*
X157834572Y-92479929D01*
X157838589Y-92477348D01*
X157838960Y-92477925D01*
X157896243Y-92451763D01*
X157913895Y-92450500D01*
X167253456Y-92450500D01*
X167320495Y-92470185D01*
X167341137Y-92486819D01*
X172013181Y-97158863D01*
X172046666Y-97220186D01*
X172049500Y-97246544D01*
X172049500Y-110292809D01*
X172029815Y-110359848D01*
X172019216Y-110374007D01*
X171999330Y-110396957D01*
X171967123Y-110434126D01*
X171967122Y-110434128D01*
X171907334Y-110565043D01*
X171886853Y-110707500D01*
X171907334Y-110849956D01*
X171910799Y-110857543D01*
X171967123Y-110980873D01*
X172061372Y-111089643D01*
X172182447Y-111167453D01*
X172182450Y-111167454D01*
X172182449Y-111167454D01*
X172320536Y-111207999D01*
X172320538Y-111208000D01*
X172320539Y-111208000D01*
X172464462Y-111208000D01*
X172464462Y-111207999D01*
X172602553Y-111167453D01*
X172723628Y-111089643D01*
X172817877Y-110980873D01*
X172877665Y-110849957D01*
X172898147Y-110707500D01*
X172877665Y-110565043D01*
X172817877Y-110434127D01*
X172780786Y-110391321D01*
X172751762Y-110327767D01*
X172750500Y-110310120D01*
X172750500Y-97003858D01*
X172750500Y-97003856D01*
X172726614Y-96914712D01*
X172711677Y-96888840D01*
X172680470Y-96834788D01*
X167665212Y-91819530D01*
X167665211Y-91819529D01*
X167665208Y-91819527D01*
X167585291Y-91773387D01*
X167585287Y-91773385D01*
X167579926Y-91771949D01*
X167579926Y-91771948D01*
X167511476Y-91753608D01*
X167496144Y-91749500D01*
X167496143Y-91749500D01*
X157913895Y-91749500D01*
X157846856Y-91729815D01*
X157832688Y-91719210D01*
X157831132Y-91717862D01*
X157831128Y-91717857D01*
X157710053Y-91640047D01*
X157710051Y-91640046D01*
X157710049Y-91640045D01*
X157710050Y-91640045D01*
X157571963Y-91599500D01*
X157571961Y-91599500D01*
X157428039Y-91599500D01*
X157428036Y-91599500D01*
X157289949Y-91640045D01*
X157168873Y-91717856D01*
X157074623Y-91826626D01*
X157074622Y-91826628D01*
X157014834Y-91957543D01*
X156994353Y-92100000D01*
X153991269Y-92100000D01*
X153985165Y-92057543D01*
X153925377Y-91926627D01*
X153831128Y-91817857D01*
X153710053Y-91740047D01*
X153710051Y-91740046D01*
X153710049Y-91740045D01*
X153710050Y-91740045D01*
X153571963Y-91699500D01*
X153571961Y-91699500D01*
X153428039Y-91699500D01*
X153428036Y-91699500D01*
X153289949Y-91740045D01*
X153168873Y-91817856D01*
X153168872Y-91817856D01*
X153168872Y-91817857D01*
X153161274Y-91826626D01*
X153074623Y-91926626D01*
X153074622Y-91926628D01*
X153014834Y-92057543D01*
X152994353Y-92200000D01*
X122500500Y-92200000D01*
X122500500Y-90450000D01*
X128574865Y-90450000D01*
X128582074Y-90495517D01*
X128643456Y-90684435D01*
X128733641Y-90861432D01*
X128850403Y-91022139D01*
X128850403Y-91022140D01*
X128990859Y-91162596D01*
X129151567Y-91279358D01*
X129328562Y-91369542D01*
X129517477Y-91430924D01*
X129713679Y-91462000D01*
X130325000Y-91462000D01*
X130325000Y-90642251D01*
X130378919Y-90673381D01*
X130508120Y-90708000D01*
X130641880Y-90708000D01*
X130771081Y-90673381D01*
X130825000Y-90642251D01*
X130825000Y-91462000D01*
X131436321Y-91462000D01*
X131632520Y-91430924D01*
X131632523Y-91430924D01*
X131821437Y-91369542D01*
X131998432Y-91279358D01*
X132159139Y-91162596D01*
X132159140Y-91162596D01*
X132299596Y-91022140D01*
X132299596Y-91022139D01*
X132416358Y-90861432D01*
X132506543Y-90684435D01*
X132567925Y-90495517D01*
X132575134Y-90450000D01*
X131017251Y-90450000D01*
X131048381Y-90396081D01*
X131083000Y-90266880D01*
X131083000Y-90133120D01*
X131048381Y-90003919D01*
X131017251Y-89950000D01*
X132575135Y-89950000D01*
X132575134Y-89949999D01*
X132567925Y-89904482D01*
X132506543Y-89715564D01*
X132416358Y-89538567D01*
X132299596Y-89377860D01*
X132299596Y-89377859D01*
X132159140Y-89237403D01*
X131998432Y-89120641D01*
X131957922Y-89100000D01*
X153469353Y-89100000D01*
X153489834Y-89242456D01*
X153549622Y-89373371D01*
X153549623Y-89373373D01*
X153643872Y-89482143D01*
X153764947Y-89559953D01*
X153764950Y-89559954D01*
X153764949Y-89559954D01*
X153903036Y-89600499D01*
X153903038Y-89600500D01*
X153903039Y-89600500D01*
X154046962Y-89600500D01*
X154046962Y-89600499D01*
X154185053Y-89559953D01*
X154306128Y-89482143D01*
X154400377Y-89373373D01*
X154460165Y-89242457D01*
X154480647Y-89100000D01*
X154479339Y-89090905D01*
X154489279Y-89021749D01*
X154514390Y-88985580D01*
X154663153Y-88836816D01*
X154724476Y-88803334D01*
X154750833Y-88800500D01*
X165624167Y-88800500D01*
X165691206Y-88820185D01*
X165711848Y-88836819D01*
X168010604Y-91135575D01*
X168044089Y-91196898D01*
X168045661Y-91240902D01*
X168044353Y-91249999D01*
X168064834Y-91392456D01*
X168124622Y-91523371D01*
X168124623Y-91523373D01*
X168218872Y-91632143D01*
X168339947Y-91709953D01*
X168339950Y-91709954D01*
X168339949Y-91709954D01*
X168442432Y-91740045D01*
X168474633Y-91749500D01*
X168478036Y-91750499D01*
X168478038Y-91750500D01*
X168478039Y-91750500D01*
X168621962Y-91750500D01*
X168621962Y-91750499D01*
X168760053Y-91709953D01*
X168881128Y-91632143D01*
X168975377Y-91523373D01*
X169035165Y-91392457D01*
X169055647Y-91250000D01*
X169035165Y-91107543D01*
X168975377Y-90976627D01*
X168881128Y-90867857D01*
X168760053Y-90790047D01*
X168760051Y-90790046D01*
X168760049Y-90790045D01*
X168760050Y-90790045D01*
X168621963Y-90749500D01*
X168621961Y-90749500D01*
X168525833Y-90749500D01*
X168458794Y-90729815D01*
X168438152Y-90713181D01*
X165984512Y-88259541D01*
X165984504Y-88259535D01*
X165915995Y-88219982D01*
X165915990Y-88219979D01*
X165890513Y-88213152D01*
X165839562Y-88199500D01*
X154535438Y-88199500D01*
X154497224Y-88209739D01*
X154459009Y-88219979D01*
X154459004Y-88219982D01*
X154390495Y-88259535D01*
X154390487Y-88259541D01*
X154086847Y-88563181D01*
X154025524Y-88596666D01*
X153999166Y-88599500D01*
X153903036Y-88599500D01*
X153764949Y-88640045D01*
X153643873Y-88717856D01*
X153549623Y-88826626D01*
X153549622Y-88826628D01*
X153489834Y-88957543D01*
X153469353Y-89100000D01*
X131957922Y-89100000D01*
X131821437Y-89030457D01*
X131632522Y-88969075D01*
X131436321Y-88938000D01*
X130825000Y-88938000D01*
X130825000Y-89757748D01*
X130771081Y-89726619D01*
X130641880Y-89692000D01*
X130508120Y-89692000D01*
X130378919Y-89726619D01*
X130325000Y-89757748D01*
X130325000Y-88938000D01*
X129713679Y-88938000D01*
X129517479Y-88969075D01*
X129517476Y-88969075D01*
X129328562Y-89030457D01*
X129151567Y-89120641D01*
X128990860Y-89237403D01*
X128990859Y-89237403D01*
X128850403Y-89377859D01*
X128850403Y-89377860D01*
X128733641Y-89538567D01*
X128643456Y-89715564D01*
X128582074Y-89904482D01*
X128574865Y-89949999D01*
X128574865Y-89950000D01*
X130132749Y-89950000D01*
X130101619Y-90003919D01*
X130067000Y-90133120D01*
X130067000Y-90266880D01*
X130101619Y-90396081D01*
X130132749Y-90450000D01*
X128574865Y-90450000D01*
X122500500Y-90450000D01*
X122500500Y-87794802D01*
X128850500Y-87794802D01*
X128887486Y-87980743D01*
X128887488Y-87980751D01*
X128960042Y-88155912D01*
X129065377Y-88313558D01*
X129199441Y-88447622D01*
X129304300Y-88517686D01*
X129357085Y-88552956D01*
X129532249Y-88625512D01*
X129718197Y-88662499D01*
X129718201Y-88662500D01*
X129718202Y-88662500D01*
X131431799Y-88662500D01*
X131431800Y-88662499D01*
X131617751Y-88625512D01*
X131792915Y-88552956D01*
X131950558Y-88447622D01*
X132084622Y-88313558D01*
X132189956Y-88155915D01*
X132262512Y-87980751D01*
X132299500Y-87794798D01*
X132299500Y-87605202D01*
X132262512Y-87419249D01*
X132189956Y-87244085D01*
X132111473Y-87126627D01*
X132084622Y-87086441D01*
X131977238Y-86979057D01*
X149399500Y-86979057D01*
X149439042Y-87126628D01*
X149440423Y-87131783D01*
X149440426Y-87131790D01*
X149519475Y-87268709D01*
X149519479Y-87268714D01*
X149519480Y-87268716D01*
X149631284Y-87380520D01*
X149631286Y-87380521D01*
X149631290Y-87380524D01*
X149698363Y-87419248D01*
X149768216Y-87459577D01*
X149920943Y-87500500D01*
X149920945Y-87500500D01*
X161179055Y-87500500D01*
X161179057Y-87500500D01*
X161331784Y-87459577D01*
X161434975Y-87400000D01*
X162994353Y-87400000D01*
X163014834Y-87542456D01*
X163043490Y-87605202D01*
X163074623Y-87673373D01*
X163168872Y-87782143D01*
X163289947Y-87859953D01*
X163289950Y-87859954D01*
X163289949Y-87859954D01*
X163428036Y-87900499D01*
X163428038Y-87900500D01*
X163428039Y-87900500D01*
X163571962Y-87900500D01*
X163571962Y-87900499D01*
X163710053Y-87859953D01*
X163831128Y-87782143D01*
X163925377Y-87673373D01*
X163985165Y-87542457D01*
X164005647Y-87400000D01*
X163998458Y-87350000D01*
X167474865Y-87350000D01*
X167482074Y-87395517D01*
X167543456Y-87584435D01*
X167633641Y-87761432D01*
X167750403Y-87922139D01*
X167750403Y-87922140D01*
X167890859Y-88062596D01*
X168051567Y-88179358D01*
X168228562Y-88269542D01*
X168417477Y-88330924D01*
X168613679Y-88362000D01*
X169225000Y-88362000D01*
X169225000Y-87542251D01*
X169278919Y-87573381D01*
X169408120Y-87608000D01*
X169541880Y-87608000D01*
X169671081Y-87573381D01*
X169725000Y-87542251D01*
X169725000Y-88362000D01*
X170336321Y-88362000D01*
X170532520Y-88330924D01*
X170532523Y-88330924D01*
X170721437Y-88269542D01*
X170898432Y-88179358D01*
X171059139Y-88062596D01*
X171059140Y-88062596D01*
X171199596Y-87922140D01*
X171199596Y-87922139D01*
X171316358Y-87761432D01*
X171406543Y-87584435D01*
X171467925Y-87395517D01*
X171475134Y-87350000D01*
X169917251Y-87350000D01*
X169948381Y-87296081D01*
X169983000Y-87166880D01*
X169983000Y-87033120D01*
X169948381Y-86903919D01*
X169917251Y-86850000D01*
X171475135Y-86850000D01*
X171475134Y-86849999D01*
X171467925Y-86804482D01*
X171406543Y-86615564D01*
X171316358Y-86438567D01*
X171199596Y-86277860D01*
X171199596Y-86277859D01*
X171059140Y-86137403D01*
X170898432Y-86020641D01*
X170721437Y-85930457D01*
X170532522Y-85869075D01*
X170336321Y-85838000D01*
X169725000Y-85838000D01*
X169725000Y-86657748D01*
X169671081Y-86626619D01*
X169541880Y-86592000D01*
X169408120Y-86592000D01*
X169278919Y-86626619D01*
X169225000Y-86657748D01*
X169225000Y-85838000D01*
X168613679Y-85838000D01*
X168417479Y-85869075D01*
X168417476Y-85869075D01*
X168228562Y-85930457D01*
X168051567Y-86020641D01*
X167890860Y-86137403D01*
X167890859Y-86137403D01*
X167750403Y-86277859D01*
X167750403Y-86277860D01*
X167633641Y-86438567D01*
X167543456Y-86615564D01*
X167482074Y-86804482D01*
X167474865Y-86849999D01*
X167474865Y-86850000D01*
X169032749Y-86850000D01*
X169001619Y-86903919D01*
X168967000Y-87033120D01*
X168967000Y-87166880D01*
X169001619Y-87296081D01*
X169032749Y-87350000D01*
X167474865Y-87350000D01*
X163998458Y-87350000D01*
X163985165Y-87257543D01*
X163925377Y-87126627D01*
X163925375Y-87126625D01*
X163925374Y-87126622D01*
X163830787Y-87017462D01*
X163801762Y-86953906D01*
X163800500Y-86936260D01*
X163800500Y-85975833D01*
X163820185Y-85908794D01*
X163836819Y-85888152D01*
X165030169Y-84694802D01*
X167750500Y-84694802D01*
X167787486Y-84880743D01*
X167787488Y-84880751D01*
X167860042Y-85055912D01*
X167965377Y-85213558D01*
X168099441Y-85347622D01*
X168204300Y-85417686D01*
X168257085Y-85452956D01*
X168432249Y-85525512D01*
X168603321Y-85559540D01*
X168618197Y-85562499D01*
X168618201Y-85562500D01*
X168618202Y-85562500D01*
X170331799Y-85562500D01*
X170331800Y-85562499D01*
X170517751Y-85525512D01*
X170692915Y-85452956D01*
X170850558Y-85347622D01*
X170984622Y-85213558D01*
X171089956Y-85055915D01*
X171162512Y-84880751D01*
X171199500Y-84694798D01*
X171199500Y-84505202D01*
X171162512Y-84319249D01*
X171089956Y-84144085D01*
X171027090Y-84050000D01*
X170984622Y-83986441D01*
X170850558Y-83852377D01*
X170692912Y-83747042D01*
X170517751Y-83674488D01*
X170517743Y-83674486D01*
X170331802Y-83637500D01*
X170331798Y-83637500D01*
X168618202Y-83637500D01*
X168618197Y-83637500D01*
X168432256Y-83674486D01*
X168432248Y-83674488D01*
X168257087Y-83747042D01*
X168099441Y-83852377D01*
X167965377Y-83986441D01*
X167860042Y-84144087D01*
X167787488Y-84319248D01*
X167787486Y-84319256D01*
X167750500Y-84505197D01*
X167750500Y-84694802D01*
X165030169Y-84694802D01*
X167288152Y-82436819D01*
X167349475Y-82403334D01*
X167375833Y-82400500D01*
X167712814Y-82400500D01*
X167779853Y-82420185D01*
X167825608Y-82472989D01*
X167827375Y-82477047D01*
X167860042Y-82555912D01*
X167965377Y-82713558D01*
X168099441Y-82847622D01*
X168204300Y-82917686D01*
X168257085Y-82952956D01*
X168432249Y-83025512D01*
X168618197Y-83062499D01*
X168618201Y-83062500D01*
X168618202Y-83062500D01*
X170331799Y-83062500D01*
X170331800Y-83062499D01*
X170517751Y-83025512D01*
X170692915Y-82952956D01*
X170850558Y-82847622D01*
X170984622Y-82713558D01*
X171089956Y-82555915D01*
X171162512Y-82380751D01*
X171199500Y-82194798D01*
X171199500Y-82005202D01*
X171162512Y-81819249D01*
X171089956Y-81644085D01*
X171047147Y-81580017D01*
X170984622Y-81486441D01*
X170850558Y-81352377D01*
X170692912Y-81247042D01*
X170517751Y-81174488D01*
X170517743Y-81174486D01*
X170331802Y-81137500D01*
X170331798Y-81137500D01*
X168618202Y-81137500D01*
X168618197Y-81137500D01*
X168432256Y-81174486D01*
X168432248Y-81174488D01*
X168257087Y-81247042D01*
X168099441Y-81352377D01*
X167965377Y-81486441D01*
X167860042Y-81644087D01*
X167827375Y-81722953D01*
X167783533Y-81777357D01*
X167717239Y-81799421D01*
X167712814Y-81799500D01*
X167160438Y-81799500D01*
X167129867Y-81807691D01*
X167084008Y-81819979D01*
X167084007Y-81819980D01*
X167048538Y-81840459D01*
X167015492Y-81859537D01*
X167015487Y-81859541D01*
X163259541Y-85615487D01*
X163259535Y-85615495D01*
X163219982Y-85684004D01*
X163219979Y-85684009D01*
X163199500Y-85760439D01*
X163199500Y-86936260D01*
X163179815Y-87003299D01*
X163169213Y-87017462D01*
X163074625Y-87126622D01*
X163074622Y-87126628D01*
X163014834Y-87257543D01*
X162994353Y-87400000D01*
X161434975Y-87400000D01*
X161468716Y-87380520D01*
X161580520Y-87268716D01*
X161659577Y-87131784D01*
X161700500Y-86979057D01*
X161700500Y-86820943D01*
X161659577Y-86668216D01*
X161615574Y-86592000D01*
X161580524Y-86531290D01*
X161580518Y-86531282D01*
X161468717Y-86419481D01*
X161468709Y-86419475D01*
X161331790Y-86340426D01*
X161331786Y-86340424D01*
X161331784Y-86340423D01*
X161179057Y-86299500D01*
X149920943Y-86299500D01*
X149768216Y-86340423D01*
X149768209Y-86340426D01*
X149631290Y-86419475D01*
X149631282Y-86419481D01*
X149519481Y-86531282D01*
X149519475Y-86531290D01*
X149440426Y-86668209D01*
X149440423Y-86668216D01*
X149399500Y-86820943D01*
X149399500Y-86979057D01*
X131977238Y-86979057D01*
X131950558Y-86952377D01*
X131792912Y-86847042D01*
X131617751Y-86774488D01*
X131617743Y-86774486D01*
X131431802Y-86737500D01*
X131431798Y-86737500D01*
X129718202Y-86737500D01*
X129718197Y-86737500D01*
X129532256Y-86774486D01*
X129532248Y-86774488D01*
X129357087Y-86847042D01*
X129199441Y-86952377D01*
X129065377Y-87086441D01*
X128960042Y-87244087D01*
X128887488Y-87419248D01*
X128887486Y-87419256D01*
X128850500Y-87605197D01*
X128850500Y-87794802D01*
X122500500Y-87794802D01*
X122500500Y-84550000D01*
X152100001Y-84550000D01*
X152100001Y-84586654D01*
X152110319Y-84687652D01*
X152164546Y-84851300D01*
X152164551Y-84851311D01*
X152255052Y-84998034D01*
X152255055Y-84998038D01*
X152376961Y-85119944D01*
X152376965Y-85119947D01*
X152523688Y-85210448D01*
X152523699Y-85210453D01*
X152687347Y-85264680D01*
X152788351Y-85274999D01*
X152887500Y-85274998D01*
X152887500Y-84550000D01*
X152100001Y-84550000D01*
X122500500Y-84550000D01*
X122500500Y-84050000D01*
X152100000Y-84050000D01*
X152887500Y-84050000D01*
X152887500Y-83324999D01*
X152788360Y-83325000D01*
X152788344Y-83325001D01*
X152687347Y-83335319D01*
X152523699Y-83389546D01*
X152523688Y-83389551D01*
X152376965Y-83480052D01*
X152376961Y-83480055D01*
X152255055Y-83601961D01*
X152255052Y-83601965D01*
X152164551Y-83748688D01*
X152164546Y-83748699D01*
X152110319Y-83912347D01*
X152100000Y-84013345D01*
X152100000Y-84050000D01*
X122500500Y-84050000D01*
X122500500Y-80710852D01*
X149860000Y-80710852D01*
X149871631Y-80769329D01*
X149871632Y-80769330D01*
X149915947Y-80835652D01*
X149982269Y-80879967D01*
X149982270Y-80879968D01*
X150040747Y-80891599D01*
X150040750Y-80891600D01*
X152146828Y-80891600D01*
X152213867Y-80911285D01*
X152259622Y-80964089D01*
X152263010Y-80972266D01*
X152301845Y-81076388D01*
X152301848Y-81076393D01*
X152388008Y-81191487D01*
X152388011Y-81191490D01*
X152503105Y-81277650D01*
X152503112Y-81277654D01*
X152637819Y-81327896D01*
X152637826Y-81327898D01*
X152697354Y-81334299D01*
X152697371Y-81334300D01*
X152799999Y-81334300D01*
X152799999Y-80136800D01*
X152819684Y-80069761D01*
X152872488Y-80024006D01*
X152923999Y-80012800D01*
X153175999Y-80012800D01*
X153243038Y-80032485D01*
X153288793Y-80085289D01*
X153299999Y-80136800D01*
X153299999Y-81334300D01*
X153402627Y-81334300D01*
X153402643Y-81334299D01*
X153462171Y-81327898D01*
X153462178Y-81327896D01*
X153596885Y-81277654D01*
X153596888Y-81277652D01*
X153694728Y-81204409D01*
X153760192Y-81179991D01*
X153828465Y-81194842D01*
X153856721Y-81215994D01*
X153860604Y-81219877D01*
X153894089Y-81281200D01*
X153895661Y-81325204D01*
X153894353Y-81334300D01*
X153914834Y-81476758D01*
X153943928Y-81540464D01*
X153974623Y-81607675D01*
X154068872Y-81716445D01*
X154189947Y-81794255D01*
X154189950Y-81794256D01*
X154189949Y-81794256D01*
X154328036Y-81834801D01*
X154328038Y-81834802D01*
X154328039Y-81834802D01*
X154471961Y-81834802D01*
X154540566Y-81814658D01*
X154610434Y-81814658D01*
X154669213Y-81852432D01*
X154698238Y-81915988D01*
X154699500Y-81933635D01*
X154699500Y-83500500D01*
X154679815Y-83567539D01*
X154627011Y-83613294D01*
X154575500Y-83624500D01*
X154509740Y-83624500D01*
X154480150Y-83627274D01*
X154355525Y-83670883D01*
X154262560Y-83739494D01*
X154196930Y-83763464D01*
X154128760Y-83748148D01*
X154083388Y-83704820D01*
X154019943Y-83601960D01*
X153898038Y-83480055D01*
X153898034Y-83480052D01*
X153751311Y-83389551D01*
X153751300Y-83389546D01*
X153587652Y-83335319D01*
X153486654Y-83325000D01*
X153387500Y-83325000D01*
X153387500Y-85274999D01*
X153486640Y-85274999D01*
X153486654Y-85274998D01*
X153587652Y-85264680D01*
X153751300Y-85210453D01*
X153751311Y-85210448D01*
X153898034Y-85119947D01*
X153898038Y-85119944D01*
X154019945Y-84998037D01*
X154083388Y-84895180D01*
X154135336Y-84848455D01*
X154204298Y-84837232D01*
X154262558Y-84860504D01*
X154355524Y-84929115D01*
X154355525Y-84929116D01*
X154480151Y-84972725D01*
X154480150Y-84972725D01*
X154509740Y-84975500D01*
X154509744Y-84975500D01*
X155215260Y-84975500D01*
X155244849Y-84972725D01*
X155369475Y-84929116D01*
X155475711Y-84850711D01*
X155554116Y-84744475D01*
X155597725Y-84619849D01*
X155600500Y-84590256D01*
X155600500Y-84009744D01*
X155597725Y-83980151D01*
X155554116Y-83855525D01*
X155551793Y-83852378D01*
X155475711Y-83749289D01*
X155475710Y-83749288D01*
X155369477Y-83670885D01*
X155366554Y-83669340D01*
X155363951Y-83666806D01*
X155361999Y-83665366D01*
X155362196Y-83665098D01*
X155316484Y-83620609D01*
X155300500Y-83559712D01*
X155300500Y-81611533D01*
X155320185Y-81544494D01*
X155372989Y-81498739D01*
X155442147Y-81488795D01*
X155505703Y-81517820D01*
X155512181Y-81523852D01*
X155528789Y-81540460D01*
X155528791Y-81540461D01*
X155528795Y-81540464D01*
X155597304Y-81580017D01*
X155597311Y-81580021D01*
X155673738Y-81600500D01*
X155752862Y-81600500D01*
X155886978Y-81600500D01*
X155954017Y-81620185D01*
X155999772Y-81672989D01*
X156009716Y-81706853D01*
X156014834Y-81742456D01*
X156074622Y-81873371D01*
X156074623Y-81873373D01*
X156168872Y-81982143D01*
X156289947Y-82059953D01*
X156289950Y-82059954D01*
X156289949Y-82059954D01*
X156428036Y-82100499D01*
X156428038Y-82100500D01*
X156428039Y-82100500D01*
X156571962Y-82100500D01*
X156571962Y-82100499D01*
X156710053Y-82059953D01*
X156831128Y-81982143D01*
X156921350Y-81878020D01*
X156980124Y-81840248D01*
X157049994Y-81840248D01*
X157082100Y-81854910D01*
X157089948Y-81859954D01*
X157228036Y-81900499D01*
X157228038Y-81900500D01*
X157228039Y-81900500D01*
X157371962Y-81900500D01*
X157371962Y-81900499D01*
X157510053Y-81859953D01*
X157510054Y-81859951D01*
X157518118Y-81856270D01*
X157518872Y-81857920D01*
X157575491Y-81841292D01*
X157642532Y-81860972D01*
X157688290Y-81913774D01*
X157699499Y-81965292D01*
X157699499Y-83459712D01*
X157679814Y-83526751D01*
X157637909Y-83565241D01*
X157638001Y-83565366D01*
X157636842Y-83566220D01*
X157633449Y-83569338D01*
X157630524Y-83570884D01*
X157524289Y-83649288D01*
X157524288Y-83649289D01*
X157445884Y-83755523D01*
X157402274Y-83880150D01*
X157399500Y-83909739D01*
X157399500Y-84490260D01*
X157402274Y-84519849D01*
X157445884Y-84644476D01*
X157524288Y-84750710D01*
X157524289Y-84750711D01*
X157630523Y-84829115D01*
X157630524Y-84829115D01*
X157630525Y-84829116D01*
X157755151Y-84872725D01*
X157755150Y-84872725D01*
X157784740Y-84875500D01*
X157784744Y-84875500D01*
X158490260Y-84875500D01*
X158519849Y-84872725D01*
X158644475Y-84829116D01*
X158737440Y-84760505D01*
X158803067Y-84736535D01*
X158871238Y-84751850D01*
X158916610Y-84795179D01*
X158980052Y-84898034D01*
X158980055Y-84898038D01*
X159101961Y-85019944D01*
X159101965Y-85019947D01*
X159248688Y-85110448D01*
X159248699Y-85110453D01*
X159412347Y-85164680D01*
X159513351Y-85174999D01*
X159612500Y-85174998D01*
X159612500Y-84450000D01*
X160112500Y-84450000D01*
X160112500Y-85174999D01*
X160211640Y-85174999D01*
X160211654Y-85174998D01*
X160312652Y-85164680D01*
X160476300Y-85110453D01*
X160476311Y-85110448D01*
X160623034Y-85019947D01*
X160623038Y-85019944D01*
X160744944Y-84898038D01*
X160744947Y-84898034D01*
X160835448Y-84751311D01*
X160835453Y-84751300D01*
X160889680Y-84587652D01*
X160899999Y-84486654D01*
X160900000Y-84486641D01*
X160900000Y-84450000D01*
X160112500Y-84450000D01*
X159612500Y-84450000D01*
X159612500Y-83225000D01*
X160112500Y-83225000D01*
X160112500Y-83950000D01*
X160899999Y-83950000D01*
X160899999Y-83913360D01*
X160899998Y-83913345D01*
X160889680Y-83812347D01*
X160835453Y-83648699D01*
X160835448Y-83648688D01*
X160744947Y-83501965D01*
X160744944Y-83501961D01*
X160623038Y-83380055D01*
X160623034Y-83380052D01*
X160476311Y-83289551D01*
X160476300Y-83289546D01*
X160312652Y-83235319D01*
X160211654Y-83225000D01*
X160112500Y-83225000D01*
X159612500Y-83225000D01*
X159612500Y-83224999D01*
X159513360Y-83225000D01*
X159513344Y-83225001D01*
X159412347Y-83235319D01*
X159248699Y-83289546D01*
X159248688Y-83289551D01*
X159101965Y-83380052D01*
X159101961Y-83380055D01*
X158980054Y-83501962D01*
X158916610Y-83604821D01*
X158864662Y-83651545D01*
X158795699Y-83662766D01*
X158737439Y-83639494D01*
X158644474Y-83570883D01*
X158519848Y-83527274D01*
X158519849Y-83527274D01*
X158490260Y-83524500D01*
X158490256Y-83524500D01*
X158424499Y-83524500D01*
X158357460Y-83504815D01*
X158311705Y-83452011D01*
X158300499Y-83400500D01*
X158300499Y-81158800D01*
X158320184Y-81091761D01*
X158372988Y-81046006D01*
X158424499Y-81034800D01*
X158608643Y-81034800D01*
X158675682Y-81054485D01*
X158707909Y-81084489D01*
X158788008Y-81191487D01*
X158788011Y-81191490D01*
X158903105Y-81277650D01*
X158903112Y-81277654D01*
X159037819Y-81327896D01*
X159037826Y-81327898D01*
X159097354Y-81334299D01*
X159097371Y-81334300D01*
X159199999Y-81334300D01*
X159199999Y-80136800D01*
X159219684Y-80069761D01*
X159272488Y-80024006D01*
X159323999Y-80012800D01*
X159575999Y-80012800D01*
X159643038Y-80032485D01*
X159688793Y-80085289D01*
X159699999Y-80136800D01*
X159699999Y-81334300D01*
X159802627Y-81334300D01*
X159802643Y-81334299D01*
X159862171Y-81327898D01*
X159862178Y-81327896D01*
X159996885Y-81277654D01*
X159996892Y-81277650D01*
X160111986Y-81191490D01*
X160111989Y-81191487D01*
X160198149Y-81076393D01*
X160198153Y-81076386D01*
X160236987Y-80972267D01*
X160278858Y-80916333D01*
X160344322Y-80891916D01*
X160353169Y-80891600D01*
X162459250Y-80891600D01*
X162459251Y-80891599D01*
X162474068Y-80888652D01*
X162517729Y-80879968D01*
X162517729Y-80879967D01*
X162517731Y-80879967D01*
X162584052Y-80835652D01*
X162628367Y-80769331D01*
X162628367Y-80769329D01*
X162628368Y-80769329D01*
X162639999Y-80710852D01*
X162640000Y-80710850D01*
X162640000Y-78664749D01*
X162639999Y-78664747D01*
X162628368Y-78606270D01*
X162628367Y-78606269D01*
X162584052Y-78539947D01*
X162517730Y-78495632D01*
X162517729Y-78495631D01*
X162459252Y-78484000D01*
X162459248Y-78484000D01*
X160260752Y-78484000D01*
X160260747Y-78484000D01*
X160202270Y-78495631D01*
X160202269Y-78495632D01*
X160135947Y-78539947D01*
X160091632Y-78606269D01*
X160091631Y-78606270D01*
X160080000Y-78664747D01*
X160080000Y-79100352D01*
X160060315Y-79167391D01*
X160007511Y-79213146D01*
X159938353Y-79223090D01*
X159912667Y-79216534D01*
X159862178Y-79197703D01*
X159862172Y-79197701D01*
X159824845Y-79193688D01*
X159760294Y-79166949D01*
X159720447Y-79109556D01*
X159718334Y-79102515D01*
X159681127Y-78963658D01*
X159604677Y-78831242D01*
X159496559Y-78723124D01*
X159496558Y-78723123D01*
X159496555Y-78723121D01*
X159364145Y-78646675D01*
X159364144Y-78646674D01*
X159327220Y-78636780D01*
X159216452Y-78607100D01*
X159063550Y-78607100D01*
X159063545Y-78607100D01*
X159051807Y-78610246D01*
X158981957Y-78608582D01*
X158924096Y-78569419D01*
X158896593Y-78505190D01*
X158908180Y-78436288D01*
X158932032Y-78402793D01*
X159936907Y-77397919D01*
X159998230Y-77364434D01*
X160024588Y-77361600D01*
X163778460Y-77361600D01*
X163778462Y-77361600D01*
X163854889Y-77341121D01*
X163923411Y-77301560D01*
X163979360Y-77245611D01*
X164188151Y-77036818D01*
X164249474Y-77003334D01*
X164275832Y-77000500D01*
X164371962Y-77000500D01*
X164371962Y-77000499D01*
X164504444Y-76961600D01*
X164510050Y-76959954D01*
X164510050Y-76959953D01*
X164510053Y-76959953D01*
X164631128Y-76882143D01*
X164725377Y-76773373D01*
X164785165Y-76642457D01*
X164805647Y-76500000D01*
X164785165Y-76357543D01*
X164725377Y-76226627D01*
X164631128Y-76117857D01*
X164510053Y-76040047D01*
X164510051Y-76040046D01*
X164510049Y-76040045D01*
X164510050Y-76040045D01*
X164371963Y-75999500D01*
X164371961Y-75999500D01*
X164228039Y-75999500D01*
X164228036Y-75999500D01*
X164089949Y-76040045D01*
X163968873Y-76117856D01*
X163874623Y-76226626D01*
X163874622Y-76226628D01*
X163814834Y-76357543D01*
X163794353Y-76500000D01*
X163794353Y-76500001D01*
X163795661Y-76509103D01*
X163785713Y-76578261D01*
X163760604Y-76614423D01*
X163650749Y-76724280D01*
X163589426Y-76757766D01*
X163563067Y-76760600D01*
X162764000Y-76760600D01*
X162696961Y-76740915D01*
X162651206Y-76688111D01*
X162640000Y-76636600D01*
X162640000Y-75000001D01*
X172994390Y-75000001D01*
X173014804Y-75285433D01*
X173075628Y-75565037D01*
X173175635Y-75833166D01*
X173312770Y-76084309D01*
X173312775Y-76084317D01*
X173484254Y-76313387D01*
X173484270Y-76313405D01*
X173686594Y-76515729D01*
X173686612Y-76515745D01*
X173915682Y-76687224D01*
X173915690Y-76687229D01*
X174166833Y-76824364D01*
X174166832Y-76824364D01*
X174166836Y-76824365D01*
X174166839Y-76824367D01*
X174434954Y-76924369D01*
X174434960Y-76924370D01*
X174434962Y-76924371D01*
X174714566Y-76985195D01*
X174714568Y-76985195D01*
X174714572Y-76985196D01*
X174968177Y-77003334D01*
X174999999Y-77005610D01*
X175000000Y-77005610D01*
X175000001Y-77005610D01*
X175031823Y-77003334D01*
X175285428Y-76985196D01*
X175393898Y-76961600D01*
X175565037Y-76924371D01*
X175565037Y-76924370D01*
X175565046Y-76924369D01*
X175833161Y-76824367D01*
X176084315Y-76687226D01*
X176313395Y-76515739D01*
X176515739Y-76313395D01*
X176687226Y-76084315D01*
X176824367Y-75833161D01*
X176924369Y-75565046D01*
X176985196Y-75285428D01*
X177005610Y-75000000D01*
X176985196Y-74714572D01*
X176962436Y-74609947D01*
X176924371Y-74434962D01*
X176924370Y-74434960D01*
X176924369Y-74434954D01*
X176824367Y-74166839D01*
X176744025Y-74019705D01*
X176687229Y-73915690D01*
X176687224Y-73915682D01*
X176515745Y-73686612D01*
X176515729Y-73686594D01*
X176313405Y-73484270D01*
X176313387Y-73484254D01*
X176084317Y-73312775D01*
X176084309Y-73312770D01*
X175833166Y-73175635D01*
X175833167Y-73175635D01*
X175725915Y-73135632D01*
X175565046Y-73075631D01*
X175565043Y-73075630D01*
X175565037Y-73075628D01*
X175285433Y-73014804D01*
X175000001Y-72994390D01*
X174999999Y-72994390D01*
X174714566Y-73014804D01*
X174434962Y-73075628D01*
X174166833Y-73175635D01*
X173915690Y-73312770D01*
X173915682Y-73312775D01*
X173686612Y-73484254D01*
X173686594Y-73484270D01*
X173484270Y-73686594D01*
X173484254Y-73686612D01*
X173312775Y-73915682D01*
X173312770Y-73915690D01*
X173175635Y-74166833D01*
X173075628Y-74434962D01*
X173014804Y-74714566D01*
X172994390Y-74999998D01*
X172994390Y-75000001D01*
X162640000Y-75000001D01*
X162640000Y-74734749D01*
X162639999Y-74734747D01*
X162628368Y-74676270D01*
X162628367Y-74676269D01*
X162584052Y-74609947D01*
X162517730Y-74565632D01*
X162517729Y-74565631D01*
X162459252Y-74554000D01*
X162459248Y-74554000D01*
X160260752Y-74554000D01*
X160260747Y-74554000D01*
X160202270Y-74565631D01*
X160202269Y-74565632D01*
X160135947Y-74609947D01*
X160091632Y-74676269D01*
X160091631Y-74676270D01*
X160080000Y-74734747D01*
X160080000Y-76636600D01*
X160060315Y-76703639D01*
X160007511Y-76749394D01*
X159956000Y-76760600D01*
X159809193Y-76760600D01*
X159732765Y-76781078D01*
X159664244Y-76820640D01*
X159664241Y-76820642D01*
X158037735Y-78447149D01*
X157976412Y-78480634D01*
X157906720Y-78475650D01*
X157862373Y-78447149D01*
X157674765Y-78259541D01*
X157674757Y-78259535D01*
X157606248Y-78219982D01*
X157606243Y-78219979D01*
X157580766Y-78213152D01*
X157529815Y-78199500D01*
X154978463Y-78199500D01*
X154899339Y-78199500D01*
X154822911Y-78219978D01*
X154754390Y-78259540D01*
X154754387Y-78259542D01*
X154069984Y-78943944D01*
X154008661Y-78977429D01*
X153938969Y-78972445D01*
X153883036Y-78930573D01*
X153874921Y-78918271D01*
X153824675Y-78831242D01*
X153716557Y-78723124D01*
X153716556Y-78723123D01*
X153716553Y-78723121D01*
X153584143Y-78646675D01*
X153584142Y-78646674D01*
X153547218Y-78636780D01*
X153436450Y-78607100D01*
X153283548Y-78607100D01*
X153194933Y-78630844D01*
X153135855Y-78646674D01*
X153135854Y-78646675D01*
X153003444Y-78723121D01*
X153003439Y-78723125D01*
X152895324Y-78831240D01*
X152895320Y-78831245D01*
X152818874Y-78963655D01*
X152818873Y-78963656D01*
X152781672Y-79102493D01*
X152745306Y-79162153D01*
X152682459Y-79192682D01*
X152675154Y-79193688D01*
X152637825Y-79197701D01*
X152637816Y-79197703D01*
X152587332Y-79216533D01*
X152517641Y-79221517D01*
X152456318Y-79188031D01*
X152422834Y-79126708D01*
X152420000Y-79100351D01*
X152420000Y-78664749D01*
X152419999Y-78664747D01*
X152408368Y-78606270D01*
X152408367Y-78606269D01*
X152364052Y-78539947D01*
X152297730Y-78495632D01*
X152297729Y-78495631D01*
X152239252Y-78484000D01*
X152239248Y-78484000D01*
X150040752Y-78484000D01*
X150040747Y-78484000D01*
X149982270Y-78495631D01*
X149982269Y-78495632D01*
X149915947Y-78539947D01*
X149871632Y-78606269D01*
X149871631Y-78606270D01*
X149860000Y-78664747D01*
X149860000Y-80710852D01*
X122500500Y-80710852D01*
X122500500Y-75000001D01*
X122994390Y-75000001D01*
X123014804Y-75285433D01*
X123075628Y-75565037D01*
X123175635Y-75833166D01*
X123312770Y-76084309D01*
X123312775Y-76084317D01*
X123484254Y-76313387D01*
X123484270Y-76313405D01*
X123686594Y-76515729D01*
X123686612Y-76515745D01*
X123915682Y-76687224D01*
X123915690Y-76687229D01*
X124166833Y-76824364D01*
X124166832Y-76824364D01*
X124166836Y-76824365D01*
X124166839Y-76824367D01*
X124434954Y-76924369D01*
X124434960Y-76924370D01*
X124434962Y-76924371D01*
X124714566Y-76985195D01*
X124714568Y-76985195D01*
X124714572Y-76985196D01*
X124968177Y-77003334D01*
X124999999Y-77005610D01*
X125000000Y-77005610D01*
X125000001Y-77005610D01*
X125031823Y-77003334D01*
X125285428Y-76985196D01*
X125393898Y-76961600D01*
X125565037Y-76924371D01*
X125565037Y-76924370D01*
X125565046Y-76924369D01*
X125833161Y-76824367D01*
X125912852Y-76780852D01*
X149860000Y-76780852D01*
X149871631Y-76839329D01*
X149871632Y-76839330D01*
X149915947Y-76905652D01*
X149982269Y-76949967D01*
X149982270Y-76949968D01*
X150040747Y-76961599D01*
X150040750Y-76961600D01*
X150040752Y-76961600D01*
X152239250Y-76961600D01*
X152239251Y-76961599D01*
X152254068Y-76958652D01*
X152297729Y-76949968D01*
X152297729Y-76949967D01*
X152297731Y-76949967D01*
X152364052Y-76905652D01*
X152408367Y-76839331D01*
X152408367Y-76839329D01*
X152408368Y-76839329D01*
X152419999Y-76780852D01*
X152420000Y-76780850D01*
X152420000Y-74734749D01*
X152419999Y-74734747D01*
X152408368Y-74676270D01*
X152408367Y-74676269D01*
X152364052Y-74609947D01*
X152297730Y-74565632D01*
X152297729Y-74565631D01*
X152239252Y-74554000D01*
X152239248Y-74554000D01*
X150040752Y-74554000D01*
X150040747Y-74554000D01*
X149982270Y-74565631D01*
X149982269Y-74565632D01*
X149915947Y-74609947D01*
X149871632Y-74676269D01*
X149871631Y-74676270D01*
X149860000Y-74734747D01*
X149860000Y-76780852D01*
X125912852Y-76780852D01*
X126084315Y-76687226D01*
X126313395Y-76515739D01*
X126515739Y-76313395D01*
X126687226Y-76084315D01*
X126824367Y-75833161D01*
X126924369Y-75565046D01*
X126985196Y-75285428D01*
X127005610Y-75000000D01*
X126985196Y-74714572D01*
X126962436Y-74609947D01*
X126924371Y-74434962D01*
X126924370Y-74434960D01*
X126924369Y-74434954D01*
X126824367Y-74166839D01*
X126744025Y-74019705D01*
X126687229Y-73915690D01*
X126687224Y-73915682D01*
X126515745Y-73686612D01*
X126515729Y-73686594D01*
X126313405Y-73484270D01*
X126313387Y-73484254D01*
X126084317Y-73312775D01*
X126084309Y-73312770D01*
X125833166Y-73175635D01*
X125833167Y-73175635D01*
X125725915Y-73135632D01*
X125565046Y-73075631D01*
X125565043Y-73075630D01*
X125565037Y-73075628D01*
X125285433Y-73014804D01*
X125000001Y-72994390D01*
X124999999Y-72994390D01*
X124714566Y-73014804D01*
X124434962Y-73075628D01*
X124166833Y-73175635D01*
X123915690Y-73312770D01*
X123915682Y-73312775D01*
X123686612Y-73484254D01*
X123686594Y-73484270D01*
X123484270Y-73686594D01*
X123484254Y-73686612D01*
X123312775Y-73915682D01*
X123312770Y-73915690D01*
X123175635Y-74166833D01*
X123075628Y-74434962D01*
X123014804Y-74714566D01*
X122994390Y-74999998D01*
X122994390Y-75000001D01*
X122500500Y-75000001D01*
X122500500Y-72624500D01*
X122520185Y-72557461D01*
X122572989Y-72511706D01*
X122624500Y-72500500D01*
X177375500Y-72500500D01*
X177442539Y-72520185D01*
G37*
%TD.AperFunction*%
%TD*%
M02*
