%TF.GenerationSoftware,KiCad,Pcbnew,8.0.1*%
%TF.CreationDate,2024-07-17T12:18:51+09:00*%
%TF.ProjectId,Avi_73J_ParaBoard_v2,4176695f-3733-44a5-9f50-617261426f61,rev?*%
%TF.SameCoordinates,Original*%
%TF.FileFunction,Other,Comment*%
%FSLAX46Y46*%
G04 Gerber Fmt 4.6, Leading zero omitted, Abs format (unit mm)*
G04 Created by KiCad (PCBNEW 8.0.1) date 2024-07-17 12:18:51*
%MOMM*%
%LPD*%
G01*
G04 APERTURE LIST*
%ADD10C,0.090000*%
%ADD11C,0.060000*%
%ADD12C,0.100000*%
G04 APERTURE END LIST*
D10*
X168272891Y-117842858D02*
X167672891Y-117842858D01*
X168272891Y-118185715D02*
X167930034Y-117928572D01*
X167672891Y-118185715D02*
X168015748Y-117842858D01*
X167958605Y-118442858D02*
X167958605Y-118642858D01*
X168272891Y-118728572D02*
X168272891Y-118442858D01*
X168272891Y-118442858D02*
X167672891Y-118442858D01*
X167672891Y-118442858D02*
X167672891Y-118728572D01*
X167958605Y-118985715D02*
X167958605Y-119185715D01*
X168272891Y-119271429D02*
X168272891Y-118985715D01*
X168272891Y-118985715D02*
X167672891Y-118985715D01*
X167672891Y-118985715D02*
X167672891Y-119271429D01*
X168272891Y-119528572D02*
X167672891Y-119528572D01*
X167672891Y-119528572D02*
X167672891Y-119757143D01*
X167672891Y-119757143D02*
X167701462Y-119814286D01*
X167701462Y-119814286D02*
X167730034Y-119842857D01*
X167730034Y-119842857D02*
X167787177Y-119871429D01*
X167787177Y-119871429D02*
X167872891Y-119871429D01*
X167872891Y-119871429D02*
X167930034Y-119842857D01*
X167930034Y-119842857D02*
X167958605Y-119814286D01*
X167958605Y-119814286D02*
X167987177Y-119757143D01*
X167987177Y-119757143D02*
X167987177Y-119528572D01*
X167672891Y-120242857D02*
X167672891Y-120357143D01*
X167672891Y-120357143D02*
X167701462Y-120414286D01*
X167701462Y-120414286D02*
X167758605Y-120471429D01*
X167758605Y-120471429D02*
X167872891Y-120500000D01*
X167872891Y-120500000D02*
X168072891Y-120500000D01*
X168072891Y-120500000D02*
X168187177Y-120471429D01*
X168187177Y-120471429D02*
X168244320Y-120414286D01*
X168244320Y-120414286D02*
X168272891Y-120357143D01*
X168272891Y-120357143D02*
X168272891Y-120242857D01*
X168272891Y-120242857D02*
X168244320Y-120185715D01*
X168244320Y-120185715D02*
X168187177Y-120128572D01*
X168187177Y-120128572D02*
X168072891Y-120100000D01*
X168072891Y-120100000D02*
X167872891Y-120100000D01*
X167872891Y-120100000D02*
X167758605Y-120128572D01*
X167758605Y-120128572D02*
X167701462Y-120185715D01*
X167701462Y-120185715D02*
X167672891Y-120242857D01*
X167672891Y-120757143D02*
X168158605Y-120757143D01*
X168158605Y-120757143D02*
X168215748Y-120785714D01*
X168215748Y-120785714D02*
X168244320Y-120814286D01*
X168244320Y-120814286D02*
X168272891Y-120871428D01*
X168272891Y-120871428D02*
X168272891Y-120985714D01*
X168272891Y-120985714D02*
X168244320Y-121042857D01*
X168244320Y-121042857D02*
X168215748Y-121071428D01*
X168215748Y-121071428D02*
X168158605Y-121100000D01*
X168158605Y-121100000D02*
X167672891Y-121100000D01*
X167672891Y-121299999D02*
X167672891Y-121642857D01*
X168272891Y-121471428D02*
X167672891Y-121471428D01*
D11*
X159263095Y-125156927D02*
X159263095Y-124756927D01*
X159034524Y-125156927D02*
X159205953Y-124928356D01*
X159034524Y-124756927D02*
X159263095Y-124985499D01*
X158863095Y-124947403D02*
X158729762Y-124947403D01*
X158672619Y-125156927D02*
X158863095Y-125156927D01*
X158863095Y-125156927D02*
X158863095Y-124756927D01*
X158863095Y-124756927D02*
X158672619Y-124756927D01*
X158501190Y-124947403D02*
X158367857Y-124947403D01*
X158310714Y-125156927D02*
X158501190Y-125156927D01*
X158501190Y-125156927D02*
X158501190Y-124756927D01*
X158501190Y-124756927D02*
X158310714Y-124756927D01*
X158139285Y-125156927D02*
X158139285Y-124756927D01*
X158139285Y-124756927D02*
X157986904Y-124756927D01*
X157986904Y-124756927D02*
X157948809Y-124775975D01*
X157948809Y-124775975D02*
X157929762Y-124795022D01*
X157929762Y-124795022D02*
X157910714Y-124833118D01*
X157910714Y-124833118D02*
X157910714Y-124890260D01*
X157910714Y-124890260D02*
X157929762Y-124928356D01*
X157929762Y-124928356D02*
X157948809Y-124947403D01*
X157948809Y-124947403D02*
X157986904Y-124966451D01*
X157986904Y-124966451D02*
X158139285Y-124966451D01*
X157663095Y-124756927D02*
X157586904Y-124756927D01*
X157586904Y-124756927D02*
X157548809Y-124775975D01*
X157548809Y-124775975D02*
X157510714Y-124814070D01*
X157510714Y-124814070D02*
X157491666Y-124890260D01*
X157491666Y-124890260D02*
X157491666Y-125023594D01*
X157491666Y-125023594D02*
X157510714Y-125099784D01*
X157510714Y-125099784D02*
X157548809Y-125137880D01*
X157548809Y-125137880D02*
X157586904Y-125156927D01*
X157586904Y-125156927D02*
X157663095Y-125156927D01*
X157663095Y-125156927D02*
X157701190Y-125137880D01*
X157701190Y-125137880D02*
X157739285Y-125099784D01*
X157739285Y-125099784D02*
X157758333Y-125023594D01*
X157758333Y-125023594D02*
X157758333Y-124890260D01*
X157758333Y-124890260D02*
X157739285Y-124814070D01*
X157739285Y-124814070D02*
X157701190Y-124775975D01*
X157701190Y-124775975D02*
X157663095Y-124756927D01*
X157320237Y-124756927D02*
X157320237Y-125080737D01*
X157320237Y-125080737D02*
X157301190Y-125118832D01*
X157301190Y-125118832D02*
X157282142Y-125137880D01*
X157282142Y-125137880D02*
X157244047Y-125156927D01*
X157244047Y-125156927D02*
X157167856Y-125156927D01*
X157167856Y-125156927D02*
X157129761Y-125137880D01*
X157129761Y-125137880D02*
X157110714Y-125118832D01*
X157110714Y-125118832D02*
X157091666Y-125080737D01*
X157091666Y-125080737D02*
X157091666Y-124756927D01*
X156958332Y-124756927D02*
X156729761Y-124756927D01*
X156844047Y-125156927D02*
X156844047Y-124756927D01*
D10*
X169347891Y-112217858D02*
X168747891Y-112217858D01*
X169347891Y-112560715D02*
X169005034Y-112303572D01*
X168747891Y-112560715D02*
X169090748Y-112217858D01*
X169033605Y-112817858D02*
X169033605Y-113017858D01*
X169347891Y-113103572D02*
X169347891Y-112817858D01*
X169347891Y-112817858D02*
X168747891Y-112817858D01*
X168747891Y-112817858D02*
X168747891Y-113103572D01*
X169033605Y-113360715D02*
X169033605Y-113560715D01*
X169347891Y-113646429D02*
X169347891Y-113360715D01*
X169347891Y-113360715D02*
X168747891Y-113360715D01*
X168747891Y-113360715D02*
X168747891Y-113646429D01*
X169347891Y-113903572D02*
X168747891Y-113903572D01*
X168747891Y-113903572D02*
X168747891Y-114132143D01*
X168747891Y-114132143D02*
X168776462Y-114189286D01*
X168776462Y-114189286D02*
X168805034Y-114217857D01*
X168805034Y-114217857D02*
X168862177Y-114246429D01*
X168862177Y-114246429D02*
X168947891Y-114246429D01*
X168947891Y-114246429D02*
X169005034Y-114217857D01*
X169005034Y-114217857D02*
X169033605Y-114189286D01*
X169033605Y-114189286D02*
X169062177Y-114132143D01*
X169062177Y-114132143D02*
X169062177Y-113903572D01*
X168747891Y-114617857D02*
X168747891Y-114732143D01*
X168747891Y-114732143D02*
X168776462Y-114789286D01*
X168776462Y-114789286D02*
X168833605Y-114846429D01*
X168833605Y-114846429D02*
X168947891Y-114875000D01*
X168947891Y-114875000D02*
X169147891Y-114875000D01*
X169147891Y-114875000D02*
X169262177Y-114846429D01*
X169262177Y-114846429D02*
X169319320Y-114789286D01*
X169319320Y-114789286D02*
X169347891Y-114732143D01*
X169347891Y-114732143D02*
X169347891Y-114617857D01*
X169347891Y-114617857D02*
X169319320Y-114560715D01*
X169319320Y-114560715D02*
X169262177Y-114503572D01*
X169262177Y-114503572D02*
X169147891Y-114475000D01*
X169147891Y-114475000D02*
X168947891Y-114475000D01*
X168947891Y-114475000D02*
X168833605Y-114503572D01*
X168833605Y-114503572D02*
X168776462Y-114560715D01*
X168776462Y-114560715D02*
X168747891Y-114617857D01*
X168747891Y-115132143D02*
X169233605Y-115132143D01*
X169233605Y-115132143D02*
X169290748Y-115160714D01*
X169290748Y-115160714D02*
X169319320Y-115189286D01*
X169319320Y-115189286D02*
X169347891Y-115246428D01*
X169347891Y-115246428D02*
X169347891Y-115360714D01*
X169347891Y-115360714D02*
X169319320Y-115417857D01*
X169319320Y-115417857D02*
X169290748Y-115446428D01*
X169290748Y-115446428D02*
X169233605Y-115475000D01*
X169233605Y-115475000D02*
X168747891Y-115475000D01*
X168747891Y-115674999D02*
X168747891Y-116017857D01*
X169347891Y-115846428D02*
X168747891Y-115846428D01*
D12*
X166395237Y-115857419D02*
X166395237Y-114857419D01*
X165823809Y-115857419D02*
X166252380Y-115285990D01*
X165823809Y-114857419D02*
X166395237Y-115428847D01*
X165395237Y-115333609D02*
X165061904Y-115333609D01*
X164919047Y-115857419D02*
X165395237Y-115857419D01*
X165395237Y-115857419D02*
X165395237Y-114857419D01*
X165395237Y-114857419D02*
X164919047Y-114857419D01*
X164490475Y-115333609D02*
X164157142Y-115333609D01*
X164014285Y-115857419D02*
X164490475Y-115857419D01*
X164490475Y-115857419D02*
X164490475Y-114857419D01*
X164490475Y-114857419D02*
X164014285Y-114857419D01*
X163585713Y-115857419D02*
X163585713Y-114857419D01*
X163585713Y-114857419D02*
X163204761Y-114857419D01*
X163204761Y-114857419D02*
X163109523Y-114905038D01*
X163109523Y-114905038D02*
X163061904Y-114952657D01*
X163061904Y-114952657D02*
X163014285Y-115047895D01*
X163014285Y-115047895D02*
X163014285Y-115190752D01*
X163014285Y-115190752D02*
X163061904Y-115285990D01*
X163061904Y-115285990D02*
X163109523Y-115333609D01*
X163109523Y-115333609D02*
X163204761Y-115381228D01*
X163204761Y-115381228D02*
X163585713Y-115381228D01*
X162395237Y-114857419D02*
X162204761Y-114857419D01*
X162204761Y-114857419D02*
X162109523Y-114905038D01*
X162109523Y-114905038D02*
X162014285Y-115000276D01*
X162014285Y-115000276D02*
X161966666Y-115190752D01*
X161966666Y-115190752D02*
X161966666Y-115524085D01*
X161966666Y-115524085D02*
X162014285Y-115714561D01*
X162014285Y-115714561D02*
X162109523Y-115809800D01*
X162109523Y-115809800D02*
X162204761Y-115857419D01*
X162204761Y-115857419D02*
X162395237Y-115857419D01*
X162395237Y-115857419D02*
X162490475Y-115809800D01*
X162490475Y-115809800D02*
X162585713Y-115714561D01*
X162585713Y-115714561D02*
X162633332Y-115524085D01*
X162633332Y-115524085D02*
X162633332Y-115190752D01*
X162633332Y-115190752D02*
X162585713Y-115000276D01*
X162585713Y-115000276D02*
X162490475Y-114905038D01*
X162490475Y-114905038D02*
X162395237Y-114857419D01*
X161538094Y-114857419D02*
X161538094Y-115666942D01*
X161538094Y-115666942D02*
X161490475Y-115762180D01*
X161490475Y-115762180D02*
X161442856Y-115809800D01*
X161442856Y-115809800D02*
X161347618Y-115857419D01*
X161347618Y-115857419D02*
X161157142Y-115857419D01*
X161157142Y-115857419D02*
X161061904Y-115809800D01*
X161061904Y-115809800D02*
X161014285Y-115762180D01*
X161014285Y-115762180D02*
X160966666Y-115666942D01*
X160966666Y-115666942D02*
X160966666Y-114857419D01*
X160633332Y-114857419D02*
X160061904Y-114857419D01*
X160347618Y-115857419D02*
X160347618Y-114857419D01*
M02*
