%TF.GenerationSoftware,KiCad,Pcbnew,8.0.1*%
%TF.CreationDate,2024-07-17T12:18:50+09:00*%
%TF.ProjectId,Avi_73J_ParaBoard_v2,4176695f-3733-44a5-9f50-617261426f61,rev?*%
%TF.SameCoordinates,Original*%
%TF.FileFunction,Legend,Top*%
%TF.FilePolarity,Positive*%
%FSLAX46Y46*%
G04 Gerber Fmt 4.6, Leading zero omitted, Abs format (unit mm)*
G04 Created by KiCad (PCBNEW 8.0.1) date 2024-07-17 12:18:50*
%MOMM*%
%LPD*%
G01*
G04 APERTURE LIST*
G04 Aperture macros list*
%AMRoundRect*
0 Rectangle with rounded corners*
0 $1 Rounding radius*
0 $2 $3 $4 $5 $6 $7 $8 $9 X,Y pos of 4 corners*
0 Add a 4 corners polygon primitive as box body*
4,1,4,$2,$3,$4,$5,$6,$7,$8,$9,$2,$3,0*
0 Add four circle primitives for the rounded corners*
1,1,$1+$1,$2,$3*
1,1,$1+$1,$4,$5*
1,1,$1+$1,$6,$7*
1,1,$1+$1,$8,$9*
0 Add four rect primitives between the rounded corners*
20,1,$1+$1,$2,$3,$4,$5,0*
20,1,$1+$1,$4,$5,$6,$7,0*
20,1,$1+$1,$6,$7,$8,$9,0*
20,1,$1+$1,$8,$9,$2,$3,0*%
G04 Aperture macros list end*
%ADD10C,0.100000*%
%ADD11C,0.120000*%
%ADD12C,0.150000*%
%ADD13C,0.158750*%
%ADD14C,0.152400*%
%ADD15C,0.127000*%
%ADD16C,0.000000*%
%ADD17RoundRect,0.237500X0.300000X0.237500X-0.300000X0.237500X-0.300000X-0.237500X0.300000X-0.237500X0*%
%ADD18RoundRect,0.237500X-0.237500X0.300000X-0.237500X-0.300000X0.237500X-0.300000X0.237500X0.300000X0*%
%ADD19RoundRect,0.237500X-0.300000X-0.237500X0.300000X-0.237500X0.300000X0.237500X-0.300000X0.237500X0*%
%ADD20RoundRect,0.250000X0.625000X-0.375000X0.625000X0.375000X-0.625000X0.375000X-0.625000X-0.375000X0*%
%ADD21RoundRect,0.218750X-0.256250X0.218750X-0.256250X-0.218750X0.256250X-0.218750X0.256250X0.218750X0*%
%ADD22O,1.511200X2.819200*%
%ADD23RoundRect,0.101600X3.000000X-3.000000X3.000000X3.000000X-3.000000X3.000000X-3.000000X-3.000000X0*%
%ADD24RoundRect,0.101600X1.250000X-1.000000X1.250000X1.000000X-1.250000X1.000000X-1.250000X-1.000000X0*%
%ADD25O,3.251200X1.727200*%
%ADD26RoundRect,0.237500X-0.237500X0.250000X-0.237500X-0.250000X0.237500X-0.250000X0.237500X0.250000X0*%
%ADD27RoundRect,0.250000X0.550000X-1.412500X0.550000X1.412500X-0.550000X1.412500X-0.550000X-1.412500X0*%
%ADD28RoundRect,0.237500X0.237500X-0.300000X0.237500X0.300000X-0.237500X0.300000X-0.237500X-0.300000X0*%
%ADD29RoundRect,0.218750X0.218750X0.256250X-0.218750X0.256250X-0.218750X-0.256250X0.218750X-0.256250X0*%
%ADD30R,0.431800X1.511300*%
%ADD31R,0.900000X1.500000*%
%ADD32R,1.500000X0.900000*%
%ADD33C,0.600000*%
%ADD34R,3.800000X3.800000*%
%ADD35RoundRect,0.150000X0.825000X0.150000X-0.825000X0.150000X-0.825000X-0.150000X0.825000X-0.150000X0*%
%ADD36C,0.660400*%
G04 APERTURE END LIST*
D10*
X124250057Y-102622931D02*
X124278628Y-102565789D01*
X124278628Y-102565789D02*
X124278628Y-102480074D01*
X124278628Y-102480074D02*
X124250057Y-102394360D01*
X124250057Y-102394360D02*
X124192914Y-102337217D01*
X124192914Y-102337217D02*
X124135771Y-102308646D01*
X124135771Y-102308646D02*
X124021485Y-102280074D01*
X124021485Y-102280074D02*
X123935771Y-102280074D01*
X123935771Y-102280074D02*
X123821485Y-102308646D01*
X123821485Y-102308646D02*
X123764342Y-102337217D01*
X123764342Y-102337217D02*
X123707200Y-102394360D01*
X123707200Y-102394360D02*
X123678628Y-102480074D01*
X123678628Y-102480074D02*
X123678628Y-102537217D01*
X123678628Y-102537217D02*
X123707200Y-102622931D01*
X123707200Y-102622931D02*
X123735771Y-102651503D01*
X123735771Y-102651503D02*
X123935771Y-102651503D01*
X123935771Y-102651503D02*
X123935771Y-102537217D01*
X123678628Y-102908646D02*
X124278628Y-102908646D01*
X124278628Y-102908646D02*
X123678628Y-103251503D01*
X123678628Y-103251503D02*
X124278628Y-103251503D01*
X123678628Y-103537217D02*
X124278628Y-103537217D01*
X124278628Y-103537217D02*
X124278628Y-103680074D01*
X124278628Y-103680074D02*
X124250057Y-103765788D01*
X124250057Y-103765788D02*
X124192914Y-103822931D01*
X124192914Y-103822931D02*
X124135771Y-103851502D01*
X124135771Y-103851502D02*
X124021485Y-103880074D01*
X124021485Y-103880074D02*
X123935771Y-103880074D01*
X123935771Y-103880074D02*
X123821485Y-103851502D01*
X123821485Y-103851502D02*
X123764342Y-103822931D01*
X123764342Y-103822931D02*
X123707200Y-103765788D01*
X123707200Y-103765788D02*
X123678628Y-103680074D01*
X123678628Y-103680074D02*
X123678628Y-103537217D01*
X123907200Y-104137217D02*
X123907200Y-104594360D01*
X123792914Y-104480074D02*
X123907200Y-104594360D01*
X123907200Y-104594360D02*
X124021485Y-104480074D01*
D11*
X128197994Y-74571379D02*
X128197994Y-73809474D01*
X128007518Y-73999950D02*
X128197994Y-73809474D01*
X128197994Y-73809474D02*
X128388470Y-73999950D01*
X129531327Y-74571379D02*
X129055137Y-74571379D01*
X129055137Y-74571379D02*
X129055137Y-73571379D01*
X130293232Y-74571379D02*
X130293232Y-74047569D01*
X130293232Y-74047569D02*
X130245613Y-73952331D01*
X130245613Y-73952331D02*
X130150375Y-73904712D01*
X130150375Y-73904712D02*
X129959899Y-73904712D01*
X129959899Y-73904712D02*
X129864661Y-73952331D01*
X130293232Y-74523760D02*
X130197994Y-74571379D01*
X130197994Y-74571379D02*
X129959899Y-74571379D01*
X129959899Y-74571379D02*
X129864661Y-74523760D01*
X129864661Y-74523760D02*
X129817042Y-74428521D01*
X129817042Y-74428521D02*
X129817042Y-74333283D01*
X129817042Y-74333283D02*
X129864661Y-74238045D01*
X129864661Y-74238045D02*
X129959899Y-74190426D01*
X129959899Y-74190426D02*
X130197994Y-74190426D01*
X130197994Y-74190426D02*
X130293232Y-74142807D01*
X131197994Y-73904712D02*
X131197994Y-74571379D01*
X130769423Y-73904712D02*
X130769423Y-74428521D01*
X130769423Y-74428521D02*
X130817042Y-74523760D01*
X130817042Y-74523760D02*
X130912280Y-74571379D01*
X130912280Y-74571379D02*
X131055137Y-74571379D01*
X131055137Y-74571379D02*
X131150375Y-74523760D01*
X131150375Y-74523760D02*
X131197994Y-74476140D01*
X131674185Y-73904712D02*
X131674185Y-74571379D01*
X131674185Y-73999950D02*
X131721804Y-73952331D01*
X131721804Y-73952331D02*
X131817042Y-73904712D01*
X131817042Y-73904712D02*
X131959899Y-73904712D01*
X131959899Y-73904712D02*
X132055137Y-73952331D01*
X132055137Y-73952331D02*
X132102756Y-74047569D01*
X132102756Y-74047569D02*
X132102756Y-74571379D01*
X133007518Y-74523760D02*
X132912280Y-74571379D01*
X132912280Y-74571379D02*
X132721804Y-74571379D01*
X132721804Y-74571379D02*
X132626566Y-74523760D01*
X132626566Y-74523760D02*
X132578947Y-74476140D01*
X132578947Y-74476140D02*
X132531328Y-74380902D01*
X132531328Y-74380902D02*
X132531328Y-74095188D01*
X132531328Y-74095188D02*
X132578947Y-73999950D01*
X132578947Y-73999950D02*
X132626566Y-73952331D01*
X132626566Y-73952331D02*
X132721804Y-73904712D01*
X132721804Y-73904712D02*
X132912280Y-73904712D01*
X132912280Y-73904712D02*
X133007518Y-73952331D01*
X133436090Y-74571379D02*
X133436090Y-73571379D01*
X133864661Y-74571379D02*
X133864661Y-74047569D01*
X133864661Y-74047569D02*
X133817042Y-73952331D01*
X133817042Y-73952331D02*
X133721804Y-73904712D01*
X133721804Y-73904712D02*
X133578947Y-73904712D01*
X133578947Y-73904712D02*
X133483709Y-73952331D01*
X133483709Y-73952331D02*
X133436090Y-73999950D01*
X135578947Y-74571379D02*
X135102757Y-74571379D01*
X135102757Y-74571379D02*
X135102757Y-73571379D01*
X136340852Y-73904712D02*
X136340852Y-74571379D01*
X135912281Y-73904712D02*
X135912281Y-74428521D01*
X135912281Y-74428521D02*
X135959900Y-74523760D01*
X135959900Y-74523760D02*
X136055138Y-74571379D01*
X136055138Y-74571379D02*
X136197995Y-74571379D01*
X136197995Y-74571379D02*
X136293233Y-74523760D01*
X136293233Y-74523760D02*
X136340852Y-74476140D01*
X137245614Y-73904712D02*
X137245614Y-74714236D01*
X137245614Y-74714236D02*
X137197995Y-74809474D01*
X137197995Y-74809474D02*
X137150376Y-74857093D01*
X137150376Y-74857093D02*
X137055138Y-74904712D01*
X137055138Y-74904712D02*
X136912281Y-74904712D01*
X136912281Y-74904712D02*
X136817043Y-74857093D01*
X137245614Y-74523760D02*
X137150376Y-74571379D01*
X137150376Y-74571379D02*
X136959900Y-74571379D01*
X136959900Y-74571379D02*
X136864662Y-74523760D01*
X136864662Y-74523760D02*
X136817043Y-74476140D01*
X136817043Y-74476140D02*
X136769424Y-74380902D01*
X136769424Y-74380902D02*
X136769424Y-74095188D01*
X136769424Y-74095188D02*
X136817043Y-73999950D01*
X136817043Y-73999950D02*
X136864662Y-73952331D01*
X136864662Y-73952331D02*
X136959900Y-73904712D01*
X136959900Y-73904712D02*
X137150376Y-73904712D01*
X137150376Y-73904712D02*
X137245614Y-73952331D01*
D10*
X123735771Y-114351503D02*
X123707200Y-114322931D01*
X123707200Y-114322931D02*
X123678628Y-114237217D01*
X123678628Y-114237217D02*
X123678628Y-114180074D01*
X123678628Y-114180074D02*
X123707200Y-114094360D01*
X123707200Y-114094360D02*
X123764342Y-114037217D01*
X123764342Y-114037217D02*
X123821485Y-114008646D01*
X123821485Y-114008646D02*
X123935771Y-113980074D01*
X123935771Y-113980074D02*
X124021485Y-113980074D01*
X124021485Y-113980074D02*
X124135771Y-114008646D01*
X124135771Y-114008646D02*
X124192914Y-114037217D01*
X124192914Y-114037217D02*
X124250057Y-114094360D01*
X124250057Y-114094360D02*
X124278628Y-114180074D01*
X124278628Y-114180074D02*
X124278628Y-114237217D01*
X124278628Y-114237217D02*
X124250057Y-114322931D01*
X124250057Y-114322931D02*
X124221485Y-114351503D01*
X123850057Y-114580074D02*
X123850057Y-114865789D01*
X123678628Y-114522931D02*
X124278628Y-114722931D01*
X124278628Y-114722931D02*
X123678628Y-114922931D01*
X123678628Y-115122932D02*
X124278628Y-115122932D01*
X124278628Y-115122932D02*
X123678628Y-115465789D01*
X123678628Y-115465789D02*
X124278628Y-115465789D01*
X123621485Y-115608646D02*
X123621485Y-116065788D01*
X123678628Y-116208646D02*
X124278628Y-116208646D01*
X123992914Y-116208646D02*
X123992914Y-116551503D01*
X123678628Y-116551503D02*
X124278628Y-116551503D01*
X123678628Y-116837217D02*
X124278628Y-116837217D01*
X124250057Y-117437216D02*
X124278628Y-117380074D01*
X124278628Y-117380074D02*
X124278628Y-117294359D01*
X124278628Y-117294359D02*
X124250057Y-117208645D01*
X124250057Y-117208645D02*
X124192914Y-117151502D01*
X124192914Y-117151502D02*
X124135771Y-117122931D01*
X124135771Y-117122931D02*
X124021485Y-117094359D01*
X124021485Y-117094359D02*
X123935771Y-117094359D01*
X123935771Y-117094359D02*
X123821485Y-117122931D01*
X123821485Y-117122931D02*
X123764342Y-117151502D01*
X123764342Y-117151502D02*
X123707200Y-117208645D01*
X123707200Y-117208645D02*
X123678628Y-117294359D01*
X123678628Y-117294359D02*
X123678628Y-117351502D01*
X123678628Y-117351502D02*
X123707200Y-117437216D01*
X123707200Y-117437216D02*
X123735771Y-117465788D01*
X123735771Y-117465788D02*
X123935771Y-117465788D01*
X123935771Y-117465788D02*
X123935771Y-117351502D01*
X123678628Y-117722931D02*
X124278628Y-117722931D01*
X123992914Y-117722931D02*
X123992914Y-118065788D01*
X123678628Y-118065788D02*
X124278628Y-118065788D01*
X123907200Y-118351502D02*
X123907200Y-118808645D01*
X123792914Y-118694359D02*
X123907200Y-118808645D01*
X123907200Y-118808645D02*
X124021485Y-118694359D01*
X125407200Y-86865789D02*
X125407200Y-86408646D01*
X125292914Y-86522931D02*
X125407200Y-86408646D01*
X125407200Y-86408646D02*
X125521485Y-86522931D01*
X125778628Y-87065788D02*
X125178628Y-87265788D01*
X125178628Y-87265788D02*
X125778628Y-87465788D01*
X125235771Y-88008646D02*
X125207200Y-87980074D01*
X125207200Y-87980074D02*
X125178628Y-87894360D01*
X125178628Y-87894360D02*
X125178628Y-87837217D01*
X125178628Y-87837217D02*
X125207200Y-87751503D01*
X125207200Y-87751503D02*
X125264342Y-87694360D01*
X125264342Y-87694360D02*
X125321485Y-87665789D01*
X125321485Y-87665789D02*
X125435771Y-87637217D01*
X125435771Y-87637217D02*
X125521485Y-87637217D01*
X125521485Y-87637217D02*
X125635771Y-87665789D01*
X125635771Y-87665789D02*
X125692914Y-87694360D01*
X125692914Y-87694360D02*
X125750057Y-87751503D01*
X125750057Y-87751503D02*
X125778628Y-87837217D01*
X125778628Y-87837217D02*
X125778628Y-87894360D01*
X125778628Y-87894360D02*
X125750057Y-87980074D01*
X125750057Y-87980074D02*
X125721485Y-88008646D01*
X125235771Y-88608646D02*
X125207200Y-88580074D01*
X125207200Y-88580074D02*
X125178628Y-88494360D01*
X125178628Y-88494360D02*
X125178628Y-88437217D01*
X125178628Y-88437217D02*
X125207200Y-88351503D01*
X125207200Y-88351503D02*
X125264342Y-88294360D01*
X125264342Y-88294360D02*
X125321485Y-88265789D01*
X125321485Y-88265789D02*
X125435771Y-88237217D01*
X125435771Y-88237217D02*
X125521485Y-88237217D01*
X125521485Y-88237217D02*
X125635771Y-88265789D01*
X125635771Y-88265789D02*
X125692914Y-88294360D01*
X125692914Y-88294360D02*
X125750057Y-88351503D01*
X125750057Y-88351503D02*
X125778628Y-88437217D01*
X125778628Y-88437217D02*
X125778628Y-88494360D01*
X125778628Y-88494360D02*
X125750057Y-88580074D01*
X125750057Y-88580074D02*
X125721485Y-88608646D01*
X125407200Y-88865789D02*
X125407200Y-89322932D01*
X125178628Y-89894360D02*
X125178628Y-89608646D01*
X125178628Y-89608646D02*
X125778628Y-89608646D01*
X125778628Y-90208645D02*
X125778628Y-90322931D01*
X125778628Y-90322931D02*
X125750057Y-90380074D01*
X125750057Y-90380074D02*
X125692914Y-90437217D01*
X125692914Y-90437217D02*
X125578628Y-90465788D01*
X125578628Y-90465788D02*
X125378628Y-90465788D01*
X125378628Y-90465788D02*
X125264342Y-90437217D01*
X125264342Y-90437217D02*
X125207200Y-90380074D01*
X125207200Y-90380074D02*
X125178628Y-90322931D01*
X125178628Y-90322931D02*
X125178628Y-90208645D01*
X125178628Y-90208645D02*
X125207200Y-90151503D01*
X125207200Y-90151503D02*
X125264342Y-90094360D01*
X125264342Y-90094360D02*
X125378628Y-90065788D01*
X125378628Y-90065788D02*
X125578628Y-90065788D01*
X125578628Y-90065788D02*
X125692914Y-90094360D01*
X125692914Y-90094360D02*
X125750057Y-90151503D01*
X125750057Y-90151503D02*
X125778628Y-90208645D01*
X125750057Y-91037216D02*
X125778628Y-90980074D01*
X125778628Y-90980074D02*
X125778628Y-90894359D01*
X125778628Y-90894359D02*
X125750057Y-90808645D01*
X125750057Y-90808645D02*
X125692914Y-90751502D01*
X125692914Y-90751502D02*
X125635771Y-90722931D01*
X125635771Y-90722931D02*
X125521485Y-90694359D01*
X125521485Y-90694359D02*
X125435771Y-90694359D01*
X125435771Y-90694359D02*
X125321485Y-90722931D01*
X125321485Y-90722931D02*
X125264342Y-90751502D01*
X125264342Y-90751502D02*
X125207200Y-90808645D01*
X125207200Y-90808645D02*
X125178628Y-90894359D01*
X125178628Y-90894359D02*
X125178628Y-90951502D01*
X125178628Y-90951502D02*
X125207200Y-91037216D01*
X125207200Y-91037216D02*
X125235771Y-91065788D01*
X125235771Y-91065788D02*
X125435771Y-91065788D01*
X125435771Y-91065788D02*
X125435771Y-90951502D01*
X125235771Y-91322931D02*
X125207200Y-91351502D01*
X125207200Y-91351502D02*
X125178628Y-91322931D01*
X125178628Y-91322931D02*
X125207200Y-91294359D01*
X125207200Y-91294359D02*
X125235771Y-91322931D01*
X125235771Y-91322931D02*
X125178628Y-91322931D01*
X125307200Y-100165789D02*
X125307200Y-99708646D01*
X125192914Y-99822931D02*
X125307200Y-99708646D01*
X125307200Y-99708646D02*
X125421485Y-99822931D01*
X125678628Y-100365788D02*
X125078628Y-100565788D01*
X125078628Y-100565788D02*
X125678628Y-100765788D01*
X125135771Y-101308646D02*
X125107200Y-101280074D01*
X125107200Y-101280074D02*
X125078628Y-101194360D01*
X125078628Y-101194360D02*
X125078628Y-101137217D01*
X125078628Y-101137217D02*
X125107200Y-101051503D01*
X125107200Y-101051503D02*
X125164342Y-100994360D01*
X125164342Y-100994360D02*
X125221485Y-100965789D01*
X125221485Y-100965789D02*
X125335771Y-100937217D01*
X125335771Y-100937217D02*
X125421485Y-100937217D01*
X125421485Y-100937217D02*
X125535771Y-100965789D01*
X125535771Y-100965789D02*
X125592914Y-100994360D01*
X125592914Y-100994360D02*
X125650057Y-101051503D01*
X125650057Y-101051503D02*
X125678628Y-101137217D01*
X125678628Y-101137217D02*
X125678628Y-101194360D01*
X125678628Y-101194360D02*
X125650057Y-101280074D01*
X125650057Y-101280074D02*
X125621485Y-101308646D01*
X125135771Y-101908646D02*
X125107200Y-101880074D01*
X125107200Y-101880074D02*
X125078628Y-101794360D01*
X125078628Y-101794360D02*
X125078628Y-101737217D01*
X125078628Y-101737217D02*
X125107200Y-101651503D01*
X125107200Y-101651503D02*
X125164342Y-101594360D01*
X125164342Y-101594360D02*
X125221485Y-101565789D01*
X125221485Y-101565789D02*
X125335771Y-101537217D01*
X125335771Y-101537217D02*
X125421485Y-101537217D01*
X125421485Y-101537217D02*
X125535771Y-101565789D01*
X125535771Y-101565789D02*
X125592914Y-101594360D01*
X125592914Y-101594360D02*
X125650057Y-101651503D01*
X125650057Y-101651503D02*
X125678628Y-101737217D01*
X125678628Y-101737217D02*
X125678628Y-101794360D01*
X125678628Y-101794360D02*
X125650057Y-101880074D01*
X125650057Y-101880074D02*
X125621485Y-101908646D01*
X125307200Y-102165789D02*
X125307200Y-102622932D01*
X125250057Y-102880074D02*
X125250057Y-103165789D01*
X125078628Y-102822931D02*
X125678628Y-103022931D01*
X125678628Y-103022931D02*
X125078628Y-103222931D01*
X125135771Y-103765789D02*
X125107200Y-103737217D01*
X125107200Y-103737217D02*
X125078628Y-103651503D01*
X125078628Y-103651503D02*
X125078628Y-103594360D01*
X125078628Y-103594360D02*
X125107200Y-103508646D01*
X125107200Y-103508646D02*
X125164342Y-103451503D01*
X125164342Y-103451503D02*
X125221485Y-103422932D01*
X125221485Y-103422932D02*
X125335771Y-103394360D01*
X125335771Y-103394360D02*
X125421485Y-103394360D01*
X125421485Y-103394360D02*
X125535771Y-103422932D01*
X125535771Y-103422932D02*
X125592914Y-103451503D01*
X125592914Y-103451503D02*
X125650057Y-103508646D01*
X125650057Y-103508646D02*
X125678628Y-103594360D01*
X125678628Y-103594360D02*
X125678628Y-103651503D01*
X125678628Y-103651503D02*
X125650057Y-103737217D01*
X125650057Y-103737217D02*
X125621485Y-103765789D01*
X125678628Y-103937217D02*
X125678628Y-104280075D01*
X125078628Y-104108646D02*
X125678628Y-104108646D01*
X125135771Y-104480075D02*
X125107200Y-104508646D01*
X125107200Y-104508646D02*
X125078628Y-104480075D01*
X125078628Y-104480075D02*
X125107200Y-104451503D01*
X125107200Y-104451503D02*
X125135771Y-104480075D01*
X125135771Y-104480075D02*
X125078628Y-104480075D01*
X125207200Y-114465789D02*
X125207200Y-114008646D01*
X125092914Y-114122931D02*
X125207200Y-114008646D01*
X125207200Y-114008646D02*
X125321485Y-114122931D01*
X125035771Y-115094360D02*
X125007200Y-115065788D01*
X125007200Y-115065788D02*
X124978628Y-114980074D01*
X124978628Y-114980074D02*
X124978628Y-114922931D01*
X124978628Y-114922931D02*
X125007200Y-114837217D01*
X125007200Y-114837217D02*
X125064342Y-114780074D01*
X125064342Y-114780074D02*
X125121485Y-114751503D01*
X125121485Y-114751503D02*
X125235771Y-114722931D01*
X125235771Y-114722931D02*
X125321485Y-114722931D01*
X125321485Y-114722931D02*
X125435771Y-114751503D01*
X125435771Y-114751503D02*
X125492914Y-114780074D01*
X125492914Y-114780074D02*
X125550057Y-114837217D01*
X125550057Y-114837217D02*
X125578628Y-114922931D01*
X125578628Y-114922931D02*
X125578628Y-114980074D01*
X125578628Y-114980074D02*
X125550057Y-115065788D01*
X125550057Y-115065788D02*
X125521485Y-115094360D01*
X125150057Y-115322931D02*
X125150057Y-115608646D01*
X124978628Y-115265788D02*
X125578628Y-115465788D01*
X125578628Y-115465788D02*
X124978628Y-115665788D01*
X124978628Y-115865789D02*
X125578628Y-115865789D01*
X125578628Y-115865789D02*
X124978628Y-116208646D01*
X124978628Y-116208646D02*
X125578628Y-116208646D01*
X124921485Y-116351503D02*
X124921485Y-116808645D01*
X124978628Y-117237217D02*
X124978628Y-116951503D01*
X124978628Y-116951503D02*
X125578628Y-116951503D01*
X125578628Y-117551502D02*
X125578628Y-117665788D01*
X125578628Y-117665788D02*
X125550057Y-117722931D01*
X125550057Y-117722931D02*
X125492914Y-117780074D01*
X125492914Y-117780074D02*
X125378628Y-117808645D01*
X125378628Y-117808645D02*
X125178628Y-117808645D01*
X125178628Y-117808645D02*
X125064342Y-117780074D01*
X125064342Y-117780074D02*
X125007200Y-117722931D01*
X125007200Y-117722931D02*
X124978628Y-117665788D01*
X124978628Y-117665788D02*
X124978628Y-117551502D01*
X124978628Y-117551502D02*
X125007200Y-117494360D01*
X125007200Y-117494360D02*
X125064342Y-117437217D01*
X125064342Y-117437217D02*
X125178628Y-117408645D01*
X125178628Y-117408645D02*
X125378628Y-117408645D01*
X125378628Y-117408645D02*
X125492914Y-117437217D01*
X125492914Y-117437217D02*
X125550057Y-117494360D01*
X125550057Y-117494360D02*
X125578628Y-117551502D01*
X125578628Y-118008645D02*
X124978628Y-118151502D01*
X124978628Y-118151502D02*
X125407200Y-118265788D01*
X125407200Y-118265788D02*
X124978628Y-118380073D01*
X124978628Y-118380073D02*
X125578628Y-118522931D01*
X155819955Y-124709133D02*
X156153289Y-124709133D01*
X155728289Y-124909133D02*
X156049122Y-124209133D01*
X156049122Y-124209133D02*
X156194955Y-124909133D01*
X156419955Y-124442466D02*
X156528289Y-124909133D01*
X156528289Y-124909133D02*
X156753289Y-124442466D01*
X156961622Y-124909133D02*
X157019955Y-124442466D01*
X157049122Y-124209133D02*
X157011622Y-124242466D01*
X157011622Y-124242466D02*
X157040788Y-124275800D01*
X157040788Y-124275800D02*
X157078288Y-124242466D01*
X157078288Y-124242466D02*
X157049122Y-124209133D01*
X157049122Y-124209133D02*
X157040788Y-124275800D01*
X157849121Y-124209133D02*
X158315788Y-124209133D01*
X158315788Y-124209133D02*
X157928288Y-124909133D01*
X158515788Y-124209133D02*
X158949121Y-124209133D01*
X158949121Y-124209133D02*
X158682455Y-124475800D01*
X158682455Y-124475800D02*
X158782455Y-124475800D01*
X158782455Y-124475800D02*
X158844955Y-124509133D01*
X158844955Y-124509133D02*
X158874121Y-124542466D01*
X158874121Y-124542466D02*
X158899121Y-124609133D01*
X158899121Y-124609133D02*
X158878288Y-124775800D01*
X158878288Y-124775800D02*
X158836621Y-124842466D01*
X158836621Y-124842466D02*
X158799121Y-124875800D01*
X158799121Y-124875800D02*
X158728288Y-124909133D01*
X158728288Y-124909133D02*
X158528288Y-124909133D01*
X158528288Y-124909133D02*
X158465788Y-124875800D01*
X158465788Y-124875800D02*
X158436621Y-124842466D01*
X159449122Y-124209133D02*
X159386622Y-124709133D01*
X159386622Y-124709133D02*
X159340788Y-124809133D01*
X159340788Y-124809133D02*
X159265788Y-124875800D01*
X159265788Y-124875800D02*
X159161622Y-124909133D01*
X159161622Y-124909133D02*
X159094955Y-124909133D01*
X160228288Y-124909133D02*
X160315788Y-124209133D01*
X160315788Y-124209133D02*
X160582454Y-124209133D01*
X160582454Y-124209133D02*
X160644954Y-124242466D01*
X160644954Y-124242466D02*
X160674121Y-124275800D01*
X160674121Y-124275800D02*
X160699121Y-124342466D01*
X160699121Y-124342466D02*
X160686621Y-124442466D01*
X160686621Y-124442466D02*
X160644954Y-124509133D01*
X160644954Y-124509133D02*
X160607454Y-124542466D01*
X160607454Y-124542466D02*
X160536621Y-124575800D01*
X160536621Y-124575800D02*
X160269954Y-124575800D01*
X161228288Y-124909133D02*
X161274121Y-124542466D01*
X161274121Y-124542466D02*
X161249121Y-124475800D01*
X161249121Y-124475800D02*
X161186621Y-124442466D01*
X161186621Y-124442466D02*
X161053288Y-124442466D01*
X161053288Y-124442466D02*
X160982454Y-124475800D01*
X161232454Y-124875800D02*
X161161621Y-124909133D01*
X161161621Y-124909133D02*
X160994954Y-124909133D01*
X160994954Y-124909133D02*
X160932454Y-124875800D01*
X160932454Y-124875800D02*
X160907454Y-124809133D01*
X160907454Y-124809133D02*
X160915788Y-124742466D01*
X160915788Y-124742466D02*
X160957454Y-124675800D01*
X160957454Y-124675800D02*
X161028288Y-124642466D01*
X161028288Y-124642466D02*
X161194954Y-124642466D01*
X161194954Y-124642466D02*
X161265788Y-124609133D01*
X161561621Y-124909133D02*
X161619954Y-124442466D01*
X161603287Y-124575800D02*
X161644954Y-124509133D01*
X161644954Y-124509133D02*
X161682454Y-124475800D01*
X161682454Y-124475800D02*
X161753287Y-124442466D01*
X161753287Y-124442466D02*
X161819954Y-124442466D01*
X162294954Y-124909133D02*
X162340787Y-124542466D01*
X162340787Y-124542466D02*
X162315787Y-124475800D01*
X162315787Y-124475800D02*
X162253287Y-124442466D01*
X162253287Y-124442466D02*
X162119954Y-124442466D01*
X162119954Y-124442466D02*
X162049120Y-124475800D01*
X162299120Y-124875800D02*
X162228287Y-124909133D01*
X162228287Y-124909133D02*
X162061620Y-124909133D01*
X162061620Y-124909133D02*
X161999120Y-124875800D01*
X161999120Y-124875800D02*
X161974120Y-124809133D01*
X161974120Y-124809133D02*
X161982454Y-124742466D01*
X161982454Y-124742466D02*
X162024120Y-124675800D01*
X162024120Y-124675800D02*
X162094954Y-124642466D01*
X162094954Y-124642466D02*
X162261620Y-124642466D01*
X162261620Y-124642466D02*
X162332454Y-124609133D01*
X162907453Y-124542466D02*
X163003287Y-124575800D01*
X163003287Y-124575800D02*
X163032453Y-124609133D01*
X163032453Y-124609133D02*
X163057453Y-124675800D01*
X163057453Y-124675800D02*
X163044953Y-124775800D01*
X163044953Y-124775800D02*
X163003287Y-124842466D01*
X163003287Y-124842466D02*
X162965787Y-124875800D01*
X162965787Y-124875800D02*
X162894953Y-124909133D01*
X162894953Y-124909133D02*
X162628287Y-124909133D01*
X162628287Y-124909133D02*
X162715787Y-124209133D01*
X162715787Y-124209133D02*
X162949120Y-124209133D01*
X162949120Y-124209133D02*
X163011620Y-124242466D01*
X163011620Y-124242466D02*
X163040787Y-124275800D01*
X163040787Y-124275800D02*
X163065787Y-124342466D01*
X163065787Y-124342466D02*
X163057453Y-124409133D01*
X163057453Y-124409133D02*
X163015787Y-124475800D01*
X163015787Y-124475800D02*
X162978287Y-124509133D01*
X162978287Y-124509133D02*
X162907453Y-124542466D01*
X162907453Y-124542466D02*
X162674120Y-124542466D01*
X163428287Y-124909133D02*
X163365787Y-124875800D01*
X163365787Y-124875800D02*
X163336620Y-124842466D01*
X163336620Y-124842466D02*
X163311620Y-124775800D01*
X163311620Y-124775800D02*
X163336620Y-124575800D01*
X163336620Y-124575800D02*
X163378287Y-124509133D01*
X163378287Y-124509133D02*
X163415787Y-124475800D01*
X163415787Y-124475800D02*
X163486620Y-124442466D01*
X163486620Y-124442466D02*
X163586620Y-124442466D01*
X163586620Y-124442466D02*
X163649120Y-124475800D01*
X163649120Y-124475800D02*
X163678287Y-124509133D01*
X163678287Y-124509133D02*
X163703287Y-124575800D01*
X163703287Y-124575800D02*
X163678287Y-124775800D01*
X163678287Y-124775800D02*
X163636620Y-124842466D01*
X163636620Y-124842466D02*
X163599120Y-124875800D01*
X163599120Y-124875800D02*
X163528287Y-124909133D01*
X163528287Y-124909133D02*
X163428287Y-124909133D01*
X164261620Y-124909133D02*
X164307453Y-124542466D01*
X164307453Y-124542466D02*
X164282453Y-124475800D01*
X164282453Y-124475800D02*
X164219953Y-124442466D01*
X164219953Y-124442466D02*
X164086620Y-124442466D01*
X164086620Y-124442466D02*
X164015786Y-124475800D01*
X164265786Y-124875800D02*
X164194953Y-124909133D01*
X164194953Y-124909133D02*
X164028286Y-124909133D01*
X164028286Y-124909133D02*
X163965786Y-124875800D01*
X163965786Y-124875800D02*
X163940786Y-124809133D01*
X163940786Y-124809133D02*
X163949120Y-124742466D01*
X163949120Y-124742466D02*
X163990786Y-124675800D01*
X163990786Y-124675800D02*
X164061620Y-124642466D01*
X164061620Y-124642466D02*
X164228286Y-124642466D01*
X164228286Y-124642466D02*
X164299120Y-124609133D01*
X164594953Y-124909133D02*
X164653286Y-124442466D01*
X164636619Y-124575800D02*
X164678286Y-124509133D01*
X164678286Y-124509133D02*
X164715786Y-124475800D01*
X164715786Y-124475800D02*
X164786619Y-124442466D01*
X164786619Y-124442466D02*
X164853286Y-124442466D01*
X165328286Y-124909133D02*
X165415786Y-124209133D01*
X165332452Y-124875800D02*
X165261619Y-124909133D01*
X165261619Y-124909133D02*
X165128286Y-124909133D01*
X165128286Y-124909133D02*
X165065786Y-124875800D01*
X165065786Y-124875800D02*
X165036619Y-124842466D01*
X165036619Y-124842466D02*
X165011619Y-124775800D01*
X165011619Y-124775800D02*
X165036619Y-124575800D01*
X165036619Y-124575800D02*
X165078286Y-124509133D01*
X165078286Y-124509133D02*
X165115786Y-124475800D01*
X165115786Y-124475800D02*
X165186619Y-124442466D01*
X165186619Y-124442466D02*
X165319952Y-124442466D01*
X165319952Y-124442466D02*
X165382452Y-124475800D01*
X166186618Y-124442466D02*
X166294952Y-124909133D01*
X166294952Y-124909133D02*
X166519952Y-124442466D01*
X166774118Y-124275800D02*
X166811618Y-124242466D01*
X166811618Y-124242466D02*
X166882451Y-124209133D01*
X166882451Y-124209133D02*
X167049118Y-124209133D01*
X167049118Y-124209133D02*
X167111618Y-124242466D01*
X167111618Y-124242466D02*
X167140785Y-124275800D01*
X167140785Y-124275800D02*
X167165785Y-124342466D01*
X167165785Y-124342466D02*
X167157451Y-124409133D01*
X167157451Y-124409133D02*
X167111618Y-124509133D01*
X167111618Y-124509133D02*
X166661618Y-124909133D01*
X166661618Y-124909133D02*
X167094951Y-124909133D01*
X167403285Y-124842466D02*
X167432452Y-124875800D01*
X167432452Y-124875800D02*
X167394952Y-124909133D01*
X167394952Y-124909133D02*
X167365785Y-124875800D01*
X167365785Y-124875800D02*
X167403285Y-124842466D01*
X167403285Y-124842466D02*
X167394952Y-124909133D01*
X167949118Y-124209133D02*
X168015785Y-124209133D01*
X168015785Y-124209133D02*
X168078285Y-124242466D01*
X168078285Y-124242466D02*
X168107451Y-124275800D01*
X168107451Y-124275800D02*
X168132451Y-124342466D01*
X168132451Y-124342466D02*
X168149118Y-124475800D01*
X168149118Y-124475800D02*
X168128285Y-124642466D01*
X168128285Y-124642466D02*
X168078285Y-124775800D01*
X168078285Y-124775800D02*
X168036618Y-124842466D01*
X168036618Y-124842466D02*
X167999118Y-124875800D01*
X167999118Y-124875800D02*
X167928285Y-124909133D01*
X167928285Y-124909133D02*
X167861618Y-124909133D01*
X167861618Y-124909133D02*
X167799118Y-124875800D01*
X167799118Y-124875800D02*
X167769951Y-124842466D01*
X167769951Y-124842466D02*
X167744951Y-124775800D01*
X167744951Y-124775800D02*
X167728285Y-124642466D01*
X167728285Y-124642466D02*
X167749118Y-124475800D01*
X167749118Y-124475800D02*
X167799118Y-124342466D01*
X167799118Y-124342466D02*
X167840785Y-124275800D01*
X167840785Y-124275800D02*
X167878285Y-124242466D01*
X167878285Y-124242466D02*
X167949118Y-124209133D01*
X139572419Y-116996115D02*
X138572419Y-116996115D01*
X139477180Y-115948497D02*
X139524800Y-115996116D01*
X139524800Y-115996116D02*
X139572419Y-116138973D01*
X139572419Y-116138973D02*
X139572419Y-116234211D01*
X139572419Y-116234211D02*
X139524800Y-116377068D01*
X139524800Y-116377068D02*
X139429561Y-116472306D01*
X139429561Y-116472306D02*
X139334323Y-116519925D01*
X139334323Y-116519925D02*
X139143847Y-116567544D01*
X139143847Y-116567544D02*
X139000990Y-116567544D01*
X139000990Y-116567544D02*
X138810514Y-116519925D01*
X138810514Y-116519925D02*
X138715276Y-116472306D01*
X138715276Y-116472306D02*
X138620038Y-116377068D01*
X138620038Y-116377068D02*
X138572419Y-116234211D01*
X138572419Y-116234211D02*
X138572419Y-116138973D01*
X138572419Y-116138973D02*
X138620038Y-115996116D01*
X138620038Y-115996116D02*
X138667657Y-115948497D01*
X139572419Y-115519925D02*
X138572419Y-115519925D01*
X138572419Y-115519925D02*
X139286704Y-115186592D01*
X139286704Y-115186592D02*
X138572419Y-114853259D01*
X138572419Y-114853259D02*
X139572419Y-114853259D01*
X138667657Y-114424687D02*
X138620038Y-114377068D01*
X138620038Y-114377068D02*
X138572419Y-114281830D01*
X138572419Y-114281830D02*
X138572419Y-114043735D01*
X138572419Y-114043735D02*
X138620038Y-113948497D01*
X138620038Y-113948497D02*
X138667657Y-113900878D01*
X138667657Y-113900878D02*
X138762895Y-113853259D01*
X138762895Y-113853259D02*
X138858133Y-113853259D01*
X138858133Y-113853259D02*
X139000990Y-113900878D01*
X139000990Y-113900878D02*
X139572419Y-114472306D01*
X139572419Y-114472306D02*
X139572419Y-113853259D01*
X138572419Y-113234211D02*
X138572419Y-113138973D01*
X138572419Y-113138973D02*
X138620038Y-113043735D01*
X138620038Y-113043735D02*
X138667657Y-112996116D01*
X138667657Y-112996116D02*
X138762895Y-112948497D01*
X138762895Y-112948497D02*
X138953371Y-112900878D01*
X138953371Y-112900878D02*
X139191466Y-112900878D01*
X139191466Y-112900878D02*
X139381942Y-112948497D01*
X139381942Y-112948497D02*
X139477180Y-112996116D01*
X139477180Y-112996116D02*
X139524800Y-113043735D01*
X139524800Y-113043735D02*
X139572419Y-113138973D01*
X139572419Y-113138973D02*
X139572419Y-113234211D01*
X139572419Y-113234211D02*
X139524800Y-113329449D01*
X139524800Y-113329449D02*
X139477180Y-113377068D01*
X139477180Y-113377068D02*
X139381942Y-113424687D01*
X139381942Y-113424687D02*
X139191466Y-113472306D01*
X139191466Y-113472306D02*
X138953371Y-113472306D01*
X138953371Y-113472306D02*
X138762895Y-113424687D01*
X138762895Y-113424687D02*
X138667657Y-113377068D01*
X138667657Y-113377068D02*
X138620038Y-113329449D01*
X138620038Y-113329449D02*
X138572419Y-113234211D01*
X138572419Y-112043735D02*
X138572419Y-112234211D01*
X138572419Y-112234211D02*
X138620038Y-112329449D01*
X138620038Y-112329449D02*
X138667657Y-112377068D01*
X138667657Y-112377068D02*
X138810514Y-112472306D01*
X138810514Y-112472306D02*
X139000990Y-112519925D01*
X139000990Y-112519925D02*
X139381942Y-112519925D01*
X139381942Y-112519925D02*
X139477180Y-112472306D01*
X139477180Y-112472306D02*
X139524800Y-112424687D01*
X139524800Y-112424687D02*
X139572419Y-112329449D01*
X139572419Y-112329449D02*
X139572419Y-112138973D01*
X139572419Y-112138973D02*
X139524800Y-112043735D01*
X139524800Y-112043735D02*
X139477180Y-111996116D01*
X139477180Y-111996116D02*
X139381942Y-111948497D01*
X139381942Y-111948497D02*
X139143847Y-111948497D01*
X139143847Y-111948497D02*
X139048609Y-111996116D01*
X139048609Y-111996116D02*
X139000990Y-112043735D01*
X139000990Y-112043735D02*
X138953371Y-112138973D01*
X138953371Y-112138973D02*
X138953371Y-112329449D01*
X138953371Y-112329449D02*
X139000990Y-112424687D01*
X139000990Y-112424687D02*
X139048609Y-112472306D01*
X139048609Y-112472306D02*
X139143847Y-112519925D01*
X138572419Y-111329449D02*
X138572419Y-111234211D01*
X138572419Y-111234211D02*
X138620038Y-111138973D01*
X138620038Y-111138973D02*
X138667657Y-111091354D01*
X138667657Y-111091354D02*
X138762895Y-111043735D01*
X138762895Y-111043735D02*
X138953371Y-110996116D01*
X138953371Y-110996116D02*
X139191466Y-110996116D01*
X139191466Y-110996116D02*
X139381942Y-111043735D01*
X139381942Y-111043735D02*
X139477180Y-111091354D01*
X139477180Y-111091354D02*
X139524800Y-111138973D01*
X139524800Y-111138973D02*
X139572419Y-111234211D01*
X139572419Y-111234211D02*
X139572419Y-111329449D01*
X139572419Y-111329449D02*
X139524800Y-111424687D01*
X139524800Y-111424687D02*
X139477180Y-111472306D01*
X139477180Y-111472306D02*
X139381942Y-111519925D01*
X139381942Y-111519925D02*
X139191466Y-111567544D01*
X139191466Y-111567544D02*
X138953371Y-111567544D01*
X138953371Y-111567544D02*
X138762895Y-111519925D01*
X138762895Y-111519925D02*
X138667657Y-111472306D01*
X138667657Y-111472306D02*
X138620038Y-111424687D01*
X138620038Y-111424687D02*
X138572419Y-111329449D01*
X138667657Y-110615163D02*
X138620038Y-110567544D01*
X138620038Y-110567544D02*
X138572419Y-110472306D01*
X138572419Y-110472306D02*
X138572419Y-110234211D01*
X138572419Y-110234211D02*
X138620038Y-110138973D01*
X138620038Y-110138973D02*
X138667657Y-110091354D01*
X138667657Y-110091354D02*
X138762895Y-110043735D01*
X138762895Y-110043735D02*
X138858133Y-110043735D01*
X138858133Y-110043735D02*
X139000990Y-110091354D01*
X139000990Y-110091354D02*
X139572419Y-110662782D01*
X139572419Y-110662782D02*
X139572419Y-110043735D01*
X174721371Y-85305639D02*
X174721371Y-85591353D01*
X174721371Y-85591353D02*
X175007085Y-85619925D01*
X175007085Y-85619925D02*
X174978514Y-85591353D01*
X174978514Y-85591353D02*
X174949942Y-85534211D01*
X174949942Y-85534211D02*
X174949942Y-85391353D01*
X174949942Y-85391353D02*
X174978514Y-85334211D01*
X174978514Y-85334211D02*
X175007085Y-85305639D01*
X175007085Y-85305639D02*
X175064228Y-85277068D01*
X175064228Y-85277068D02*
X175207085Y-85277068D01*
X175207085Y-85277068D02*
X175264228Y-85305639D01*
X175264228Y-85305639D02*
X175292800Y-85334211D01*
X175292800Y-85334211D02*
X175321371Y-85391353D01*
X175321371Y-85391353D02*
X175321371Y-85534211D01*
X175321371Y-85534211D02*
X175292800Y-85591353D01*
X175292800Y-85591353D02*
X175264228Y-85619925D01*
X174721371Y-85105639D02*
X175321371Y-84905639D01*
X175321371Y-84905639D02*
X174721371Y-84705639D01*
X174864228Y-84277067D02*
X175321371Y-84277067D01*
X175207085Y-84162781D02*
X175321371Y-84277067D01*
X175321371Y-84277067D02*
X175207085Y-84391353D01*
X174017800Y-87934211D02*
X174017800Y-88391353D01*
X174132085Y-88277068D02*
X174017800Y-88391353D01*
X174017800Y-88391353D02*
X173903514Y-88277068D01*
X173674942Y-87334211D02*
X173646371Y-87391354D01*
X173646371Y-87391354D02*
X173646371Y-87477068D01*
X173646371Y-87477068D02*
X173674942Y-87562782D01*
X173674942Y-87562782D02*
X173732085Y-87619925D01*
X173732085Y-87619925D02*
X173789228Y-87648496D01*
X173789228Y-87648496D02*
X173903514Y-87677068D01*
X173903514Y-87677068D02*
X173989228Y-87677068D01*
X173989228Y-87677068D02*
X174103514Y-87648496D01*
X174103514Y-87648496D02*
X174160657Y-87619925D01*
X174160657Y-87619925D02*
X174217800Y-87562782D01*
X174217800Y-87562782D02*
X174246371Y-87477068D01*
X174246371Y-87477068D02*
X174246371Y-87419925D01*
X174246371Y-87419925D02*
X174217800Y-87334211D01*
X174217800Y-87334211D02*
X174189228Y-87305639D01*
X174189228Y-87305639D02*
X173989228Y-87305639D01*
X173989228Y-87305639D02*
X173989228Y-87419925D01*
X174246371Y-87048496D02*
X173646371Y-87048496D01*
X173646371Y-87048496D02*
X174246371Y-86705639D01*
X174246371Y-86705639D02*
X173646371Y-86705639D01*
X174246371Y-86419925D02*
X173646371Y-86419925D01*
X173646371Y-86419925D02*
X173646371Y-86277068D01*
X173646371Y-86277068D02*
X173674942Y-86191354D01*
X173674942Y-86191354D02*
X173732085Y-86134211D01*
X173732085Y-86134211D02*
X173789228Y-86105640D01*
X173789228Y-86105640D02*
X173903514Y-86077068D01*
X173903514Y-86077068D02*
X173989228Y-86077068D01*
X173989228Y-86077068D02*
X174103514Y-86105640D01*
X174103514Y-86105640D02*
X174160657Y-86134211D01*
X174160657Y-86134211D02*
X174217800Y-86191354D01*
X174217800Y-86191354D02*
X174246371Y-86277068D01*
X174246371Y-86277068D02*
X174246371Y-86419925D01*
X176192800Y-83119925D02*
X176221371Y-83034211D01*
X176221371Y-83034211D02*
X176221371Y-82891353D01*
X176221371Y-82891353D02*
X176192800Y-82834211D01*
X176192800Y-82834211D02*
X176164228Y-82805639D01*
X176164228Y-82805639D02*
X176107085Y-82777068D01*
X176107085Y-82777068D02*
X176049942Y-82777068D01*
X176049942Y-82777068D02*
X175992800Y-82805639D01*
X175992800Y-82805639D02*
X175964228Y-82834211D01*
X175964228Y-82834211D02*
X175935657Y-82891353D01*
X175935657Y-82891353D02*
X175907085Y-83005639D01*
X175907085Y-83005639D02*
X175878514Y-83062782D01*
X175878514Y-83062782D02*
X175849942Y-83091353D01*
X175849942Y-83091353D02*
X175792800Y-83119925D01*
X175792800Y-83119925D02*
X175735657Y-83119925D01*
X175735657Y-83119925D02*
X175678514Y-83091353D01*
X175678514Y-83091353D02*
X175649942Y-83062782D01*
X175649942Y-83062782D02*
X175621371Y-83005639D01*
X175621371Y-83005639D02*
X175621371Y-82862782D01*
X175621371Y-82862782D02*
X175649942Y-82777068D01*
X176221371Y-82519924D02*
X175621371Y-82519924D01*
X175649942Y-81919925D02*
X175621371Y-81977068D01*
X175621371Y-81977068D02*
X175621371Y-82062782D01*
X175621371Y-82062782D02*
X175649942Y-82148496D01*
X175649942Y-82148496D02*
X175707085Y-82205639D01*
X175707085Y-82205639D02*
X175764228Y-82234210D01*
X175764228Y-82234210D02*
X175878514Y-82262782D01*
X175878514Y-82262782D02*
X175964228Y-82262782D01*
X175964228Y-82262782D02*
X176078514Y-82234210D01*
X176078514Y-82234210D02*
X176135657Y-82205639D01*
X176135657Y-82205639D02*
X176192800Y-82148496D01*
X176192800Y-82148496D02*
X176221371Y-82062782D01*
X176221371Y-82062782D02*
X176221371Y-82005639D01*
X176221371Y-82005639D02*
X176192800Y-81919925D01*
X176192800Y-81919925D02*
X176164228Y-81891353D01*
X176164228Y-81891353D02*
X175964228Y-81891353D01*
X175964228Y-81891353D02*
X175964228Y-82005639D01*
X175992800Y-81634210D02*
X175992800Y-81177068D01*
X176107085Y-81291353D02*
X175992800Y-81177068D01*
X175992800Y-81177068D02*
X175878514Y-81291353D01*
X139803884Y-120272419D02*
X139803884Y-119272419D01*
X139803884Y-119272419D02*
X140137217Y-119986704D01*
X140137217Y-119986704D02*
X140470550Y-119272419D01*
X140470550Y-119272419D02*
X140470550Y-120272419D01*
X141518169Y-120177180D02*
X141470550Y-120224800D01*
X141470550Y-120224800D02*
X141327693Y-120272419D01*
X141327693Y-120272419D02*
X141232455Y-120272419D01*
X141232455Y-120272419D02*
X141089598Y-120224800D01*
X141089598Y-120224800D02*
X140994360Y-120129561D01*
X140994360Y-120129561D02*
X140946741Y-120034323D01*
X140946741Y-120034323D02*
X140899122Y-119843847D01*
X140899122Y-119843847D02*
X140899122Y-119700990D01*
X140899122Y-119700990D02*
X140946741Y-119510514D01*
X140946741Y-119510514D02*
X140994360Y-119415276D01*
X140994360Y-119415276D02*
X141089598Y-119320038D01*
X141089598Y-119320038D02*
X141232455Y-119272419D01*
X141232455Y-119272419D02*
X141327693Y-119272419D01*
X141327693Y-119272419D02*
X141470550Y-119320038D01*
X141470550Y-119320038D02*
X141518169Y-119367657D01*
X141946741Y-120272419D02*
X141946741Y-119272419D01*
X141946741Y-119272419D02*
X142327693Y-119272419D01*
X142327693Y-119272419D02*
X142422931Y-119320038D01*
X142422931Y-119320038D02*
X142470550Y-119367657D01*
X142470550Y-119367657D02*
X142518169Y-119462895D01*
X142518169Y-119462895D02*
X142518169Y-119605752D01*
X142518169Y-119605752D02*
X142470550Y-119700990D01*
X142470550Y-119700990D02*
X142422931Y-119748609D01*
X142422931Y-119748609D02*
X142327693Y-119796228D01*
X142327693Y-119796228D02*
X141946741Y-119796228D01*
X142899122Y-119367657D02*
X142946741Y-119320038D01*
X142946741Y-119320038D02*
X143041979Y-119272419D01*
X143041979Y-119272419D02*
X143280074Y-119272419D01*
X143280074Y-119272419D02*
X143375312Y-119320038D01*
X143375312Y-119320038D02*
X143422931Y-119367657D01*
X143422931Y-119367657D02*
X143470550Y-119462895D01*
X143470550Y-119462895D02*
X143470550Y-119558133D01*
X143470550Y-119558133D02*
X143422931Y-119700990D01*
X143422931Y-119700990D02*
X142851503Y-120272419D01*
X142851503Y-120272419D02*
X143470550Y-120272419D01*
X144375312Y-119272419D02*
X143899122Y-119272419D01*
X143899122Y-119272419D02*
X143851503Y-119748609D01*
X143851503Y-119748609D02*
X143899122Y-119700990D01*
X143899122Y-119700990D02*
X143994360Y-119653371D01*
X143994360Y-119653371D02*
X144232455Y-119653371D01*
X144232455Y-119653371D02*
X144327693Y-119700990D01*
X144327693Y-119700990D02*
X144375312Y-119748609D01*
X144375312Y-119748609D02*
X144422931Y-119843847D01*
X144422931Y-119843847D02*
X144422931Y-120081942D01*
X144422931Y-120081942D02*
X144375312Y-120177180D01*
X144375312Y-120177180D02*
X144327693Y-120224800D01*
X144327693Y-120224800D02*
X144232455Y-120272419D01*
X144232455Y-120272419D02*
X143994360Y-120272419D01*
X143994360Y-120272419D02*
X143899122Y-120224800D01*
X143899122Y-120224800D02*
X143851503Y-120177180D01*
X145280074Y-119272419D02*
X145089598Y-119272419D01*
X145089598Y-119272419D02*
X144994360Y-119320038D01*
X144994360Y-119320038D02*
X144946741Y-119367657D01*
X144946741Y-119367657D02*
X144851503Y-119510514D01*
X144851503Y-119510514D02*
X144803884Y-119700990D01*
X144803884Y-119700990D02*
X144803884Y-120081942D01*
X144803884Y-120081942D02*
X144851503Y-120177180D01*
X144851503Y-120177180D02*
X144899122Y-120224800D01*
X144899122Y-120224800D02*
X144994360Y-120272419D01*
X144994360Y-120272419D02*
X145184836Y-120272419D01*
X145184836Y-120272419D02*
X145280074Y-120224800D01*
X145280074Y-120224800D02*
X145327693Y-120177180D01*
X145327693Y-120177180D02*
X145375312Y-120081942D01*
X145375312Y-120081942D02*
X145375312Y-119843847D01*
X145375312Y-119843847D02*
X145327693Y-119748609D01*
X145327693Y-119748609D02*
X145280074Y-119700990D01*
X145280074Y-119700990D02*
X145184836Y-119653371D01*
X145184836Y-119653371D02*
X144994360Y-119653371D01*
X144994360Y-119653371D02*
X144899122Y-119700990D01*
X144899122Y-119700990D02*
X144851503Y-119748609D01*
X144851503Y-119748609D02*
X144803884Y-119843847D01*
X145756265Y-119367657D02*
X145803884Y-119320038D01*
X145803884Y-119320038D02*
X145899122Y-119272419D01*
X145899122Y-119272419D02*
X146137217Y-119272419D01*
X146137217Y-119272419D02*
X146232455Y-119320038D01*
X146232455Y-119320038D02*
X146280074Y-119367657D01*
X146280074Y-119367657D02*
X146327693Y-119462895D01*
X146327693Y-119462895D02*
X146327693Y-119558133D01*
X146327693Y-119558133D02*
X146280074Y-119700990D01*
X146280074Y-119700990D02*
X145708646Y-120272419D01*
X145708646Y-120272419D02*
X146327693Y-120272419D01*
X138472419Y-105319925D02*
X138472419Y-105796115D01*
X138472419Y-105796115D02*
X137472419Y-105796115D01*
X138472419Y-104986591D02*
X137472419Y-104986591D01*
X137472419Y-104986591D02*
X137472419Y-104605639D01*
X137472419Y-104605639D02*
X137520038Y-104510401D01*
X137520038Y-104510401D02*
X137567657Y-104462782D01*
X137567657Y-104462782D02*
X137662895Y-104415163D01*
X137662895Y-104415163D02*
X137805752Y-104415163D01*
X137805752Y-104415163D02*
X137900990Y-104462782D01*
X137900990Y-104462782D02*
X137948609Y-104510401D01*
X137948609Y-104510401D02*
X137996228Y-104605639D01*
X137996228Y-104605639D02*
X137996228Y-104986591D01*
X138424800Y-104034210D02*
X138472419Y-103891353D01*
X138472419Y-103891353D02*
X138472419Y-103653258D01*
X138472419Y-103653258D02*
X138424800Y-103558020D01*
X138424800Y-103558020D02*
X138377180Y-103510401D01*
X138377180Y-103510401D02*
X138281942Y-103462782D01*
X138281942Y-103462782D02*
X138186704Y-103462782D01*
X138186704Y-103462782D02*
X138091466Y-103510401D01*
X138091466Y-103510401D02*
X138043847Y-103558020D01*
X138043847Y-103558020D02*
X137996228Y-103653258D01*
X137996228Y-103653258D02*
X137948609Y-103843734D01*
X137948609Y-103843734D02*
X137900990Y-103938972D01*
X137900990Y-103938972D02*
X137853371Y-103986591D01*
X137853371Y-103986591D02*
X137758133Y-104034210D01*
X137758133Y-104034210D02*
X137662895Y-104034210D01*
X137662895Y-104034210D02*
X137567657Y-103986591D01*
X137567657Y-103986591D02*
X137520038Y-103938972D01*
X137520038Y-103938972D02*
X137472419Y-103843734D01*
X137472419Y-103843734D02*
X137472419Y-103605639D01*
X137472419Y-103605639D02*
X137520038Y-103462782D01*
X137567657Y-103081829D02*
X137520038Y-103034210D01*
X137520038Y-103034210D02*
X137472419Y-102938972D01*
X137472419Y-102938972D02*
X137472419Y-102700877D01*
X137472419Y-102700877D02*
X137520038Y-102605639D01*
X137520038Y-102605639D02*
X137567657Y-102558020D01*
X137567657Y-102558020D02*
X137662895Y-102510401D01*
X137662895Y-102510401D02*
X137758133Y-102510401D01*
X137758133Y-102510401D02*
X137900990Y-102558020D01*
X137900990Y-102558020D02*
X138472419Y-103129448D01*
X138472419Y-103129448D02*
X138472419Y-102510401D01*
X137472419Y-101605639D02*
X137472419Y-102081829D01*
X137472419Y-102081829D02*
X137948609Y-102129448D01*
X137948609Y-102129448D02*
X137900990Y-102081829D01*
X137900990Y-102081829D02*
X137853371Y-101986591D01*
X137853371Y-101986591D02*
X137853371Y-101748496D01*
X137853371Y-101748496D02*
X137900990Y-101653258D01*
X137900990Y-101653258D02*
X137948609Y-101605639D01*
X137948609Y-101605639D02*
X138043847Y-101558020D01*
X138043847Y-101558020D02*
X138281942Y-101558020D01*
X138281942Y-101558020D02*
X138377180Y-101605639D01*
X138377180Y-101605639D02*
X138424800Y-101653258D01*
X138424800Y-101653258D02*
X138472419Y-101748496D01*
X138472419Y-101748496D02*
X138472419Y-101986591D01*
X138472419Y-101986591D02*
X138424800Y-102081829D01*
X138424800Y-102081829D02*
X138377180Y-102129448D01*
X138472419Y-101129448D02*
X137472419Y-101129448D01*
X137948609Y-101129448D02*
X137948609Y-100558020D01*
X138472419Y-100558020D02*
X137472419Y-100558020D01*
X137948609Y-99748496D02*
X137996228Y-99605639D01*
X137996228Y-99605639D02*
X138043847Y-99558020D01*
X138043847Y-99558020D02*
X138139085Y-99510401D01*
X138139085Y-99510401D02*
X138281942Y-99510401D01*
X138281942Y-99510401D02*
X138377180Y-99558020D01*
X138377180Y-99558020D02*
X138424800Y-99605639D01*
X138424800Y-99605639D02*
X138472419Y-99700877D01*
X138472419Y-99700877D02*
X138472419Y-100081829D01*
X138472419Y-100081829D02*
X137472419Y-100081829D01*
X137472419Y-100081829D02*
X137472419Y-99748496D01*
X137472419Y-99748496D02*
X137520038Y-99653258D01*
X137520038Y-99653258D02*
X137567657Y-99605639D01*
X137567657Y-99605639D02*
X137662895Y-99558020D01*
X137662895Y-99558020D02*
X137758133Y-99558020D01*
X137758133Y-99558020D02*
X137853371Y-99605639D01*
X137853371Y-99605639D02*
X137900990Y-99653258D01*
X137900990Y-99653258D02*
X137948609Y-99748496D01*
X137948609Y-99748496D02*
X137948609Y-100081829D01*
X124350057Y-89322931D02*
X124378628Y-89265789D01*
X124378628Y-89265789D02*
X124378628Y-89180074D01*
X124378628Y-89180074D02*
X124350057Y-89094360D01*
X124350057Y-89094360D02*
X124292914Y-89037217D01*
X124292914Y-89037217D02*
X124235771Y-89008646D01*
X124235771Y-89008646D02*
X124121485Y-88980074D01*
X124121485Y-88980074D02*
X124035771Y-88980074D01*
X124035771Y-88980074D02*
X123921485Y-89008646D01*
X123921485Y-89008646D02*
X123864342Y-89037217D01*
X123864342Y-89037217D02*
X123807200Y-89094360D01*
X123807200Y-89094360D02*
X123778628Y-89180074D01*
X123778628Y-89180074D02*
X123778628Y-89237217D01*
X123778628Y-89237217D02*
X123807200Y-89322931D01*
X123807200Y-89322931D02*
X123835771Y-89351503D01*
X123835771Y-89351503D02*
X124035771Y-89351503D01*
X124035771Y-89351503D02*
X124035771Y-89237217D01*
X123778628Y-89608646D02*
X124378628Y-89608646D01*
X124378628Y-89608646D02*
X123778628Y-89951503D01*
X123778628Y-89951503D02*
X124378628Y-89951503D01*
X123778628Y-90237217D02*
X124378628Y-90237217D01*
X124378628Y-90237217D02*
X124378628Y-90380074D01*
X124378628Y-90380074D02*
X124350057Y-90465788D01*
X124350057Y-90465788D02*
X124292914Y-90522931D01*
X124292914Y-90522931D02*
X124235771Y-90551502D01*
X124235771Y-90551502D02*
X124121485Y-90580074D01*
X124121485Y-90580074D02*
X124035771Y-90580074D01*
X124035771Y-90580074D02*
X123921485Y-90551502D01*
X123921485Y-90551502D02*
X123864342Y-90522931D01*
X123864342Y-90522931D02*
X123807200Y-90465788D01*
X123807200Y-90465788D02*
X123778628Y-90380074D01*
X123778628Y-90380074D02*
X123778628Y-90237217D01*
X124007200Y-90837217D02*
X124007200Y-91294360D01*
X123892914Y-91180074D02*
X124007200Y-91294360D01*
X124007200Y-91294360D02*
X124121485Y-91180074D01*
X123735771Y-107851503D02*
X123707200Y-107822931D01*
X123707200Y-107822931D02*
X123678628Y-107737217D01*
X123678628Y-107737217D02*
X123678628Y-107680074D01*
X123678628Y-107680074D02*
X123707200Y-107594360D01*
X123707200Y-107594360D02*
X123764342Y-107537217D01*
X123764342Y-107537217D02*
X123821485Y-107508646D01*
X123821485Y-107508646D02*
X123935771Y-107480074D01*
X123935771Y-107480074D02*
X124021485Y-107480074D01*
X124021485Y-107480074D02*
X124135771Y-107508646D01*
X124135771Y-107508646D02*
X124192914Y-107537217D01*
X124192914Y-107537217D02*
X124250057Y-107594360D01*
X124250057Y-107594360D02*
X124278628Y-107680074D01*
X124278628Y-107680074D02*
X124278628Y-107737217D01*
X124278628Y-107737217D02*
X124250057Y-107822931D01*
X124250057Y-107822931D02*
X124221485Y-107851503D01*
X123850057Y-108080074D02*
X123850057Y-108365789D01*
X123678628Y-108022931D02*
X124278628Y-108222931D01*
X124278628Y-108222931D02*
X123678628Y-108422931D01*
X123678628Y-108622932D02*
X124278628Y-108622932D01*
X124278628Y-108622932D02*
X123678628Y-108965789D01*
X123678628Y-108965789D02*
X124278628Y-108965789D01*
X123621485Y-109108646D02*
X123621485Y-109565788D01*
X123678628Y-109708646D02*
X124278628Y-109708646D01*
X123992914Y-109708646D02*
X123992914Y-110051503D01*
X123678628Y-110051503D02*
X124278628Y-110051503D01*
X123678628Y-110337217D02*
X124278628Y-110337217D01*
X124250057Y-110937216D02*
X124278628Y-110880074D01*
X124278628Y-110880074D02*
X124278628Y-110794359D01*
X124278628Y-110794359D02*
X124250057Y-110708645D01*
X124250057Y-110708645D02*
X124192914Y-110651502D01*
X124192914Y-110651502D02*
X124135771Y-110622931D01*
X124135771Y-110622931D02*
X124021485Y-110594359D01*
X124021485Y-110594359D02*
X123935771Y-110594359D01*
X123935771Y-110594359D02*
X123821485Y-110622931D01*
X123821485Y-110622931D02*
X123764342Y-110651502D01*
X123764342Y-110651502D02*
X123707200Y-110708645D01*
X123707200Y-110708645D02*
X123678628Y-110794359D01*
X123678628Y-110794359D02*
X123678628Y-110851502D01*
X123678628Y-110851502D02*
X123707200Y-110937216D01*
X123707200Y-110937216D02*
X123735771Y-110965788D01*
X123735771Y-110965788D02*
X123935771Y-110965788D01*
X123935771Y-110965788D02*
X123935771Y-110851502D01*
X123678628Y-111222931D02*
X124278628Y-111222931D01*
X123992914Y-111222931D02*
X123992914Y-111565788D01*
X123678628Y-111565788D02*
X124278628Y-111565788D01*
X123907200Y-111851502D02*
X123907200Y-112308645D01*
X123792914Y-112194359D02*
X123907200Y-112308645D01*
X123907200Y-112308645D02*
X124021485Y-112194359D01*
X164914598Y-125581228D02*
X164941384Y-125557419D01*
X164941384Y-125557419D02*
X164991979Y-125533609D01*
X164991979Y-125533609D02*
X165111027Y-125533609D01*
X165111027Y-125533609D02*
X165155669Y-125557419D01*
X165155669Y-125557419D02*
X165176503Y-125581228D01*
X165176503Y-125581228D02*
X165194360Y-125628847D01*
X165194360Y-125628847D02*
X165188408Y-125676466D01*
X165188408Y-125676466D02*
X165155669Y-125747895D01*
X165155669Y-125747895D02*
X164834241Y-126033609D01*
X164834241Y-126033609D02*
X165143765Y-126033609D01*
X165515788Y-125533609D02*
X165563407Y-125533609D01*
X165563407Y-125533609D02*
X165608050Y-125557419D01*
X165608050Y-125557419D02*
X165628883Y-125581228D01*
X165628883Y-125581228D02*
X165646740Y-125628847D01*
X165646740Y-125628847D02*
X165658645Y-125724085D01*
X165658645Y-125724085D02*
X165643764Y-125843133D01*
X165643764Y-125843133D02*
X165608050Y-125938371D01*
X165608050Y-125938371D02*
X165578288Y-125985990D01*
X165578288Y-125985990D02*
X165551502Y-126009800D01*
X165551502Y-126009800D02*
X165500907Y-126033609D01*
X165500907Y-126033609D02*
X165453288Y-126033609D01*
X165453288Y-126033609D02*
X165408645Y-126009800D01*
X165408645Y-126009800D02*
X165387812Y-125985990D01*
X165387812Y-125985990D02*
X165369955Y-125938371D01*
X165369955Y-125938371D02*
X165358050Y-125843133D01*
X165358050Y-125843133D02*
X165372931Y-125724085D01*
X165372931Y-125724085D02*
X165408645Y-125628847D01*
X165408645Y-125628847D02*
X165438407Y-125581228D01*
X165438407Y-125581228D02*
X165465193Y-125557419D01*
X165465193Y-125557419D02*
X165515788Y-125533609D01*
X165866978Y-125581228D02*
X165893764Y-125557419D01*
X165893764Y-125557419D02*
X165944359Y-125533609D01*
X165944359Y-125533609D02*
X166063407Y-125533609D01*
X166063407Y-125533609D02*
X166108049Y-125557419D01*
X166108049Y-125557419D02*
X166128883Y-125581228D01*
X166128883Y-125581228D02*
X166146740Y-125628847D01*
X166146740Y-125628847D02*
X166140788Y-125676466D01*
X166140788Y-125676466D02*
X166108049Y-125747895D01*
X166108049Y-125747895D02*
X165786621Y-126033609D01*
X165786621Y-126033609D02*
X166096145Y-126033609D01*
X166566382Y-125700276D02*
X166524716Y-126033609D01*
X166471144Y-125509800D02*
X166307454Y-125866942D01*
X166307454Y-125866942D02*
X166616978Y-125866942D01*
X166792572Y-125985990D02*
X166813406Y-126009800D01*
X166813406Y-126009800D02*
X166786620Y-126033609D01*
X166786620Y-126033609D02*
X166765787Y-126009800D01*
X166765787Y-126009800D02*
X166792572Y-125985990D01*
X166792572Y-125985990D02*
X166786620Y-126033609D01*
X167039596Y-125533609D02*
X167372929Y-125533609D01*
X167372929Y-125533609D02*
X167096144Y-126033609D01*
X167506857Y-125985990D02*
X167527691Y-126009800D01*
X167527691Y-126009800D02*
X167500905Y-126033609D01*
X167500905Y-126033609D02*
X167480072Y-126009800D01*
X167480072Y-126009800D02*
X167506857Y-125985990D01*
X167506857Y-125985990D02*
X167500905Y-126033609D01*
X167994952Y-125700276D02*
X167953286Y-126033609D01*
X167899714Y-125509800D02*
X167736024Y-125866942D01*
X167736024Y-125866942D02*
X168045548Y-125866942D01*
X125207200Y-107965789D02*
X125207200Y-107508646D01*
X125092914Y-107622931D02*
X125207200Y-107508646D01*
X125207200Y-107508646D02*
X125321485Y-107622931D01*
X125035771Y-108594360D02*
X125007200Y-108565788D01*
X125007200Y-108565788D02*
X124978628Y-108480074D01*
X124978628Y-108480074D02*
X124978628Y-108422931D01*
X124978628Y-108422931D02*
X125007200Y-108337217D01*
X125007200Y-108337217D02*
X125064342Y-108280074D01*
X125064342Y-108280074D02*
X125121485Y-108251503D01*
X125121485Y-108251503D02*
X125235771Y-108222931D01*
X125235771Y-108222931D02*
X125321485Y-108222931D01*
X125321485Y-108222931D02*
X125435771Y-108251503D01*
X125435771Y-108251503D02*
X125492914Y-108280074D01*
X125492914Y-108280074D02*
X125550057Y-108337217D01*
X125550057Y-108337217D02*
X125578628Y-108422931D01*
X125578628Y-108422931D02*
X125578628Y-108480074D01*
X125578628Y-108480074D02*
X125550057Y-108565788D01*
X125550057Y-108565788D02*
X125521485Y-108594360D01*
X125150057Y-108822931D02*
X125150057Y-109108646D01*
X124978628Y-108765788D02*
X125578628Y-108965788D01*
X125578628Y-108965788D02*
X124978628Y-109165788D01*
X124978628Y-109365789D02*
X125578628Y-109365789D01*
X125578628Y-109365789D02*
X124978628Y-109708646D01*
X124978628Y-109708646D02*
X125578628Y-109708646D01*
X124921485Y-109851503D02*
X124921485Y-110308645D01*
X124978628Y-110737217D02*
X124978628Y-110451503D01*
X124978628Y-110451503D02*
X125578628Y-110451503D01*
X125578628Y-111051502D02*
X125578628Y-111165788D01*
X125578628Y-111165788D02*
X125550057Y-111222931D01*
X125550057Y-111222931D02*
X125492914Y-111280074D01*
X125492914Y-111280074D02*
X125378628Y-111308645D01*
X125378628Y-111308645D02*
X125178628Y-111308645D01*
X125178628Y-111308645D02*
X125064342Y-111280074D01*
X125064342Y-111280074D02*
X125007200Y-111222931D01*
X125007200Y-111222931D02*
X124978628Y-111165788D01*
X124978628Y-111165788D02*
X124978628Y-111051502D01*
X124978628Y-111051502D02*
X125007200Y-110994360D01*
X125007200Y-110994360D02*
X125064342Y-110937217D01*
X125064342Y-110937217D02*
X125178628Y-110908645D01*
X125178628Y-110908645D02*
X125378628Y-110908645D01*
X125378628Y-110908645D02*
X125492914Y-110937217D01*
X125492914Y-110937217D02*
X125550057Y-110994360D01*
X125550057Y-110994360D02*
X125578628Y-111051502D01*
X125578628Y-111508645D02*
X124978628Y-111651502D01*
X124978628Y-111651502D02*
X125407200Y-111765788D01*
X125407200Y-111765788D02*
X124978628Y-111880073D01*
X124978628Y-111880073D02*
X125578628Y-112022931D01*
D12*
X172505833Y-117514819D02*
X172172500Y-117038628D01*
X171934405Y-117514819D02*
X171934405Y-116514819D01*
X171934405Y-116514819D02*
X172315357Y-116514819D01*
X172315357Y-116514819D02*
X172410595Y-116562438D01*
X172410595Y-116562438D02*
X172458214Y-116610057D01*
X172458214Y-116610057D02*
X172505833Y-116705295D01*
X172505833Y-116705295D02*
X172505833Y-116848152D01*
X172505833Y-116848152D02*
X172458214Y-116943390D01*
X172458214Y-116943390D02*
X172410595Y-116991009D01*
X172410595Y-116991009D02*
X172315357Y-117038628D01*
X172315357Y-117038628D02*
X171934405Y-117038628D01*
X173077262Y-116943390D02*
X172982024Y-116895771D01*
X172982024Y-116895771D02*
X172934405Y-116848152D01*
X172934405Y-116848152D02*
X172886786Y-116752914D01*
X172886786Y-116752914D02*
X172886786Y-116705295D01*
X172886786Y-116705295D02*
X172934405Y-116610057D01*
X172934405Y-116610057D02*
X172982024Y-116562438D01*
X172982024Y-116562438D02*
X173077262Y-116514819D01*
X173077262Y-116514819D02*
X173267738Y-116514819D01*
X173267738Y-116514819D02*
X173362976Y-116562438D01*
X173362976Y-116562438D02*
X173410595Y-116610057D01*
X173410595Y-116610057D02*
X173458214Y-116705295D01*
X173458214Y-116705295D02*
X173458214Y-116752914D01*
X173458214Y-116752914D02*
X173410595Y-116848152D01*
X173410595Y-116848152D02*
X173362976Y-116895771D01*
X173362976Y-116895771D02*
X173267738Y-116943390D01*
X173267738Y-116943390D02*
X173077262Y-116943390D01*
X173077262Y-116943390D02*
X172982024Y-116991009D01*
X172982024Y-116991009D02*
X172934405Y-117038628D01*
X172934405Y-117038628D02*
X172886786Y-117133866D01*
X172886786Y-117133866D02*
X172886786Y-117324342D01*
X172886786Y-117324342D02*
X172934405Y-117419580D01*
X172934405Y-117419580D02*
X172982024Y-117467200D01*
X172982024Y-117467200D02*
X173077262Y-117514819D01*
X173077262Y-117514819D02*
X173267738Y-117514819D01*
X173267738Y-117514819D02*
X173362976Y-117467200D01*
X173362976Y-117467200D02*
X173410595Y-117419580D01*
X173410595Y-117419580D02*
X173458214Y-117324342D01*
X173458214Y-117324342D02*
X173458214Y-117133866D01*
X173458214Y-117133866D02*
X173410595Y-117038628D01*
X173410595Y-117038628D02*
X173362976Y-116991009D01*
X173362976Y-116991009D02*
X173267738Y-116943390D01*
X138759580Y-118766666D02*
X138807200Y-118814285D01*
X138807200Y-118814285D02*
X138854819Y-118957142D01*
X138854819Y-118957142D02*
X138854819Y-119052380D01*
X138854819Y-119052380D02*
X138807200Y-119195237D01*
X138807200Y-119195237D02*
X138711961Y-119290475D01*
X138711961Y-119290475D02*
X138616723Y-119338094D01*
X138616723Y-119338094D02*
X138426247Y-119385713D01*
X138426247Y-119385713D02*
X138283390Y-119385713D01*
X138283390Y-119385713D02*
X138092914Y-119338094D01*
X138092914Y-119338094D02*
X137997676Y-119290475D01*
X137997676Y-119290475D02*
X137902438Y-119195237D01*
X137902438Y-119195237D02*
X137854819Y-119052380D01*
X137854819Y-119052380D02*
X137854819Y-118957142D01*
X137854819Y-118957142D02*
X137902438Y-118814285D01*
X137902438Y-118814285D02*
X137950057Y-118766666D01*
X138188152Y-117909523D02*
X138854819Y-117909523D01*
X137807200Y-118147618D02*
X138521485Y-118385713D01*
X138521485Y-118385713D02*
X138521485Y-117766666D01*
X156233333Y-113554819D02*
X155900000Y-113078628D01*
X155661905Y-113554819D02*
X155661905Y-112554819D01*
X155661905Y-112554819D02*
X156042857Y-112554819D01*
X156042857Y-112554819D02*
X156138095Y-112602438D01*
X156138095Y-112602438D02*
X156185714Y-112650057D01*
X156185714Y-112650057D02*
X156233333Y-112745295D01*
X156233333Y-112745295D02*
X156233333Y-112888152D01*
X156233333Y-112888152D02*
X156185714Y-112983390D01*
X156185714Y-112983390D02*
X156138095Y-113031009D01*
X156138095Y-113031009D02*
X156042857Y-113078628D01*
X156042857Y-113078628D02*
X155661905Y-113078628D01*
X156614286Y-112650057D02*
X156661905Y-112602438D01*
X156661905Y-112602438D02*
X156757143Y-112554819D01*
X156757143Y-112554819D02*
X156995238Y-112554819D01*
X156995238Y-112554819D02*
X157090476Y-112602438D01*
X157090476Y-112602438D02*
X157138095Y-112650057D01*
X157138095Y-112650057D02*
X157185714Y-112745295D01*
X157185714Y-112745295D02*
X157185714Y-112840533D01*
X157185714Y-112840533D02*
X157138095Y-112983390D01*
X157138095Y-112983390D02*
X156566667Y-113554819D01*
X156566667Y-113554819D02*
X157185714Y-113554819D01*
X134407142Y-99129580D02*
X134359523Y-99177200D01*
X134359523Y-99177200D02*
X134216666Y-99224819D01*
X134216666Y-99224819D02*
X134121428Y-99224819D01*
X134121428Y-99224819D02*
X133978571Y-99177200D01*
X133978571Y-99177200D02*
X133883333Y-99081961D01*
X133883333Y-99081961D02*
X133835714Y-98986723D01*
X133835714Y-98986723D02*
X133788095Y-98796247D01*
X133788095Y-98796247D02*
X133788095Y-98653390D01*
X133788095Y-98653390D02*
X133835714Y-98462914D01*
X133835714Y-98462914D02*
X133883333Y-98367676D01*
X133883333Y-98367676D02*
X133978571Y-98272438D01*
X133978571Y-98272438D02*
X134121428Y-98224819D01*
X134121428Y-98224819D02*
X134216666Y-98224819D01*
X134216666Y-98224819D02*
X134359523Y-98272438D01*
X134359523Y-98272438D02*
X134407142Y-98320057D01*
X135359523Y-99224819D02*
X134788095Y-99224819D01*
X135073809Y-99224819D02*
X135073809Y-98224819D01*
X135073809Y-98224819D02*
X134978571Y-98367676D01*
X134978571Y-98367676D02*
X134883333Y-98462914D01*
X134883333Y-98462914D02*
X134788095Y-98510533D01*
X136311904Y-99224819D02*
X135740476Y-99224819D01*
X136026190Y-99224819D02*
X136026190Y-98224819D01*
X136026190Y-98224819D02*
X135930952Y-98367676D01*
X135930952Y-98367676D02*
X135835714Y-98462914D01*
X135835714Y-98462914D02*
X135740476Y-98510533D01*
X135784819Y-83038094D02*
X134784819Y-83038094D01*
X134784819Y-83038094D02*
X134784819Y-82799999D01*
X134784819Y-82799999D02*
X134832438Y-82657142D01*
X134832438Y-82657142D02*
X134927676Y-82561904D01*
X134927676Y-82561904D02*
X135022914Y-82514285D01*
X135022914Y-82514285D02*
X135213390Y-82466666D01*
X135213390Y-82466666D02*
X135356247Y-82466666D01*
X135356247Y-82466666D02*
X135546723Y-82514285D01*
X135546723Y-82514285D02*
X135641961Y-82561904D01*
X135641961Y-82561904D02*
X135737200Y-82657142D01*
X135737200Y-82657142D02*
X135784819Y-82799999D01*
X135784819Y-82799999D02*
X135784819Y-83038094D01*
X134784819Y-82133332D02*
X134784819Y-81514285D01*
X134784819Y-81514285D02*
X135165771Y-81847618D01*
X135165771Y-81847618D02*
X135165771Y-81704761D01*
X135165771Y-81704761D02*
X135213390Y-81609523D01*
X135213390Y-81609523D02*
X135261009Y-81561904D01*
X135261009Y-81561904D02*
X135356247Y-81514285D01*
X135356247Y-81514285D02*
X135594342Y-81514285D01*
X135594342Y-81514285D02*
X135689580Y-81561904D01*
X135689580Y-81561904D02*
X135737200Y-81609523D01*
X135737200Y-81609523D02*
X135784819Y-81704761D01*
X135784819Y-81704761D02*
X135784819Y-81990475D01*
X135784819Y-81990475D02*
X135737200Y-82085713D01*
X135737200Y-82085713D02*
X135689580Y-82133332D01*
X142059580Y-93266666D02*
X142107200Y-93314285D01*
X142107200Y-93314285D02*
X142154819Y-93457142D01*
X142154819Y-93457142D02*
X142154819Y-93552380D01*
X142154819Y-93552380D02*
X142107200Y-93695237D01*
X142107200Y-93695237D02*
X142011961Y-93790475D01*
X142011961Y-93790475D02*
X141916723Y-93838094D01*
X141916723Y-93838094D02*
X141726247Y-93885713D01*
X141726247Y-93885713D02*
X141583390Y-93885713D01*
X141583390Y-93885713D02*
X141392914Y-93838094D01*
X141392914Y-93838094D02*
X141297676Y-93790475D01*
X141297676Y-93790475D02*
X141202438Y-93695237D01*
X141202438Y-93695237D02*
X141154819Y-93552380D01*
X141154819Y-93552380D02*
X141154819Y-93457142D01*
X141154819Y-93457142D02*
X141202438Y-93314285D01*
X141202438Y-93314285D02*
X141250057Y-93266666D01*
X142154819Y-92790475D02*
X142154819Y-92599999D01*
X142154819Y-92599999D02*
X142107200Y-92504761D01*
X142107200Y-92504761D02*
X142059580Y-92457142D01*
X142059580Y-92457142D02*
X141916723Y-92361904D01*
X141916723Y-92361904D02*
X141726247Y-92314285D01*
X141726247Y-92314285D02*
X141345295Y-92314285D01*
X141345295Y-92314285D02*
X141250057Y-92361904D01*
X141250057Y-92361904D02*
X141202438Y-92409523D01*
X141202438Y-92409523D02*
X141154819Y-92504761D01*
X141154819Y-92504761D02*
X141154819Y-92695237D01*
X141154819Y-92695237D02*
X141202438Y-92790475D01*
X141202438Y-92790475D02*
X141250057Y-92838094D01*
X141250057Y-92838094D02*
X141345295Y-92885713D01*
X141345295Y-92885713D02*
X141583390Y-92885713D01*
X141583390Y-92885713D02*
X141678628Y-92838094D01*
X141678628Y-92838094D02*
X141726247Y-92790475D01*
X141726247Y-92790475D02*
X141773866Y-92695237D01*
X141773866Y-92695237D02*
X141773866Y-92504761D01*
X141773866Y-92504761D02*
X141726247Y-92409523D01*
X141726247Y-92409523D02*
X141678628Y-92361904D01*
X141678628Y-92361904D02*
X141583390Y-92314285D01*
X164154819Y-75738094D02*
X163154819Y-75738094D01*
X163154819Y-75738094D02*
X163154819Y-75499999D01*
X163154819Y-75499999D02*
X163202438Y-75357142D01*
X163202438Y-75357142D02*
X163297676Y-75261904D01*
X163297676Y-75261904D02*
X163392914Y-75214285D01*
X163392914Y-75214285D02*
X163583390Y-75166666D01*
X163583390Y-75166666D02*
X163726247Y-75166666D01*
X163726247Y-75166666D02*
X163916723Y-75214285D01*
X163916723Y-75214285D02*
X164011961Y-75261904D01*
X164011961Y-75261904D02*
X164107200Y-75357142D01*
X164107200Y-75357142D02*
X164154819Y-75499999D01*
X164154819Y-75499999D02*
X164154819Y-75738094D01*
X163154819Y-74261904D02*
X163154819Y-74738094D01*
X163154819Y-74738094D02*
X163631009Y-74785713D01*
X163631009Y-74785713D02*
X163583390Y-74738094D01*
X163583390Y-74738094D02*
X163535771Y-74642856D01*
X163535771Y-74642856D02*
X163535771Y-74404761D01*
X163535771Y-74404761D02*
X163583390Y-74309523D01*
X163583390Y-74309523D02*
X163631009Y-74261904D01*
X163631009Y-74261904D02*
X163726247Y-74214285D01*
X163726247Y-74214285D02*
X163964342Y-74214285D01*
X163964342Y-74214285D02*
X164059580Y-74261904D01*
X164059580Y-74261904D02*
X164107200Y-74309523D01*
X164107200Y-74309523D02*
X164154819Y-74404761D01*
X164154819Y-74404761D02*
X164154819Y-74642856D01*
X164154819Y-74642856D02*
X164107200Y-74738094D01*
X164107200Y-74738094D02*
X164059580Y-74785713D01*
X136433333Y-85859580D02*
X136385714Y-85907200D01*
X136385714Y-85907200D02*
X136242857Y-85954819D01*
X136242857Y-85954819D02*
X136147619Y-85954819D01*
X136147619Y-85954819D02*
X136004762Y-85907200D01*
X136004762Y-85907200D02*
X135909524Y-85811961D01*
X135909524Y-85811961D02*
X135861905Y-85716723D01*
X135861905Y-85716723D02*
X135814286Y-85526247D01*
X135814286Y-85526247D02*
X135814286Y-85383390D01*
X135814286Y-85383390D02*
X135861905Y-85192914D01*
X135861905Y-85192914D02*
X135909524Y-85097676D01*
X135909524Y-85097676D02*
X136004762Y-85002438D01*
X136004762Y-85002438D02*
X136147619Y-84954819D01*
X136147619Y-84954819D02*
X136242857Y-84954819D01*
X136242857Y-84954819D02*
X136385714Y-85002438D01*
X136385714Y-85002438D02*
X136433333Y-85050057D01*
X137004762Y-85383390D02*
X136909524Y-85335771D01*
X136909524Y-85335771D02*
X136861905Y-85288152D01*
X136861905Y-85288152D02*
X136814286Y-85192914D01*
X136814286Y-85192914D02*
X136814286Y-85145295D01*
X136814286Y-85145295D02*
X136861905Y-85050057D01*
X136861905Y-85050057D02*
X136909524Y-85002438D01*
X136909524Y-85002438D02*
X137004762Y-84954819D01*
X137004762Y-84954819D02*
X137195238Y-84954819D01*
X137195238Y-84954819D02*
X137290476Y-85002438D01*
X137290476Y-85002438D02*
X137338095Y-85050057D01*
X137338095Y-85050057D02*
X137385714Y-85145295D01*
X137385714Y-85145295D02*
X137385714Y-85192914D01*
X137385714Y-85192914D02*
X137338095Y-85288152D01*
X137338095Y-85288152D02*
X137290476Y-85335771D01*
X137290476Y-85335771D02*
X137195238Y-85383390D01*
X137195238Y-85383390D02*
X137004762Y-85383390D01*
X137004762Y-85383390D02*
X136909524Y-85431009D01*
X136909524Y-85431009D02*
X136861905Y-85478628D01*
X136861905Y-85478628D02*
X136814286Y-85573866D01*
X136814286Y-85573866D02*
X136814286Y-85764342D01*
X136814286Y-85764342D02*
X136861905Y-85859580D01*
X136861905Y-85859580D02*
X136909524Y-85907200D01*
X136909524Y-85907200D02*
X137004762Y-85954819D01*
X137004762Y-85954819D02*
X137195238Y-85954819D01*
X137195238Y-85954819D02*
X137290476Y-85907200D01*
X137290476Y-85907200D02*
X137338095Y-85859580D01*
X137338095Y-85859580D02*
X137385714Y-85764342D01*
X137385714Y-85764342D02*
X137385714Y-85573866D01*
X137385714Y-85573866D02*
X137338095Y-85478628D01*
X137338095Y-85478628D02*
X137290476Y-85431009D01*
X137290476Y-85431009D02*
X137195238Y-85383390D01*
D13*
X140189271Y-104387381D02*
X140189271Y-104992143D01*
X140189271Y-104992143D02*
X138919271Y-104992143D01*
X140189271Y-103964048D02*
X138919271Y-103964048D01*
X138919271Y-103964048D02*
X138919271Y-103480238D01*
X138919271Y-103480238D02*
X138979747Y-103359286D01*
X138979747Y-103359286D02*
X139040223Y-103298809D01*
X139040223Y-103298809D02*
X139161175Y-103238333D01*
X139161175Y-103238333D02*
X139342604Y-103238333D01*
X139342604Y-103238333D02*
X139463556Y-103298809D01*
X139463556Y-103298809D02*
X139524033Y-103359286D01*
X139524033Y-103359286D02*
X139584509Y-103480238D01*
X139584509Y-103480238D02*
X139584509Y-103964048D01*
X140128795Y-102754524D02*
X140189271Y-102573095D01*
X140189271Y-102573095D02*
X140189271Y-102270714D01*
X140189271Y-102270714D02*
X140128795Y-102149762D01*
X140128795Y-102149762D02*
X140068318Y-102089286D01*
X140068318Y-102089286D02*
X139947366Y-102028809D01*
X139947366Y-102028809D02*
X139826414Y-102028809D01*
X139826414Y-102028809D02*
X139705461Y-102089286D01*
X139705461Y-102089286D02*
X139644985Y-102149762D01*
X139644985Y-102149762D02*
X139584509Y-102270714D01*
X139584509Y-102270714D02*
X139524033Y-102512619D01*
X139524033Y-102512619D02*
X139463556Y-102633571D01*
X139463556Y-102633571D02*
X139403080Y-102694048D01*
X139403080Y-102694048D02*
X139282128Y-102754524D01*
X139282128Y-102754524D02*
X139161175Y-102754524D01*
X139161175Y-102754524D02*
X139040223Y-102694048D01*
X139040223Y-102694048D02*
X138979747Y-102633571D01*
X138979747Y-102633571D02*
X138919271Y-102512619D01*
X138919271Y-102512619D02*
X138919271Y-102210238D01*
X138919271Y-102210238D02*
X138979747Y-102028809D01*
X139040223Y-101545000D02*
X138979747Y-101484524D01*
X138979747Y-101484524D02*
X138919271Y-101363571D01*
X138919271Y-101363571D02*
X138919271Y-101061190D01*
X138919271Y-101061190D02*
X138979747Y-100940238D01*
X138979747Y-100940238D02*
X139040223Y-100879762D01*
X139040223Y-100879762D02*
X139161175Y-100819285D01*
X139161175Y-100819285D02*
X139282128Y-100819285D01*
X139282128Y-100819285D02*
X139463556Y-100879762D01*
X139463556Y-100879762D02*
X140189271Y-101605476D01*
X140189271Y-101605476D02*
X140189271Y-100819285D01*
X138919271Y-99670238D02*
X138919271Y-100275000D01*
X138919271Y-100275000D02*
X139524033Y-100335476D01*
X139524033Y-100335476D02*
X139463556Y-100275000D01*
X139463556Y-100275000D02*
X139403080Y-100154047D01*
X139403080Y-100154047D02*
X139403080Y-99851666D01*
X139403080Y-99851666D02*
X139463556Y-99730714D01*
X139463556Y-99730714D02*
X139524033Y-99670238D01*
X139524033Y-99670238D02*
X139644985Y-99609761D01*
X139644985Y-99609761D02*
X139947366Y-99609761D01*
X139947366Y-99609761D02*
X140068318Y-99670238D01*
X140068318Y-99670238D02*
X140128795Y-99730714D01*
X140128795Y-99730714D02*
X140189271Y-99851666D01*
X140189271Y-99851666D02*
X140189271Y-100154047D01*
X140189271Y-100154047D02*
X140128795Y-100275000D01*
X140128795Y-100275000D02*
X140068318Y-100335476D01*
X140189271Y-99065476D02*
X138919271Y-99065476D01*
X139524033Y-99065476D02*
X139524033Y-98339761D01*
X140189271Y-98339761D02*
X138919271Y-98339761D01*
X139524033Y-97311666D02*
X139584509Y-97130238D01*
X139584509Y-97130238D02*
X139644985Y-97069761D01*
X139644985Y-97069761D02*
X139765937Y-97009285D01*
X139765937Y-97009285D02*
X139947366Y-97009285D01*
X139947366Y-97009285D02*
X140068318Y-97069761D01*
X140068318Y-97069761D02*
X140128795Y-97130238D01*
X140128795Y-97130238D02*
X140189271Y-97251190D01*
X140189271Y-97251190D02*
X140189271Y-97735000D01*
X140189271Y-97735000D02*
X138919271Y-97735000D01*
X138919271Y-97735000D02*
X138919271Y-97311666D01*
X138919271Y-97311666D02*
X138979747Y-97190714D01*
X138979747Y-97190714D02*
X139040223Y-97130238D01*
X139040223Y-97130238D02*
X139161175Y-97069761D01*
X139161175Y-97069761D02*
X139282128Y-97069761D01*
X139282128Y-97069761D02*
X139403080Y-97130238D01*
X139403080Y-97130238D02*
X139463556Y-97190714D01*
X139463556Y-97190714D02*
X139524033Y-97311666D01*
X139524033Y-97311666D02*
X139524033Y-97735000D01*
X139705461Y-96465000D02*
X139705461Y-95497381D01*
X140189271Y-94227380D02*
X140189271Y-94953095D01*
X140189271Y-94590238D02*
X138919271Y-94590238D01*
X138919271Y-94590238D02*
X139100699Y-94711190D01*
X139100699Y-94711190D02*
X139221652Y-94832142D01*
X139221652Y-94832142D02*
X139282128Y-94953095D01*
D10*
X143432419Y-99412306D02*
X143432419Y-99983734D01*
X143432419Y-99698020D02*
X142432419Y-99698020D01*
X142432419Y-99698020D02*
X142575276Y-99793258D01*
X142575276Y-99793258D02*
X142670514Y-99888496D01*
X142670514Y-99888496D02*
X142718133Y-99983734D01*
X142197419Y-113772306D02*
X142197419Y-114343734D01*
X142197419Y-114058020D02*
X141197419Y-114058020D01*
X141197419Y-114058020D02*
X141340276Y-114153258D01*
X141340276Y-114153258D02*
X141435514Y-114248496D01*
X141435514Y-114248496D02*
X141483133Y-114343734D01*
D12*
X170054819Y-91016666D02*
X169578628Y-91349999D01*
X170054819Y-91588094D02*
X169054819Y-91588094D01*
X169054819Y-91588094D02*
X169054819Y-91207142D01*
X169054819Y-91207142D02*
X169102438Y-91111904D01*
X169102438Y-91111904D02*
X169150057Y-91064285D01*
X169150057Y-91064285D02*
X169245295Y-91016666D01*
X169245295Y-91016666D02*
X169388152Y-91016666D01*
X169388152Y-91016666D02*
X169483390Y-91064285D01*
X169483390Y-91064285D02*
X169531009Y-91111904D01*
X169531009Y-91111904D02*
X169578628Y-91207142D01*
X169578628Y-91207142D02*
X169578628Y-91588094D01*
X170054819Y-90064285D02*
X170054819Y-90635713D01*
X170054819Y-90349999D02*
X169054819Y-90349999D01*
X169054819Y-90349999D02*
X169197676Y-90445237D01*
X169197676Y-90445237D02*
X169292914Y-90540475D01*
X169292914Y-90540475D02*
X169340533Y-90635713D01*
X139659580Y-86442857D02*
X139707200Y-86490476D01*
X139707200Y-86490476D02*
X139754819Y-86633333D01*
X139754819Y-86633333D02*
X139754819Y-86728571D01*
X139754819Y-86728571D02*
X139707200Y-86871428D01*
X139707200Y-86871428D02*
X139611961Y-86966666D01*
X139611961Y-86966666D02*
X139516723Y-87014285D01*
X139516723Y-87014285D02*
X139326247Y-87061904D01*
X139326247Y-87061904D02*
X139183390Y-87061904D01*
X139183390Y-87061904D02*
X138992914Y-87014285D01*
X138992914Y-87014285D02*
X138897676Y-86966666D01*
X138897676Y-86966666D02*
X138802438Y-86871428D01*
X138802438Y-86871428D02*
X138754819Y-86728571D01*
X138754819Y-86728571D02*
X138754819Y-86633333D01*
X138754819Y-86633333D02*
X138802438Y-86490476D01*
X138802438Y-86490476D02*
X138850057Y-86442857D01*
X139754819Y-85490476D02*
X139754819Y-86061904D01*
X139754819Y-85776190D02*
X138754819Y-85776190D01*
X138754819Y-85776190D02*
X138897676Y-85871428D01*
X138897676Y-85871428D02*
X138992914Y-85966666D01*
X138992914Y-85966666D02*
X139040533Y-86061904D01*
X138754819Y-84871428D02*
X138754819Y-84776190D01*
X138754819Y-84776190D02*
X138802438Y-84680952D01*
X138802438Y-84680952D02*
X138850057Y-84633333D01*
X138850057Y-84633333D02*
X138945295Y-84585714D01*
X138945295Y-84585714D02*
X139135771Y-84538095D01*
X139135771Y-84538095D02*
X139373866Y-84538095D01*
X139373866Y-84538095D02*
X139564342Y-84585714D01*
X139564342Y-84585714D02*
X139659580Y-84633333D01*
X139659580Y-84633333D02*
X139707200Y-84680952D01*
X139707200Y-84680952D02*
X139754819Y-84776190D01*
X139754819Y-84776190D02*
X139754819Y-84871428D01*
X139754819Y-84871428D02*
X139707200Y-84966666D01*
X139707200Y-84966666D02*
X139659580Y-85014285D01*
X139659580Y-85014285D02*
X139564342Y-85061904D01*
X139564342Y-85061904D02*
X139373866Y-85109523D01*
X139373866Y-85109523D02*
X139135771Y-85109523D01*
X139135771Y-85109523D02*
X138945295Y-85061904D01*
X138945295Y-85061904D02*
X138850057Y-85014285D01*
X138850057Y-85014285D02*
X138802438Y-84966666D01*
X138802438Y-84966666D02*
X138754819Y-84871428D01*
X164629580Y-85941666D02*
X164677200Y-85989285D01*
X164677200Y-85989285D02*
X164724819Y-86132142D01*
X164724819Y-86132142D02*
X164724819Y-86227380D01*
X164724819Y-86227380D02*
X164677200Y-86370237D01*
X164677200Y-86370237D02*
X164581961Y-86465475D01*
X164581961Y-86465475D02*
X164486723Y-86513094D01*
X164486723Y-86513094D02*
X164296247Y-86560713D01*
X164296247Y-86560713D02*
X164153390Y-86560713D01*
X164153390Y-86560713D02*
X163962914Y-86513094D01*
X163962914Y-86513094D02*
X163867676Y-86465475D01*
X163867676Y-86465475D02*
X163772438Y-86370237D01*
X163772438Y-86370237D02*
X163724819Y-86227380D01*
X163724819Y-86227380D02*
X163724819Y-86132142D01*
X163724819Y-86132142D02*
X163772438Y-85989285D01*
X163772438Y-85989285D02*
X163820057Y-85941666D01*
X163724819Y-85608332D02*
X163724819Y-84989285D01*
X163724819Y-84989285D02*
X164105771Y-85322618D01*
X164105771Y-85322618D02*
X164105771Y-85179761D01*
X164105771Y-85179761D02*
X164153390Y-85084523D01*
X164153390Y-85084523D02*
X164201009Y-85036904D01*
X164201009Y-85036904D02*
X164296247Y-84989285D01*
X164296247Y-84989285D02*
X164534342Y-84989285D01*
X164534342Y-84989285D02*
X164629580Y-85036904D01*
X164629580Y-85036904D02*
X164677200Y-85084523D01*
X164677200Y-85084523D02*
X164724819Y-85179761D01*
X164724819Y-85179761D02*
X164724819Y-85465475D01*
X164724819Y-85465475D02*
X164677200Y-85560713D01*
X164677200Y-85560713D02*
X164629580Y-85608332D01*
X171761905Y-120384819D02*
X171761905Y-119384819D01*
X171761905Y-119384819D02*
X172000000Y-119384819D01*
X172000000Y-119384819D02*
X172142857Y-119432438D01*
X172142857Y-119432438D02*
X172238095Y-119527676D01*
X172238095Y-119527676D02*
X172285714Y-119622914D01*
X172285714Y-119622914D02*
X172333333Y-119813390D01*
X172333333Y-119813390D02*
X172333333Y-119956247D01*
X172333333Y-119956247D02*
X172285714Y-120146723D01*
X172285714Y-120146723D02*
X172238095Y-120241961D01*
X172238095Y-120241961D02*
X172142857Y-120337200D01*
X172142857Y-120337200D02*
X172000000Y-120384819D01*
X172000000Y-120384819D02*
X171761905Y-120384819D01*
X172714286Y-119480057D02*
X172761905Y-119432438D01*
X172761905Y-119432438D02*
X172857143Y-119384819D01*
X172857143Y-119384819D02*
X173095238Y-119384819D01*
X173095238Y-119384819D02*
X173190476Y-119432438D01*
X173190476Y-119432438D02*
X173238095Y-119480057D01*
X173238095Y-119480057D02*
X173285714Y-119575295D01*
X173285714Y-119575295D02*
X173285714Y-119670533D01*
X173285714Y-119670533D02*
X173238095Y-119813390D01*
X173238095Y-119813390D02*
X172666667Y-120384819D01*
X172666667Y-120384819D02*
X173285714Y-120384819D01*
X135124819Y-124166666D02*
X134648628Y-124499999D01*
X135124819Y-124738094D02*
X134124819Y-124738094D01*
X134124819Y-124738094D02*
X134124819Y-124357142D01*
X134124819Y-124357142D02*
X134172438Y-124261904D01*
X134172438Y-124261904D02*
X134220057Y-124214285D01*
X134220057Y-124214285D02*
X134315295Y-124166666D01*
X134315295Y-124166666D02*
X134458152Y-124166666D01*
X134458152Y-124166666D02*
X134553390Y-124214285D01*
X134553390Y-124214285D02*
X134601009Y-124261904D01*
X134601009Y-124261904D02*
X134648628Y-124357142D01*
X134648628Y-124357142D02*
X134648628Y-124738094D01*
X135124819Y-123690475D02*
X135124819Y-123499999D01*
X135124819Y-123499999D02*
X135077200Y-123404761D01*
X135077200Y-123404761D02*
X135029580Y-123357142D01*
X135029580Y-123357142D02*
X134886723Y-123261904D01*
X134886723Y-123261904D02*
X134696247Y-123214285D01*
X134696247Y-123214285D02*
X134315295Y-123214285D01*
X134315295Y-123214285D02*
X134220057Y-123261904D01*
X134220057Y-123261904D02*
X134172438Y-123309523D01*
X134172438Y-123309523D02*
X134124819Y-123404761D01*
X134124819Y-123404761D02*
X134124819Y-123595237D01*
X134124819Y-123595237D02*
X134172438Y-123690475D01*
X134172438Y-123690475D02*
X134220057Y-123738094D01*
X134220057Y-123738094D02*
X134315295Y-123785713D01*
X134315295Y-123785713D02*
X134553390Y-123785713D01*
X134553390Y-123785713D02*
X134648628Y-123738094D01*
X134648628Y-123738094D02*
X134696247Y-123690475D01*
X134696247Y-123690475D02*
X134743866Y-123595237D01*
X134743866Y-123595237D02*
X134743866Y-123404761D01*
X134743866Y-123404761D02*
X134696247Y-123309523D01*
X134696247Y-123309523D02*
X134648628Y-123261904D01*
X134648628Y-123261904D02*
X134553390Y-123214285D01*
X175259580Y-91166666D02*
X175307200Y-91214285D01*
X175307200Y-91214285D02*
X175354819Y-91357142D01*
X175354819Y-91357142D02*
X175354819Y-91452380D01*
X175354819Y-91452380D02*
X175307200Y-91595237D01*
X175307200Y-91595237D02*
X175211961Y-91690475D01*
X175211961Y-91690475D02*
X175116723Y-91738094D01*
X175116723Y-91738094D02*
X174926247Y-91785713D01*
X174926247Y-91785713D02*
X174783390Y-91785713D01*
X174783390Y-91785713D02*
X174592914Y-91738094D01*
X174592914Y-91738094D02*
X174497676Y-91690475D01*
X174497676Y-91690475D02*
X174402438Y-91595237D01*
X174402438Y-91595237D02*
X174354819Y-91452380D01*
X174354819Y-91452380D02*
X174354819Y-91357142D01*
X174354819Y-91357142D02*
X174402438Y-91214285D01*
X174402438Y-91214285D02*
X174450057Y-91166666D01*
X175354819Y-90214285D02*
X175354819Y-90785713D01*
X175354819Y-90499999D02*
X174354819Y-90499999D01*
X174354819Y-90499999D02*
X174497676Y-90595237D01*
X174497676Y-90595237D02*
X174592914Y-90690475D01*
X174592914Y-90690475D02*
X174640533Y-90785713D01*
X156354819Y-87961904D02*
X157164342Y-87961904D01*
X157164342Y-87961904D02*
X157259580Y-87914285D01*
X157259580Y-87914285D02*
X157307200Y-87866666D01*
X157307200Y-87866666D02*
X157354819Y-87771428D01*
X157354819Y-87771428D02*
X157354819Y-87580952D01*
X157354819Y-87580952D02*
X157307200Y-87485714D01*
X157307200Y-87485714D02*
X157259580Y-87438095D01*
X157259580Y-87438095D02*
X157164342Y-87390476D01*
X157164342Y-87390476D02*
X156354819Y-87390476D01*
X156354819Y-87009523D02*
X156354819Y-86390476D01*
X156354819Y-86390476D02*
X156735771Y-86723809D01*
X156735771Y-86723809D02*
X156735771Y-86580952D01*
X156735771Y-86580952D02*
X156783390Y-86485714D01*
X156783390Y-86485714D02*
X156831009Y-86438095D01*
X156831009Y-86438095D02*
X156926247Y-86390476D01*
X156926247Y-86390476D02*
X157164342Y-86390476D01*
X157164342Y-86390476D02*
X157259580Y-86438095D01*
X157259580Y-86438095D02*
X157307200Y-86485714D01*
X157307200Y-86485714D02*
X157354819Y-86580952D01*
X157354819Y-86580952D02*
X157354819Y-86866666D01*
X157354819Y-86866666D02*
X157307200Y-86961904D01*
X157307200Y-86961904D02*
X157259580Y-87009523D01*
X150954819Y-90899999D02*
X151192914Y-90899999D01*
X151097676Y-91138094D02*
X151192914Y-90899999D01*
X151192914Y-90899999D02*
X151097676Y-90661904D01*
X151383390Y-91042856D02*
X151192914Y-90899999D01*
X151192914Y-90899999D02*
X151383390Y-90757142D01*
X170184819Y-75730357D02*
X169708628Y-76063690D01*
X170184819Y-76301785D02*
X169184819Y-76301785D01*
X169184819Y-76301785D02*
X169184819Y-75920833D01*
X169184819Y-75920833D02*
X169232438Y-75825595D01*
X169232438Y-75825595D02*
X169280057Y-75777976D01*
X169280057Y-75777976D02*
X169375295Y-75730357D01*
X169375295Y-75730357D02*
X169518152Y-75730357D01*
X169518152Y-75730357D02*
X169613390Y-75777976D01*
X169613390Y-75777976D02*
X169661009Y-75825595D01*
X169661009Y-75825595D02*
X169708628Y-75920833D01*
X169708628Y-75920833D02*
X169708628Y-76301785D01*
X170184819Y-74777976D02*
X170184819Y-75349404D01*
X170184819Y-75063690D02*
X169184819Y-75063690D01*
X169184819Y-75063690D02*
X169327676Y-75158928D01*
X169327676Y-75158928D02*
X169422914Y-75254166D01*
X169422914Y-75254166D02*
X169470533Y-75349404D01*
X169184819Y-74158928D02*
X169184819Y-74063690D01*
X169184819Y-74063690D02*
X169232438Y-73968452D01*
X169232438Y-73968452D02*
X169280057Y-73920833D01*
X169280057Y-73920833D02*
X169375295Y-73873214D01*
X169375295Y-73873214D02*
X169565771Y-73825595D01*
X169565771Y-73825595D02*
X169803866Y-73825595D01*
X169803866Y-73825595D02*
X169994342Y-73873214D01*
X169994342Y-73873214D02*
X170089580Y-73920833D01*
X170089580Y-73920833D02*
X170137200Y-73968452D01*
X170137200Y-73968452D02*
X170184819Y-74063690D01*
X170184819Y-74063690D02*
X170184819Y-74158928D01*
X170184819Y-74158928D02*
X170137200Y-74254166D01*
X170137200Y-74254166D02*
X170089580Y-74301785D01*
X170089580Y-74301785D02*
X169994342Y-74349404D01*
X169994342Y-74349404D02*
X169803866Y-74397023D01*
X169803866Y-74397023D02*
X169565771Y-74397023D01*
X169565771Y-74397023D02*
X169375295Y-74349404D01*
X169375295Y-74349404D02*
X169280057Y-74301785D01*
X169280057Y-74301785D02*
X169232438Y-74254166D01*
X169232438Y-74254166D02*
X169184819Y-74158928D01*
X167538095Y-98554819D02*
X167538095Y-99364342D01*
X167538095Y-99364342D02*
X167585714Y-99459580D01*
X167585714Y-99459580D02*
X167633333Y-99507200D01*
X167633333Y-99507200D02*
X167728571Y-99554819D01*
X167728571Y-99554819D02*
X167919047Y-99554819D01*
X167919047Y-99554819D02*
X168014285Y-99507200D01*
X168014285Y-99507200D02*
X168061904Y-99459580D01*
X168061904Y-99459580D02*
X168109523Y-99364342D01*
X168109523Y-99364342D02*
X168109523Y-98554819D01*
X169109523Y-99554819D02*
X168538095Y-99554819D01*
X168823809Y-99554819D02*
X168823809Y-98554819D01*
X168823809Y-98554819D02*
X168728571Y-98697676D01*
X168728571Y-98697676D02*
X168633333Y-98792914D01*
X168633333Y-98792914D02*
X168538095Y-98840533D01*
X140659580Y-80866666D02*
X140707200Y-80914285D01*
X140707200Y-80914285D02*
X140754819Y-81057142D01*
X140754819Y-81057142D02*
X140754819Y-81152380D01*
X140754819Y-81152380D02*
X140707200Y-81295237D01*
X140707200Y-81295237D02*
X140611961Y-81390475D01*
X140611961Y-81390475D02*
X140516723Y-81438094D01*
X140516723Y-81438094D02*
X140326247Y-81485713D01*
X140326247Y-81485713D02*
X140183390Y-81485713D01*
X140183390Y-81485713D02*
X139992914Y-81438094D01*
X139992914Y-81438094D02*
X139897676Y-81390475D01*
X139897676Y-81390475D02*
X139802438Y-81295237D01*
X139802438Y-81295237D02*
X139754819Y-81152380D01*
X139754819Y-81152380D02*
X139754819Y-81057142D01*
X139754819Y-81057142D02*
X139802438Y-80914285D01*
X139802438Y-80914285D02*
X139850057Y-80866666D01*
X139754819Y-80533332D02*
X139754819Y-79866666D01*
X139754819Y-79866666D02*
X140754819Y-80295237D01*
X135454819Y-96438094D02*
X134454819Y-96438094D01*
X134454819Y-96438094D02*
X134454819Y-96199999D01*
X134454819Y-96199999D02*
X134502438Y-96057142D01*
X134502438Y-96057142D02*
X134597676Y-95961904D01*
X134597676Y-95961904D02*
X134692914Y-95914285D01*
X134692914Y-95914285D02*
X134883390Y-95866666D01*
X134883390Y-95866666D02*
X135026247Y-95866666D01*
X135026247Y-95866666D02*
X135216723Y-95914285D01*
X135216723Y-95914285D02*
X135311961Y-95961904D01*
X135311961Y-95961904D02*
X135407200Y-96057142D01*
X135407200Y-96057142D02*
X135454819Y-96199999D01*
X135454819Y-96199999D02*
X135454819Y-96438094D01*
X134788152Y-95009523D02*
X135454819Y-95009523D01*
X134407200Y-95247618D02*
X135121485Y-95485713D01*
X135121485Y-95485713D02*
X135121485Y-94866666D01*
X150259580Y-124266666D02*
X150307200Y-124314285D01*
X150307200Y-124314285D02*
X150354819Y-124457142D01*
X150354819Y-124457142D02*
X150354819Y-124552380D01*
X150354819Y-124552380D02*
X150307200Y-124695237D01*
X150307200Y-124695237D02*
X150211961Y-124790475D01*
X150211961Y-124790475D02*
X150116723Y-124838094D01*
X150116723Y-124838094D02*
X149926247Y-124885713D01*
X149926247Y-124885713D02*
X149783390Y-124885713D01*
X149783390Y-124885713D02*
X149592914Y-124838094D01*
X149592914Y-124838094D02*
X149497676Y-124790475D01*
X149497676Y-124790475D02*
X149402438Y-124695237D01*
X149402438Y-124695237D02*
X149354819Y-124552380D01*
X149354819Y-124552380D02*
X149354819Y-124457142D01*
X149354819Y-124457142D02*
X149402438Y-124314285D01*
X149402438Y-124314285D02*
X149450057Y-124266666D01*
X149354819Y-123361904D02*
X149354819Y-123838094D01*
X149354819Y-123838094D02*
X149831009Y-123885713D01*
X149831009Y-123885713D02*
X149783390Y-123838094D01*
X149783390Y-123838094D02*
X149735771Y-123742856D01*
X149735771Y-123742856D02*
X149735771Y-123504761D01*
X149735771Y-123504761D02*
X149783390Y-123409523D01*
X149783390Y-123409523D02*
X149831009Y-123361904D01*
X149831009Y-123361904D02*
X149926247Y-123314285D01*
X149926247Y-123314285D02*
X150164342Y-123314285D01*
X150164342Y-123314285D02*
X150259580Y-123361904D01*
X150259580Y-123361904D02*
X150307200Y-123409523D01*
X150307200Y-123409523D02*
X150354819Y-123504761D01*
X150354819Y-123504761D02*
X150354819Y-123742856D01*
X150354819Y-123742856D02*
X150307200Y-123838094D01*
X150307200Y-123838094D02*
X150259580Y-123885713D01*
X136779580Y-77391666D02*
X136827200Y-77439285D01*
X136827200Y-77439285D02*
X136874819Y-77582142D01*
X136874819Y-77582142D02*
X136874819Y-77677380D01*
X136874819Y-77677380D02*
X136827200Y-77820237D01*
X136827200Y-77820237D02*
X136731961Y-77915475D01*
X136731961Y-77915475D02*
X136636723Y-77963094D01*
X136636723Y-77963094D02*
X136446247Y-78010713D01*
X136446247Y-78010713D02*
X136303390Y-78010713D01*
X136303390Y-78010713D02*
X136112914Y-77963094D01*
X136112914Y-77963094D02*
X136017676Y-77915475D01*
X136017676Y-77915475D02*
X135922438Y-77820237D01*
X135922438Y-77820237D02*
X135874819Y-77677380D01*
X135874819Y-77677380D02*
X135874819Y-77582142D01*
X135874819Y-77582142D02*
X135922438Y-77439285D01*
X135922438Y-77439285D02*
X135970057Y-77391666D01*
X135874819Y-76534523D02*
X135874819Y-76724999D01*
X135874819Y-76724999D02*
X135922438Y-76820237D01*
X135922438Y-76820237D02*
X135970057Y-76867856D01*
X135970057Y-76867856D02*
X136112914Y-76963094D01*
X136112914Y-76963094D02*
X136303390Y-77010713D01*
X136303390Y-77010713D02*
X136684342Y-77010713D01*
X136684342Y-77010713D02*
X136779580Y-76963094D01*
X136779580Y-76963094D02*
X136827200Y-76915475D01*
X136827200Y-76915475D02*
X136874819Y-76820237D01*
X136874819Y-76820237D02*
X136874819Y-76629761D01*
X136874819Y-76629761D02*
X136827200Y-76534523D01*
X136827200Y-76534523D02*
X136779580Y-76486904D01*
X136779580Y-76486904D02*
X136684342Y-76439285D01*
X136684342Y-76439285D02*
X136446247Y-76439285D01*
X136446247Y-76439285D02*
X136351009Y-76486904D01*
X136351009Y-76486904D02*
X136303390Y-76534523D01*
X136303390Y-76534523D02*
X136255771Y-76629761D01*
X136255771Y-76629761D02*
X136255771Y-76820237D01*
X136255771Y-76820237D02*
X136303390Y-76915475D01*
X136303390Y-76915475D02*
X136351009Y-76963094D01*
X136351009Y-76963094D02*
X136446247Y-77010713D01*
X142438095Y-126854819D02*
X142438095Y-127664342D01*
X142438095Y-127664342D02*
X142485714Y-127759580D01*
X142485714Y-127759580D02*
X142533333Y-127807200D01*
X142533333Y-127807200D02*
X142628571Y-127854819D01*
X142628571Y-127854819D02*
X142819047Y-127854819D01*
X142819047Y-127854819D02*
X142914285Y-127807200D01*
X142914285Y-127807200D02*
X142961904Y-127759580D01*
X142961904Y-127759580D02*
X143009523Y-127664342D01*
X143009523Y-127664342D02*
X143009523Y-126854819D01*
X143438095Y-126950057D02*
X143485714Y-126902438D01*
X143485714Y-126902438D02*
X143580952Y-126854819D01*
X143580952Y-126854819D02*
X143819047Y-126854819D01*
X143819047Y-126854819D02*
X143914285Y-126902438D01*
X143914285Y-126902438D02*
X143961904Y-126950057D01*
X143961904Y-126950057D02*
X144009523Y-127045295D01*
X144009523Y-127045295D02*
X144009523Y-127140533D01*
X144009523Y-127140533D02*
X143961904Y-127283390D01*
X143961904Y-127283390D02*
X143390476Y-127854819D01*
X143390476Y-127854819D02*
X144009523Y-127854819D01*
D11*
%TO.C,R8*%
X172818767Y-115120000D02*
X172526233Y-115120000D01*
X172818767Y-116140000D02*
X172526233Y-116140000D01*
%TO.C,C4*%
X137790000Y-121203733D02*
X137790000Y-121496267D01*
X138810000Y-121203733D02*
X138810000Y-121496267D01*
%TO.C,R2*%
X158253733Y-113890000D02*
X158546267Y-113890000D01*
X158253733Y-114910000D02*
X158546267Y-114910000D01*
%TO.C,C11*%
X134903733Y-99690000D02*
X135196267Y-99690000D01*
X134903733Y-100710000D02*
X135196267Y-100710000D01*
%TO.C,D3*%
X136015000Y-80700000D02*
X136015000Y-84585000D01*
X136015000Y-84585000D02*
X138285000Y-84585000D01*
X138285000Y-84585000D02*
X138285000Y-80700000D01*
%TO.C,C9*%
X139390000Y-92103733D02*
X139390000Y-92396267D01*
X140410000Y-92103733D02*
X140410000Y-92396267D01*
%TO.C,D5*%
X164665000Y-73727500D02*
X164665000Y-76012500D01*
X166135000Y-73727500D02*
X164665000Y-73727500D01*
X166135000Y-76012500D02*
X166135000Y-73727500D01*
%TO.C,C8*%
X134778733Y-86340000D02*
X135071267Y-86340000D01*
X134778733Y-87360000D02*
X135071267Y-87360000D01*
D14*
%TO.C,LPS25HB-1*%
X140810000Y-91890000D02*
X152810000Y-91890000D01*
X140810000Y-103890000D02*
X140810000Y-91890000D01*
X152810000Y-91890000D02*
X152810000Y-103890000D01*
X152810000Y-103890000D02*
X140810000Y-103890000D01*
%TO.C,ICM-20602-1*%
D10*
X140375000Y-117725000D02*
X153025000Y-117725000D01*
X153025000Y-106775000D01*
X140375000Y-106775000D01*
X140375000Y-117725000D01*
D15*
%TO.C,NJM2391DL1-33-1*%
X125650000Y-78800000D02*
X125650000Y-85600000D01*
X125650000Y-85600000D02*
X132650000Y-85600000D01*
X132650000Y-78800000D02*
X125650000Y-78800000D01*
X132650000Y-85600000D02*
X132650000Y-78800000D01*
%TO.C,NJM2391DL1-05-1*%
X125650000Y-92200000D02*
X125650000Y-99000000D01*
X125650000Y-99000000D02*
X132650000Y-99000000D01*
X132650000Y-92200000D02*
X125650000Y-92200000D01*
X132650000Y-99000000D02*
X132650000Y-92200000D01*
%TO.C,ILG-2P4*%
X121975000Y-99450000D02*
X121975000Y-104950000D01*
X121975000Y-99450000D02*
X123125000Y-99450000D01*
X121975000Y-104950000D02*
X123125000Y-104950000D01*
X123125000Y-99450000D02*
X123125000Y-104950000D01*
X123125000Y-99450000D02*
X128125000Y-99450000D01*
X123125000Y-104950000D02*
X128125000Y-104950000D01*
X128125000Y-99450000D02*
X132825000Y-99450000D01*
X128125000Y-104950000D02*
X128125000Y-99450000D01*
X132825000Y-99450000D02*
X132825000Y-104950000D01*
X132825000Y-104950000D02*
X128125000Y-104950000D01*
D11*
%TO.C,R1*%
X170707500Y-90595276D02*
X170707500Y-91104724D01*
X171752500Y-90595276D02*
X171752500Y-91104724D01*
%TO.C,C10*%
X140290000Y-83527500D02*
X142640000Y-83527500D01*
X140290000Y-89283063D02*
X140290000Y-83527500D01*
X141354437Y-90347500D02*
X140290000Y-89283063D01*
X141354437Y-90347500D02*
X142640000Y-90347500D01*
X146045563Y-90347500D02*
X144760000Y-90347500D01*
X146045563Y-90347500D02*
X147110000Y-89283063D01*
X147110000Y-83527500D02*
X144760000Y-83527500D01*
X147110000Y-89283063D02*
X147110000Y-83527500D01*
%TO.C,C3*%
X165190000Y-85921267D02*
X165190000Y-85628733D01*
X166210000Y-85921267D02*
X166210000Y-85628733D01*
D15*
%TO.C,ILG-2P3*%
X122075000Y-86200000D02*
X122075000Y-91700000D01*
X122075000Y-86200000D02*
X123225000Y-86200000D01*
X122075000Y-91700000D02*
X123225000Y-91700000D01*
X123225000Y-86200000D02*
X123225000Y-91700000D01*
X123225000Y-86200000D02*
X128225000Y-86200000D01*
X123225000Y-91700000D02*
X128225000Y-91700000D01*
X128225000Y-86200000D02*
X132925000Y-86200000D01*
X128225000Y-91700000D02*
X128225000Y-86200000D01*
X132925000Y-86200000D02*
X132925000Y-91700000D01*
X132925000Y-91700000D02*
X128225000Y-91700000D01*
%TO.C,ILG-2P1*%
X121975000Y-107050000D02*
X121975000Y-112550000D01*
X121975000Y-107050000D02*
X123125000Y-107050000D01*
X121975000Y-112550000D02*
X123125000Y-112550000D01*
X123125000Y-107050000D02*
X123125000Y-112550000D01*
X123125000Y-107050000D02*
X128125000Y-107050000D01*
X123125000Y-112550000D02*
X128125000Y-112550000D01*
X128125000Y-107050000D02*
X132825000Y-107050000D01*
X128125000Y-112550000D02*
X128125000Y-107050000D01*
X132825000Y-107050000D02*
X132825000Y-112550000D01*
X132825000Y-112550000D02*
X128125000Y-112550000D01*
D11*
%TO.C,D2*%
X171700000Y-119235000D02*
X173985000Y-119235000D01*
X173985000Y-117765000D02*
X171700000Y-117765000D01*
X173985000Y-119235000D02*
X173985000Y-117765000D01*
D15*
%TO.C,ILG-3P1*%
X167125000Y-80600000D02*
X171825000Y-80600000D01*
X167125000Y-88600000D02*
X167125000Y-80600000D01*
X171825000Y-80600000D02*
X171825000Y-88600000D01*
X171825000Y-88600000D02*
X167125000Y-88600000D01*
X176825000Y-80600000D02*
X171825000Y-80600000D01*
X176825000Y-88600000D02*
X171825000Y-88600000D01*
X176825000Y-88600000D02*
X176825000Y-80600000D01*
X177975000Y-80600000D02*
X176825000Y-80600000D01*
X177975000Y-88600000D02*
X176825000Y-88600000D01*
X177975000Y-88600000D02*
X177975000Y-80600000D01*
D11*
%TO.C,R9*%
X135590000Y-124146267D02*
X135590000Y-123853733D01*
X136610000Y-124146267D02*
X136610000Y-123853733D01*
D16*
%TO.C,G\u002A\u002A\u002A*%
G36*
X167412411Y-120211000D02*
G01*
X167412411Y-120513847D01*
X167148641Y-120513847D01*
X166884872Y-120513847D01*
X166884872Y-121386564D01*
X166884872Y-122259282D01*
X166582032Y-122259282D01*
X166279192Y-122259282D01*
X166278372Y-121387379D01*
X166277552Y-120515475D01*
X165995058Y-120514643D01*
X165712565Y-120513811D01*
X165712565Y-120210982D01*
X165712565Y-119908154D01*
X166562488Y-119908154D01*
X167412411Y-119908154D01*
X167412411Y-120211000D01*
G37*
G36*
X159792411Y-120210964D02*
G01*
X159792411Y-120513847D01*
X159043436Y-120513847D01*
X158294462Y-120513847D01*
X158294462Y-120252297D01*
X158294462Y-120203025D01*
X158294480Y-120159826D01*
X158294546Y-120122259D01*
X158294689Y-120089884D01*
X158294939Y-120062260D01*
X158295324Y-120038947D01*
X158295873Y-120019506D01*
X158296616Y-120003494D01*
X158297582Y-119990473D01*
X158298799Y-119980001D01*
X158300298Y-119971639D01*
X158302107Y-119964946D01*
X158304256Y-119959482D01*
X158306773Y-119954806D01*
X158309687Y-119950478D01*
X158313029Y-119946057D01*
X158314898Y-119943637D01*
X158323843Y-119934274D01*
X158335559Y-119924861D01*
X158343308Y-119919885D01*
X158361218Y-119909782D01*
X159076815Y-119908932D01*
X159792411Y-119908082D01*
X159792411Y-120210964D01*
G37*
G36*
X163429657Y-120761346D02*
G01*
X163479767Y-120761382D01*
X163527664Y-120761440D01*
X163572967Y-120761519D01*
X163615293Y-120761617D01*
X163654260Y-120761732D01*
X163689485Y-120761864D01*
X163720587Y-120762011D01*
X163747182Y-120762171D01*
X163768889Y-120762343D01*
X163785324Y-120762525D01*
X163796107Y-120762716D01*
X163800853Y-120762915D01*
X163801052Y-120762965D01*
X163799282Y-120765835D01*
X163794127Y-120773777D01*
X163785815Y-120786442D01*
X163774576Y-120803486D01*
X163760641Y-120824561D01*
X163744238Y-120849321D01*
X163725597Y-120877421D01*
X163704948Y-120908513D01*
X163682521Y-120942251D01*
X163658545Y-120978289D01*
X163633249Y-121016281D01*
X163606864Y-121055881D01*
X163600245Y-121065811D01*
X163399438Y-121367026D01*
X163176912Y-121367026D01*
X162954385Y-121367026D01*
X162954385Y-121064180D01*
X162954385Y-120761334D01*
X163377718Y-120761334D01*
X163429657Y-120761346D01*
G37*
G36*
X162914494Y-119908247D02*
G01*
X163643116Y-119908340D01*
X163844194Y-120210279D01*
X164045272Y-120512218D01*
X163419233Y-120513847D01*
X162793193Y-120515475D01*
X162792370Y-121082904D01*
X162791546Y-121650334D01*
X163043927Y-121650334D01*
X163083832Y-121650354D01*
X163121795Y-121650414D01*
X163157320Y-121650510D01*
X163189912Y-121650638D01*
X163219075Y-121650796D01*
X163244316Y-121650980D01*
X163265137Y-121651187D01*
X163281045Y-121651414D01*
X163291544Y-121651658D01*
X163296139Y-121651915D01*
X163296308Y-121651975D01*
X163294538Y-121654847D01*
X163289382Y-121662789D01*
X163281067Y-121675458D01*
X163269824Y-121692508D01*
X163255881Y-121713593D01*
X163239468Y-121738367D01*
X163220812Y-121766486D01*
X163200145Y-121797604D01*
X163177693Y-121831376D01*
X163153688Y-121867456D01*
X163128356Y-121905499D01*
X163101929Y-121945159D01*
X163094402Y-121956449D01*
X162892496Y-122259282D01*
X162539184Y-122259282D01*
X162185872Y-122259282D01*
X162185872Y-121083718D01*
X162185872Y-119908154D01*
X162914494Y-119908247D01*
G37*
G36*
X158900154Y-121124423D02*
G01*
X158900154Y-121650334D01*
X159346283Y-121650334D01*
X159792411Y-121650334D01*
X159792411Y-121954808D01*
X159792411Y-122259282D01*
X159086584Y-122258926D01*
X159019060Y-122258879D01*
X158953163Y-122258808D01*
X158889196Y-122258715D01*
X158827464Y-122258601D01*
X158768271Y-122258467D01*
X158711920Y-122258314D01*
X158658716Y-122258144D01*
X158608963Y-122257959D01*
X158562966Y-122257759D01*
X158521027Y-122257545D01*
X158483452Y-122257320D01*
X158450545Y-122257085D01*
X158422609Y-122256840D01*
X158399949Y-122256587D01*
X158382869Y-122256328D01*
X158371673Y-122256064D01*
X158366665Y-122255796D01*
X158366557Y-122255778D01*
X158349734Y-122249986D01*
X158332788Y-122240001D01*
X158318334Y-122227533D01*
X158312523Y-122220423D01*
X158310605Y-122217804D01*
X158308828Y-122215525D01*
X158307186Y-122213342D01*
X158305673Y-122211009D01*
X158304284Y-122208283D01*
X158303015Y-122204919D01*
X158301859Y-122200672D01*
X158300812Y-122195297D01*
X158299868Y-122188549D01*
X158299021Y-122180185D01*
X158298268Y-122169959D01*
X158297601Y-122157626D01*
X158297016Y-122142943D01*
X158296508Y-122125664D01*
X158296070Y-122105544D01*
X158295699Y-122082340D01*
X158295389Y-122055806D01*
X158295134Y-122025698D01*
X158294929Y-121991770D01*
X158294768Y-121953780D01*
X158294647Y-121911481D01*
X158294560Y-121864629D01*
X158294502Y-121812979D01*
X158294468Y-121756287D01*
X158294452Y-121694309D01*
X158294448Y-121626799D01*
X158294452Y-121553512D01*
X158294459Y-121474205D01*
X158294462Y-121388632D01*
X158294462Y-121387675D01*
X158294462Y-120598513D01*
X158597308Y-120598513D01*
X158900154Y-120598513D01*
X158900154Y-121124423D01*
G37*
G36*
X165426000Y-120556180D02*
G01*
X165426000Y-121204205D01*
X165123154Y-121204205D01*
X164820308Y-121204205D01*
X164820163Y-121032430D01*
X164820118Y-120994531D01*
X164820043Y-120962659D01*
X164819921Y-120936325D01*
X164819738Y-120915042D01*
X164819478Y-120898323D01*
X164819125Y-120885681D01*
X164818664Y-120876629D01*
X164818080Y-120870680D01*
X164817357Y-120867346D01*
X164816479Y-120866141D01*
X164815431Y-120866576D01*
X164814908Y-120867167D01*
X164812364Y-120870914D01*
X164806608Y-120879712D01*
X164797924Y-120893116D01*
X164786598Y-120910682D01*
X164772915Y-120931968D01*
X164757158Y-120956529D01*
X164739615Y-120983922D01*
X164720568Y-121013702D01*
X164700304Y-121045426D01*
X164679108Y-121078650D01*
X164678991Y-121078834D01*
X164548183Y-121283988D01*
X164987092Y-121284813D01*
X165426000Y-121285639D01*
X165426000Y-121772461D01*
X165426000Y-122259282D01*
X165123154Y-122259282D01*
X164820308Y-122259282D01*
X164820308Y-122076908D01*
X164820308Y-121894534D01*
X164489035Y-121895363D01*
X164157761Y-121896193D01*
X164045339Y-122072365D01*
X164025709Y-122103100D01*
X164007032Y-122132297D01*
X163989615Y-122159477D01*
X163973766Y-122184163D01*
X163959792Y-122205876D01*
X163948001Y-122224139D01*
X163938700Y-122238473D01*
X163932199Y-122248401D01*
X163928804Y-122253444D01*
X163928457Y-122253909D01*
X163927383Y-122254749D01*
X163925395Y-122255498D01*
X163922136Y-122256159D01*
X163917249Y-122256740D01*
X163910377Y-122257244D01*
X163901163Y-122257678D01*
X163889250Y-122258047D01*
X163874280Y-122258355D01*
X163855896Y-122258608D01*
X163833741Y-122258811D01*
X163807458Y-122258970D01*
X163776690Y-122259089D01*
X163741080Y-122259175D01*
X163700269Y-122259232D01*
X163653903Y-122259265D01*
X163601622Y-122259280D01*
X163562696Y-122259282D01*
X163505063Y-122259271D01*
X163453623Y-122259235D01*
X163408055Y-122259169D01*
X163368038Y-122259071D01*
X163333252Y-122258936D01*
X163303378Y-122258761D01*
X163278093Y-122258541D01*
X163257079Y-122258274D01*
X163240014Y-122257954D01*
X163226579Y-122257580D01*
X163216452Y-122257145D01*
X163209314Y-122256647D01*
X163204844Y-122256083D01*
X163202722Y-122255447D01*
X163202448Y-122255001D01*
X163204253Y-122251992D01*
X163209449Y-122243671D01*
X163217922Y-122230219D01*
X163229557Y-122211812D01*
X163244242Y-122188632D01*
X163261862Y-122160855D01*
X163282303Y-122128661D01*
X163305452Y-122092229D01*
X163331195Y-122051737D01*
X163359417Y-122007365D01*
X163390007Y-121959290D01*
X163422848Y-121907692D01*
X163457828Y-121852749D01*
X163494833Y-121794641D01*
X163533750Y-121733546D01*
X163574463Y-121669642D01*
X163616860Y-121603109D01*
X163660826Y-121534125D01*
X163706249Y-121462869D01*
X163753013Y-121389521D01*
X163801006Y-121314257D01*
X163850113Y-121237258D01*
X163900221Y-121158702D01*
X163950789Y-121079437D01*
X164698078Y-119908154D01*
X165062039Y-119908154D01*
X165426000Y-119908154D01*
X165426000Y-120556180D01*
G37*
G36*
X169375747Y-120210186D02*
G01*
X169597251Y-120512218D01*
X168950959Y-120513040D01*
X168304667Y-120513863D01*
X168304667Y-120637598D01*
X168304667Y-120761334D01*
X168788515Y-120761334D01*
X168844080Y-120761352D01*
X168897828Y-120761406D01*
X168949401Y-120761493D01*
X168998443Y-120761611D01*
X169044597Y-120761758D01*
X169087507Y-120761933D01*
X169126817Y-120762132D01*
X169162169Y-120762355D01*
X169193207Y-120762599D01*
X169219575Y-120762861D01*
X169240916Y-120763140D01*
X169256873Y-120763434D01*
X169267089Y-120763741D01*
X169271209Y-120764059D01*
X169271278Y-120764113D01*
X169269248Y-120767053D01*
X169263609Y-120774911D01*
X169254604Y-120787355D01*
X169242476Y-120804052D01*
X169227468Y-120824668D01*
X169209822Y-120848871D01*
X169189782Y-120876327D01*
X169167591Y-120906705D01*
X169143492Y-120939670D01*
X169117727Y-120974889D01*
X169090540Y-121012030D01*
X169062173Y-121050760D01*
X169050385Y-121066849D01*
X168830577Y-121366806D01*
X168567622Y-121366916D01*
X168304667Y-121367026D01*
X168304667Y-121508680D01*
X168304667Y-121650334D01*
X168951065Y-121650334D01*
X169015443Y-121650343D01*
X169078064Y-121650370D01*
X169138619Y-121650414D01*
X169196799Y-121650474D01*
X169252293Y-121650550D01*
X169304793Y-121650639D01*
X169353989Y-121650742D01*
X169399572Y-121650858D01*
X169441232Y-121650985D01*
X169478659Y-121651123D01*
X169511545Y-121651271D01*
X169539580Y-121651427D01*
X169562454Y-121651592D01*
X169579858Y-121651764D01*
X169591483Y-121651942D01*
X169597019Y-121652126D01*
X169597462Y-121652195D01*
X169595575Y-121655011D01*
X169590073Y-121662746D01*
X169581197Y-121675071D01*
X169569188Y-121691656D01*
X169554286Y-121712170D01*
X169536731Y-121736284D01*
X169516764Y-121763668D01*
X169494626Y-121793991D01*
X169470557Y-121826924D01*
X169444797Y-121862137D01*
X169417588Y-121899300D01*
X169389169Y-121938083D01*
X169375541Y-121956669D01*
X169153619Y-122259282D01*
X168426840Y-122259282D01*
X168358494Y-122259273D01*
X168291871Y-122259245D01*
X168227262Y-122259199D01*
X168164961Y-122259136D01*
X168105261Y-122259057D01*
X168048454Y-122258963D01*
X167994834Y-122258855D01*
X167944694Y-122258734D01*
X167898327Y-122258600D01*
X167856025Y-122258454D01*
X167818082Y-122258298D01*
X167784791Y-122258132D01*
X167756444Y-122257957D01*
X167733335Y-122257774D01*
X167715757Y-122257583D01*
X167704002Y-122257386D01*
X167698364Y-122257184D01*
X167697889Y-122257111D01*
X167697728Y-122253731D01*
X167697570Y-122244068D01*
X167697416Y-122228353D01*
X167697266Y-122206815D01*
X167697119Y-122179686D01*
X167696978Y-122147195D01*
X167696842Y-122109572D01*
X167696712Y-122067049D01*
X167696587Y-122019854D01*
X167696470Y-121968219D01*
X167696359Y-121912373D01*
X167696255Y-121852548D01*
X167696160Y-121788972D01*
X167696072Y-121721876D01*
X167695993Y-121651491D01*
X167695923Y-121578047D01*
X167695863Y-121501774D01*
X167695813Y-121422902D01*
X167695772Y-121341661D01*
X167695743Y-121258282D01*
X167695725Y-121172995D01*
X167695718Y-121086030D01*
X167695718Y-121081547D01*
X167695718Y-119908154D01*
X168424980Y-119908154D01*
X169154242Y-119908154D01*
X169375747Y-120210186D01*
G37*
G36*
X161364757Y-119908134D02*
G01*
X161426887Y-119908155D01*
X161483879Y-119908196D01*
X161535961Y-119908262D01*
X161583362Y-119908358D01*
X161626312Y-119908489D01*
X161665040Y-119908660D01*
X161699774Y-119908876D01*
X161730744Y-119909142D01*
X161758179Y-119909463D01*
X161782308Y-119909844D01*
X161803359Y-119910290D01*
X161821563Y-119910805D01*
X161837147Y-119911396D01*
X161850341Y-119912067D01*
X161861374Y-119912823D01*
X161870476Y-119913668D01*
X161877874Y-119914609D01*
X161883798Y-119915649D01*
X161888478Y-119916795D01*
X161892142Y-119918050D01*
X161895019Y-119919420D01*
X161897339Y-119920910D01*
X161899329Y-119922525D01*
X161901221Y-119924270D01*
X161903241Y-119926150D01*
X161905620Y-119928170D01*
X161906158Y-119928590D01*
X161915522Y-119937535D01*
X161924935Y-119949251D01*
X161929911Y-119957000D01*
X161940013Y-119974911D01*
X161940013Y-120717372D01*
X161940013Y-121459834D01*
X161933101Y-121474779D01*
X161921402Y-121493301D01*
X161905268Y-121509466D01*
X161886765Y-121521209D01*
X161886574Y-121521298D01*
X161881787Y-121523335D01*
X161876706Y-121524945D01*
X161870500Y-121526191D01*
X161862338Y-121527133D01*
X161851388Y-121527836D01*
X161836820Y-121528359D01*
X161817802Y-121528767D01*
X161793504Y-121529120D01*
X161779635Y-121529289D01*
X161755917Y-121529618D01*
X161734466Y-121530009D01*
X161716103Y-121530439D01*
X161701647Y-121530886D01*
X161691920Y-121531328D01*
X161687741Y-121531742D01*
X161687641Y-121531810D01*
X161689401Y-121534651D01*
X161694542Y-121542608D01*
X161702853Y-121555362D01*
X161714125Y-121572593D01*
X161728149Y-121593984D01*
X161744715Y-121619215D01*
X161763614Y-121647968D01*
X161784635Y-121679925D01*
X161807571Y-121714765D01*
X161832210Y-121752171D01*
X161858344Y-121791824D01*
X161885763Y-121833405D01*
X161914258Y-121876595D01*
X161923731Y-121890950D01*
X161952534Y-121934606D01*
X161980330Y-121976765D01*
X162006909Y-122017108D01*
X162032060Y-122055315D01*
X162055576Y-122091067D01*
X162077245Y-122124044D01*
X162096859Y-122153927D01*
X162114207Y-122180397D01*
X162129081Y-122203133D01*
X162141270Y-122221817D01*
X162150565Y-122236130D01*
X162156756Y-122245751D01*
X162159634Y-122250361D01*
X162159821Y-122250727D01*
X162156633Y-122250994D01*
X162147345Y-122251236D01*
X162132370Y-122251452D01*
X162112119Y-122251641D01*
X162087005Y-122251801D01*
X162057441Y-122251931D01*
X162023839Y-122252029D01*
X161986611Y-122252095D01*
X161946171Y-122252126D01*
X161902931Y-122252121D01*
X161857303Y-122252079D01*
X161809699Y-122251999D01*
X161796063Y-122251970D01*
X161432304Y-122251141D01*
X161194441Y-121890533D01*
X160956577Y-121529924D01*
X160820622Y-121529885D01*
X160684667Y-121529847D01*
X160684667Y-121894564D01*
X160684667Y-122259282D01*
X160381821Y-122259282D01*
X160078975Y-122259282D01*
X160078975Y-121428898D01*
X160078975Y-120598513D01*
X160381821Y-120598513D01*
X160684667Y-120598513D01*
X160684667Y-120759705D01*
X160684667Y-120920898D01*
X161010333Y-120920898D01*
X161335998Y-120920898D01*
X161335160Y-120718186D01*
X161334321Y-120515475D01*
X160706648Y-120514652D01*
X160078975Y-120513830D01*
X160078975Y-120210992D01*
X160078975Y-119908154D01*
X160969012Y-119908154D01*
X161060270Y-119908150D01*
X161145245Y-119908141D01*
X161224165Y-119908132D01*
X161297259Y-119908128D01*
X161364757Y-119908134D01*
G37*
G36*
X154626883Y-118737660D02*
G01*
X154750384Y-118744456D01*
X154800334Y-118749029D01*
X154922663Y-118764742D01*
X155043247Y-118786651D01*
X155161895Y-118814629D01*
X155278417Y-118848548D01*
X155392624Y-118888279D01*
X155504324Y-118933694D01*
X155613328Y-118984666D01*
X155719446Y-119041067D01*
X155822487Y-119102768D01*
X155922262Y-119169642D01*
X156018580Y-119241561D01*
X156111250Y-119318396D01*
X156200084Y-119400020D01*
X156284890Y-119486305D01*
X156365478Y-119577123D01*
X156441659Y-119672346D01*
X156513242Y-119771845D01*
X156580036Y-119875493D01*
X156641853Y-119983163D01*
X156646174Y-119991193D01*
X156686377Y-120070400D01*
X156724398Y-120153588D01*
X156759778Y-120239487D01*
X156792055Y-120326825D01*
X156820770Y-120414335D01*
X156845461Y-120500744D01*
X156865667Y-120584785D01*
X156871232Y-120611579D01*
X156874807Y-120629529D01*
X157342846Y-120730183D01*
X157397057Y-120741845D01*
X157449598Y-120753156D01*
X157500111Y-120764037D01*
X157548235Y-120774411D01*
X157593611Y-120784200D01*
X157635878Y-120793326D01*
X157674678Y-120801712D01*
X157709650Y-120809279D01*
X157740435Y-120815950D01*
X157766673Y-120821647D01*
X157788004Y-120826292D01*
X157804068Y-120829808D01*
X157814505Y-120832116D01*
X157818957Y-120833139D01*
X157819026Y-120833158D01*
X157818257Y-120833747D01*
X157811752Y-120834161D01*
X157800288Y-120834393D01*
X157784640Y-120834431D01*
X157765584Y-120834267D01*
X157750641Y-120834026D01*
X157735483Y-120833777D01*
X157715224Y-120833505D01*
X157690327Y-120833214D01*
X157661260Y-120832906D01*
X157628485Y-120832585D01*
X157592470Y-120832254D01*
X157553678Y-120831916D01*
X157512574Y-120831573D01*
X157469625Y-120831231D01*
X157425294Y-120830890D01*
X157380048Y-120830555D01*
X157334350Y-120830229D01*
X157288666Y-120829914D01*
X157243461Y-120829615D01*
X157199201Y-120829333D01*
X157156350Y-120829073D01*
X157115373Y-120828837D01*
X157076735Y-120828629D01*
X157040901Y-120828452D01*
X157008338Y-120828308D01*
X156979508Y-120828201D01*
X156954878Y-120828134D01*
X156934913Y-120828111D01*
X156920078Y-120828134D01*
X156910837Y-120828207D01*
X156907658Y-120828328D01*
X156907486Y-120831799D01*
X156907927Y-120840408D01*
X156908893Y-120852820D01*
X156910145Y-120866198D01*
X156916729Y-120949359D01*
X156920322Y-121036341D01*
X156920932Y-121125181D01*
X156918564Y-121213917D01*
X156913224Y-121300586D01*
X156908601Y-121350744D01*
X156892688Y-121472049D01*
X156870594Y-121591626D01*
X156842467Y-121709283D01*
X156808454Y-121824828D01*
X156768704Y-121938069D01*
X156723363Y-122048814D01*
X156672581Y-122156870D01*
X156616504Y-122262046D01*
X156555280Y-122364150D01*
X156489058Y-122462990D01*
X156417985Y-122558374D01*
X156342210Y-122650110D01*
X156261879Y-122738006D01*
X156177140Y-122821869D01*
X156088143Y-122901508D01*
X155995033Y-122976731D01*
X155897960Y-123047346D01*
X155797070Y-123113161D01*
X155692513Y-123173984D01*
X155584435Y-123229622D01*
X155472984Y-123279884D01*
X155401141Y-123308689D01*
X155286234Y-123349121D01*
X155169045Y-123383555D01*
X155049972Y-123411929D01*
X154929419Y-123434179D01*
X154807784Y-123450243D01*
X154685468Y-123460056D01*
X154562872Y-123463557D01*
X154440397Y-123460682D01*
X154437244Y-123460523D01*
X154314165Y-123451016D01*
X154192478Y-123435223D01*
X154072383Y-123413257D01*
X153954083Y-123385236D01*
X153837779Y-123351274D01*
X153723672Y-123311488D01*
X153611964Y-123265994D01*
X153502858Y-123214907D01*
X153396554Y-123158342D01*
X153293254Y-123096417D01*
X153193159Y-123029246D01*
X153096472Y-122956945D01*
X153003394Y-122879630D01*
X152914127Y-122797418D01*
X152828872Y-122710423D01*
X152747830Y-122618761D01*
X152671204Y-122522549D01*
X152599196Y-122421901D01*
X152580933Y-122394532D01*
X152515806Y-122289598D01*
X152456542Y-122181904D01*
X152403194Y-122071639D01*
X152355815Y-121958990D01*
X152314460Y-121844143D01*
X152279183Y-121727287D01*
X152250037Y-121608608D01*
X152227076Y-121488293D01*
X152210354Y-121366530D01*
X152199925Y-121243506D01*
X152196516Y-121139899D01*
X152493076Y-121139899D01*
X152498379Y-121253771D01*
X152509841Y-121367115D01*
X152527442Y-121479484D01*
X152551158Y-121590430D01*
X152580967Y-121699507D01*
X152584370Y-121710577D01*
X152621506Y-121819296D01*
X152664449Y-121925315D01*
X152713014Y-122028426D01*
X152767013Y-122128423D01*
X152826262Y-122225100D01*
X152890573Y-122318250D01*
X152959762Y-122407667D01*
X153033642Y-122493144D01*
X153112027Y-122574475D01*
X153194732Y-122651453D01*
X153281569Y-122723871D01*
X153372354Y-122791524D01*
X153466899Y-122854204D01*
X153565020Y-122911706D01*
X153666530Y-122963822D01*
X153745257Y-122999456D01*
X153847067Y-123039925D01*
X153949689Y-123074605D01*
X154053769Y-123103652D01*
X154159952Y-123127224D01*
X154268883Y-123145475D01*
X154381207Y-123158563D01*
X154412821Y-123161282D01*
X154429212Y-123162205D01*
X154451071Y-123162863D01*
X154477382Y-123163269D01*
X154507130Y-123163437D01*
X154539301Y-123163380D01*
X154572879Y-123163110D01*
X154606850Y-123162643D01*
X154640199Y-123161990D01*
X154671910Y-123161166D01*
X154700970Y-123160184D01*
X154726362Y-123159058D01*
X154747072Y-123157799D01*
X154759629Y-123156703D01*
X154873342Y-123141796D01*
X154983301Y-123121834D01*
X155090041Y-123096662D01*
X155194096Y-123066126D01*
X155296002Y-123030073D01*
X155396293Y-122988346D01*
X155478529Y-122949377D01*
X155567575Y-122902466D01*
X155651649Y-122853153D01*
X155731719Y-122800740D01*
X155808753Y-122744525D01*
X155883719Y-122683810D01*
X155957585Y-122617894D01*
X156018421Y-122559062D01*
X156088834Y-122485727D01*
X156153457Y-122412161D01*
X156212971Y-122337417D01*
X156268059Y-122260548D01*
X156319405Y-122180607D01*
X156367689Y-122096645D01*
X156409182Y-122016680D01*
X156430790Y-121972213D01*
X156449644Y-121931505D01*
X156466466Y-121892807D01*
X156481979Y-121854369D01*
X156496904Y-121814442D01*
X156511964Y-121771278D01*
X156518123Y-121752911D01*
X156542939Y-121673594D01*
X156564025Y-121595950D01*
X156581722Y-121518350D01*
X156596374Y-121439169D01*
X156608322Y-121356779D01*
X156616348Y-121285616D01*
X156618043Y-121266608D01*
X156619401Y-121246511D01*
X156620450Y-121224408D01*
X156621221Y-121199379D01*
X156621741Y-121170505D01*
X156622040Y-121136870D01*
X156622143Y-121101629D01*
X156622103Y-121064143D01*
X156621875Y-121031987D01*
X156621400Y-121003980D01*
X156620622Y-120978938D01*
X156619483Y-120955682D01*
X156617926Y-120933028D01*
X156615893Y-120909796D01*
X156613326Y-120884804D01*
X156610262Y-120857682D01*
X156606505Y-120825401D01*
X156287131Y-120827630D01*
X156174078Y-120828568D01*
X156067202Y-120829768D01*
X155966170Y-120831244D01*
X155870653Y-120833008D01*
X155780318Y-120835074D01*
X155694834Y-120837453D01*
X155613869Y-120840159D01*
X155537093Y-120843206D01*
X155464173Y-120846604D01*
X155394779Y-120850369D01*
X155328578Y-120854511D01*
X155265240Y-120859046D01*
X155204433Y-120863984D01*
X155145826Y-120869339D01*
X155103180Y-120873630D01*
X155077059Y-120876328D01*
X155046606Y-120879416D01*
X155013973Y-120882679D01*
X154981313Y-120885902D01*
X154950777Y-120888870D01*
X154938731Y-120890025D01*
X154860985Y-120897941D01*
X154789221Y-120906337D01*
X154722916Y-120915332D01*
X154661548Y-120925046D01*
X154604596Y-120935602D01*
X154551538Y-120947118D01*
X154501852Y-120959716D01*
X154455017Y-120973516D01*
X154410510Y-120988638D01*
X154367811Y-121005203D01*
X154326396Y-121023331D01*
X154294276Y-121038821D01*
X154249728Y-121063161D01*
X154206630Y-121090583D01*
X154165680Y-121120464D01*
X154127577Y-121152180D01*
X154093019Y-121185108D01*
X154062705Y-121218623D01*
X154037334Y-121252102D01*
X154017602Y-121284922D01*
X154016681Y-121286722D01*
X154004338Y-121314658D01*
X153992713Y-121348002D01*
X153982102Y-121385664D01*
X153972803Y-121426552D01*
X153965111Y-121469576D01*
X153962949Y-121484257D01*
X153961037Y-121502919D01*
X153959656Y-121526708D01*
X153958797Y-121554260D01*
X153958452Y-121584210D01*
X153958611Y-121615195D01*
X153959267Y-121645851D01*
X153960409Y-121674813D01*
X153962029Y-121700719D01*
X153964119Y-121722204D01*
X153964508Y-121725231D01*
X153974155Y-121786155D01*
X153986665Y-121845747D01*
X154002328Y-121904860D01*
X154021436Y-121964345D01*
X154044280Y-122025057D01*
X154071149Y-122087848D01*
X154102335Y-122153569D01*
X154127161Y-122202295D01*
X154173351Y-122289307D01*
X154219742Y-122374017D01*
X154266015Y-122455891D01*
X154311852Y-122534393D01*
X154356932Y-122608988D01*
X154400937Y-122679140D01*
X154443547Y-122744315D01*
X154484444Y-122803977D01*
X154493051Y-122816129D01*
X154508137Y-122837295D01*
X154493510Y-122821013D01*
X154490415Y-122817489D01*
X154483184Y-122809208D01*
X154471956Y-122796329D01*
X154456869Y-122779009D01*
X154438059Y-122757408D01*
X154415665Y-122731682D01*
X154389824Y-122701992D01*
X154360675Y-122668494D01*
X154328354Y-122631348D01*
X154292999Y-122590711D01*
X154254749Y-122546742D01*
X154213740Y-122499599D01*
X154170112Y-122449441D01*
X154124000Y-122396426D01*
X154075543Y-122340712D01*
X154024879Y-122282458D01*
X153972146Y-122221821D01*
X153917480Y-122158960D01*
X153861021Y-122094034D01*
X153802905Y-122027200D01*
X153743270Y-121958618D01*
X153682254Y-121888445D01*
X153619995Y-121816839D01*
X153556630Y-121743960D01*
X153519112Y-121700808D01*
X153455285Y-121627399D01*
X153392532Y-121555233D01*
X153330987Y-121484467D01*
X153270788Y-121415255D01*
X153212068Y-121347753D01*
X153154964Y-121282118D01*
X153099611Y-121218503D01*
X153046144Y-121157065D01*
X152994699Y-121097958D01*
X152945410Y-121041339D01*
X152898414Y-120987363D01*
X152853846Y-120936186D01*
X152811842Y-120887962D01*
X152772536Y-120842848D01*
X152736064Y-120800998D01*
X152702561Y-120762568D01*
X152672163Y-120727714D01*
X152645006Y-120696591D01*
X152621224Y-120669354D01*
X152600953Y-120646160D01*
X152584329Y-120627163D01*
X152571486Y-120612518D01*
X152562561Y-120602383D01*
X152557688Y-120596910D01*
X152556762Y-120595928D01*
X152555311Y-120597101D01*
X152553372Y-120601873D01*
X152550824Y-120610732D01*
X152547545Y-120624170D01*
X152543414Y-120642676D01*
X152538309Y-120666739D01*
X152533904Y-120688064D01*
X152514347Y-120799581D01*
X152501038Y-120912357D01*
X152493955Y-121025945D01*
X152493076Y-121139899D01*
X152196516Y-121139899D01*
X152195842Y-121119408D01*
X152196216Y-121056039D01*
X152201410Y-120933882D01*
X152212354Y-120814497D01*
X152229113Y-120697478D01*
X152251750Y-120582420D01*
X152280331Y-120468917D01*
X152299956Y-120402677D01*
X152305732Y-120384151D01*
X152311061Y-120366943D01*
X152315535Y-120352378D01*
X152318745Y-120341783D01*
X152320010Y-120337478D01*
X152321266Y-120332486D01*
X152321385Y-120328224D01*
X152319766Y-120323616D01*
X152315808Y-120317582D01*
X152308910Y-120309044D01*
X152298471Y-120296924D01*
X152295506Y-120293517D01*
X152248224Y-120239186D01*
X152201163Y-120185095D01*
X152154517Y-120131467D01*
X152108478Y-120078523D01*
X152063238Y-120026487D01*
X152018992Y-119975580D01*
X151975931Y-119926024D01*
X151934249Y-119878042D01*
X151894138Y-119831855D01*
X151855791Y-119787687D01*
X151855250Y-119787064D01*
X152965287Y-119787064D01*
X152968510Y-119787818D01*
X152977882Y-119789895D01*
X152993182Y-119793247D01*
X153014191Y-119797827D01*
X153040690Y-119803588D01*
X153072460Y-119810483D01*
X153109281Y-119818465D01*
X153150934Y-119827485D01*
X153197200Y-119837498D01*
X153247859Y-119848455D01*
X153302693Y-119860310D01*
X153361481Y-119873015D01*
X153424005Y-119886523D01*
X153490046Y-119900787D01*
X153559384Y-119915759D01*
X153631799Y-119931392D01*
X153707073Y-119947639D01*
X153784986Y-119964453D01*
X153865319Y-119981786D01*
X153947852Y-119999592D01*
X154032367Y-120017822D01*
X154118644Y-120036430D01*
X154206463Y-120055369D01*
X154295606Y-120074590D01*
X154385854Y-120094047D01*
X154476986Y-120113693D01*
X154568783Y-120133481D01*
X154661027Y-120153362D01*
X154753498Y-120173290D01*
X154845977Y-120193218D01*
X154938244Y-120213099D01*
X155030080Y-120232884D01*
X155121266Y-120252527D01*
X155211583Y-120271981D01*
X155300811Y-120291198D01*
X155388731Y-120310131D01*
X155475124Y-120328733D01*
X155559770Y-120346956D01*
X155642450Y-120364754D01*
X155722945Y-120382078D01*
X155801036Y-120398883D01*
X155876502Y-120415120D01*
X155949126Y-120430742D01*
X156018688Y-120445703D01*
X156084967Y-120459954D01*
X156147746Y-120473448D01*
X156206805Y-120486139D01*
X156261924Y-120497979D01*
X156312885Y-120508920D01*
X156359467Y-120518916D01*
X156401453Y-120527919D01*
X156438621Y-120535883D01*
X156470754Y-120542758D01*
X156497631Y-120548500D01*
X156519034Y-120553059D01*
X156534743Y-120556390D01*
X156544539Y-120558444D01*
X156548203Y-120559174D01*
X156548212Y-120559175D01*
X156552000Y-120558573D01*
X156552283Y-120558105D01*
X156551331Y-120553631D01*
X156548703Y-120544061D01*
X156544735Y-120530496D01*
X156539766Y-120514033D01*
X156534132Y-120495771D01*
X156528172Y-120476808D01*
X156522224Y-120458244D01*
X156516624Y-120441177D01*
X156513373Y-120431526D01*
X156473282Y-120324104D01*
X156427447Y-120219558D01*
X156376060Y-120118084D01*
X156319315Y-120019877D01*
X156257402Y-119925133D01*
X156190514Y-119834049D01*
X156118844Y-119746821D01*
X156042583Y-119663643D01*
X155961924Y-119584713D01*
X155877059Y-119510226D01*
X155788180Y-119440378D01*
X155695479Y-119375365D01*
X155599149Y-119315382D01*
X155499382Y-119260627D01*
X155396370Y-119211294D01*
X155290304Y-119167580D01*
X155263606Y-119157651D01*
X155161755Y-119123745D01*
X155056536Y-119094866D01*
X154949032Y-119071285D01*
X154854065Y-119055227D01*
X154819382Y-119050419D01*
X154786923Y-119046496D01*
X154755316Y-119043358D01*
X154723190Y-119040906D01*
X154689173Y-119039042D01*
X154651892Y-119037666D01*
X154609977Y-119036679D01*
X154593250Y-119036396D01*
X154536038Y-119035929D01*
X154483860Y-119036452D01*
X154435299Y-119038063D01*
X154388938Y-119040858D01*
X154343359Y-119044933D01*
X154297145Y-119050386D01*
X154248880Y-119057311D01*
X154221122Y-119061755D01*
X154107858Y-119083736D01*
X153996440Y-119111897D01*
X153887100Y-119146108D01*
X153780073Y-119186239D01*
X153675590Y-119232161D01*
X153573884Y-119283743D01*
X153475188Y-119340855D01*
X153379736Y-119403368D01*
X153287760Y-119471152D01*
X153199492Y-119544076D01*
X153115166Y-119622012D01*
X153035015Y-119704828D01*
X153001942Y-119741850D01*
X152989777Y-119755970D01*
X152979383Y-119768359D01*
X152971413Y-119778213D01*
X152966519Y-119784725D01*
X152965287Y-119787064D01*
X151855250Y-119787064D01*
X151819401Y-119745759D01*
X151785160Y-119706293D01*
X151753263Y-119669512D01*
X151723900Y-119635638D01*
X151697266Y-119604893D01*
X151673553Y-119577499D01*
X151652953Y-119553678D01*
X151635660Y-119533653D01*
X151621867Y-119517646D01*
X151611766Y-119505879D01*
X151605550Y-119498574D01*
X151603412Y-119495954D01*
X151603412Y-119495950D01*
X151606624Y-119496547D01*
X151615863Y-119498444D01*
X151630791Y-119501569D01*
X151651067Y-119505849D01*
X151676354Y-119511213D01*
X151706311Y-119517588D01*
X151740600Y-119524901D01*
X151778882Y-119533080D01*
X151820817Y-119542053D01*
X151866067Y-119551746D01*
X151914292Y-119562088D01*
X151965153Y-119573007D01*
X152018311Y-119584429D01*
X152073427Y-119596283D01*
X152108911Y-119603919D01*
X152165321Y-119616063D01*
X152220130Y-119627862D01*
X152272985Y-119639240D01*
X152323536Y-119650121D01*
X152371432Y-119660431D01*
X152416324Y-119670094D01*
X152457859Y-119679034D01*
X152495688Y-119687177D01*
X152529460Y-119694445D01*
X152558824Y-119700764D01*
X152583429Y-119706059D01*
X152602925Y-119710254D01*
X152616962Y-119713274D01*
X152625187Y-119715042D01*
X152627168Y-119715467D01*
X152640682Y-119718354D01*
X152661360Y-119690341D01*
X152725512Y-119607842D01*
X152795208Y-119526455D01*
X152869479Y-119447204D01*
X152947357Y-119371110D01*
X153027873Y-119299198D01*
X153046757Y-119283279D01*
X153143650Y-119206699D01*
X153243891Y-119135633D01*
X153347258Y-119070150D01*
X153453528Y-119010316D01*
X153562478Y-118956201D01*
X153673886Y-118907871D01*
X153787528Y-118865394D01*
X153903182Y-118828839D01*
X154020626Y-118798274D01*
X154139635Y-118773765D01*
X154259989Y-118755382D01*
X154381463Y-118743191D01*
X154503836Y-118737262D01*
X154626883Y-118737660D01*
G37*
D11*
%TO.C,C1*%
X172890000Y-91236267D02*
X172890000Y-90943733D01*
X173910000Y-91236267D02*
X173910000Y-90943733D01*
D14*
%TO.C,U3*%
X151527900Y-84279000D02*
X151527900Y-90121000D01*
X151527900Y-90121000D02*
X152126360Y-90121000D01*
X152126360Y-84279000D02*
X151527900Y-84279000D01*
X161673638Y-90121000D02*
X162272100Y-90121000D01*
X162272100Y-84279000D02*
X161673640Y-84279000D01*
X162272100Y-90121000D02*
X162272100Y-84279000D01*
D16*
G36*
X158065499Y-82640700D02*
G01*
X157684499Y-82640700D01*
X157684499Y-82386700D01*
X158065499Y-82386700D01*
X158065499Y-82640700D01*
G37*
G36*
X158715498Y-92013300D02*
G01*
X158334498Y-92013300D01*
X158334498Y-91759300D01*
X158715498Y-91759300D01*
X158715498Y-92013300D01*
G37*
D11*
%TO.C,R10*%
X167790000Y-74941233D02*
X167790000Y-75233767D01*
X168810000Y-74941233D02*
X168810000Y-75233767D01*
%TO.C,U1*%
X158072500Y-94380000D02*
X158072500Y-95380000D01*
X158072500Y-112620000D02*
X158072500Y-111620000D01*
X158852500Y-94380000D02*
X158072500Y-94380000D01*
X158852500Y-112620000D02*
X158072500Y-112620000D01*
X183812500Y-94380000D02*
X177652500Y-94380000D01*
X183812500Y-94380000D02*
X183812500Y-112620000D01*
X183812500Y-112620000D02*
X177397500Y-112620000D01*
X177427500Y-94375000D02*
X176927500Y-94375000D01*
X176927500Y-93875000D01*
X177427500Y-94375000D01*
G36*
X177427500Y-94375000D02*
G01*
X176927500Y-94375000D01*
X176927500Y-93875000D01*
X177427500Y-94375000D01*
G37*
%TO.C,C7*%
X140140000Y-73390000D02*
X142490000Y-73390000D01*
X140140000Y-79145563D02*
X140140000Y-73390000D01*
X141204437Y-80210000D02*
X140140000Y-79145563D01*
X141204437Y-80210000D02*
X142490000Y-80210000D01*
X145895563Y-80210000D02*
X144610000Y-80210000D01*
X145895563Y-80210000D02*
X146960000Y-79145563D01*
X146960000Y-73390000D02*
X144610000Y-73390000D01*
X146960000Y-79145563D02*
X146960000Y-73390000D01*
D15*
%TO.C,ILG-2P2*%
X122025000Y-113500000D02*
X122025000Y-119000000D01*
X122025000Y-113500000D02*
X123175000Y-113500000D01*
X122025000Y-119000000D02*
X123175000Y-119000000D01*
X123175000Y-113500000D02*
X123175000Y-119000000D01*
X123175000Y-113500000D02*
X128175000Y-113500000D01*
X123175000Y-119000000D02*
X128175000Y-119000000D01*
X128175000Y-113500000D02*
X132875000Y-113500000D01*
X128175000Y-119000000D02*
X128175000Y-113500000D01*
X132875000Y-113500000D02*
X132875000Y-119000000D01*
X132875000Y-119000000D02*
X128175000Y-119000000D01*
D11*
%TO.C,D4*%
X135915000Y-94000000D02*
X135915000Y-97885000D01*
X135915000Y-97885000D02*
X138185000Y-97885000D01*
X138185000Y-97885000D02*
X138185000Y-94000000D01*
%TO.C,C5*%
X147890000Y-124246267D02*
X147890000Y-123953733D01*
X148910000Y-124246267D02*
X148910000Y-123953733D01*
%TO.C,C6*%
X137340000Y-77371267D02*
X137340000Y-77078733D01*
X138360000Y-77371267D02*
X138360000Y-77078733D01*
%TO.C,U2*%
X143200000Y-121440000D02*
X141250000Y-121440000D01*
X143200000Y-121440000D02*
X145150000Y-121440000D01*
X143200000Y-126560000D02*
X141250000Y-126560000D01*
X143200000Y-126560000D02*
X145150000Y-126560000D01*
X146140000Y-126795000D02*
X145660000Y-126795000D01*
X145900000Y-126465000D01*
X146140000Y-126795000D01*
G36*
X146140000Y-126795000D02*
G01*
X145660000Y-126795000D01*
X145900000Y-126465000D01*
X146140000Y-126795000D01*
G37*
%TD*%
%LPC*%
D17*
%TO.C,R8*%
X173535000Y-115630000D03*
X171810000Y-115630000D03*
%TD*%
D18*
%TO.C,C4*%
X138300000Y-120487500D03*
X138300000Y-122212500D03*
%TD*%
D19*
%TO.C,R2*%
X157537500Y-114400000D03*
X159262500Y-114400000D03*
%TD*%
%TO.C,C11*%
X134187500Y-100200000D03*
X135912500Y-100200000D03*
%TD*%
D20*
%TO.C,D3*%
X137150000Y-83700000D03*
X137150000Y-80900000D03*
%TD*%
D18*
%TO.C,C9*%
X139900000Y-91387500D03*
X139900000Y-93112500D03*
%TD*%
D21*
%TO.C,D5*%
X165400000Y-74425000D03*
X165400000Y-76000000D03*
%TD*%
D19*
%TO.C,C8*%
X134062500Y-86850000D03*
X135787500Y-86850000D03*
%TD*%
D22*
%TO.C,LPS25HB-1*%
X143000000Y-101700000D03*
X145540000Y-101700000D03*
X148080000Y-101700000D03*
X150620000Y-101700000D03*
X150620000Y-94080000D03*
X148080000Y-94080000D03*
X145540000Y-94080000D03*
X143000000Y-94080000D03*
%TD*%
%TO.C,ICM-20602-1*%
X141675000Y-116050000D03*
X144215000Y-116050000D03*
X146755000Y-116050000D03*
X149295000Y-116050000D03*
X151835000Y-116050000D03*
X151835000Y-108430000D03*
X149295000Y-108430000D03*
X146755000Y-108430000D03*
X144215000Y-108430000D03*
X141675000Y-108430000D03*
%TD*%
D23*
%TO.C,NJM2391DL1-33-1*%
X127750000Y-82200000D03*
D24*
X134000000Y-84500000D03*
X134000000Y-79900000D03*
%TD*%
D23*
%TO.C,NJM2391DL1-05-1*%
X127750000Y-95600000D03*
D24*
X134000000Y-97900000D03*
X134000000Y-93300000D03*
%TD*%
D25*
%TO.C,ILG-2P4*%
X130475000Y-103450000D03*
X130475000Y-100950000D03*
%TD*%
D26*
%TO.C,R1*%
X171230000Y-89937500D03*
X171230000Y-91762500D03*
%TD*%
D27*
%TO.C,C10*%
X143700000Y-89475000D03*
X143700000Y-84400000D03*
%TD*%
D28*
%TO.C,C3*%
X165700000Y-86637500D03*
X165700000Y-84912500D03*
%TD*%
D25*
%TO.C,ILG-2P3*%
X130575000Y-90200000D03*
X130575000Y-87700000D03*
%TD*%
%TO.C,ILG-2P1*%
X130475000Y-111050000D03*
X130475000Y-108550000D03*
%TD*%
D29*
%TO.C,D2*%
X173287500Y-118500000D03*
X171712500Y-118500000D03*
%TD*%
D25*
%TO.C,ILG-3P1*%
X169475000Y-82100000D03*
X169475000Y-84600000D03*
X169475000Y-87100000D03*
%TD*%
D28*
%TO.C,R9*%
X136100000Y-124862500D03*
X136100000Y-123137500D03*
%TD*%
%TO.C,C1*%
X173400000Y-91952500D03*
X173400000Y-90227500D03*
%TD*%
D30*
%TO.C,U3*%
X152675000Y-90749650D03*
X153325001Y-90749650D03*
X153975000Y-90749650D03*
X154625001Y-90749650D03*
X155274999Y-90749650D03*
X155925001Y-90749650D03*
X156574999Y-90749650D03*
X157224998Y-90749650D03*
X157874999Y-90749650D03*
X158524998Y-90749650D03*
X159174999Y-90749650D03*
X159824998Y-90749650D03*
X160474999Y-90749650D03*
X161124998Y-90749650D03*
X161125000Y-83650350D03*
X160474999Y-83650350D03*
X159825000Y-83650350D03*
X159174999Y-83650350D03*
X158525001Y-83650350D03*
X157874999Y-83650350D03*
X157225001Y-83650350D03*
X156574999Y-83650350D03*
X155925001Y-83650350D03*
X155274999Y-83650350D03*
X154625001Y-83650350D03*
X153975000Y-83650350D03*
X153325001Y-83650350D03*
X152675000Y-83650350D03*
%TD*%
D18*
%TO.C,R10*%
X168300000Y-74225000D03*
X168300000Y-75950000D03*
%TD*%
D31*
%TO.C,U1*%
X176202500Y-94750000D03*
X174932500Y-94750000D03*
X173662500Y-94750000D03*
X172392500Y-94750000D03*
X171122500Y-94750000D03*
X169852500Y-94750000D03*
X168582500Y-94750000D03*
X167312500Y-94750000D03*
X166042500Y-94750000D03*
X164772500Y-94750000D03*
X163502500Y-94750000D03*
X162232500Y-94750000D03*
X160962500Y-94750000D03*
X159692500Y-94750000D03*
D32*
X158442500Y-97790000D03*
X158442500Y-99060000D03*
X158442500Y-100330000D03*
X158442500Y-101600000D03*
X158442500Y-102870000D03*
X158442500Y-104140000D03*
X158442500Y-105410000D03*
X158442500Y-106680000D03*
X158442500Y-107950000D03*
X158442500Y-109220000D03*
D31*
X159692500Y-112250000D03*
X160962500Y-112250000D03*
X162232500Y-112250000D03*
X163502500Y-112250000D03*
X164772500Y-112250000D03*
X166042500Y-112250000D03*
X167312500Y-112250000D03*
X168582500Y-112250000D03*
X169852500Y-112250000D03*
X171122500Y-112250000D03*
X172392500Y-112250000D03*
X173662500Y-112250000D03*
X174932500Y-112250000D03*
X176202500Y-112250000D03*
D33*
X169182500Y-100600000D03*
X167782500Y-100600000D03*
X169882500Y-101300000D03*
X168482500Y-101300000D03*
X167082500Y-101300000D03*
X169182500Y-101975000D03*
X167782500Y-101975000D03*
D34*
X168482500Y-102000000D03*
D33*
X169882500Y-102700000D03*
X168482500Y-102700000D03*
X167082500Y-102700000D03*
X169182500Y-103400000D03*
X167782500Y-103400000D03*
%TD*%
D27*
%TO.C,C7*%
X143550000Y-79337500D03*
X143550000Y-74262500D03*
%TD*%
D25*
%TO.C,ILG-2P2*%
X130525000Y-117500000D03*
X130525000Y-115000000D03*
%TD*%
D20*
%TO.C,D4*%
X137050000Y-97000000D03*
X137050000Y-94200000D03*
%TD*%
D28*
%TO.C,C5*%
X148400000Y-124962500D03*
X148400000Y-123237500D03*
%TD*%
%TO.C,C6*%
X137850000Y-78087500D03*
X137850000Y-76362500D03*
%TD*%
D35*
%TO.C,U2*%
X145675000Y-125905000D03*
X145675000Y-124635000D03*
X145675000Y-123365000D03*
X145675000Y-122095000D03*
X140725000Y-122095000D03*
X140725000Y-123365000D03*
X140725000Y-124635000D03*
X140725000Y-125905000D03*
%TD*%
D36*
%TO.C,J2*%
X153359999Y-79187800D03*
X159140001Y-79187800D03*
%TD*%
%LPD*%
M02*
