%TF.GenerationSoftware,KiCad,Pcbnew,8.0.1*%
%TF.CreationDate,2024-07-17T12:18:50+09:00*%
%TF.ProjectId,Avi_73J_ParaBoard_v2,4176695f-3733-44a5-9f50-617261426f61,rev?*%
%TF.SameCoordinates,Original*%
%TF.FileFunction,Soldermask,Top*%
%TF.FilePolarity,Negative*%
%FSLAX46Y46*%
G04 Gerber Fmt 4.6, Leading zero omitted, Abs format (unit mm)*
G04 Created by KiCad (PCBNEW 8.0.1) date 2024-07-17 12:18:50*
%MOMM*%
%LPD*%
G01*
G04 APERTURE LIST*
G04 Aperture macros list*
%AMRoundRect*
0 Rectangle with rounded corners*
0 $1 Rounding radius*
0 $2 $3 $4 $5 $6 $7 $8 $9 X,Y pos of 4 corners*
0 Add a 4 corners polygon primitive as box body*
4,1,4,$2,$3,$4,$5,$6,$7,$8,$9,$2,$3,0*
0 Add four circle primitives for the rounded corners*
1,1,$1+$1,$2,$3*
1,1,$1+$1,$4,$5*
1,1,$1+$1,$6,$7*
1,1,$1+$1,$8,$9*
0 Add four rect primitives between the rounded corners*
20,1,$1+$1,$2,$3,$4,$5,0*
20,1,$1+$1,$4,$5,$6,$7,0*
20,1,$1+$1,$6,$7,$8,$9,0*
20,1,$1+$1,$8,$9,$2,$3,0*%
G04 Aperture macros list end*
%ADD10RoundRect,0.237500X0.300000X0.237500X-0.300000X0.237500X-0.300000X-0.237500X0.300000X-0.237500X0*%
%ADD11RoundRect,0.237500X-0.237500X0.300000X-0.237500X-0.300000X0.237500X-0.300000X0.237500X0.300000X0*%
%ADD12RoundRect,0.237500X-0.300000X-0.237500X0.300000X-0.237500X0.300000X0.237500X-0.300000X0.237500X0*%
%ADD13RoundRect,0.250000X0.625000X-0.375000X0.625000X0.375000X-0.625000X0.375000X-0.625000X-0.375000X0*%
%ADD14RoundRect,0.218750X-0.256250X0.218750X-0.256250X-0.218750X0.256250X-0.218750X0.256250X0.218750X0*%
%ADD15O,1.511200X2.819200*%
%ADD16RoundRect,0.101600X3.000000X-3.000000X3.000000X3.000000X-3.000000X3.000000X-3.000000X-3.000000X0*%
%ADD17RoundRect,0.101600X1.250000X-1.000000X1.250000X1.000000X-1.250000X1.000000X-1.250000X-1.000000X0*%
%ADD18O,3.251200X1.727200*%
%ADD19RoundRect,0.237500X-0.237500X0.250000X-0.237500X-0.250000X0.237500X-0.250000X0.237500X0.250000X0*%
%ADD20RoundRect,0.250000X0.550000X-1.412500X0.550000X1.412500X-0.550000X1.412500X-0.550000X-1.412500X0*%
%ADD21RoundRect,0.237500X0.237500X-0.300000X0.237500X0.300000X-0.237500X0.300000X-0.237500X-0.300000X0*%
%ADD22RoundRect,0.218750X0.218750X0.256250X-0.218750X0.256250X-0.218750X-0.256250X0.218750X-0.256250X0*%
%ADD23R,0.431800X1.511300*%
%ADD24R,0.900000X1.500000*%
%ADD25R,1.500000X0.900000*%
%ADD26C,0.600000*%
%ADD27R,3.800000X3.800000*%
%ADD28RoundRect,0.150000X0.825000X0.150000X-0.825000X0.150000X-0.825000X-0.150000X0.825000X-0.150000X0*%
%ADD29C,0.660400*%
G04 APERTURE END LIST*
D10*
%TO.C,R8*%
X173535000Y-115630000D03*
X171810000Y-115630000D03*
%TD*%
D11*
%TO.C,C4*%
X138300000Y-120487500D03*
X138300000Y-122212500D03*
%TD*%
D12*
%TO.C,R2*%
X157537500Y-114400000D03*
X159262500Y-114400000D03*
%TD*%
%TO.C,C11*%
X134187500Y-100200000D03*
X135912500Y-100200000D03*
%TD*%
D13*
%TO.C,D3*%
X137150000Y-83700000D03*
X137150000Y-80900000D03*
%TD*%
D11*
%TO.C,C9*%
X139900000Y-91387500D03*
X139900000Y-93112500D03*
%TD*%
D14*
%TO.C,D5*%
X165400000Y-74425000D03*
X165400000Y-76000000D03*
%TD*%
D12*
%TO.C,C8*%
X134062500Y-86850000D03*
X135787500Y-86850000D03*
%TD*%
D15*
%TO.C,LPS25HB-1*%
X143000000Y-101700000D03*
X145540000Y-101700000D03*
X148080000Y-101700000D03*
X150620000Y-101700000D03*
X150620000Y-94080000D03*
X148080000Y-94080000D03*
X145540000Y-94080000D03*
X143000000Y-94080000D03*
%TD*%
%TO.C,ICM-20602-1*%
X141675000Y-116050000D03*
X144215000Y-116050000D03*
X146755000Y-116050000D03*
X149295000Y-116050000D03*
X151835000Y-116050000D03*
X151835000Y-108430000D03*
X149295000Y-108430000D03*
X146755000Y-108430000D03*
X144215000Y-108430000D03*
X141675000Y-108430000D03*
%TD*%
D16*
%TO.C,NJM2391DL1-33-1*%
X127750000Y-82200000D03*
D17*
X134000000Y-84500000D03*
X134000000Y-79900000D03*
%TD*%
D16*
%TO.C,NJM2391DL1-05-1*%
X127750000Y-95600000D03*
D17*
X134000000Y-97900000D03*
X134000000Y-93300000D03*
%TD*%
D18*
%TO.C,ILG-2P4*%
X130475000Y-103450000D03*
X130475000Y-100950000D03*
%TD*%
D19*
%TO.C,R1*%
X171230000Y-89937500D03*
X171230000Y-91762500D03*
%TD*%
D20*
%TO.C,C10*%
X143700000Y-89475000D03*
X143700000Y-84400000D03*
%TD*%
D21*
%TO.C,C3*%
X165700000Y-86637500D03*
X165700000Y-84912500D03*
%TD*%
D18*
%TO.C,ILG-2P3*%
X130575000Y-90200000D03*
X130575000Y-87700000D03*
%TD*%
%TO.C,ILG-2P1*%
X130475000Y-111050000D03*
X130475000Y-108550000D03*
%TD*%
D22*
%TO.C,D2*%
X173287500Y-118500000D03*
X171712500Y-118500000D03*
%TD*%
D18*
%TO.C,ILG-3P1*%
X169475000Y-82100000D03*
X169475000Y-84600000D03*
X169475000Y-87100000D03*
%TD*%
D21*
%TO.C,R9*%
X136100000Y-124862500D03*
X136100000Y-123137500D03*
%TD*%
%TO.C,C1*%
X173400000Y-91952500D03*
X173400000Y-90227500D03*
%TD*%
D23*
%TO.C,U3*%
X152675000Y-90749650D03*
X153325001Y-90749650D03*
X153975000Y-90749650D03*
X154625001Y-90749650D03*
X155274999Y-90749650D03*
X155925001Y-90749650D03*
X156574999Y-90749650D03*
X157224998Y-90749650D03*
X157874999Y-90749650D03*
X158524998Y-90749650D03*
X159174999Y-90749650D03*
X159824998Y-90749650D03*
X160474999Y-90749650D03*
X161124998Y-90749650D03*
X161125000Y-83650350D03*
X160474999Y-83650350D03*
X159825000Y-83650350D03*
X159174999Y-83650350D03*
X158525001Y-83650350D03*
X157874999Y-83650350D03*
X157225001Y-83650350D03*
X156574999Y-83650350D03*
X155925001Y-83650350D03*
X155274999Y-83650350D03*
X154625001Y-83650350D03*
X153975000Y-83650350D03*
X153325001Y-83650350D03*
X152675000Y-83650350D03*
%TD*%
D11*
%TO.C,R10*%
X168300000Y-74225000D03*
X168300000Y-75950000D03*
%TD*%
D24*
%TO.C,U1*%
X176202500Y-94750000D03*
X174932500Y-94750000D03*
X173662500Y-94750000D03*
X172392500Y-94750000D03*
X171122500Y-94750000D03*
X169852500Y-94750000D03*
X168582500Y-94750000D03*
X167312500Y-94750000D03*
X166042500Y-94750000D03*
X164772500Y-94750000D03*
X163502500Y-94750000D03*
X162232500Y-94750000D03*
X160962500Y-94750000D03*
X159692500Y-94750000D03*
D25*
X158442500Y-97790000D03*
X158442500Y-99060000D03*
X158442500Y-100330000D03*
X158442500Y-101600000D03*
X158442500Y-102870000D03*
X158442500Y-104140000D03*
X158442500Y-105410000D03*
X158442500Y-106680000D03*
X158442500Y-107950000D03*
X158442500Y-109220000D03*
D24*
X159692500Y-112250000D03*
X160962500Y-112250000D03*
X162232500Y-112250000D03*
X163502500Y-112250000D03*
X164772500Y-112250000D03*
X166042500Y-112250000D03*
X167312500Y-112250000D03*
X168582500Y-112250000D03*
X169852500Y-112250000D03*
X171122500Y-112250000D03*
X172392500Y-112250000D03*
X173662500Y-112250000D03*
X174932500Y-112250000D03*
X176202500Y-112250000D03*
D26*
X169182500Y-100600000D03*
X167782500Y-100600000D03*
X169882500Y-101300000D03*
X168482500Y-101300000D03*
X167082500Y-101300000D03*
X169182500Y-101975000D03*
X167782500Y-101975000D03*
D27*
X168482500Y-102000000D03*
D26*
X169882500Y-102700000D03*
X168482500Y-102700000D03*
X167082500Y-102700000D03*
X169182500Y-103400000D03*
X167782500Y-103400000D03*
%TD*%
D20*
%TO.C,C7*%
X143550000Y-79337500D03*
X143550000Y-74262500D03*
%TD*%
D18*
%TO.C,ILG-2P2*%
X130525000Y-117500000D03*
X130525000Y-115000000D03*
%TD*%
D13*
%TO.C,D4*%
X137050000Y-97000000D03*
X137050000Y-94200000D03*
%TD*%
D21*
%TO.C,C5*%
X148400000Y-124962500D03*
X148400000Y-123237500D03*
%TD*%
%TO.C,C6*%
X137850000Y-78087500D03*
X137850000Y-76362500D03*
%TD*%
D28*
%TO.C,U2*%
X145675000Y-125905000D03*
X145675000Y-124635000D03*
X145675000Y-123365000D03*
X145675000Y-122095000D03*
X140725000Y-122095000D03*
X140725000Y-123365000D03*
X140725000Y-124635000D03*
X140725000Y-125905000D03*
%TD*%
D29*
%TO.C,J2*%
X153359999Y-79187800D03*
X159140001Y-79187800D03*
%TD*%
M02*
