%TF.GenerationSoftware,KiCad,Pcbnew,8.0.1*%
%TF.CreationDate,2024-07-17T12:18:51+09:00*%
%TF.ProjectId,Avi_73J_ParaBoard_v2,4176695f-3733-44a5-9f50-617261426f61,rev?*%
%TF.SameCoordinates,Original*%
%TF.FileFunction,Paste,Bot*%
%TF.FilePolarity,Positive*%
%FSLAX46Y46*%
G04 Gerber Fmt 4.6, Leading zero omitted, Abs format (unit mm)*
G04 Created by KiCad (PCBNEW 8.0.1) date 2024-07-17 12:18:51*
%MOMM*%
%LPD*%
G01*
G04 APERTURE LIST*
G04 Aperture macros list*
%AMRoundRect*
0 Rectangle with rounded corners*
0 $1 Rounding radius*
0 $2 $3 $4 $5 $6 $7 $8 $9 X,Y pos of 4 corners*
0 Add a 4 corners polygon primitive as box body*
4,1,4,$2,$3,$4,$5,$6,$7,$8,$9,$2,$3,0*
0 Add four circle primitives for the rounded corners*
1,1,$1+$1,$2,$3*
1,1,$1+$1,$4,$5*
1,1,$1+$1,$6,$7*
1,1,$1+$1,$8,$9*
0 Add four rect primitives between the rounded corners*
20,1,$1+$1,$2,$3,$4,$5,0*
20,1,$1+$1,$4,$5,$6,$7,0*
20,1,$1+$1,$6,$7,$8,$9,0*
20,1,$1+$1,$8,$9,$2,$3,0*%
G04 Aperture macros list end*
%ADD10RoundRect,0.237500X0.237500X-0.300000X0.237500X0.300000X-0.237500X0.300000X-0.237500X-0.300000X0*%
%ADD11R,2.159000X2.006600*%
%ADD12R,0.609600X1.143000*%
%ADD13R,0.304800X1.143000*%
%ADD14RoundRect,0.237500X-0.237500X0.300000X-0.237500X-0.300000X0.237500X-0.300000X0.237500X0.300000X0*%
%ADD15RoundRect,0.237500X0.300000X0.237500X-0.300000X0.237500X-0.300000X-0.237500X0.300000X-0.237500X0*%
%ADD16R,0.700000X1.200000*%
%ADD17R,1.000000X0.800000*%
%ADD18R,1.000000X2.800000*%
%ADD19R,1.000000X1.200000*%
%ADD20R,1.300000X1.900000*%
%ADD21RoundRect,0.237500X-0.300000X-0.237500X0.300000X-0.237500X0.300000X0.237500X-0.300000X0.237500X0*%
%ADD22RoundRect,0.218750X0.218750X0.256250X-0.218750X0.256250X-0.218750X-0.256250X0.218750X-0.256250X0*%
G04 APERTURE END LIST*
D10*
%TO.C,C2*%
X162400000Y-104537500D03*
X162400000Y-102812500D03*
%TD*%
D11*
%TO.C,J2*%
X151140000Y-79687800D03*
X161360000Y-79687800D03*
X151140000Y-75757800D03*
X161360000Y-75757800D03*
D12*
X153049999Y-80262800D03*
X153850000Y-80262800D03*
D13*
X155000000Y-80262800D03*
X156000000Y-80262800D03*
X156500000Y-80262800D03*
X157500000Y-80262800D03*
D12*
X158650000Y-80262800D03*
X159449999Y-80262800D03*
D13*
X157999999Y-80262800D03*
X157000001Y-80262800D03*
X155499999Y-80262800D03*
X154500001Y-80262800D03*
%TD*%
D14*
%TO.C,R5*%
X164500000Y-104525000D03*
X164500000Y-106250000D03*
%TD*%
D15*
%TO.C,R12*%
X159862500Y-84200000D03*
X158137500Y-84200000D03*
%TD*%
D16*
%TO.C,J1*%
X159450000Y-109600000D03*
X160550000Y-109600000D03*
X161650000Y-109600000D03*
X162750000Y-109600000D03*
X163850000Y-109600000D03*
X164950000Y-109600000D03*
X166050000Y-109600000D03*
X167150000Y-109600000D03*
X168100000Y-109600000D03*
D17*
X169050000Y-120100000D03*
D18*
X169050000Y-124250000D03*
D19*
X169050000Y-113900000D03*
X157900000Y-109600000D03*
D20*
X155550000Y-124700000D03*
%TD*%
D14*
%TO.C,R3*%
X160500000Y-104437500D03*
X160500000Y-106162500D03*
%TD*%
%TO.C,R4*%
X167100000Y-104837500D03*
X167100000Y-106562500D03*
%TD*%
D21*
%TO.C,R7*%
X171862500Y-117100000D03*
X173587500Y-117100000D03*
%TD*%
D22*
%TO.C,D1*%
X173500000Y-120100000D03*
X171925000Y-120100000D03*
%TD*%
D15*
%TO.C,R11*%
X154862500Y-84300000D03*
X153137500Y-84300000D03*
%TD*%
M02*
